<svg xmlns="http://www.w3.org/2000/svg" viewBox="0 0 488.43 371.62"><defs><style>.cls-1,.cls-15,.cls-20{fill:#fff;}.cls-1,.cls-18{stroke:#c7add3;}.cls-1,.cls-13,.cls-17,.cls-18,.cls-19,.cls-20{stroke-miterlimit:10;}.cls-1,.cls-13,.cls-20{stroke-width:3.74px;}.cls-2{font-size:22.44px;font-family:Roboto-Regular, Roboto;}.cls-3{letter-spacing:-0.03em;}.cls-4{letter-spacing:0em;}.cls-5{letter-spacing:-0.01em;}.cls-6{letter-spacing:-0.01em;}.cls-7{letter-spacing:0em;}.cls-8{letter-spacing:-0.08em;}.cls-9{letter-spacing:0.01em;}.cls-10{letter-spacing:-0.08em;}.cls-11{fill:#c7add3;}.cls-12{fill:#87cbf0;}.cls-13,.cls-17,.cls-18,.cls-19{fill:none;}.cls-13{stroke:#fff;}.cls-13,.cls-17,.cls-18{stroke-linecap:round;}.cls-14{fill:#0082a5;}.cls-16{fill:#a66ace;}.cls-17{stroke:#a66ace;stroke-width:5.61px;}.cls-18{stroke-width:14.96px;}.cls-19,.cls-20{stroke:#87cbf0;}.cls-19{stroke-width:11.22px;}.cls-21{letter-spacing:-0.01em;}.cls-22{letter-spacing:-0.01em;}.cls-23{letter-spacing:-0.01em;}</style></defs><title>characters1</title><g id="Layer_2" data-name="Layer 2"><g id="Layer_12" data-name="Layer 12"><path class="cls-1" d="M1.87,126.66v-69A18.81,18.81,0,0,1,20.62,38.87H262a18.81,18.81,0,0,1,18.75,18.75v95.18A18.81,18.81,0,0,1,262,171.56H46.64A19.66,19.66,0,0,0,50,188.42a19.7,19.7,0,0,1-22-16.86H20.62A18.81,18.81,0,0,1,1.87,152.81V126.66Z"/><text class="cls-2" transform="translate(14.39 84.85)"><tspan class="cls-3">Y</tspan><tspan class="cls-4" x="12.98" y="0">ou can </tspan><tspan class="cls-5" x="86.63" y="0">r</tspan><tspan class="cls-6" x="94.12" y="0">e</tspan><tspan class="cls-7" x="105.84" y="0">view a docto</tspan><tspan class="cls-8" x="233.03" y="0">r</tspan><tspan x="238.83" y="0">, </tspan><tspan x="0" y="26.92">business, or se</tspan><tspan class="cls-9" x="150.59" y="26.92">r</tspan><tspan x="158.48" y="26.92">vice! </tspan><tspan x="0" y="53.85">Anything, </tspan><tspan class="cls-5" x="100.23" y="53.85">r</tspan><tspan x="107.71" y="53.85">eall</tspan><tspan class="cls-10" x="143.22" y="53.85">y</tspan><tspan x="152.69" y="53.85">.</tspan></text><path class="cls-11" d="M269.93,229c-2-36.64-29.27-66.16-65-69.67-18.82-1.85-32.4,2.11-42.36,9.77-10-7.66-23.54-11.63-42.36-9.77-35.7,3.51-63,33-65,69.67-2.29,42.06,36.12,61.15,75.69,74.62,22.86,7.78,31,19,31.65,20h0c.65-.95,8.79-12.21,31.65-20C233.81,290.16,272.22,271.07,269.93,229Z"/><path class="cls-12" d="M395.39,165.84l16.9,34.25a12.47,12.47,0,0,0,9.39,6.82l37.79,5.49a12.47,12.47,0,0,1,6.91,21.28L439,260.33a12.47,12.47,0,0,0-3.59,11L441.91,309a12.47,12.47,0,0,1-18.1,13.15L390,304.39a12.47,12.47,0,0,0-11.61,0l-33.8,17.77A12.47,12.47,0,0,1,326.49,309L333,271.37a12.47,12.47,0,0,0-3.59-11L302,233.68a12.47,12.47,0,0,1,6.91-21.28l37.79-5.49a12.47,12.47,0,0,0,9.39-6.82L373,165.84A12.47,12.47,0,0,1,395.39,165.84Z"/><line class="cls-13" x1="440.64" y1="251.37" x2="435.34" y2="256.54"/><path class="cls-13" d="M427.58,213.12l31.14,4.52a7.18,7.18,0,0,1,4,12.24l-22,21.49"/><line class="cls-13" x1="420.92" y1="212.15" x2="427.58" y2="213.12"/><path class="cls-13" d="M407.54,202.43a17.77,17.77,0,0,0,3.63,5"/><path class="cls-13" d="M371.66,180.57l6.11-12.39a7.17,7.17,0,0,1,12.86,0l11.42,23.14"/><circle class="cls-14" cx="384.2" cy="251.37" r="6.98" transform="translate(16.72 526.6) rotate(-70.03)"/><path class="cls-14" d="M393.49,261.47a9.29,9.29,0,1,1-18.58,0"/><circle class="cls-15" cx="402.9" cy="240.91" r="11.36"/><circle cx="402.9" cy="240.91" r="5.9" transform="translate(-52.34 355.45) rotate(-45)"/><circle class="cls-15" cx="365.5" cy="240.91" r="11.36"/><circle cx="365.5" cy="240.91" r="5.9" transform="translate(-63.29 329.01) rotate(-45)"/><circle class="cls-15" cx="140.16" cy="237.31" r="14.95"/><circle class="cls-15" cx="185.03" cy="237.31" r="14.95"/><circle class="cls-16" cx="162.59" cy="253.44" r="4.91"/><path class="cls-17" d="M171.88,261.47a9.29,9.29,0,0,1-18.58,0"/><circle cx="140.16" cy="237.31" r="7.77"/><circle cx="185.03" cy="237.31" r="7.77"/><line class="cls-18" x1="142.64" y1="295.3" x2="135.63" y2="347.6"/><path class="cls-16" d="M148.89,366.44c0-.26,0-.51,0-.76s0-.5,0-.76V354.17a13.13,13.13,0,0,0-13.09-13.09h-3.27a13.13,13.13,0,0,0-13,11.92h-.82a13.48,13.48,0,0,0-13.44,13.44,13.31,13.31,0,0,0,1,5.18h41.55A13.31,13.31,0,0,0,148.89,366.44Z"/><line class="cls-18" x1="182.55" y1="295.3" x2="189.56" y2="347.6"/><path class="cls-16" d="M176.3,366.44c0-.26,0-.51,0-.76s0-.5,0-.76V354.17a13.13,13.13,0,0,1,13.09-13.09h3.27a13.13,13.13,0,0,1,13,11.92h.82a13.48,13.48,0,0,1,13.44,13.44,13.31,13.31,0,0,1-1,5.18H177.34A13.31,13.31,0,0,1,176.3,366.44Z"/><line class="cls-19" x1="369.85" y1="295.3" x2="362.84" y2="347.6"/><path class="cls-14" d="M376.11,366.44c0-.26,0-.51,0-.76s0-.5,0-.76V354.17A13.13,13.13,0,0,0,363,341.09h-3.27a13.13,13.13,0,0,0-13,11.92h-.82a13.48,13.48,0,0,0-13.44,13.44,13.31,13.31,0,0,0,1,5.18h41.55A13.31,13.31,0,0,0,376.11,366.44Z"/><line class="cls-19" x1="398.55" y1="295.3" x2="405.56" y2="347.6"/><path class="cls-14" d="M392.29,366.44c0-.26,0-.51,0-.76s0-.5,0-.76V354.17a13.13,13.13,0,0,1,13.09-13.09h3.27a13.13,13.13,0,0,1,13,11.92h.82a13.48,13.48,0,0,1,13.44,13.44,13.31,13.31,0,0,1-1,5.18H393.34A13.31,13.31,0,0,1,392.29,366.44Z"/><path class="cls-13" d="M264.23,239.92C260.95,263.4,242,278,218,288.78"/><path class="cls-13" d="M226.18,170.63A67.34,67.34,0,0,1,260,207.38"/><path class="cls-13" d="M204.44,164.61a66,66,0,0,1,12,2.31"/><path class="cls-13" d="M176,167.58a55,55,0,0,1,20.08-3.39"/><path class="cls-20" d="M486.56,78.57V20.62A18.81,18.81,0,0,0,467.8,1.87H335.27a18.81,18.81,0,0,0-18.75,18.75v94.09a18.81,18.81,0,0,0,18.75,18.75H441.79a19.66,19.66,0,0,1-3.32,16.86,19.7,19.7,0,0,0,22-16.86h7.31a18.81,18.81,0,0,0,18.75-18.75V78.57Z"/><text class="cls-2" transform="translate(341.25 33.84)">Does that <tspan class="cls-21" x="0" y="26.92">v</tspan><tspan x="11.14" y="26.92">enue h</tspan><tspan class="cls-22" x="78.7" y="26.92">a</tspan><tspan class="cls-6" x="90.87" y="26.92">v</tspan><tspan class="cls-7" x="102.01" y="26.92">e </tspan><tspan x="0" y="53.85">all gender </tspan><tspan x="0" y="80.77">bath</tspan><tspan class="cls-23" x="45.6" y="80.77">r</tspan><tspan class="cls-4" x="53.07" y="80.77">ooms?</tspan></text></g></g></svg>