<svg xmlns="http://www.w3.org/2000/svg" viewBox="0 0 533.67 365.25"><defs><style>.cls-1{fill:#fff;}.cls-10,.cls-11,.cls-12,.cls-13,.cls-2,.cls-4,.cls-6,.cls-7{fill:none;}.cls-10,.cls-2{stroke:#a66ace;}.cls-10,.cls-11,.cls-12,.cls-2,.cls-4,.cls-6{stroke-linecap:round;}.cls-10,.cls-11,.cls-12,.cls-2,.cls-4,.cls-6,.cls-7{stroke-miterlimit:10;}.cls-12,.cls-2{stroke-width:5px;}.cls-3{fill:#faaf40;}.cls-4{stroke:#fff;stroke-width:3.74px;}.cls-5{fill:#cc6f00;}.cls-6{stroke:#cc6f00;}.cls-10,.cls-6{stroke-width:5.61px;}.cls-12,.cls-7{stroke:#faaf40;}.cls-11,.cls-7{stroke-width:14.96px;}.cls-8{fill:#c7add3;}.cls-9{fill:#a66ace;}.cls-11{stroke:#c7add3;}</style></defs><title>charsmobile2</title><g id="Layer_2" data-name="Layer 2"><g id="Layer_6" data-name="Layer 6"><path class="cls-1" d="M2.5,90.29v-69A18.81,18.81,0,0,1,21.25,2.5H262.62a18.81,18.81,0,0,1,18.75,18.75v95.18a18.81,18.81,0,0,1-18.75,18.75H47.27a19.66,19.66,0,0,0,3.32,16.86,19.7,19.7,0,0,1-22-16.86H21.25A18.81,18.81,0,0,1,2.5,116.44V90.29Z"/><line class="cls-2" x1="221.34" y1="2.5" x2="228.59" y2="2.5"/><path class="cls-2" d="M281.37,47.72v68.71a18.81,18.81,0,0,1-18.75,18.75H47.27a19.66,19.66,0,0,0,3.32,16.86,19.7,19.7,0,0,1-22-16.86H21.25A18.81,18.81,0,0,1,2.5,116.44V21.25A18.81,18.81,0,0,1,21.25,2.5H206.85"/><path class="cls-2" d="M244.18,2.5h18.44a18.81,18.81,0,0,1,18.75,18.75V36.39"/><path class="cls-1" d="M531.17,92.2V47.34a18.81,18.81,0,0,0-18.75-18.75H329.88a18.81,18.81,0,0,0-18.75,18.75v71a18.81,18.81,0,0,0,18.75,18.75H460.22A19.66,19.66,0,0,1,456.91,154a19.7,19.7,0,0,0,22-16.86h33.48a18.81,18.81,0,0,0,18.75-18.75V92.2Z"/><circle class="cls-3" cx="378.43" cy="234.88" r="82.37"/><path class="cls-4" d="M454.48,247.42a76.74,76.74,0,0,1-15.42,35"/><path class="cls-4" d="M449.63,205.37a77.24,77.24,0,0,1,4.86,42"/><path class="cls-4" d="M433.59,181.11a77.32,77.32,0,0,1,16,24.26"/><circle class="cls-1" cx="356.1" cy="230.94" r="14.95"/><circle class="cls-1" cx="400.97" cy="230.94" r="14.95"/><circle class="cls-5" cx="378.54" cy="247.07" r="4.91"/><path class="cls-6" d="M387.83,255.1a9.29,9.29,0,0,1-18.58,0"/><circle cx="356.1" cy="230.94" r="7.77"/><circle cx="400.97" cy="230.94" r="7.77"/><line class="cls-7" x1="358.58" y1="288.93" x2="351.57" y2="341.23"/><path class="cls-5" d="M364.83,360.07c0-.26,0-.51,0-.76s0-.5,0-.76V347.8a13.13,13.13,0,0,0-13.09-13.09h-3.27a13.13,13.13,0,0,0-13,11.92h-.82a13.48,13.48,0,0,0-13.44,13.44,13.31,13.31,0,0,0,1,5.18h41.55A13.31,13.31,0,0,0,364.83,360.07Z"/><line class="cls-7" x1="398.49" y1="288.93" x2="405.5" y2="341.23"/><path class="cls-5" d="M392.24,360.07c0-.26,0-.51,0-.76s0-.5,0-.76V347.8a13.13,13.13,0,0,1,13.09-13.09h3.27a13.13,13.13,0,0,1,13,11.92h.82a13.48,13.48,0,0,1,13.44,13.44,13.31,13.31,0,0,1-1,5.18H393.29A13.31,13.31,0,0,1,392.24,360.07Z"/><path class="cls-4" d="M378.43,157.81A76.63,76.63,0,0,1,421.49,171"/><path class="cls-8" d="M270.56,222.64c-2-36.64-29.27-66.16-65-69.67-18.82-1.85-32.4,2.11-42.36,9.77-10-7.66-23.54-11.63-42.36-9.77-35.7,3.51-63,33-65,69.67C53.6,264.7,92,283.79,131.57,297.26c22.86,7.78,31,19,31.65,20h0c.65-.95,8.79-12.21,31.65-20C234.45,283.79,272.85,264.7,270.56,222.64Z"/><circle class="cls-1" cx="140.79" cy="230.94" r="14.95"/><circle class="cls-1" cx="185.66" cy="230.94" r="14.95"/><circle class="cls-9" cx="163.22" cy="247.07" r="4.91"/><path class="cls-10" d="M172.51,255.1a9.29,9.29,0,0,1-18.58,0"/><circle cx="140.79" cy="230.94" r="7.77"/><circle cx="185.66" cy="230.94" r="7.77"/><line class="cls-11" x1="143.27" y1="288.93" x2="136.26" y2="341.23"/><path class="cls-9" d="M149.52,360.07c0-.26,0-.51,0-.76s0-.5,0-.76V347.8a13.13,13.13,0,0,0-13.09-13.09h-3.27a13.13,13.13,0,0,0-13,11.92h-.82a13.48,13.48,0,0,0-13.44,13.44,13.31,13.31,0,0,0,1,5.18h41.55A13.31,13.31,0,0,0,149.52,360.07Z"/><line class="cls-11" x1="183.18" y1="288.93" x2="190.19" y2="341.23"/><path class="cls-9" d="M176.93,360.07c0-.26,0-.51,0-.76s0-.5,0-.76V347.8A13.13,13.13,0,0,1,190,334.72h3.27a13.13,13.13,0,0,1,13,11.92h.82a13.48,13.48,0,0,1,13.44,13.44,13.31,13.31,0,0,1-1,5.18H178A13.31,13.31,0,0,1,176.93,360.07Z"/><path class="cls-4" d="M264.86,233.55c-3.28,23.48-22.25,38-46.25,48.86"/><path class="cls-4" d="M226.81,164.26A67.34,67.34,0,0,1,260.6,201"/><path class="cls-4" d="M205.07,158.24a66,66,0,0,1,12,2.31"/><path class="cls-4" d="M176.65,161.21a55,55,0,0,1,20.08-3.39"/><path class="cls-12" d="M485.17,28.59H329.88a18.81,18.81,0,0,0-18.75,18.75v71a18.81,18.81,0,0,0,18.75,18.75H460.22A19.66,19.66,0,0,1,456.91,154a19.7,19.7,0,0,0,22-16.86h33.48a18.81,18.81,0,0,0,18.75-18.75V92.2"/><path class="cls-12" d="M531.17,80.43V47.34a18.81,18.81,0,0,0-18.75-18.75H502.5"/><line class="cls-13" x1="428.83" y1="28.59" x2="428.83" y2="137.1"/><line class="cls-13" x1="148.56" y1="2.5" x2="148.56" y2="135.19"/><path d="M338.7,62.48v-16h4.9a6.55,6.55,0,0,1,6.92,6.89V55.6a6.54,6.54,0,0,1-6.92,6.88Zm2.16-14.25V60.78h2.74a4.4,4.4,0,0,0,3.49-1.46,5.46,5.46,0,0,0,1.28-3.73v-2.2a5.42,5.42,0,0,0-1.28-3.71,4.4,4.4,0,0,0-3.49-1.46Z"/><path d="M352.57,56.44A6.52,6.52,0,0,1,354,52.11a4.77,4.77,0,0,1,3.87-1.7,4.82,4.82,0,0,1,3.89,1.7,6.51,6.51,0,0,1,1.43,4.34v.24A6.49,6.49,0,0,1,361.76,61,5.3,5.3,0,0,1,354,61a6.48,6.48,0,0,1-1.43-4.33Zm2.16.24a5.6,5.6,0,0,0,.79,3.11,2.87,2.87,0,0,0,4.71,0,5.58,5.58,0,0,0,.8-3.11v-.24a5.56,5.56,0,0,0-.81-3.1,2.64,2.64,0,0,0-2.36-1.24,2.6,2.6,0,0,0-2.34,1.24,5.61,5.61,0,0,0-.79,3.1Z"/><path d="M370.74,62.71a5,5,0,0,1-3.94-1.65,6.21,6.21,0,0,1-1.46-4.28V56.3a6.08,6.08,0,0,1,1.51-4.21,4.64,4.64,0,0,1,3.57-1.68A4.49,4.49,0,0,1,374,51.85a5.77,5.77,0,0,1,1.23,3.86v1.35h-7.69l0,.05a4.66,4.66,0,0,0,.87,2.8,2.76,2.76,0,0,0,2.33,1.1,5.43,5.43,0,0,0,1.92-.31,4.41,4.41,0,0,0,1.43-.86l.84,1.4a5,5,0,0,1-1.68,1A6.74,6.74,0,0,1,370.74,62.71Zm-.33-10.61a2.34,2.34,0,0,0-1.85.91,4.31,4.31,0,0,0-.94,2.29l0,.05h5.47v-.28a3.29,3.29,0,0,0-.68-2.12A2.42,2.42,0,0,0,370.42,52.1Z"/><path d="M384.58,59.32a1.47,1.47,0,0,0-.54-1.17,5.1,5.1,0,0,0-2.05-.8,8.63,8.63,0,0,1-3.25-1.27,2.58,2.58,0,0,1-1.09-2.19,3.09,3.09,0,0,1,1.23-2.46,5.59,5.59,0,0,1,6.49,0,3.14,3.14,0,0,1,1.17,2.58l0,.07h-2.06a1.89,1.89,0,0,0-.65-1.4,2.41,2.41,0,0,0-1.73-.62,2.49,2.49,0,0,0-1.71.5,1.58,1.58,0,0,0-.56,1.22,1.36,1.36,0,0,0,.49,1.11,5.11,5.11,0,0,0,2,.72A8.63,8.63,0,0,1,385.64,57a2.64,2.64,0,0,1,1.1,2.22,3.06,3.06,0,0,1-1.28,2.55,5.35,5.35,0,0,1-3.34,1,5.21,5.21,0,0,1-3.57-1.15,3.28,3.28,0,0,1-1.24-2.68l0-.07h2.06a2,2,0,0,0,.85,1.67,3.33,3.33,0,0,0,1.87.53,3.05,3.05,0,0,0,1.8-.47A1.44,1.44,0,0,0,384.58,59.32Z"/><path d="M397.85,47.77v2.86h2.25v1.6h-2.25v7.2a1.61,1.61,0,0,0,.34,1.17,1.25,1.25,0,0,0,.92.34,2.15,2.15,0,0,0,.41,0,2.41,2.41,0,0,0,.4-.11l.29,1.48a1.92,1.92,0,0,1-.71.32,3.62,3.62,0,0,1-.94.13,2.79,2.79,0,0,1-2.09-.79,3.45,3.45,0,0,1-.78-2.49v-7.2H393.8v-1.6h1.88V47.77Z"/><path d="M404.91,52.21a4.36,4.36,0,0,1,1.51-1.33,4.12,4.12,0,0,1,2-.48,3.83,3.83,0,0,1,3,1.14,5,5,0,0,1,1.06,3.51v7.43h-2.16V55a3.17,3.17,0,0,0-.63-2.17,2.4,2.4,0,0,0-1.88-.7,3.19,3.19,0,0,0-1.63.42,3.52,3.52,0,0,0-1.2,1.15v8.75h-2.16V45.39h2.16Z"/><path d="M422.79,62.48c-.07-.36-.13-.67-.17-.95a6.7,6.7,0,0,1-.07-.83A5,5,0,0,1,421,62.13a4,4,0,0,1-2.09.58,3.88,3.88,0,0,1-2.82-.95,3.48,3.48,0,0,1-1-2.61,3.06,3.06,0,0,1,1.38-2.66,6.43,6.43,0,0,1,3.73-1h2.34V54.36a2.17,2.17,0,0,0-.64-1.65,2.5,2.5,0,0,0-1.8-.61,2.59,2.59,0,0,0-1.69.53,1.6,1.6,0,0,0-.65,1.28h-2.06l0-.07a2.87,2.87,0,0,1,1.22-2.37,5,5,0,0,1,3.33-1.07,4.89,4.89,0,0,1,3.24,1,3.63,3.63,0,0,1,1.23,3v5.71a11.09,11.09,0,0,0,.07,1.23,6.29,6.29,0,0,0,.24,1.16Zm-3.58-1.59a3.85,3.85,0,0,0,2.11-.6,2.86,2.86,0,0,0,1.23-1.38V57h-2.42a3.15,3.15,0,0,0-2.09.66,2,2,0,0,0-.78,1.54,1.62,1.62,0,0,0,.49,1.25A2.07,2.07,0,0,0,419.21,60.89Z"/><path d="M430.69,47.77v2.86h2.25v1.6h-2.25v7.2a1.61,1.61,0,0,0,.34,1.17,1.25,1.25,0,0,0,.92.34,2.15,2.15,0,0,0,.41,0,2.41,2.41,0,0,0,.4-.11l.29,1.48a1.92,1.92,0,0,1-.71.32,3.62,3.62,0,0,1-.94.13,2.79,2.79,0,0,1-2.09-.79,3.45,3.45,0,0,1-.78-2.49v-7.2h-1.88v-1.6h1.88V47.77Z"/><path d="M445.13,59l.19.83h.07l.21-.83,2.73-8.36h2.2l-4.36,11.85h-1.63l-4.42-11.85h2.21Z"/><path d="M457.23,62.71a5,5,0,0,1-3.94-1.65,6.21,6.21,0,0,1-1.46-4.28V56.3a6.07,6.07,0,0,1,1.51-4.21,4.64,4.64,0,0,1,3.57-1.68,4.49,4.49,0,0,1,3.63,1.45,5.76,5.76,0,0,1,1.23,3.86v1.35h-7.69l0,.05a4.67,4.67,0,0,0,.87,2.8,2.76,2.76,0,0,0,2.33,1.1,5.43,5.43,0,0,0,1.92-.31,4.43,4.43,0,0,0,1.43-.86l.84,1.4a5,5,0,0,1-1.68,1A6.73,6.73,0,0,1,457.23,62.71Zm-.33-10.61a2.34,2.34,0,0,0-1.85.91,4.31,4.31,0,0,0-.94,2.29l0,.05h5.47v-.28a3.29,3.29,0,0,0-.68-2.12A2.42,2.42,0,0,0,456.91,52.1Z"/><path d="M466.11,50.63l.15,1.76a4.3,4.3,0,0,1,1.48-1.46,4,4,0,0,1,2-.52,3.87,3.87,0,0,1,3,1.12A4.93,4.93,0,0,1,473.8,55v7.48h-2.16V55a3.2,3.2,0,0,0-.62-2.22,2.48,2.48,0,0,0-1.89-.66,3,3,0,0,0-1.65.45,3.28,3.28,0,0,0-1.15,1.23v8.64h-2.16V50.63Z"/><path d="M484.46,60.73A4,4,0,0,1,483,62.19a3.92,3.92,0,0,1-2,.52,3.81,3.81,0,0,1-3-1.24,5.75,5.75,0,0,1-1.08-3.86v-7H479v7a4.42,4.42,0,0,0,.56,2.61,2.08,2.08,0,0,0,1.74.71,3.55,3.55,0,0,0,1.9-.47,2.91,2.91,0,0,0,1.13-1.32V50.63h2.16V62.48H484.6Z"/><path d="M494.6,62.71a5,5,0,0,1-3.94-1.65,6.21,6.21,0,0,1-1.46-4.28V56.3a6.08,6.08,0,0,1,1.51-4.21,4.64,4.64,0,0,1,3.57-1.68,4.49,4.49,0,0,1,3.63,1.45,5.77,5.77,0,0,1,1.23,3.86v1.35h-7.69l0,.05a4.67,4.67,0,0,0,.87,2.8A2.76,2.76,0,0,0,494.6,61a5.43,5.43,0,0,0,1.92-.31,4.43,4.43,0,0,0,1.43-.86l.84,1.4a5,5,0,0,1-1.68,1A6.73,6.73,0,0,1,494.6,62.71Zm-.33-10.61a2.34,2.34,0,0,0-1.85.91,4.3,4.3,0,0,0-.94,2.29l0,.05H497v-.28a3.29,3.29,0,0,0-.68-2.12A2.42,2.42,0,0,0,494.27,52.1Z"/><path d="M340.45,79.14A4.36,4.36,0,0,1,342,77.81a4.12,4.12,0,0,1,2-.48,3.83,3.83,0,0,1,3,1.14A5,5,0,0,1,347.95,82V89.4h-2.16V82a3.17,3.17,0,0,0-.63-2.17,2.4,2.4,0,0,0-1.88-.7,3.19,3.19,0,0,0-1.63.42,3.52,3.52,0,0,0-1.2,1.15V89.4h-2.16V72.31h2.16Z"/><path d="M358.33,89.4c-.07-.36-.13-.67-.17-.95a6.7,6.7,0,0,1-.07-.83,5,5,0,0,1-1.57,1.43,4,4,0,0,1-2.09.58,3.88,3.88,0,0,1-2.82-.95,3.48,3.48,0,0,1-1-2.61A3.06,3.06,0,0,1,352,83.42a6.43,6.43,0,0,1,3.73-1h2.34V81.28a2.17,2.17,0,0,0-.64-1.65,2.5,2.5,0,0,0-1.8-.61,2.59,2.59,0,0,0-1.69.53,1.6,1.6,0,0,0-.65,1.28h-2.06l0-.07a2.87,2.87,0,0,1,1.22-2.37,5,5,0,0,1,3.33-1.07,4.89,4.89,0,0,1,3.24,1,3.63,3.63,0,0,1,1.23,3V87a11.09,11.09,0,0,0,.07,1.23,6.29,6.29,0,0,0,.24,1.16Zm-3.58-1.59a3.85,3.85,0,0,0,2.11-.6,2.86,2.86,0,0,0,1.23-1.38V83.91h-2.42a3.15,3.15,0,0,0-2.09.66,2,2,0,0,0-.78,1.54,1.62,1.62,0,0,0,.49,1.25A2.07,2.07,0,0,0,354.75,87.81Z"/><path d="M367.17,85.91l.19.83h.07l.21-.83,2.73-8.36h2.2L368.2,89.4h-1.63l-4.42-11.85h2.21Z"/><path d="M379.28,89.63A5,5,0,0,1,375.34,88a6.21,6.21,0,0,1-1.46-4.28v-.48A6.08,6.08,0,0,1,375.38,79a4.64,4.64,0,0,1,3.57-1.68,4.49,4.49,0,0,1,3.63,1.45,5.77,5.77,0,0,1,1.23,3.86V84h-7.69l0,.05a4.66,4.66,0,0,0,.87,2.8,2.76,2.76,0,0,0,2.33,1.1,5.43,5.43,0,0,0,1.92-.31,4.41,4.41,0,0,0,1.43-.86l.84,1.4a5,5,0,0,1-1.68,1A6.74,6.74,0,0,1,379.28,89.63ZM378.95,79a2.34,2.34,0,0,0-1.85.91,4.31,4.31,0,0,0-.94,2.29l0,.05h5.47V82a3.29,3.29,0,0,0-.68-2.12A2.42,2.42,0,0,0,378.95,79Z"/><path d="M399.08,89.4c-.07-.36-.13-.67-.17-.95a6.7,6.7,0,0,1-.07-.83,5,5,0,0,1-1.57,1.43,4,4,0,0,1-2.09.58,3.88,3.88,0,0,1-2.82-.95,3.48,3.48,0,0,1-1-2.61,3.06,3.06,0,0,1,1.38-2.66,6.43,6.43,0,0,1,3.73-1h2.34V81.28a2.17,2.17,0,0,0-.64-1.65,2.5,2.5,0,0,0-1.8-.61,2.59,2.59,0,0,0-1.69.53,1.6,1.6,0,0,0-.65,1.28H392l0-.07a2.87,2.87,0,0,1,1.22-2.37,5,5,0,0,1,3.33-1.07,4.89,4.89,0,0,1,3.24,1,3.63,3.63,0,0,1,1.23,3V87a11.09,11.09,0,0,0,.07,1.23,6.29,6.29,0,0,0,.24,1.16Zm-3.58-1.59a3.85,3.85,0,0,0,2.11-.6,2.86,2.86,0,0,0,1.23-1.38V83.91h-2.42a3.15,3.15,0,0,0-2.09.66,2,2,0,0,0-.78,1.54,1.62,1.62,0,0,0,.49,1.25A2.07,2.07,0,0,0,395.5,87.81Z"/><path d="M406.47,89.4h-2.16V72.31h2.16Z"/><path d="M412.12,89.4H410V72.31h2.16Z"/><path d="M420.55,83.69a7.78,7.78,0,0,1,1.25-4.61,4,4,0,0,1,3.45-1.75,4.17,4.17,0,0,1,2,.45,3.9,3.9,0,0,1,1.42,1.31l.26-1.54h1.72V89.47a4.52,4.52,0,0,1-1.33,3.5,5.45,5.45,0,0,1-3.82,1.22,8,8,0,0,1-1.85-.24,7.26,7.26,0,0,1-1.75-.64l.55-1.68a5.55,5.55,0,0,0,1.4.53,6.77,6.77,0,0,0,1.62.2,3.14,3.14,0,0,0,2.3-.72,3,3,0,0,0,.72-2.19V88.13a3.77,3.77,0,0,1-1.39,1.12,4.36,4.36,0,0,1-1.86.38,4.14,4.14,0,0,1-3.43-1.58,6.46,6.46,0,0,1-1.25-4.13Zm2.16.23a4.92,4.92,0,0,0,.76,2.87,2.62,2.62,0,0,0,2.3,1.08,2.85,2.85,0,0,0,1.63-.44,3.36,3.36,0,0,0,1.08-1.25V80.73a3.35,3.35,0,0,0-1.08-1.2,2.84,2.84,0,0,0-1.61-.44,2.51,2.51,0,0,0-2.31,1.29,6.43,6.43,0,0,0-.77,3.32Z"/><path d="M438.69,89.63A5,5,0,0,1,434.75,88a6.21,6.21,0,0,1-1.46-4.28v-.48A6.07,6.07,0,0,1,434.79,79a4.64,4.64,0,0,1,3.57-1.68A4.49,4.49,0,0,1,442,78.78a5.76,5.76,0,0,1,1.23,3.86V84h-7.69l0,.05a4.67,4.67,0,0,0,.87,2.8,2.76,2.76,0,0,0,2.33,1.1,5.43,5.43,0,0,0,1.92-.31,4.43,4.43,0,0,0,1.43-.86l.84,1.4a5,5,0,0,1-1.68,1A6.73,6.73,0,0,1,438.69,89.63ZM438.36,79a2.34,2.34,0,0,0-1.85.91,4.31,4.31,0,0,0-.94,2.29l0,.05h5.47V82a3.29,3.29,0,0,0-.68-2.12A2.42,2.42,0,0,0,438.36,79Z"/><path d="M447.56,77.55l.15,1.76a4.31,4.31,0,0,1,1.48-1.46,4,4,0,0,1,2-.52,3.87,3.87,0,0,1,3,1.12,4.93,4.93,0,0,1,1.05,3.47V89.4h-2.16V82a3.21,3.21,0,0,0-.62-2.22,2.48,2.48,0,0,0-1.89-.66,3,3,0,0,0-1.65.45,3.27,3.27,0,0,0-1.14,1.23V89.4h-2.16V77.55Z"/><path d="M457.89,83.69a7.91,7.91,0,0,1,1.22-4.61,3.93,3.93,0,0,1,3.42-1.75,4.26,4.26,0,0,1,1.85.38,3.79,3.79,0,0,1,1.38,1.12V72.31h2.16V89.4h-1.76l-.25-1.46a3.85,3.85,0,0,1-1.42,1.26,4.28,4.28,0,0,1-2,.43,4.07,4.07,0,0,1-3.4-1.57,6.53,6.53,0,0,1-1.23-4.14Zm2.16.23a5,5,0,0,0,.73,2.88,2.56,2.56,0,0,0,2.28,1.08,2.86,2.86,0,0,0,1.62-.44,3.28,3.28,0,0,0,1.07-1.23V80.68a3.33,3.33,0,0,0-1.08-1.17,2.85,2.85,0,0,0-1.59-.43,2.47,2.47,0,0,0-2.29,1.28,6.61,6.61,0,0,0-.74,3.33Z"/><path d="M476.06,89.63A5,5,0,0,1,472.12,88a6.21,6.21,0,0,1-1.46-4.28v-.48A6.08,6.08,0,0,1,472.16,79a4.64,4.64,0,0,1,3.57-1.68,4.49,4.49,0,0,1,3.63,1.45,5.77,5.77,0,0,1,1.23,3.86V84h-7.69l0,.05a4.67,4.67,0,0,0,.87,2.8,2.76,2.76,0,0,0,2.33,1.1,5.43,5.43,0,0,0,1.92-.31,4.43,4.43,0,0,0,1.43-.86l.84,1.4a5,5,0,0,1-1.68,1A6.73,6.73,0,0,1,476.06,89.63ZM475.73,79a2.34,2.34,0,0,0-1.85.91,4.3,4.3,0,0,0-.94,2.29l0,.05h5.47V82a3.29,3.29,0,0,0-.68-2.12A2.42,2.42,0,0,0,475.73,79Z"/><path d="M488.61,79.46l-1.11-.07a2.47,2.47,0,0,0-1.44.41,2.6,2.6,0,0,0-.9,1.14V89.4H483V77.55h1.93l.21,1.73a4.11,4.11,0,0,1,1.24-1.44,2.9,2.9,0,0,1,1.7-.51,2.69,2.69,0,0,1,.46,0l.36.08Z"/><path d="M348.42,110.85a6.52,6.52,0,0,1-1.23,4.14,4.07,4.07,0,0,1-3.39,1.57,4.33,4.33,0,0,1-2-.46,3.78,3.78,0,0,1-1.43-1.34l-.26,1.57h-1.76V99.24h2.16v6.64a3.75,3.75,0,0,1,1.39-1.21,4.25,4.25,0,0,1,1.93-.42,3.94,3.94,0,0,1,3.42,1.75,7.88,7.88,0,0,1,1.23,4.61Zm-2.16-.23a6.54,6.54,0,0,0-.75-3.32,2.47,2.47,0,0,0-2.28-1.29,2.82,2.82,0,0,0-1.68.49,3.44,3.44,0,0,0-1.09,1.31v5.14a3.54,3.54,0,0,0,1.09,1.37,2.81,2.81,0,0,0,1.7.49,2.57,2.57,0,0,0,2.27-1.08,5,5,0,0,0,.75-2.87Z"/><path d="M358.33,116.33c-.07-.36-.13-.67-.17-.95a6.7,6.7,0,0,1-.07-.83,5,5,0,0,1-1.57,1.43,4,4,0,0,1-2.09.58,3.88,3.88,0,0,1-2.82-.95,3.48,3.48,0,0,1-1-2.61,3.06,3.06,0,0,1,1.38-2.66,6.43,6.43,0,0,1,3.73-1h2.34v-1.17a2.17,2.17,0,0,0-.64-1.65,2.5,2.5,0,0,0-1.8-.61,2.59,2.59,0,0,0-1.69.53,1.6,1.6,0,0,0-.65,1.28h-2.06l0-.07a2.87,2.87,0,0,1,1.22-2.37,5,5,0,0,1,3.33-1.07,4.89,4.89,0,0,1,3.24,1,3.63,3.63,0,0,1,1.23,3v5.71a11.09,11.09,0,0,0,.07,1.23,6.29,6.29,0,0,0,.24,1.16Zm-3.58-1.59a3.85,3.85,0,0,0,2.11-.6,2.86,2.86,0,0,0,1.23-1.38v-1.92h-2.42a3.15,3.15,0,0,0-2.09.66,2,2,0,0,0-.78,1.54,1.62,1.62,0,0,0,.49,1.25A2.07,2.07,0,0,0,354.75,114.74Z"/><path d="M366.23,101.61v2.86h2.25v1.6h-2.25v7.2a1.61,1.61,0,0,0,.34,1.17,1.25,1.25,0,0,0,.92.34,2.15,2.15,0,0,0,.41,0,2.41,2.41,0,0,0,.4-.11l.29,1.48a1.92,1.92,0,0,1-.71.32,3.62,3.62,0,0,1-.94.13,2.79,2.79,0,0,1-2.09-.79,3.45,3.45,0,0,1-.78-2.49v-7.2h-1.88v-1.6h1.88v-2.86Z"/><path d="M373.3,106.06a4.36,4.36,0,0,1,1.51-1.33,4.12,4.12,0,0,1,2-.48,3.83,3.83,0,0,1,3,1.14,5,5,0,0,1,1.06,3.51v7.43h-2.16v-7.45a3.17,3.17,0,0,0-.63-2.17,2.4,2.4,0,0,0-1.88-.7,3.19,3.19,0,0,0-1.63.42,3.52,3.52,0,0,0-1.2,1.15v8.75h-2.16V99.24h2.16Z"/><path d="M389.5,106.38l-1.11-.07a2.47,2.47,0,0,0-1.44.41,2.6,2.6,0,0,0-.9,1.14v8.47h-2.16V104.47h1.93l.21,1.73a4.11,4.11,0,0,1,1.24-1.44,2.9,2.9,0,0,1,1.7-.51,2.67,2.67,0,0,1,.46,0l.36.08Z"/><path d="M390.86,110.29a6.53,6.53,0,0,1,1.42-4.33,5.28,5.28,0,0,1,7.76,0,6.51,6.51,0,0,1,1.43,4.34v.24a6.49,6.49,0,0,1-1.42,4.34,5.3,5.3,0,0,1-7.76,0,6.48,6.48,0,0,1-1.43-4.33Zm2.16.24a5.61,5.61,0,0,0,.79,3.11,2.87,2.87,0,0,0,4.71,0,5.58,5.58,0,0,0,.8-3.11v-.24a5.57,5.57,0,0,0-.8-3.1,2.64,2.64,0,0,0-2.36-1.24,2.6,2.6,0,0,0-2.34,1.24,5.62,5.62,0,0,0-.79,3.1Z"/><path d="M403.61,110.29A6.52,6.52,0,0,1,405,106a4.77,4.77,0,0,1,3.87-1.7,4.82,4.82,0,0,1,3.89,1.7,6.51,6.51,0,0,1,1.43,4.34v.24a6.49,6.49,0,0,1-1.42,4.34,5.3,5.3,0,0,1-7.76,0,6.48,6.48,0,0,1-1.43-4.33Zm2.16.24a5.6,5.6,0,0,0,.79,3.11,2.87,2.87,0,0,0,4.71,0,5.58,5.58,0,0,0,.8-3.11v-.24a5.56,5.56,0,0,0-.81-3.1A2.64,2.64,0,0,0,408.9,106a2.6,2.6,0,0,0-2.34,1.24,5.61,5.61,0,0,0-.79,3.1Z"/><path d="M418.79,104.47l.15,1.56a4,4,0,0,1,1.47-1.31,4.44,4.44,0,0,1,2.08-.46,3.66,3.66,0,0,1,2,.55,3.31,3.31,0,0,1,1.28,1.64,4.41,4.41,0,0,1,1.48-1.6,3.89,3.89,0,0,1,2.15-.59,3.54,3.54,0,0,1,2.86,1.24,5.68,5.68,0,0,1,1.05,3.74v7.09h-2.16v-7.11a3.93,3.93,0,0,0-.6-2.48,2.19,2.19,0,0,0-1.8-.73,2.28,2.28,0,0,0-1.79.77,3.33,3.33,0,0,0-.81,1.94v7.61H424v-7.11a3.89,3.89,0,0,0-.62-2.44,2.15,2.15,0,0,0-1.78-.77,3,3,0,0,0-1.62.41,2.61,2.61,0,0,0-1,1.14v8.78h-2.16V104.47Z"/><path d="M443.37,113.17a1.47,1.47,0,0,0-.54-1.17,5.11,5.11,0,0,0-2.05-.8,8.64,8.64,0,0,1-3.25-1.27,2.58,2.58,0,0,1-1.09-2.19,3.1,3.1,0,0,1,1.23-2.46,5.59,5.59,0,0,1,6.49,0,3.14,3.14,0,0,1,1.17,2.58l0,.07h-2.06a1.89,1.89,0,0,0-.65-1.4,2.4,2.4,0,0,0-1.73-.62,2.49,2.49,0,0,0-1.71.5,1.58,1.58,0,0,0-.56,1.22,1.36,1.36,0,0,0,.49,1.11,5.11,5.11,0,0,0,2,.72,8.63,8.63,0,0,1,3.34,1.31,2.64,2.64,0,0,1,1.1,2.22,3.06,3.06,0,0,1-1.28,2.55,5.34,5.34,0,0,1-3.34,1,5.21,5.21,0,0,1-3.57-1.15,3.28,3.28,0,0,1-1.24-2.68l0-.07h2.06a2,2,0,0,0,.85,1.67,3.32,3.32,0,0,0,1.87.53,3.05,3.05,0,0,0,1.8-.47A1.44,1.44,0,0,0,443.37,113.17Z"/><path d="M450.53,111.83a6.4,6.4,0,0,1,.27-2.2,5.58,5.58,0,0,1,1.38-1.62,24.1,24.1,0,0,0,1.54-2,2.93,2.93,0,0,0,.46-1.67,2.43,2.43,0,0,0-.62-1.79,2.38,2.38,0,0,0-1.77-.62,2.69,2.69,0,0,0-1.7.54,1.89,1.89,0,0,0-.7,1.59h-2.06l0-.07a3.4,3.4,0,0,1,1.24-2.83,4.91,4.91,0,0,1,3.25-1.06,4.77,4.77,0,0,1,3.35,1.1,4,4,0,0,1,1.19,3.07,4.6,4.6,0,0,1-.77,2.58,14.4,14.4,0,0,1-2,2.4,2.58,2.58,0,0,0-.72,1.06,6.2,6.2,0,0,0-.13,1.47Zm2.23,4.49h-2.26V114h2.26Z"/><path d="M44.37,48.88H42.2v-16h2.17Z"/><path d="M54.92,45.73a1.47,1.47,0,0,0-.54-1.17,5.1,5.1,0,0,0-2.05-.8,8.63,8.63,0,0,1-3.25-1.27A2.58,2.58,0,0,1,48,40.29a3.09,3.09,0,0,1,1.23-2.46,5.59,5.59,0,0,1,6.49,0,3.14,3.14,0,0,1,1.17,2.58l0,.07H54.79a1.89,1.89,0,0,0-.65-1.4,2.4,2.4,0,0,0-1.73-.62,2.49,2.49,0,0,0-1.71.5,1.58,1.58,0,0,0-.56,1.22,1.36,1.36,0,0,0,.49,1.11,5.11,5.11,0,0,0,2,.72A8.63,8.63,0,0,1,56,43.37a2.64,2.64,0,0,1,1.09,2.22,3.06,3.06,0,0,1-1.28,2.55,5.34,5.34,0,0,1-3.33,1A5.21,5.21,0,0,1,48.89,48a3.28,3.28,0,0,1-1.24-2.68l0-.07h2.06a2,2,0,0,0,.85,1.67,3.33,3.33,0,0,0,1.87.53,3.05,3.05,0,0,0,1.8-.47A1.44,1.44,0,0,0,54.92,45.73Z"/><path d="M68.19,34.17V37h2.25v1.6H68.19v7.2A1.61,1.61,0,0,0,68.53,47a1.25,1.25,0,0,0,.92.34,2.16,2.16,0,0,0,.41,0,2.42,2.42,0,0,0,.4-.11l.29,1.48a1.92,1.92,0,0,1-.71.32,3.61,3.61,0,0,1-.94.13,2.79,2.79,0,0,1-2.09-.79A3.45,3.45,0,0,1,66,45.83v-7.2H64.14V37H66V34.17Z"/><path d="M75.25,38.62a4.36,4.36,0,0,1,1.51-1.33,4.12,4.12,0,0,1,2-.48,3.83,3.83,0,0,1,3,1.14,5,5,0,0,1,1.06,3.51v7.43H80.59V41.43A3.17,3.17,0,0,0,80,39.27a2.4,2.4,0,0,0-1.88-.7,3.19,3.19,0,0,0-1.63.42,3.52,3.52,0,0,0-1.2,1.15v8.75H73.09V31.79h2.16Z"/><path d="M93.13,48.88c-.07-.36-.13-.67-.17-.95a7.11,7.11,0,0,1-.07-.83,5,5,0,0,1-1.57,1.43,4,4,0,0,1-2.09.58,3.88,3.88,0,0,1-2.82-.95,3.48,3.48,0,0,1-1-2.61,3.06,3.06,0,0,1,1.38-2.66,6.42,6.42,0,0,1,3.73-1h2.34V40.77a2.18,2.18,0,0,0-.63-1.65,2.5,2.5,0,0,0-1.8-.61,2.59,2.59,0,0,0-1.69.53,1.6,1.6,0,0,0-.65,1.28H86.05l0-.07a2.87,2.87,0,0,1,1.22-2.37,5,5,0,0,1,3.32-1.07,4.89,4.89,0,0,1,3.24,1,3.63,3.63,0,0,1,1.23,3v5.71a11.09,11.09,0,0,0,.07,1.23,6.37,6.37,0,0,0,.24,1.16Zm-3.58-1.59a3.85,3.85,0,0,0,2.11-.6,2.86,2.86,0,0,0,1.23-1.38V43.4H90.47a3.15,3.15,0,0,0-2.09.66,2,2,0,0,0-.78,1.54,1.62,1.62,0,0,0,.49,1.25A2.07,2.07,0,0,0,89.55,47.29Z"/><path d="M101,34.17V37h2.25v1.6H101v7.2a1.61,1.61,0,0,0,.34,1.17,1.25,1.25,0,0,0,.92.34,2.16,2.16,0,0,0,.41,0,2.42,2.42,0,0,0,.4-.11l.29,1.48a1.92,1.92,0,0,1-.71.32,3.61,3.61,0,0,1-.94.13,2.79,2.79,0,0,1-2.09-.79,3.45,3.45,0,0,1-.78-2.49v-7.2H97V37h1.88V34.17Z"/><path d="M111,43.18a7.91,7.91,0,0,1,1.22-4.61,3.94,3.94,0,0,1,3.42-1.75,4.26,4.26,0,0,1,1.85.38,3.79,3.79,0,0,1,1.38,1.12V31.79H121V48.88h-1.76L119,47.43a3.85,3.85,0,0,1-1.42,1.26,4.28,4.28,0,0,1-2,.43,4.07,4.07,0,0,1-3.4-1.57A6.53,6.53,0,0,1,111,43.41Zm2.16.23a5,5,0,0,0,.73,2.88,2.56,2.56,0,0,0,2.28,1.08,2.86,2.86,0,0,0,1.62-.44,3.28,3.28,0,0,0,1.07-1.23V40.16A3.32,3.32,0,0,0,117.81,39a2.85,2.85,0,0,0-1.59-.43,2.47,2.47,0,0,0-2.29,1.28,6.61,6.61,0,0,0-.74,3.33Z"/><path d="M123.76,42.85a6.52,6.52,0,0,1,1.42-4.33,4.77,4.77,0,0,1,3.87-1.7,4.82,4.82,0,0,1,3.9,1.7,6.51,6.51,0,0,1,1.43,4.34v.24A6.49,6.49,0,0,1,133,47.43a5.3,5.3,0,0,1-7.76,0,6.48,6.48,0,0,1-1.43-4.33Zm2.16.24a5.61,5.61,0,0,0,.79,3.11,2.87,2.87,0,0,0,4.71,0,5.59,5.59,0,0,0,.8-3.11v-.24a5.56,5.56,0,0,0-.81-3.1,2.64,2.64,0,0,0-2.36-1.24,2.61,2.61,0,0,0-2.34,1.24,5.62,5.62,0,0,0-.79,3.1Z"/><path d="M141.84,47.42a2.91,2.91,0,0,0,1.89-.66,2,2,0,0,0,.82-1.63h1.94l0,.07a3.34,3.34,0,0,1-1.36,2.73,5,5,0,0,1-3.3,1.19,4.8,4.8,0,0,1-4-1.69,6.51,6.51,0,0,1-1.37-4.24v-.46a6.48,6.48,0,0,1,1.38-4.22,5.4,5.4,0,0,1,7.35-.47,3.82,3.82,0,0,1,1.28,3l0,.07h-2a2.51,2.51,0,0,0-.77-1.85,2.64,2.64,0,0,0-1.94-.76,2.6,2.6,0,0,0-2.43,1.22,5.74,5.74,0,0,0-.73,3v.46a5.81,5.81,0,0,0,.72,3A2.6,2.6,0,0,0,141.84,47.42Z"/><path d="M151.77,34.17V37H154v1.6h-2.25v7.2a1.61,1.61,0,0,0,.34,1.17,1.25,1.25,0,0,0,.92.34,2.16,2.16,0,0,0,.41,0,2.42,2.42,0,0,0,.4-.11l.29,1.48a1.92,1.92,0,0,1-.71.32,3.61,3.61,0,0,1-.94.13,2.79,2.79,0,0,1-2.09-.79,3.45,3.45,0,0,1-.78-2.49v-7.2h-1.88V37h1.88V34.17Z"/><path d="M156.18,42.85a6.52,6.52,0,0,1,1.42-4.33,4.77,4.77,0,0,1,3.87-1.7,4.82,4.82,0,0,1,3.9,1.7,6.51,6.51,0,0,1,1.43,4.34v.24a6.49,6.49,0,0,1-1.42,4.34,5.3,5.3,0,0,1-7.76,0,6.48,6.48,0,0,1-1.43-4.33Zm2.16.24a5.61,5.61,0,0,0,.79,3.11,2.87,2.87,0,0,0,4.71,0,5.59,5.59,0,0,0,.8-3.11v-.24a5.56,5.56,0,0,0-.81-3.1,2.64,2.64,0,0,0-2.36-1.24,2.61,2.61,0,0,0-2.34,1.24,5.62,5.62,0,0,0-.79,3.1Z"/><path d="M175,38.94l-1.11-.07a2.47,2.47,0,0,0-1.44.41,2.6,2.6,0,0,0-.9,1.14v8.47h-2.16V37h1.93l.21,1.73a4.11,4.11,0,0,1,1.24-1.44,2.9,2.9,0,0,1,1.7-.51,2.69,2.69,0,0,1,.46,0l.36.08Z"/><path d="M42.58,75.81V65.55H40.73V64h1.85v-1.5a4.07,4.07,0,0,1,1-2.93,3.65,3.65,0,0,1,2.77-1,4.77,4.77,0,0,1,.75.06q.38.06.84.17l-.26,1.64-.48-.08a5.1,5.1,0,0,0-.59,0,1.7,1.7,0,0,0-1.4.56,2.54,2.54,0,0,0-.46,1.64V64h2.46v1.6H44.74V75.81Z"/><path d="M56.71,75.81c-.07-.36-.13-.67-.17-.95a7.11,7.11,0,0,1-.07-.83,5,5,0,0,1-1.57,1.43,4,4,0,0,1-2.09.58A3.88,3.88,0,0,1,50,75.09a3.48,3.48,0,0,1-1-2.61,3.06,3.06,0,0,1,1.38-2.66,6.42,6.42,0,0,1,3.73-1h2.34V67.69A2.18,2.18,0,0,0,55.84,66a2.5,2.5,0,0,0-1.8-.61,2.59,2.59,0,0,0-1.69.53,1.6,1.6,0,0,0-.65,1.28H49.64l0-.07a2.87,2.87,0,0,1,1.22-2.37,5,5,0,0,1,3.32-1.07,4.89,4.89,0,0,1,3.24,1,3.63,3.63,0,0,1,1.23,3v5.71a11.09,11.09,0,0,0,.07,1.23,6.37,6.37,0,0,0,.24,1.16Zm-3.58-1.59a3.85,3.85,0,0,0,2.11-.6,2.86,2.86,0,0,0,1.23-1.38V70.32H54.05A3.15,3.15,0,0,0,52,71a2,2,0,0,0-.78,1.54,1.62,1.62,0,0,0,.49,1.25A2.07,2.07,0,0,0,53.13,74.22Z"/><path d="M63.69,64l.15,1.56a4,4,0,0,1,1.47-1.31,4.44,4.44,0,0,1,2.08-.46,3.66,3.66,0,0,1,2,.55,3.32,3.32,0,0,1,1.28,1.64,4.4,4.4,0,0,1,1.48-1.6,3.89,3.89,0,0,1,2.15-.59A3.55,3.55,0,0,1,77.19,65a5.68,5.68,0,0,1,1.05,3.74v7.09H76.08V68.7a3.94,3.94,0,0,0-.6-2.48,2.19,2.19,0,0,0-1.8-.73,2.29,2.29,0,0,0-1.79.77,3.34,3.34,0,0,0-.8,1.94v7.61H68.92V68.7a3.89,3.89,0,0,0-.62-2.44,2.15,2.15,0,0,0-1.78-.77,3,3,0,0,0-1.62.41,2.61,2.61,0,0,0-1,1.14v8.78H61.77V64Z"/><path d="M83.71,60.92H81.55v-2.2h2.16Zm0,14.89H81.55V64h2.16Z"/><path d="M89.36,75.81H87.2V58.72h2.16Z"/><path d="M95,60.92H92.86v-2.2H95Zm0,14.89H92.86V64H95Z"/><path d="M105.62,75.81c-.07-.36-.13-.67-.17-.95a7.11,7.11,0,0,1-.07-.83,5,5,0,0,1-1.57,1.43,4,4,0,0,1-2.09.58,3.88,3.88,0,0,1-2.82-.95,3.48,3.48,0,0,1-1-2.61,3.06,3.06,0,0,1,1.38-2.66,6.42,6.42,0,0,1,3.73-1h2.34V67.69a2.18,2.18,0,0,0-.63-1.65,2.5,2.5,0,0,0-1.8-.61,2.59,2.59,0,0,0-1.69.53,1.6,1.6,0,0,0-.65,1.28H98.54l0-.07a2.87,2.87,0,0,1,1.22-2.37,5,5,0,0,1,3.32-1.07,4.89,4.89,0,0,1,3.24,1,3.63,3.63,0,0,1,1.23,3v5.71a11.09,11.09,0,0,0,.07,1.23,6.37,6.37,0,0,0,.24,1.16ZM102,74.22a3.85,3.85,0,0,0,2.11-.6,2.86,2.86,0,0,0,1.23-1.38V70.32H103a3.15,3.15,0,0,0-2.09.66,2,2,0,0,0-.78,1.54,1.62,1.62,0,0,0,.49,1.25A2.07,2.07,0,0,0,102,74.22Z"/><path d="M116.28,65.86l-1.11-.07a2.47,2.47,0,0,0-1.44.41,2.6,2.6,0,0,0-.9,1.14v8.47h-2.16V64h1.93l.21,1.73A4.11,4.11,0,0,1,114,64.25a2.9,2.9,0,0,1,1.7-.51,2.69,2.69,0,0,1,.46,0l.36.08Z"/><path d="M127,71.49l.25,1.44h.07l.31-1.44L130,64h1.73l2.38,7.54.34,1.6h.07l.32-1.6L136.65,64h2.15l-3.44,11.85h-1.74l-2.29-7.22-.49-2h-.07l-.47,2L128,75.81H126.3L122.86,64H125Z"/><path d="M143.25,60.92h-2.16v-2.2h2.16Zm0,14.89h-2.16V64h2.16Z"/><path d="M149.42,61.09V64h2.25v1.6h-2.25v7.2a1.61,1.61,0,0,0,.34,1.17,1.25,1.25,0,0,0,.92.34,2.16,2.16,0,0,0,.41,0,2.42,2.42,0,0,0,.4-.11l.29,1.48a1.92,1.92,0,0,1-.71.32,3.61,3.61,0,0,1-.94.13,2.79,2.79,0,0,1-2.09-.79,3.45,3.45,0,0,1-.78-2.49v-7.2h-1.88V64h1.88V61.09Z"/><path d="M156.48,65.54A4.36,4.36,0,0,1,158,64.21a4.12,4.12,0,0,1,2-.48,3.83,3.83,0,0,1,3,1.14A5,5,0,0,1,164,68.38v7.43h-2.16V68.36a3.17,3.17,0,0,0-.63-2.17,2.4,2.4,0,0,0-1.88-.7,3.19,3.19,0,0,0-1.63.42,3.52,3.52,0,0,0-1.2,1.15v8.75h-2.16V58.72h2.16Z"/><path d="M185.12,75.81H183v-7h-7.75v7h-2.16v-16h2.16v7.21H183V59.86h2.16Z"/><path d="M193.58,76a5,5,0,0,1-3.94-1.65,6.21,6.21,0,0,1-1.46-4.28v-.48a6.08,6.08,0,0,1,1.51-4.21,4.64,4.64,0,0,1,3.57-1.68,4.49,4.49,0,0,1,3.63,1.45A5.77,5.77,0,0,1,198.1,69v1.35h-7.69l0,.05a4.67,4.67,0,0,0,.87,2.8,2.76,2.76,0,0,0,2.33,1.1A5.43,5.43,0,0,0,195.5,74a4.43,4.43,0,0,0,1.43-.86l.84,1.4a5,5,0,0,1-1.68,1A6.73,6.73,0,0,1,193.58,76Zm-.33-10.61a2.34,2.34,0,0,0-1.85.91,4.3,4.3,0,0,0-.94,2.29l0,.05h5.47V68.4a3.29,3.29,0,0,0-.68-2.12A2.42,2.42,0,0,0,193.25,65.43Z"/><path d="M207.81,75.81c-.07-.36-.13-.67-.17-.95a7.11,7.11,0,0,1-.07-.83A5,5,0,0,1,206,75.46a4,4,0,0,1-2.09.58,3.88,3.88,0,0,1-2.82-.95,3.48,3.48,0,0,1-1-2.61,3.06,3.06,0,0,1,1.38-2.66,6.42,6.42,0,0,1,3.73-1h2.34V67.69a2.18,2.18,0,0,0-.63-1.65,2.5,2.5,0,0,0-1.8-.61,2.59,2.59,0,0,0-1.69.53,1.6,1.6,0,0,0-.65,1.28h-2.06l0-.07a2.87,2.87,0,0,1,1.22-2.37,5,5,0,0,1,3.32-1.07,4.89,4.89,0,0,1,3.24,1,3.63,3.63,0,0,1,1.23,3v5.71a11.09,11.09,0,0,0,.07,1.23,6.37,6.37,0,0,0,.24,1.16Zm-3.58-1.59a3.85,3.85,0,0,0,2.11-.6,2.86,2.86,0,0,0,1.23-1.38V70.32h-2.42a3.15,3.15,0,0,0-2.09.66,2,2,0,0,0-.78,1.54,1.62,1.62,0,0,0,.49,1.25A2.07,2.07,0,0,0,204.23,74.22Z"/><path d="M215.19,75.81H213V58.72h2.16Z"/><path d="M221.36,61.09V64h2.25v1.6h-2.25v7.2a1.61,1.61,0,0,0,.34,1.17,1.25,1.25,0,0,0,.92.34,2.16,2.16,0,0,0,.41,0,2.42,2.42,0,0,0,.4-.11l.29,1.48a1.92,1.92,0,0,1-.71.32,3.61,3.61,0,0,1-.94.13,2.79,2.79,0,0,1-2.09-.79,3.45,3.45,0,0,1-.78-2.49v-7.2h-1.88V64h1.88V61.09Z"/><path d="M228.43,65.54a4.36,4.36,0,0,1,1.51-1.33,4.12,4.12,0,0,1,2-.48,3.83,3.83,0,0,1,3,1.14,5,5,0,0,1,1.06,3.51v7.43h-2.16V68.36a3.17,3.17,0,0,0-.63-2.17,2.4,2.4,0,0,0-1.88-.7,3.19,3.19,0,0,0-1.63.42,3.52,3.52,0,0,0-1.2,1.15v8.75h-2.16V58.72h2.16Z"/><path d="M50.73,98.62H44.05l-1.51,4.11h-2.2l6.17-16h1.85l6.07,16h-2.2Zm-6-1.81h5.37l-2.63-7.26h-.07Z"/><path d="M58.87,88v2.86h2.25v1.6H58.87v7.2a1.61,1.61,0,0,0,.34,1.17,1.25,1.25,0,0,0,.92.34,2.16,2.16,0,0,0,.41,0,2.42,2.42,0,0,0,.4-.11l.29,1.48a1.92,1.92,0,0,1-.71.32,3.61,3.61,0,0,1-.94.13,2.79,2.79,0,0,1-2.09-.79,3.45,3.45,0,0,1-.78-2.49v-7.2H54.83v-1.6h1.88V88Z"/><path d="M79.23,95.34H71.92V101h8.42v1.7H69.76v-16H80.23v1.7h-8.3v5.16h7.31Z"/><path d="M86.14,99.23l.19.83h.07l.21-.83,2.73-8.36h2.2l-4.36,11.85H85.54L81.12,90.88h2.21Z"/><path d="M98.25,103a5,5,0,0,1-3.94-1.65A6.21,6.21,0,0,1,92.85,97v-.48a6.08,6.08,0,0,1,1.51-4.21,4.64,4.64,0,0,1,3.57-1.68,4.49,4.49,0,0,1,3.63,1.45A5.77,5.77,0,0,1,102.77,96v1.35H95.08l0,.05a4.67,4.67,0,0,0,.87,2.8,2.76,2.76,0,0,0,2.33,1.1,5.43,5.43,0,0,0,1.92-.31,4.43,4.43,0,0,0,1.43-.86l.84,1.4a5,5,0,0,1-1.68,1A6.73,6.73,0,0,1,98.25,103Zm-.33-10.61a2.34,2.34,0,0,0-1.85.91,4.3,4.3,0,0,0-.94,2.29l0,.05h5.47v-.28a3.29,3.29,0,0,0-.68-2.12A2.42,2.42,0,0,0,97.92,92.36Z"/><path d="M110.8,92.78l-1.11-.07a2.47,2.47,0,0,0-1.44.41,2.6,2.6,0,0,0-.9,1.14v8.47h-2.16V90.88h1.93l.21,1.73a4.11,4.11,0,0,1,1.24-1.44,2.9,2.9,0,0,1,1.7-.51,2.69,2.69,0,0,1,.46,0l.36.08Z"/><path d="M116.7,98.34l.38,1.49h.07l2.91-9h2.4l-5,13.67a6.16,6.16,0,0,1-1.29,2.08,3,3,0,0,1-2.26.89,4.71,4.71,0,0,1-.67-.06l-.62-.12.22-1.7.39,0,.58,0a1.33,1.33,0,0,0,1.13-.61,6.35,6.35,0,0,0,.73-1.36l.51-1.24-4.4-11.61h2.41Z"/><path d="M139,98.71a2.35,2.35,0,0,0-.82-1.82,6.93,6.93,0,0,0-2.91-1.24,9.62,9.62,0,0,1-3.95-1.78,3.68,3.68,0,0,1-1.42-3,3.88,3.88,0,0,1,1.53-3.12,6,6,0,0,1,4-1.25A5.9,5.9,0,0,1,139.59,88a4.24,4.24,0,0,1,1.5,3.33l0,.07H139a3,3,0,0,0-.93-2.27,4.53,4.53,0,0,0-5.13-.14,2.37,2.37,0,0,0-.86,1.9,2.09,2.09,0,0,0,.93,1.74,8.84,8.84,0,0,0,3,1.22,8.61,8.61,0,0,1,3.83,1.84,3.94,3.94,0,0,1,1.31,3,3.68,3.68,0,0,1-1.58,3.1,6.73,6.73,0,0,1-4.12,1.17,7.13,7.13,0,0,1-4.22-1.3,3.91,3.91,0,0,1-1.78-3.47l0-.07h2.06a2.68,2.68,0,0,0,1.13,2.33,4.71,4.71,0,0,0,2.79.8,4.34,4.34,0,0,0,2.58-.69A2.17,2.17,0,0,0,139,98.71Z"/><path d="M146.26,87.84H144.1v-2.2h2.16Zm0,14.89H144.1V90.88h2.16Z"/><path d="M151.62,101h6.85v1.7H149v-1.52l6.41-8.63h-6.33v-1.7h9v1.46Z"/><path d="M165.61,103a5,5,0,0,1-3.94-1.65A6.21,6.21,0,0,1,160.21,97v-.48a6.08,6.08,0,0,1,1.51-4.21,4.64,4.64,0,0,1,3.57-1.68,4.49,4.49,0,0,1,3.63,1.45A5.77,5.77,0,0,1,170.13,96v1.35h-7.69l0,.05a4.67,4.67,0,0,0,.87,2.8,2.76,2.76,0,0,0,2.33,1.1,5.43,5.43,0,0,0,1.92-.31,4.43,4.43,0,0,0,1.43-.86l.84,1.4a5,5,0,0,1-1.68,1A6.73,6.73,0,0,1,165.61,103Zm-.33-10.61a2.34,2.34,0,0,0-1.85.91,4.3,4.3,0,0,0-.94,2.29l0,.05H168v-.28a3.29,3.29,0,0,0-.68-2.12A2.42,2.42,0,0,0,165.28,92.36Z"/><path d="M172,94.74a8.09,8.09,0,0,1,2.27-5.82,7.59,7.59,0,0,1,11,0,8.61,8.61,0,0,1,0,11.66,7.56,7.56,0,0,1-11,0A8.14,8.14,0,0,1,172,94.74Zm1.33,0a6.86,6.86,0,0,0,1.88,4.9,6.23,6.23,0,0,0,9.13,0,7.27,7.27,0,0,0,0-9.76,6.27,6.27,0,0,0-9.14,0A6.79,6.79,0,0,0,173.28,94.74Zm4.86.83v3.7h-1.63V90h3.07a4.23,4.23,0,0,1,2.61.72,2.47,2.47,0,0,1,.95,2.1,2,2,0,0,1-.36,1.19,2.72,2.72,0,0,1-1.05.85,2,2,0,0,1,1,.87,2.84,2.84,0,0,1,.32,1.4v.61a7.62,7.62,0,0,0,0,.8,1.82,1.82,0,0,0,.15.59v.17H181.6a2.05,2.05,0,0,1-.12-.67q0-.44,0-.9V97.1a1.6,1.6,0,0,0-.37-1.16,1.65,1.65,0,0,0-1.21-.37Zm0-1.42h1.67a2.13,2.13,0,0,0,1.21-.36,1.1,1.1,0,0,0,.5-1,1.31,1.31,0,0,0-.43-1.12,2.61,2.61,0,0,0-1.51-.32h-1.44Z"/><path d="M192.45,98.24a6.4,6.4,0,0,1,.27-2.2,5.57,5.57,0,0,1,1.38-1.62,23.94,23.94,0,0,0,1.54-2,2.93,2.93,0,0,0,.46-1.67,2.43,2.43,0,0,0-.62-1.79,2.38,2.38,0,0,0-1.77-.62,2.69,2.69,0,0,0-1.7.54,1.89,1.89,0,0,0-.7,1.59h-2.06l0-.07a3.4,3.4,0,0,1,1.24-2.83,4.91,4.91,0,0,1,3.25-1.06,4.76,4.76,0,0,1,3.35,1.1,4,4,0,0,1,1.19,3.07,4.59,4.59,0,0,1-.77,2.58,14.34,14.34,0,0,1-2,2.4,2.58,2.58,0,0,0-.72,1.06,6.2,6.2,0,0,0-.13,1.47Zm2.24,4.49h-2.26v-2.28h2.26Z"/></g></g></svg>