<svg xmlns="http://www.w3.org/2000/svg" viewBox="0 0 1213.93 555.23"><defs><style>.cls-1{fill:#fff;}.cls-2{fill:#f5accc;}.cls-3{fill:#faaf40;}.cls-10,.cls-11,.cls-13,.cls-14,.cls-15,.cls-17,.cls-18,.cls-19,.cls-20,.cls-4,.cls-7{fill:none;stroke-miterlimit:10;}.cls-4{stroke:#fff;}.cls-10,.cls-11,.cls-13,.cls-17,.cls-18,.cls-19,.cls-20,.cls-4{stroke-linecap:round;}.cls-17,.cls-20,.cls-4{stroke-width:4.86px;}.cls-5{fill:#c7add3;}.cls-6{fill:#87cbf0;}.cls-7{stroke:#f5accc;}.cls-15,.cls-7{stroke-width:14.59px;}.cls-8{fill:#0082a5;}.cls-9{fill:#a66ace;}.cls-10,.cls-18{stroke:#a66ace;}.cls-10,.cls-13{stroke-width:7.3px;}.cls-11{stroke:#c7add3;}.cls-11,.cls-14{stroke-width:19.46px;}.cls-12{fill:#cc6f00;}.cls-13{stroke:#cc6f00;}.cls-14,.cls-20{stroke:#faaf40;}.cls-15,.cls-19{stroke:#87cbf0;}.cls-16{fill:#f45bab;}.cls-17{stroke:#f45bab;}.cls-18,.cls-19{stroke-width:5px;}</style></defs><title>Asset 11</title><g id="Layer_2" data-name="Layer 2"><g id="Layer_12" data-name="Layer 12"><path class="cls-1" d="M900.17,174V98.65a24.47,24.47,0,0,0-24.4-24.4H606.72a24.47,24.47,0,0,0-24.4,24.4V208a24.47,24.47,0,0,0,24.4,24.4H841.94a25.57,25.57,0,0,1-4.31,21.93,25.63,25.63,0,0,0,28.65-21.93h9.5a24.47,24.47,0,0,0,24.4-24.4V174Z"/><path class="cls-2" d="M774.92,288.94l5.43,14.68a104.23,104.23,0,0,0,61.58,61.58l14.68,5.43c13.93,5.15,13.93,24.86,0,30l-14.68,5.43a104.23,104.23,0,0,0-61.58,61.58l-5.43,14.68c-5.15,13.93-24.86,13.93-30,0l-5.43-14.68a104.23,104.23,0,0,0-61.58-61.58l-14.68-5.43c-13.93-5.15-13.93-24.86,0-30l14.68-5.43a104.23,104.23,0,0,0,61.58-61.58l5.43-14.68C750.07,275,769.77,275,774.92,288.94Z"/><circle class="cls-3" cx="1046.39" cy="385.65" r="107.15"/><path class="cls-4" d="M1145.32,401.95a99.83,99.83,0,0,1-20.05,45.52"/><path class="cls-4" d="M1139,347.25a100.47,100.47,0,0,1,6.32,54.69"/><path class="cls-4" d="M1118.14,315.69A100.58,100.58,0,0,1,1139,347.25"/><path class="cls-4" d="M1046.39,285.39a99.68,99.68,0,0,1,56,17.15"/><path class="cls-5" d="M329.81,369.72c-2.6-47.66-38.08-86.06-84.52-90.63-24.48-2.41-42.14,2.74-55.11,12.71-13-10-30.62-15.12-55.11-12.71-46.44,4.57-81.92,43-84.52,90.63-3,54.71,47,79.55,98.45,97.07,29.73,10.12,40.32,24.77,41.17,26h0c.85-1.24,11.44-15.89,41.17-26C282.83,449.26,332.79,424.43,329.81,369.72Z"/><path class="cls-6" d="M493,287.54l22,44.55A16.23,16.23,0,0,0,527.21,341l49.16,7.14a16.23,16.23,0,0,1,9,27.68l-35.57,34.68a16.23,16.23,0,0,0-4.67,14.36l8.4,49A16.23,16.23,0,0,1,530,490.89l-44-23.12a16.23,16.23,0,0,0-15.1,0l-44,23.12a16.23,16.23,0,0,1-23.54-17.1l8.4-49a16.23,16.23,0,0,0-4.67-14.36l-35.57-34.68a16.23,16.23,0,0,1,9-27.68L429.7,341a16.23,16.23,0,0,0,12.22-8.88l22-44.55A16.23,16.23,0,0,1,493,287.54Z"/><line class="cls-4" x1="551.87" y1="398.8" x2="544.98" y2="405.52"/><path class="cls-4" d="M534.88,349l40.5,5.88a9.33,9.33,0,0,1,5.17,15.92l-28.68,28"/><line class="cls-4" x1="526.22" y1="347.79" x2="534.88" y2="349.05"/><path class="cls-4" d="M508.81,335.14a23.11,23.11,0,0,0,4.72,6.44"/><path class="cls-4" d="M462.13,306.71l8-16.11a9.33,9.33,0,0,1,16.73,0l14.86,30.1"/><line class="cls-7" x1="725.33" y1="376.13" x2="739.43" y2="523.99"/><line class="cls-7" x1="767.21" y1="380.52" x2="795" y2="523.99"/><circle class="cls-8" cx="478.45" cy="398.8" r="9.08" transform="translate(-59.79 712.26) rotate(-70.03)"/><path class="cls-8" d="M490.54,411.95a12.08,12.08,0,0,1-24.17,0"/><circle class="cls-1" cx="502.78" cy="385.19" r="14.78"/><circle cx="502.78" cy="385.19" r="7.68" transform="translate(-125.11 468.34) rotate(-45)"/><circle class="cls-1" cx="454.13" cy="385.19" r="14.78"/><circle cx="454.13" cy="385.19" r="7.68" transform="translate(-139.36 433.94) rotate(-45)"/><circle class="cls-1" cx="729.89" cy="385.19" r="14.78"/><circle cx="729.89" cy="385.19" r="7.68" transform="translate(-58.59 628.93) rotate(-45)"/><circle class="cls-1" cx="765.62" cy="385.19" r="14.78"/><circle cx="765.62" cy="385.19" r="7.68" transform="translate(-48.13 654.2) rotate(-45)"/><circle class="cls-1" cx="161" cy="380.52" r="19.45"/><circle class="cls-1" cx="219.37" cy="380.52" r="19.45"/><circle class="cls-9" cx="190.19" cy="401.5" r="6.38"/><path class="cls-10" d="M202.27,411.95a12.08,12.08,0,0,1-24.17,0"/><circle cx="161" cy="380.52" r="10.11"/><circle cx="219.37" cy="380.52" r="10.11"/><line class="cls-11" x1="164.22" y1="455.95" x2="155.11" y2="523.99"/><path class="cls-9" d="M172.36,548.49c0-.33,0-.66-.05-1s.05-.65.05-1v-14a17.07,17.07,0,0,0-17-17h-4.26A17.08,17.08,0,0,0,134.13,531h-1.06a17.53,17.53,0,0,0-17.48,17.48,17.31,17.31,0,0,0,1.36,6.74h54A17.31,17.31,0,0,0,172.36,548.49Z"/><line class="cls-11" x1="216.15" y1="455.95" x2="225.26" y2="523.99"/><path class="cls-9" d="M208,548.49c0-.33,0-.66.05-1s-.05-.65-.05-1v-14a17.07,17.07,0,0,1,17-17h4.26A17.08,17.08,0,0,1,246.24,531h1.06a17.53,17.53,0,0,1,17.48,17.48,17.31,17.31,0,0,1-1.36,6.74h-54A17.31,17.31,0,0,1,208,548.49Z"/><circle class="cls-1" cx="1017.34" cy="380.52" r="19.45"/><circle class="cls-1" cx="1075.71" cy="380.52" r="19.45"/><circle class="cls-12" cx="1046.52" cy="401.5" r="6.38"/><path class="cls-13" d="M1058.61,411.95a12.08,12.08,0,0,1-24.17,0"/><circle cx="1017.34" cy="380.52" r="10.11"/><circle cx="1075.71" cy="380.52" r="10.11"/><line class="cls-14" x1="1020.56" y1="455.95" x2="1011.45" y2="523.99"/><path class="cls-12" d="M1028.7,548.49c0-.33,0-.66-.05-1s.05-.65.05-1v-14a17.07,17.07,0,0,0-17-17h-4.26A17.08,17.08,0,0,0,990.47,531h-1.06a17.53,17.53,0,0,0-17.48,17.48,17.31,17.31,0,0,0,1.36,6.74h54A17.31,17.31,0,0,0,1028.7,548.49Z"/><line class="cls-14" x1="1072.49" y1="455.95" x2="1081.6" y2="523.99"/><path class="cls-12" d="M1064.35,548.49c0-.33,0-.66.05-1s-.05-.65-.05-1v-14a17.07,17.07,0,0,1,17-17h4.26a17.08,17.08,0,0,1,16.95,15.5h1.06a17.53,17.53,0,0,1,17.48,17.48,17.31,17.31,0,0,1-1.36,6.74h-54A17.31,17.31,0,0,1,1064.35,548.49Z"/><line class="cls-15" x1="459.79" y1="455.95" x2="450.67" y2="523.99"/><path class="cls-8" d="M467.93,548.49c0-.33,0-.66-.05-1s.05-.65.05-1v-14a17.07,17.07,0,0,0-17-17h-4.26A17.08,17.08,0,0,0,429.7,531h-1.06a17.53,17.53,0,0,0-17.48,17.48,17.31,17.31,0,0,0,1.36,6.74h54A17.31,17.31,0,0,0,467.93,548.49Z"/><line class="cls-15" x1="497.12" y1="455.95" x2="506.24" y2="523.99"/><path class="cls-8" d="M489,548.49c0-.33,0-.66.05-1s-.05-.65-.05-1v-14a17.07,17.07,0,0,1,17-17h4.26A17.08,17.08,0,0,1,527.21,531h1.06a17.53,17.53,0,0,1,17.48,17.48,17.31,17.31,0,0,1-1.36,6.74h-54A17.31,17.31,0,0,1,489,548.49Z"/><path class="cls-16" d="M756.68,548.49c0-.33,0-.66-.05-1s.05-.65.05-1v-14a17.07,17.07,0,0,0-17-17H735.4A17.08,17.08,0,0,0,718.46,531H717.4a17.53,17.53,0,0,0-17.48,17.48,17.31,17.31,0,0,0,1.36,6.74h54A17.31,17.31,0,0,0,756.68,548.49Z"/><path class="cls-16" d="M777.74,548.49c0-.33,0-.66.05-1s-.05-.65-.05-1v-14a17.07,17.07,0,0,1,17-17H799A17.08,17.08,0,0,1,816,531H817a17.53,17.53,0,0,1,17.48,17.48,17.31,17.31,0,0,1-1.36,6.74h-54A17.31,17.31,0,0,1,777.74,548.49Z"/><path class="cls-17" d="M763.49,405.78a7.18,7.18,0,0,1-7.37,7"/><rect class="cls-16" x="741.83" y="385.19" width="11.86" height="21.65" rx="2.44" ry="2.44"/><path class="cls-1" d="M1198.52,94.13a24.18,24.18,0,0,0-11.42-2.85H949.66a24.47,24.47,0,0,0-24.4,24.4V208a24.47,24.47,0,0,0,24.4,24.4h169.55a25.57,25.57,0,0,1-4.31,21.93,25.63,25.63,0,0,0,28.65-21.93h43.55a24.47,24.47,0,0,0,24.4-24.4V115.67a24.46,24.46,0,0,0-13-21.54"/><path class="cls-1" d="M2.5,175.24V26.9A24.47,24.47,0,0,1,26.9,2.5H230.29a24.47,24.47,0,0,1,24.4,24.4V209.25a24.47,24.47,0,0,1-24.4,24.4H60.73A25.57,25.57,0,0,0,65,255.58,25.63,25.63,0,0,1,36.4,233.65H26.9a24.47,24.47,0,0,1-24.4-24.4v-34Z"/><line class="cls-17" x1="828.45" y1="74.25" x2="807.09" y2="74.25"/><path class="cls-17" d="M900.17,119.94V98.65a24.47,24.47,0,0,0-24.4-24.4H828.45"/><path class="cls-17" d="M793.49,74.25H606.72a24.47,24.47,0,0,0-24.4,24.4V208a24.47,24.47,0,0,0,24.4,24.4H841.94a25.57,25.57,0,0,1-4.31,21.93,25.63,25.63,0,0,0,28.65-21.93h9.5a24.47,24.47,0,0,0,24.4-24.4V139.34"/><path class="cls-1" d="M563.9,185.35V110a24.47,24.47,0,0,0-24.4-24.4H302.07a24.47,24.47,0,0,0-24.4,24.4V219.37a24.47,24.47,0,0,0,24.4,24.4H505.67a25.57,25.57,0,0,1-4.31,21.93A25.63,25.63,0,0,0,530,243.76h9.5a24.47,24.47,0,0,0,24.4-24.4v-34Z"/><path class="cls-4" d="M823,363.94a111.34,111.34,0,0,0,16.57,7.73l14.68,5.43a9.11,9.11,0,0,1,0,17.08L849.28,396"/><path class="cls-4" d="M823,363.94"/><path class="cls-4" d="M799.34,345.86q3.7,3.72,7.74,7.08"/><path class="cls-4" d="M784.62,327.54a111,111,0,0,0,7.91,10.81"/><path class="cls-4" d="M741.84,315.7q2.27-4.72,4.11-9.68l5.43-14.68a9.11,9.11,0,0,1,17.08,0L773.89,306q1.82,4.91,4.06,9.58"/><path d="M956.93,135.36h-2.82V114.61h2.82Z"/><path d="M970.65,131.26a1.91,1.91,0,0,0-.71-1.52,6.63,6.63,0,0,0-2.67-1,11.23,11.23,0,0,1-4.23-1.66,3.35,3.35,0,0,1-1.42-2.85,4,4,0,0,1,1.6-3.2,7.27,7.27,0,0,1,8.44.06,4.09,4.09,0,0,1,1.52,3.36l0,.09h-2.68a2.45,2.45,0,0,0-.85-1.82,3.12,3.12,0,0,0-2.24-.81,3.24,3.24,0,0,0-2.22.66,2.06,2.06,0,0,0-.73,1.58,1.76,1.76,0,0,0,.64,1.44,6.65,6.65,0,0,0,2.61.94,11.23,11.23,0,0,1,4.35,1.7,3.43,3.43,0,0,1,1.43,2.89,4,4,0,0,1-1.66,3.32,7,7,0,0,1-4.34,1.27,6.78,6.78,0,0,1-4.65-1.5,4.27,4.27,0,0,1-1.61-3.49l0-.09h2.68a2.58,2.58,0,0,0,1.11,2.18,4.3,4.3,0,0,0,2.44.69,4,4,0,0,0,2.34-.61A1.87,1.87,0,0,0,970.65,131.26Z"/><path d="M987.91,116.22v3.72h2.92V122h-2.92v9.36a2.1,2.1,0,0,0,.45,1.52,1.62,1.62,0,0,0,1.19.44,2.81,2.81,0,0,0,.53-.06,3.27,3.27,0,0,0,.52-.14l.37,1.92a2.48,2.48,0,0,1-.92.42,4.65,4.65,0,0,1-1.22.16,3.64,3.64,0,0,1-2.72-1,4.49,4.49,0,0,1-1-3.24V122h-2.45v-2.08h2.45v-3.72Z"/><path d="M997.1,122a5.69,5.69,0,0,1,2-1.73,5.38,5.38,0,0,1,2.57-.62,5,5,0,0,1,3.84,1.48,6.52,6.52,0,0,1,1.38,4.56v9.66H1004v-9.69a4.13,4.13,0,0,0-.82-2.82,3.12,3.12,0,0,0-2.44-.91,4.15,4.15,0,0,0-2.12.55A4.58,4.58,0,0,0,997.1,124v11.39h-2.81V113.13h2.81Z"/><path d="M1020.36,135.36q-.14-.7-.22-1.23a9,9,0,0,1-.09-1.08,6.55,6.55,0,0,1-2,1.86,5.23,5.23,0,0,1-2.71.75,5,5,0,0,1-3.67-1.23,4.53,4.53,0,0,1-1.26-3.4,4,4,0,0,1,1.79-3.46,8.35,8.35,0,0,1,4.85-1.25h3V124.8a2.83,2.83,0,0,0-.83-2.14,3.25,3.25,0,0,0-2.34-.79,3.37,3.37,0,0,0-2.2.69,2.08,2.08,0,0,0-.85,1.66h-2.68l0-.09a3.73,3.73,0,0,1,1.59-3.08,6.53,6.53,0,0,1,4.33-1.4,6.37,6.37,0,0,1,4.22,1.33,4.72,4.72,0,0,1,1.6,3.84v7.42a14.45,14.45,0,0,0,.09,1.6,8.21,8.21,0,0,0,.31,1.51Zm-4.66-2.07a5,5,0,0,0,2.75-.78,3.72,3.72,0,0,0,1.6-1.79v-2.5h-3.15a4.1,4.1,0,0,0-2.71.85,2.55,2.55,0,0,0-1,2,2.11,2.11,0,0,0,.64,1.62A2.7,2.7,0,0,0,1015.7,133.3Z"/><path d="M1030.63,116.22v3.72h2.92V122h-2.92v9.36a2.1,2.1,0,0,0,.45,1.52,1.62,1.62,0,0,0,1.19.44,2.81,2.81,0,0,0,.53-.06,3.27,3.27,0,0,0,.52-.14l.37,1.92a2.48,2.48,0,0,1-.92.42,4.65,4.65,0,0,1-1.22.16,3.64,3.64,0,0,1-2.72-1,4.49,4.49,0,0,1-1-3.24V122h-2.45v-2.08h2.45v-3.72Z"/><path d="M1051.57,122.42l-1.44-.09a3.22,3.22,0,0,0-1.88.53,3.38,3.38,0,0,0-1.17,1.48v11h-2.81V119.94h2.51l.27,2.25a5.35,5.35,0,0,1,1.62-1.87,3.79,3.79,0,0,1,2.22-.67,3.47,3.47,0,0,1,.6,0l.47.11Z"/><path d="M1060.4,135.66a6.5,6.5,0,0,1-5.12-2.14,8.07,8.07,0,0,1-1.9-5.56v-.63a7.91,7.91,0,0,1,2-5.48,6,6,0,0,1,4.64-2.19,5.84,5.84,0,0,1,4.72,1.88,7.49,7.49,0,0,1,1.6,5v1.75h-10l0,.07a6.07,6.07,0,0,0,1.13,3.65,3.59,3.59,0,0,0,3,1.43,7.06,7.06,0,0,0,2.5-.41,5.75,5.75,0,0,0,1.86-1.12l1.1,1.83a6.49,6.49,0,0,1-2.18,1.36A8.73,8.73,0,0,1,1060.4,135.66Zm-.43-13.79a3,3,0,0,0-2.41,1.19,5.61,5.61,0,0,0-1.23,3l0,.07h7.11v-.37a4.28,4.28,0,0,0-.88-2.76A3.16,3.16,0,0,0,1060,121.87Z"/><path d="M1078.4,131.26a1.91,1.91,0,0,0-.71-1.52,6.63,6.63,0,0,0-2.67-1,11.23,11.23,0,0,1-4.23-1.66,3.35,3.35,0,0,1-1.42-2.85,4,4,0,0,1,1.6-3.2,7.27,7.27,0,0,1,8.44.06,4.09,4.09,0,0,1,1.52,3.36l0,.09h-2.68a2.45,2.45,0,0,0-.85-1.82,3.12,3.12,0,0,0-2.24-.81,3.24,3.24,0,0,0-2.22.66,2.06,2.06,0,0,0-.73,1.58,1.76,1.76,0,0,0,.64,1.44,6.65,6.65,0,0,0,2.61.94,11.23,11.23,0,0,1,4.35,1.7,3.43,3.43,0,0,1,1.43,2.89,4,4,0,0,1-1.66,3.32,7,7,0,0,1-4.34,1.27,6.78,6.78,0,0,1-4.65-1.5,4.27,4.27,0,0,1-1.61-3.49l0-.09h2.68a2.58,2.58,0,0,0,1.11,2.18,4.3,4.3,0,0,0,2.44.69,4,4,0,0,0,2.34-.61A1.87,1.87,0,0,0,1078.4,131.26Z"/><path d="M1088.41,116.22v3.72h2.92V122h-2.92v9.36a2.1,2.1,0,0,0,.45,1.52,1.62,1.62,0,0,0,1.19.44,2.81,2.81,0,0,0,.53-.06,3.27,3.27,0,0,0,.52-.14l.37,1.92a2.48,2.48,0,0,1-.92.42,4.65,4.65,0,0,1-1.22.16,3.64,3.64,0,0,1-2.72-1,4.49,4.49,0,0,1-1-3.24V122h-2.45v-2.08h2.45v-3.72Z"/><path d="M1104.27,135.36q-.14-.7-.22-1.23a9,9,0,0,1-.09-1.08,6.55,6.55,0,0,1-2,1.86,5.23,5.23,0,0,1-2.71.75,5,5,0,0,1-3.67-1.23,4.53,4.53,0,0,1-1.26-3.4,4,4,0,0,1,1.79-3.46,8.35,8.35,0,0,1,4.85-1.25h3V124.8a2.83,2.83,0,0,0-.83-2.14,3.25,3.25,0,0,0-2.34-.79,3.37,3.37,0,0,0-2.2.69,2.08,2.08,0,0,0-.85,1.66h-2.68l0-.09a3.73,3.73,0,0,1,1.59-3.08,6.53,6.53,0,0,1,4.33-1.4,6.37,6.37,0,0,1,4.22,1.33,4.72,4.72,0,0,1,1.6,3.84v7.42a14.45,14.45,0,0,0,.09,1.6,8.21,8.21,0,0,0,.31,1.51Zm-4.66-2.07a5,5,0,0,0,2.75-.78,3.72,3.72,0,0,0,1.6-1.79v-2.5h-3.15a4.1,4.1,0,0,0-2.71.85,2.55,2.55,0,0,0-1,2,2.11,2.11,0,0,0,.64,1.62A2.7,2.7,0,0,0,1099.61,133.3Z"/><path d="M1120.63,133.08a5.22,5.22,0,0,1-1.87,1.91,5.11,5.11,0,0,1-2.64.67,5,5,0,0,1-3.93-1.61q-1.41-1.61-1.41-5v-9.09h2.81v9.12a5.74,5.74,0,0,0,.73,3.39,2.7,2.7,0,0,0,2.27.93,4.62,4.62,0,0,0,2.47-.61,3.79,3.79,0,0,0,1.47-1.72V119.94h2.81v15.42h-2.52Z"/><path d="M1134.72,122.42l-1.44-.09a3.21,3.21,0,0,0-1.87.53,3.38,3.38,0,0,0-1.18,1.48v11h-2.81V119.94h2.51l.27,2.25a5.35,5.35,0,0,1,1.62-1.87,3.78,3.78,0,0,1,2.22-.67,3.47,3.47,0,0,1,.6,0l.47.11Z"/><path d="M1146.9,135.36q-.14-.7-.22-1.23a9,9,0,0,1-.09-1.08,6.55,6.55,0,0,1-2,1.86,5.23,5.23,0,0,1-2.71.75,5,5,0,0,1-3.67-1.23,4.53,4.53,0,0,1-1.26-3.4,4,4,0,0,1,1.79-3.46,8.35,8.35,0,0,1,4.85-1.25h3V124.8a2.83,2.83,0,0,0-.83-2.14,3.25,3.25,0,0,0-2.34-.79,3.37,3.37,0,0,0-2.2.69,2.08,2.08,0,0,0-.85,1.66h-2.68l0-.09a3.73,3.73,0,0,1,1.59-3.08,6.53,6.53,0,0,1,4.33-1.4,6.37,6.37,0,0,1,4.22,1.33,4.72,4.72,0,0,1,1.6,3.84v7.42a14.45,14.45,0,0,0,.09,1.6,8.21,8.21,0,0,0,.31,1.51Zm-4.66-2.07a5,5,0,0,0,2.75-.78,3.72,3.72,0,0,0,1.6-1.79v-2.5h-3.15a4.1,4.1,0,0,0-2.71.85,2.55,2.55,0,0,0-1,2,2.11,2.11,0,0,0,.64,1.62A2.7,2.7,0,0,0,1142.24,133.3Z"/><path d="M1156,119.94l.2,2.29a5.6,5.6,0,0,1,1.93-1.9,5.15,5.15,0,0,1,2.64-.68,5,5,0,0,1,3.86,1.46,6.41,6.41,0,0,1,1.37,4.51v9.73h-2.81v-9.68a4.17,4.17,0,0,0-.81-2.89,3.23,3.23,0,0,0-2.46-.86,4,4,0,0,0-2.14.58,4.27,4.27,0,0,0-1.49,1.6v11.24h-2.81V119.94Z"/><path d="M1173.77,116.22v3.72h2.92V122h-2.92v9.36a2.1,2.1,0,0,0,.45,1.52,1.62,1.62,0,0,0,1.19.44,2.81,2.81,0,0,0,.53-.06,3.27,3.27,0,0,0,.52-.14l.37,1.92a2.48,2.48,0,0,1-.92.42,4.65,4.65,0,0,1-1.22.16,3.64,3.64,0,0,1-2.72-1,4.49,4.49,0,0,1-1-3.24V122h-2.45v-2.08H1171v-3.72Z"/><path d="M957.39,164.77l.33,1.87h.09l.4-1.87,3.08-9.8h2.25l3.09,9.8.44,2.08h.09l.41-2.08L970,155h2.79l-4.47,15.42H966l-3-9.39-.64-2.62h-.09l-.61,2.61-2.94,9.39h-2.27L952,155h2.79Z"/><path d="M978.33,157a5.69,5.69,0,0,1,2-1.73,5.38,5.38,0,0,1,2.57-.62,5,5,0,0,1,3.84,1.48,6.52,6.52,0,0,1,1.38,4.56v9.66h-2.81v-9.69a4.13,4.13,0,0,0-.82-2.82A3.12,3.12,0,0,0,982,157a4.15,4.15,0,0,0-2.12.55,4.58,4.58,0,0,0-1.56,1.49v11.39h-2.81V148.15h2.81Z"/><path d="M998.51,170.68a6.5,6.5,0,0,1-5.12-2.14,8.07,8.07,0,0,1-1.9-5.56v-.63a7.91,7.91,0,0,1,2-5.48,6,6,0,0,1,4.64-2.19,5.84,5.84,0,0,1,4.72,1.88,7.49,7.49,0,0,1,1.6,5v1.75h-10l0,.07a6.07,6.07,0,0,0,1.13,3.65,3.59,3.59,0,0,0,3,1.43,7.06,7.06,0,0,0,2.5-.41,5.75,5.75,0,0,0,1.86-1.12l1.1,1.83a6.49,6.49,0,0,1-2.18,1.36A8.73,8.73,0,0,1,998.51,170.68Zm-.43-13.79a3,3,0,0,0-2.41,1.19,5.61,5.61,0,0,0-1.23,3l0,.07h7.11v-.37a4.28,4.28,0,0,0-.88-2.76A3.16,3.16,0,0,0,998.09,156.89Z"/><path d="M1013.95,170.68a6.5,6.5,0,0,1-5.12-2.14,8.07,8.07,0,0,1-1.9-5.56v-.63a7.91,7.91,0,0,1,2-5.48,6,6,0,0,1,4.64-2.19,5.84,5.84,0,0,1,4.72,1.88,7.49,7.49,0,0,1,1.6,5v1.75h-10l0,.07a6.07,6.07,0,0,0,1.13,3.65,3.59,3.59,0,0,0,3,1.43,7.06,7.06,0,0,0,2.5-.41,5.75,5.75,0,0,0,1.86-1.12l1.1,1.83a6.49,6.49,0,0,1-2.18,1.36A8.73,8.73,0,0,1,1013.95,170.68Zm-.43-13.79a3,3,0,0,0-2.41,1.19,5.61,5.61,0,0,0-1.23,3l0,.07H1017v-.37a4.28,4.28,0,0,0-.88-2.76A3.16,3.16,0,0,0,1013.52,156.89Z"/><path d="M1026,170.38h-2.81V148.15H1026Z"/><path d="M1036.6,168.48a3.79,3.79,0,0,0,2.46-.86,2.63,2.63,0,0,0,1.06-2.12h2.52l0,.09a4.34,4.34,0,0,1-1.77,3.55,6.47,6.47,0,0,1-4.3,1.55,6.24,6.24,0,0,1-5.14-2.19,8.47,8.47,0,0,1-1.78-5.51v-.6a8.43,8.43,0,0,1,1.79-5.49,7,7,0,0,1,9.56-.61,5,5,0,0,1,1.66,3.92l0,.09h-2.54a3.26,3.26,0,0,0-1-2.4,3.43,3.43,0,0,0-2.52-1,3.39,3.39,0,0,0-3.16,1.59,7.47,7.47,0,0,0-.95,3.89v.6a7.56,7.56,0,0,0,.94,3.94A3.39,3.39,0,0,0,1036.6,168.48Z"/><path d="M1048.63,157a5.68,5.68,0,0,1,2-1.73,5.39,5.39,0,0,1,2.57-.62,5,5,0,0,1,3.84,1.48,6.52,6.52,0,0,1,1.38,4.56v9.66h-2.81v-9.69a4.13,4.13,0,0,0-.82-2.82,3.11,3.11,0,0,0-2.44-.91,4.16,4.16,0,0,0-2.12.55,4.58,4.58,0,0,0-1.56,1.49v11.39h-2.81V148.15h2.81Z"/><path d="M1071.89,170.38q-.14-.7-.22-1.23a9,9,0,0,1-.09-1.08,6.55,6.55,0,0,1-2,1.86,5.23,5.23,0,0,1-2.71.75,5,5,0,0,1-3.67-1.23,4.53,4.53,0,0,1-1.26-3.4,4,4,0,0,1,1.79-3.46,8.35,8.35,0,0,1,4.85-1.25h3v-1.52a2.83,2.83,0,0,0-.83-2.14,3.25,3.25,0,0,0-2.34-.79,3.37,3.37,0,0,0-2.2.69,2.08,2.08,0,0,0-.85,1.66h-2.68l0-.09a3.73,3.73,0,0,1,1.59-3.08,6.53,6.53,0,0,1,4.33-1.4,6.37,6.37,0,0,1,4.22,1.33,4.72,4.72,0,0,1,1.6,3.84v7.42a14.45,14.45,0,0,0,.09,1.6,8.21,8.21,0,0,0,.31,1.51Zm-4.66-2.07a5,5,0,0,0,2.75-.78,3.72,3.72,0,0,0,1.6-1.79v-2.5h-3.15a4.1,4.1,0,0,0-2.71.85,2.55,2.55,0,0,0-1,2,2.11,2.11,0,0,0,.64,1.62A2.7,2.7,0,0,0,1067.23,168.32Z"/><path d="M1081.49,151h-2.81v-2.86h2.81Zm0,19.37h-2.81V155h2.81Z"/><path d="M1093.11,157.45l-1.44-.09a3.21,3.21,0,0,0-1.87.53,3.38,3.38,0,0,0-1.18,1.48v11h-2.81V155h2.51l.27,2.25a5.35,5.35,0,0,1,1.62-1.87,3.78,3.78,0,0,1,2.22-.67,3.47,3.47,0,0,1,.6,0l.47.11Z"/><path d="M962.92,205.41q-.14-.7-.22-1.23a9,9,0,0,1-.09-1.08,6.55,6.55,0,0,1-2,1.86,5.23,5.23,0,0,1-2.71.75,5,5,0,0,1-3.67-1.23,4.53,4.53,0,0,1-1.26-3.4,4,4,0,0,1,1.79-3.46,8.35,8.35,0,0,1,4.85-1.25h3v-1.52a2.83,2.83,0,0,0-.83-2.14,3.25,3.25,0,0,0-2.34-.79,3.37,3.37,0,0,0-2.2.69,2.08,2.08,0,0,0-.85,1.66h-2.68l0-.09a3.73,3.73,0,0,1,1.59-3.08,6.53,6.53,0,0,1,4.33-1.4,6.37,6.37,0,0,1,4.22,1.33,4.72,4.72,0,0,1,1.6,3.84v7.42a14.45,14.45,0,0,0,.09,1.6,8.21,8.21,0,0,0,.31,1.51Zm-4.66-2.07a5,5,0,0,0,2.75-.78,3.72,3.72,0,0,0,1.6-1.79v-2.5h-3.15a4.1,4.1,0,0,0-2.71.85,2.55,2.55,0,0,0-1,2,2.11,2.11,0,0,0,.64,1.62A2.7,2.7,0,0,0,958.26,203.34Z"/><path d="M975.75,203.5a3.79,3.79,0,0,0,2.46-.86,2.63,2.63,0,0,0,1.06-2.12h2.52l0,.09a4.34,4.34,0,0,1-1.77,3.55,6.47,6.47,0,0,1-4.3,1.55,6.24,6.24,0,0,1-5.14-2.19,8.47,8.47,0,0,1-1.78-5.51v-.6a8.43,8.43,0,0,1,1.79-5.49,7,7,0,0,1,9.56-.61,5,5,0,0,1,1.66,3.92l0,.09h-2.54a3.26,3.26,0,0,0-1-2.4,3.43,3.43,0,0,0-2.52-1,3.39,3.39,0,0,0-3.16,1.59,7.47,7.47,0,0,0-.95,3.89v.6a7.56,7.56,0,0,0,.94,3.94A3.39,3.39,0,0,0,975.75,203.5Z"/><path d="M991.25,203.5a3.79,3.79,0,0,0,2.46-.86,2.63,2.63,0,0,0,1.06-2.12h2.52l0,.09a4.34,4.34,0,0,1-1.77,3.55,6.47,6.47,0,0,1-4.3,1.55,6.24,6.24,0,0,1-5.14-2.19,8.47,8.47,0,0,1-1.78-5.51v-.6a8.43,8.43,0,0,1,1.79-5.49,7,7,0,0,1,9.56-.61,5,5,0,0,1,1.66,3.92l0,.09h-2.54a3.26,3.26,0,0,0-1-2.4,3.43,3.43,0,0,0-2.52-1,3.39,3.39,0,0,0-3.16,1.59,7.47,7.47,0,0,0-.95,3.89v.6a7.56,7.56,0,0,0,.94,3.94A3.39,3.39,0,0,0,991.25,203.5Z"/><path d="M1006.86,205.7a6.5,6.5,0,0,1-5.12-2.14,8.07,8.07,0,0,1-1.9-5.56v-.63a7.91,7.91,0,0,1,2-5.48,6,6,0,0,1,4.64-2.19,5.84,5.84,0,0,1,4.72,1.88,7.49,7.49,0,0,1,1.6,5v1.75h-10l0,.07a6.07,6.07,0,0,0,1.13,3.65,3.59,3.59,0,0,0,3,1.43,7.06,7.06,0,0,0,2.5-.41,5.75,5.75,0,0,0,1.86-1.12l1.1,1.83a6.49,6.49,0,0,1-2.18,1.36A8.73,8.73,0,0,1,1006.86,205.7Zm-.43-13.79a3,3,0,0,0-2.41,1.19,5.61,5.61,0,0,0-1.23,3l0,.07h7.11v-.37a4.28,4.28,0,0,0-.88-2.76A3.16,3.16,0,0,0,1006.44,191.91Z"/><path d="M1024.86,201.3a1.91,1.91,0,0,0-.71-1.52,6.63,6.63,0,0,0-2.67-1,11.23,11.23,0,0,1-4.23-1.66,3.35,3.35,0,0,1-1.42-2.85,4,4,0,0,1,1.6-3.2,7.27,7.27,0,0,1,8.44.06,4.09,4.09,0,0,1,1.52,3.36l0,.09h-2.68a2.45,2.45,0,0,0-.85-1.82,3.12,3.12,0,0,0-2.24-.81,3.24,3.24,0,0,0-2.22.66,2.06,2.06,0,0,0-.73,1.58,1.76,1.76,0,0,0,.64,1.44,6.65,6.65,0,0,0,2.61.94,11.23,11.23,0,0,1,4.35,1.7,3.43,3.43,0,0,1,1.43,2.89,4,4,0,0,1-1.66,3.32,7,7,0,0,1-4.34,1.27,6.78,6.78,0,0,1-4.65-1.5,4.27,4.27,0,0,1-1.61-3.49l0-.09h2.68a2.58,2.58,0,0,0,1.11,2.18,4.3,4.3,0,0,0,2.44.69,4,4,0,0,0,2.34-.61A1.87,1.87,0,0,0,1024.86,201.3Z"/><path d="M1040.12,201.3a1.91,1.91,0,0,0-.71-1.52,6.63,6.63,0,0,0-2.67-1,11.23,11.23,0,0,1-4.23-1.66,3.35,3.35,0,0,1-1.42-2.85,4,4,0,0,1,1.6-3.2,7.27,7.27,0,0,1,8.44.06,4.09,4.09,0,0,1,1.52,3.36l0,.09H1040a2.45,2.45,0,0,0-.85-1.82,3.12,3.12,0,0,0-2.24-.81,3.24,3.24,0,0,0-2.22.66,2.06,2.06,0,0,0-.73,1.58,1.76,1.76,0,0,0,.64,1.44,6.65,6.65,0,0,0,2.61.94,11.23,11.23,0,0,1,4.35,1.7,3.43,3.43,0,0,1,1.43,2.89,4,4,0,0,1-1.66,3.32,7,7,0,0,1-4.34,1.27,6.78,6.78,0,0,1-4.65-1.5,4.27,4.27,0,0,1-1.61-3.49l0-.09h2.68a2.58,2.58,0,0,0,1.11,2.18,4.3,4.3,0,0,0,2.44.69,4,4,0,0,0,2.34-.61A1.87,1.87,0,0,0,1040.12,201.3Z"/><path d="M1049.46,186h-2.81v-2.86h2.81Zm0,19.37h-2.81V190h2.81Z"/><path d="M1066.94,198.28a8.47,8.47,0,0,1-1.6,5.38,5.3,5.3,0,0,1-4.41,2,5.62,5.62,0,0,1-2.65-.59,4.93,4.93,0,0,1-1.87-1.75l-.34,2h-2.29V183.17h2.81v8.64a4.87,4.87,0,0,1,1.8-1.57,5.53,5.53,0,0,1,2.52-.54,5.12,5.12,0,0,1,4.45,2.28,10.26,10.26,0,0,1,1.6,6Zm-2.81-.3a8.51,8.51,0,0,0-1-4.33,3.21,3.21,0,0,0-3-1.67,3.67,3.67,0,0,0-2.19.63,4.47,4.47,0,0,0-1.42,1.7V201a4.59,4.59,0,0,0,1.42,1.78,3.65,3.65,0,0,0,2.22.64,3.34,3.34,0,0,0,2.95-1.41,6.48,6.48,0,0,0,1-3.73Z"/><path d="M1073.4,205.41h-2.81V183.17h2.81Z"/><path d="M1084.12,205.7a6.5,6.5,0,0,1-5.12-2.14,8.07,8.07,0,0,1-1.9-5.56v-.63a7.91,7.91,0,0,1,2-5.48,6,6,0,0,1,4.64-2.19,5.84,5.84,0,0,1,4.72,1.88,7.49,7.49,0,0,1,1.6,5v1.75h-10l0,.07a6.07,6.07,0,0,0,1.13,3.65,3.59,3.59,0,0,0,3,1.43,7.06,7.06,0,0,0,2.5-.41,5.75,5.75,0,0,0,1.86-1.12l1.1,1.83a6.49,6.49,0,0,1-2.18,1.36A8.73,8.73,0,0,1,1084.12,205.7Zm-.43-13.79a3,3,0,0,0-2.41,1.19,5.61,5.61,0,0,0-1.23,3l0,.07h7.11v-.37a4.28,4.28,0,0,0-.88-2.76A3.16,3.16,0,0,0,1083.69,191.91Z"/><path d="M1096.17,199.56a8.33,8.33,0,0,1,.36-2.86,7.24,7.24,0,0,1,1.8-2.11,31.28,31.28,0,0,0,2-2.57,3.82,3.82,0,0,0,.6-2.17,3.16,3.16,0,0,0-.81-2.32,3.1,3.1,0,0,0-2.3-.81,3.5,3.5,0,0,0-2.21.71,2.46,2.46,0,0,0-.91,2.07H1092l0-.09a4.43,4.43,0,0,1,1.62-3.68,6.38,6.38,0,0,1,4.23-1.38,6.19,6.19,0,0,1,4.36,1.43,5.17,5.17,0,0,1,1.55,4,6,6,0,0,1-1,3.36,18.77,18.77,0,0,1-2.66,3.12,3.35,3.35,0,0,0-.93,1.38,8.06,8.06,0,0,0-.16,1.91Zm2.91,5.84h-2.94v-3h2.94Z"/><path class="cls-4" d="M322.39,383.91c-4.27,30.54-28.94,49.47-60.16,63.56"/><path class="cls-4" d="M272.9,293.77a87.59,87.59,0,0,1,44,47.81"/><path class="cls-4" d="M244.62,285.95a85.91,85.91,0,0,1,15.6,3"/><path class="cls-4" d="M207.65,289.81c7.61-3,16.26-4.41,26.12-4.41"/><path d="M34.28,46.36,39.7,35.81H42.9L35.62,49.26v7.3H32.83V49.08L25.66,35.81h3.21Z"/><path d="M43.64,48.71a8.49,8.49,0,0,1,1.85-5.64,6.21,6.21,0,0,1,5-2.22,6.27,6.27,0,0,1,5.07,2.21,8.46,8.46,0,0,1,1.86,5.64V49a8.45,8.45,0,0,1-1.85,5.64,6.25,6.25,0,0,1-5,2.19,6.27,6.27,0,0,1-5.05-2.2A8.43,8.43,0,0,1,43.64,49Zm2.81.31a7.3,7.3,0,0,0,1,4,3.74,3.74,0,0,0,6.12,0,7.26,7.26,0,0,0,1-4V48.7a7.24,7.24,0,0,0-1-4,3.44,3.44,0,0,0-3.07-1.61,3.39,3.39,0,0,0-3,1.61,7.32,7.32,0,0,0-1,4Z"/><path d="M70.68,54.28a5.22,5.22,0,0,1-1.87,1.91,5.11,5.11,0,0,1-2.64.67,5,5,0,0,1-3.93-1.61q-1.41-1.61-1.41-5V41.14h2.81v9.12a5.74,5.74,0,0,0,.73,3.39,2.7,2.7,0,0,0,2.27.93A4.62,4.62,0,0,0,69.1,54a3.79,3.79,0,0,0,1.47-1.72V41.14h2.81V56.56H70.86Z"/><path d="M91,54.65a3.79,3.79,0,0,0,2.46-.86,2.63,2.63,0,0,0,1.06-2.12H97l0,.09a4.34,4.34,0,0,1-1.77,3.55A6.47,6.47,0,0,1,91,56.86a6.24,6.24,0,0,1-5.14-2.19,8.47,8.47,0,0,1-1.78-5.51v-.6a8.43,8.43,0,0,1,1.79-5.49,7,7,0,0,1,9.56-.61,5,5,0,0,1,1.66,3.92l0,.09H94.52a3.26,3.26,0,0,0-1-2.4,3.43,3.43,0,0,0-2.52-1,3.39,3.39,0,0,0-3.16,1.59,7.47,7.47,0,0,0-.95,3.89v.6a7.56,7.56,0,0,0,.94,3.94A3.39,3.39,0,0,0,91,54.65Z"/><path d="M109.69,56.56q-.14-.7-.22-1.23a9,9,0,0,1-.09-1.08,6.55,6.55,0,0,1-2,1.86,5.23,5.23,0,0,1-2.71.75A5,5,0,0,1,101,55.63a4.53,4.53,0,0,1-1.26-3.4,4,4,0,0,1,1.79-3.46,8.35,8.35,0,0,1,4.85-1.25h3V46a2.83,2.83,0,0,0-.83-2.14,3.25,3.25,0,0,0-2.34-.79,3.37,3.37,0,0,0-2.2.69,2.08,2.08,0,0,0-.85,1.66h-2.68l0-.09A3.73,3.73,0,0,1,102,42.25a6.53,6.53,0,0,1,4.33-1.4,6.37,6.37,0,0,1,4.22,1.33,4.72,4.72,0,0,1,1.6,3.84v7.42a14.45,14.45,0,0,0,.09,1.6,8.21,8.21,0,0,0,.31,1.51ZM105,54.49a5,5,0,0,0,2.75-.78,3.72,3.72,0,0,0,1.6-1.79v-2.5h-3.15a4.1,4.1,0,0,0-2.71.85,2.55,2.55,0,0,0-1,2,2.11,2.11,0,0,0,.64,1.62A2.7,2.7,0,0,0,105,54.49Z"/><path d="M118.77,41.14l.2,2.29a5.6,5.6,0,0,1,1.93-1.9,5.15,5.15,0,0,1,2.64-.68,5,5,0,0,1,3.86,1.46,6.41,6.41,0,0,1,1.37,4.51v9.73H126V46.88a4.17,4.17,0,0,0-.81-2.89,3.23,3.23,0,0,0-2.46-.86,4,4,0,0,0-2.14.58,4.27,4.27,0,0,0-1.49,1.6V56.56h-2.81V41.14Z"/><path d="M147.4,43.62,146,43.53a3.21,3.21,0,0,0-1.87.53,3.38,3.38,0,0,0-1.18,1.48v11h-2.81V41.14h2.51l.27,2.25a5.35,5.35,0,0,1,1.62-1.87,3.78,3.78,0,0,1,2.22-.67,3.47,3.47,0,0,1,.6,0l.47.11Z"/><path d="M156.24,56.86a6.5,6.5,0,0,1-5.12-2.14,8.07,8.07,0,0,1-1.9-5.56v-.63a7.91,7.91,0,0,1,2-5.48,6,6,0,0,1,4.64-2.19,5.84,5.84,0,0,1,4.72,1.88,7.49,7.49,0,0,1,1.6,5V49.5h-10l0,.07a6.07,6.07,0,0,0,1.13,3.65,3.59,3.59,0,0,0,3,1.43,7.06,7.06,0,0,0,2.5-.41,5.75,5.75,0,0,0,1.86-1.12L161.7,55a6.49,6.49,0,0,1-2.18,1.36A8.73,8.73,0,0,1,156.24,56.86Zm-.43-13.79a3,3,0,0,0-2.41,1.19,5.61,5.61,0,0,0-1.23,3l0,.07h7.11v-.37a4.28,4.28,0,0,0-.88-2.76A3.16,3.16,0,0,0,155.81,43.06Z"/><path d="M170.23,52l.24,1.08h.09l.27-1.08,3.55-10.87h2.86l-5.67,15.42h-2.12L163.7,41.14h2.88Z"/><path d="M182.8,37.19H180V34.33h2.81Zm0,19.37H180V41.14h2.81Z"/><path d="M193.52,56.86a6.5,6.5,0,0,1-5.12-2.14,8.07,8.07,0,0,1-1.9-5.56v-.63a7.91,7.91,0,0,1,2-5.48,6,6,0,0,1,4.64-2.19,5.84,5.84,0,0,1,4.72,1.88,7.49,7.49,0,0,1,1.6,5V49.5h-10l0,.07a6.07,6.07,0,0,0,1.13,3.65,3.59,3.59,0,0,0,3,1.43,7.06,7.06,0,0,0,2.5-.41,5.75,5.75,0,0,0,1.86-1.12L199,55a6.49,6.49,0,0,1-2.18,1.36A8.73,8.73,0,0,1,193.52,56.86Zm-.43-13.79a3,3,0,0,0-2.41,1.19,5.61,5.61,0,0,0-1.23,3l0,.07h7.11v-.37a4.28,4.28,0,0,0-.88-2.76A3.16,3.16,0,0,0,193.09,43.06Z"/><path d="M206.5,50.94l.33,1.87h.09l.4-1.87,3.08-9.8h2.25l3.09,9.8.44,2.08h.09l.41-2.08,2.42-9.8h2.79l-4.47,15.42h-2.27l-3-9.39-.64-2.62h-.09l-.61,2.61-2.94,9.39h-2.27l-4.47-15.42h2.79Z"/><path d="M36.89,91.58q-.14-.7-.22-1.23a9,9,0,0,1-.09-1.08,6.55,6.55,0,0,1-2,1.86,5.23,5.23,0,0,1-2.71.75,5,5,0,0,1-3.67-1.23,4.53,4.53,0,0,1-1.26-3.4,4,4,0,0,1,1.79-3.46,8.35,8.35,0,0,1,4.85-1.25h3V81a2.83,2.83,0,0,0-.83-2.14,3.25,3.25,0,0,0-2.34-.79,3.37,3.37,0,0,0-2.2.69,2.08,2.08,0,0,0-.85,1.66H27.68l0-.09a3.73,3.73,0,0,1,1.59-3.08,6.53,6.53,0,0,1,4.33-1.4,6.37,6.37,0,0,1,4.22,1.33,4.72,4.72,0,0,1,1.6,3.84v7.42a14.45,14.45,0,0,0,.09,1.6,8.21,8.21,0,0,0,.31,1.51Zm-4.66-2.07A5,5,0,0,0,35,88.73a3.72,3.72,0,0,0,1.6-1.79v-2.5H33.43a4.1,4.1,0,0,0-2.71.85,2.55,2.55,0,0,0-1,2,2.11,2.11,0,0,0,.64,1.62A2.7,2.7,0,0,0,32.23,89.52Z"/><path d="M50.07,84.16a10.29,10.29,0,0,1,1.59-6,5.12,5.12,0,0,1,4.45-2.28,5.52,5.52,0,0,1,2.4.5,4.92,4.92,0,0,1,1.79,1.45V69.35h2.81V91.58H60.82l-.33-1.9a5,5,0,0,1-1.85,1.64,5.57,5.57,0,0,1-2.55.56,5.29,5.29,0,0,1-4.42-2,8.5,8.5,0,0,1-1.6-5.38Zm2.81.3a6.55,6.55,0,0,0,1,3.74,3.33,3.33,0,0,0,3,1.4A3.72,3.72,0,0,0,58.91,89a4.26,4.26,0,0,0,1.4-1.6v-7.2a4.32,4.32,0,0,0-1.4-1.52,3.71,3.71,0,0,0-2.07-.56,3.21,3.21,0,0,0-3,1.67,8.61,8.61,0,0,0-1,4.33Z"/><path d="M66.64,83.73a8.49,8.49,0,0,1,1.85-5.64,6.87,6.87,0,0,1,10.1,0,8.46,8.46,0,0,1,1.86,5.64V84a8.45,8.45,0,0,1-1.85,5.64,6.9,6.9,0,0,1-10.1,0A8.43,8.43,0,0,1,66.64,84Zm2.81.31a7.3,7.3,0,0,0,1,4,3.74,3.74,0,0,0,6.12,0,7.26,7.26,0,0,0,1-4v-.31a7.24,7.24,0,0,0-1-4,3.44,3.44,0,0,0-3.07-1.61,3.39,3.39,0,0,0-3,1.61,7.32,7.32,0,0,0-1,4Z"/><path d="M90.16,89.67a3.79,3.79,0,0,0,2.46-.86,2.63,2.63,0,0,0,1.06-2.12H96.2l0,.09a4.34,4.34,0,0,1-1.77,3.55,6.47,6.47,0,0,1-4.3,1.55A6.24,6.24,0,0,1,85,89.69a8.47,8.47,0,0,1-1.78-5.51v-.6A8.43,8.43,0,0,1,85,78.08a7,7,0,0,1,9.56-.61,5,5,0,0,1,1.66,3.92l0,.09H93.68a3.26,3.26,0,0,0-1-2.4,3.43,3.43,0,0,0-2.52-1A3.39,3.39,0,0,0,87,79.67a7.47,7.47,0,0,0-.95,3.89v.6A7.56,7.56,0,0,0,87,88.1,3.39,3.39,0,0,0,90.16,89.67Z"/><path d="M103.08,72.44v3.72H106v2.08h-2.92v9.36a2.1,2.1,0,0,0,.45,1.52,1.62,1.62,0,0,0,1.19.44,2.81,2.81,0,0,0,.53-.06,3.27,3.27,0,0,0,.52-.14l.37,1.92a2.48,2.48,0,0,1-.92.42,4.65,4.65,0,0,1-1.22.16,3.64,3.64,0,0,1-2.72-1,4.49,4.49,0,0,1-1-3.24V78.24H97.82V76.16h2.45V72.44Z"/><path d="M108.81,83.73a8.49,8.49,0,0,1,1.85-5.64,6.87,6.87,0,0,1,10.1,0,8.46,8.46,0,0,1,1.86,5.64V84a8.45,8.45,0,0,1-1.85,5.64,6.9,6.9,0,0,1-10.1,0A8.43,8.43,0,0,1,108.81,84Zm2.81.31a7.3,7.3,0,0,0,1,4,3.74,3.74,0,0,0,6.12,0,7.26,7.26,0,0,0,1-4v-.31a7.24,7.24,0,0,0-1-4,3.44,3.44,0,0,0-3.07-1.61,3.39,3.39,0,0,0-3,1.61,7.32,7.32,0,0,0-1,4Z"/><path d="M133.35,78.64l-1.44-.09a3.21,3.21,0,0,0-1.87.53,3.38,3.38,0,0,0-1.18,1.48v11h-2.81V76.16h2.51l.27,2.25a5.35,5.35,0,0,1,1.62-1.87,3.78,3.78,0,0,1,2.22-.67,3.47,3.47,0,0,1,.6,0l.47.11Z"/><path d="M136.06,90.9l-2.14,4.36h-1.67l1-4.5V88.43h2.81Z"/><path d="M40.58,119.48a8.47,8.47,0,0,1-1.6,5.38,5.3,5.3,0,0,1-4.41,2,5.62,5.62,0,0,1-2.65-.59A4.93,4.93,0,0,1,30,124.56l-.34,2H27.41V104.37h2.81V113a4.87,4.87,0,0,1,1.8-1.57,5.53,5.53,0,0,1,2.52-.54A5.12,5.12,0,0,1,39,113.18a10.26,10.26,0,0,1,1.6,6Zm-2.81-.3a8.51,8.51,0,0,0-1-4.33,3.21,3.21,0,0,0-3-1.67,3.67,3.67,0,0,0-2.19.63,4.47,4.47,0,0,0-1.42,1.7v6.68A4.59,4.59,0,0,0,31.64,124a3.65,3.65,0,0,0,2.22.64,3.34,3.34,0,0,0,2.95-1.41,6.48,6.48,0,0,0,1-3.73Z"/><path d="M53.79,124.32a5.22,5.22,0,0,1-1.87,1.91,5.11,5.11,0,0,1-2.64.67,5,5,0,0,1-3.93-1.61q-1.41-1.61-1.41-5v-9.09h2.81v9.12a5.74,5.74,0,0,0,.73,3.39,2.7,2.7,0,0,0,2.27.93,4.62,4.62,0,0,0,2.47-.61,3.79,3.79,0,0,0,1.47-1.72V111.18H56.5V126.6H54Z"/><path d="M69.55,122.5a1.91,1.91,0,0,0-.71-1.52,6.63,6.63,0,0,0-2.67-1,11.23,11.23,0,0,1-4.23-1.66,3.35,3.35,0,0,1-1.42-2.85,4,4,0,0,1,1.6-3.2,7.27,7.27,0,0,1,8.44.06,4.09,4.09,0,0,1,1.52,3.36l0,.09H69.38a2.45,2.45,0,0,0-.85-1.82,3.12,3.12,0,0,0-2.24-.81,3.24,3.24,0,0,0-2.22.66,2.06,2.06,0,0,0-.73,1.58,1.76,1.76,0,0,0,.64,1.44,6.65,6.65,0,0,0,2.61.94,11.23,11.23,0,0,1,4.35,1.7,3.43,3.43,0,0,1,1.43,2.89,4,4,0,0,1-1.66,3.32,7,7,0,0,1-4.34,1.27,6.78,6.78,0,0,1-4.65-1.5,4.27,4.27,0,0,1-1.61-3.49l0-.09h2.68A2.58,2.58,0,0,0,63.92,124a4.3,4.3,0,0,0,2.44.69,4,4,0,0,0,2.34-.61A1.87,1.87,0,0,0,69.55,122.5Z"/><path d="M78.89,107.24H76.08v-2.86h2.81Zm0,19.37H76.08V111.18h2.81Z"/><path d="M85.71,111.18l.2,2.29a5.6,5.6,0,0,1,1.93-1.9,5.15,5.15,0,0,1,2.64-.68,5,5,0,0,1,3.86,1.46,6.41,6.41,0,0,1,1.37,4.51v9.73H92.91v-9.68A4.17,4.17,0,0,0,92.1,114a3.23,3.23,0,0,0-2.46-.86,4,4,0,0,0-2.14.58,4.27,4.27,0,0,0-1.49,1.6V126.6H83.2V111.18Z"/><path d="M106.19,126.9a6.5,6.5,0,0,1-5.12-2.14,8.07,8.07,0,0,1-1.9-5.56v-.63a7.91,7.91,0,0,1,2-5.48,6,6,0,0,1,4.64-2.19,5.84,5.84,0,0,1,4.72,1.88,7.49,7.49,0,0,1,1.6,5v1.75h-10l0,.07a6.07,6.07,0,0,0,1.13,3.65,3.59,3.59,0,0,0,3,1.43,7.06,7.06,0,0,0,2.5-.41,5.75,5.75,0,0,0,1.86-1.12l1.1,1.83a6.49,6.49,0,0,1-2.18,1.36A8.73,8.73,0,0,1,106.19,126.9Zm-.43-13.79a3,3,0,0,0-2.41,1.19,5.61,5.61,0,0,0-1.23,3l0,.07h7.11V117a4.28,4.28,0,0,0-.88-2.76A3.16,3.16,0,0,0,105.76,113.11Z"/><path d="M124.19,122.5a1.91,1.91,0,0,0-.71-1.52,6.63,6.63,0,0,0-2.67-1,11.23,11.23,0,0,1-4.23-1.66,3.35,3.35,0,0,1-1.42-2.85,4,4,0,0,1,1.6-3.2,7.27,7.27,0,0,1,8.44.06,4.09,4.09,0,0,1,1.52,3.36l0,.09H124a2.45,2.45,0,0,0-.85-1.82,3.12,3.12,0,0,0-2.24-.81,3.24,3.24,0,0,0-2.22.66,2.06,2.06,0,0,0-.73,1.58,1.76,1.76,0,0,0,.64,1.44,6.65,6.65,0,0,0,2.61.94,11.23,11.23,0,0,1,4.35,1.7,3.43,3.43,0,0,1,1.43,2.89,4,4,0,0,1-1.66,3.32A7,7,0,0,1,121,126.9a6.78,6.78,0,0,1-4.65-1.5,4.27,4.27,0,0,1-1.61-3.49l0-.09h2.68a2.58,2.58,0,0,0,1.11,2.18,4.3,4.3,0,0,0,2.44.69,4,4,0,0,0,2.34-.61A1.87,1.87,0,0,0,124.19,122.5Z"/><path d="M139.45,122.5a1.91,1.91,0,0,0-.71-1.52,6.63,6.63,0,0,0-2.67-1,11.23,11.23,0,0,1-4.23-1.66,3.35,3.35,0,0,1-1.42-2.85,4,4,0,0,1,1.6-3.2,7.27,7.27,0,0,1,8.44.06,4.09,4.09,0,0,1,1.52,3.36l0,.09h-2.68a2.45,2.45,0,0,0-.85-1.82,3.12,3.12,0,0,0-2.24-.81,3.24,3.24,0,0,0-2.22.66,2.06,2.06,0,0,0-.73,1.58,1.76,1.76,0,0,0,.64,1.44,6.65,6.65,0,0,0,2.61.94,11.23,11.23,0,0,1,4.35,1.7,3.43,3.43,0,0,1,1.43,2.89,4,4,0,0,1-1.66,3.32,7,7,0,0,1-4.34,1.27,6.78,6.78,0,0,1-4.65-1.5,4.27,4.27,0,0,1-1.61-3.49l0-.09h2.68a2.58,2.58,0,0,0,1.11,2.18,4.3,4.3,0,0,0,2.44.69,4,4,0,0,0,2.34-.61A1.87,1.87,0,0,0,139.45,122.5Z"/><path d="M148.2,125.92l-2.14,4.36h-1.67l1-4.5v-2.32h2.81Z"/><path d="M26.76,153.77a8.49,8.49,0,0,1,1.85-5.64,6.21,6.21,0,0,1,5-2.22,6.27,6.27,0,0,1,5.07,2.21,8.46,8.46,0,0,1,1.86,5.64v.31a8.45,8.45,0,0,1-1.85,5.64,6.25,6.25,0,0,1-5,2.19,6.27,6.27,0,0,1-5.05-2.2,8.43,8.43,0,0,1-1.86-5.64Zm2.81.31a7.3,7.3,0,0,0,1,4,3.74,3.74,0,0,0,6.12,0,7.26,7.26,0,0,0,1-4v-.31a7.24,7.24,0,0,0-1-4,3.44,3.44,0,0,0-3.07-1.61,3.39,3.39,0,0,0-3,1.61,7.32,7.32,0,0,0-1,4Z"/><path d="M51.3,148.69l-1.44-.09a3.21,3.21,0,0,0-1.87.53,3.38,3.38,0,0,0-1.18,1.48v11H44V146.21h2.51l.27,2.25a5.35,5.35,0,0,1,1.62-1.87,3.78,3.78,0,0,1,2.22-.67,3.47,3.47,0,0,1,.6,0l.47.11Z"/><path d="M70.22,157.52a1.91,1.91,0,0,0-.71-1.52,6.63,6.63,0,0,0-2.67-1,11.23,11.23,0,0,1-4.23-1.66,3.35,3.35,0,0,1-1.42-2.85,4,4,0,0,1,1.6-3.2,7.27,7.27,0,0,1,8.44.06,4.09,4.09,0,0,1,1.52,3.36l0,.09H70a2.45,2.45,0,0,0-.85-1.82,3.12,3.12,0,0,0-2.24-.81,3.24,3.24,0,0,0-2.22.66,2.06,2.06,0,0,0-.73,1.58,1.76,1.76,0,0,0,.64,1.44,6.65,6.65,0,0,0,2.61.94,11.23,11.23,0,0,1,4.35,1.7A3.43,3.43,0,0,1,73,157.34a4,4,0,0,1-1.66,3.32A7,7,0,0,1,67,161.92a6.78,6.78,0,0,1-4.65-1.5,4.27,4.27,0,0,1-1.61-3.49l0-.09h2.68A2.58,2.58,0,0,0,64.59,159a4.3,4.3,0,0,0,2.44.69,4,4,0,0,0,2.34-.61A1.87,1.87,0,0,0,70.22,157.52Z"/><path d="M82.92,161.92a6.5,6.5,0,0,1-5.12-2.14,8.07,8.07,0,0,1-1.9-5.56v-.63a7.91,7.91,0,0,1,2-5.48,6,6,0,0,1,4.64-2.19,5.84,5.84,0,0,1,4.72,1.88,7.49,7.49,0,0,1,1.6,5v1.75h-10l0,.07a6.07,6.07,0,0,0,1.13,3.65,3.59,3.59,0,0,0,3,1.43,7.06,7.06,0,0,0,2.5-.41,5.75,5.75,0,0,0,1.86-1.12l1.1,1.83a6.49,6.49,0,0,1-2.18,1.36A8.73,8.73,0,0,1,82.92,161.92Zm-.43-13.79a3,3,0,0,0-2.41,1.19,5.61,5.61,0,0,0-1.23,3l0,.07H86V152a4.28,4.28,0,0,0-.88-2.76A3.16,3.16,0,0,0,82.49,148.13Z"/><path d="M99.25,148.69l-1.44-.09a3.21,3.21,0,0,0-1.87.53,3.38,3.38,0,0,0-1.18,1.48v11H92V146.21h2.51l.27,2.25a5.35,5.35,0,0,1,1.62-1.87,3.78,3.78,0,0,1,2.22-.67,3.47,3.47,0,0,1,.6,0l.47.11Z"/><path d="M107.36,157.08l.24,1.08h.09l.27-1.08,3.55-10.87h2.86l-5.67,15.42h-2.12l-5.74-15.42h2.88Z"/><path d="M119.93,142.26h-2.81v-2.86h2.81Zm0,19.37h-2.81V146.21h2.81Z"/><path d="M130.51,159.72a3.79,3.79,0,0,0,2.46-.86,2.63,2.63,0,0,0,1.06-2.12h2.52l0,.09a4.34,4.34,0,0,1-1.77,3.55,6.47,6.47,0,0,1-4.3,1.55,6.24,6.24,0,0,1-5.14-2.19,8.47,8.47,0,0,1-1.78-5.51v-.6a8.43,8.43,0,0,1,1.79-5.49,7,7,0,0,1,9.56-.61,5,5,0,0,1,1.66,3.92l0,.09H134a3.26,3.26,0,0,0-1-2.4,3.43,3.43,0,0,0-2.52-1,3.39,3.39,0,0,0-3.16,1.59,7.47,7.47,0,0,0-.95,3.89v.6a7.56,7.56,0,0,0,.94,3.94A3.39,3.39,0,0,0,130.51,159.72Z"/><path d="M146.13,161.92a6.5,6.5,0,0,1-5.12-2.14,8.07,8.07,0,0,1-1.9-5.56v-.63a7.91,7.91,0,0,1,2-5.48,6,6,0,0,1,4.64-2.19,5.84,5.84,0,0,1,4.72,1.88,7.49,7.49,0,0,1,1.6,5v1.75H142l0,.07a6.07,6.07,0,0,0,1.13,3.65,3.59,3.59,0,0,0,3,1.43,7.06,7.06,0,0,0,2.5-.41,5.75,5.75,0,0,0,1.86-1.12l1.1,1.83a6.49,6.49,0,0,1-2.18,1.36A8.73,8.73,0,0,1,146.13,161.92Zm-.43-13.79a3,3,0,0,0-2.41,1.19,5.61,5.61,0,0,0-1.23,3l0,.07h7.11V152a4.28,4.28,0,0,0-.88-2.76A3.16,3.16,0,0,0,145.71,148.13Z"/><path d="M158.37,154.81h-2.81V140.88h2.81Zm0,6.81h-2.82v-2.91h2.82Z"/><path d="M39.18,191.3H30.49l-2,5.34H25.66l8-20.75h2.41L44,196.65H41.12ZM31.36,189h7l-3.42-9.45h-.09Z"/><path d="M48.82,181.23l.2,2.29a5.6,5.6,0,0,1,1.93-1.9,5.15,5.15,0,0,1,2.64-.68,5,5,0,0,1,3.86,1.46,6.41,6.41,0,0,1,1.37,4.51v9.73H56V187a4.17,4.17,0,0,0-.81-2.89,3.23,3.23,0,0,0-2.46-.86,4,4,0,0,0-2.14.58,4.27,4.27,0,0,0-1.49,1.6v11.24H46.31V181.23Z"/><path d="M67.61,190.93l.5,1.94h.09L72,181.23h3.12L68.62,199A8,8,0,0,1,67,201.72,3.85,3.85,0,0,1,64,202.87a6.13,6.13,0,0,1-.87-.08q-.53-.08-.81-.15l.29-2.21.51,0,.75,0a1.73,1.73,0,0,0,1.47-.8,8.29,8.29,0,0,0,1-1.77l.67-1.61-5.73-15.11h3.14Z"/><path d="M81.28,177.51v3.72H84.2v2.08H81.28v9.36a2.1,2.1,0,0,0,.45,1.52,1.62,1.62,0,0,0,1.19.44,2.81,2.81,0,0,0,.53-.06,3.27,3.27,0,0,0,.52-.14l.37,1.92a2.48,2.48,0,0,1-.92.42,4.65,4.65,0,0,1-1.22.16,3.64,3.64,0,0,1-2.72-1,4.49,4.49,0,0,1-1-3.24v-9.36H76v-2.08h2.45v-3.72Z"/><path d="M90.47,183.29a5.69,5.69,0,0,1,2-1.73,5.38,5.38,0,0,1,2.57-.62,5,5,0,0,1,3.84,1.48,6.52,6.52,0,0,1,1.38,4.56v9.66H97.41V187a4.13,4.13,0,0,0-.82-2.82,3.12,3.12,0,0,0-2.44-.91,4.15,4.15,0,0,0-2.12.55,4.58,4.58,0,0,0-1.56,1.49v11.39H87.66V174.42h2.81Z"/><path d="M107.29,177.28h-2.81v-2.86h2.81Zm0,19.37h-2.81V181.23h2.81Z"/><path d="M114.11,181.23l.2,2.29a5.6,5.6,0,0,1,1.93-1.9,5.15,5.15,0,0,1,2.64-.68,5,5,0,0,1,3.86,1.46,6.41,6.41,0,0,1,1.37,4.51v9.73h-2.81V187a4.17,4.17,0,0,0-.81-2.89,3.23,3.23,0,0,0-2.46-.86,4,4,0,0,0-2.14.58,4.27,4.27,0,0,0-1.49,1.6v11.24H111.6V181.23Z"/><path d="M127.58,189.22a10.12,10.12,0,0,1,1.62-6,5.21,5.21,0,0,1,4.49-2.28,5.41,5.41,0,0,1,2.58.59,5.07,5.07,0,0,1,1.85,1.7l.34-2h2.24v15.5a5.88,5.88,0,0,1-1.72,4.55,7.08,7.08,0,0,1-5,1.59,10.43,10.43,0,0,1-2.4-.31,9.39,9.39,0,0,1-2.27-.83l.71-2.18a7.2,7.2,0,0,0,1.82.69,8.78,8.78,0,0,0,2.11.26,4.09,4.09,0,0,0,3-.93,3.87,3.87,0,0,0,.93-2.84V195a4.9,4.9,0,0,1-1.81,1.46,5.67,5.67,0,0,1-2.42.49,5.38,5.38,0,0,1-4.46-2.05,8.4,8.4,0,0,1-1.62-5.37Zm2.81.3a6.41,6.41,0,0,0,1,3.73,3.4,3.4,0,0,0,3,1.41,3.71,3.71,0,0,0,2.12-.58,4.38,4.38,0,0,0,1.41-1.63v-7.1a4.36,4.36,0,0,0-1.41-1.56,3.7,3.7,0,0,0-2.09-.58,3.27,3.27,0,0,0-3,1.68,8.37,8.37,0,0,0-1,4.32Z"/><path d="M147.23,196l-2.14,4.36h-1.67l1-4.5V193.5h2.81Z"/><path d="M165.09,183.71l-1.44-.09a3.21,3.21,0,0,0-1.87.53,3.38,3.38,0,0,0-1.18,1.48v11h-2.81V181.23h2.51l.27,2.25a5.35,5.35,0,0,1,1.62-1.87,3.78,3.78,0,0,1,2.22-.67,3.47,3.47,0,0,1,.6,0l.47.11Z"/><path d="M173.92,196.95a6.5,6.5,0,0,1-5.12-2.14,8.07,8.07,0,0,1-1.9-5.56v-.63a7.91,7.91,0,0,1,2-5.48,6,6,0,0,1,4.64-2.19,5.84,5.84,0,0,1,4.72,1.88,7.49,7.49,0,0,1,1.6,5v1.75h-10l0,.07a6.07,6.07,0,0,0,1.13,3.65,3.59,3.59,0,0,0,3,1.43,7.06,7.06,0,0,0,2.5-.41,5.75,5.75,0,0,0,1.86-1.12l1.1,1.83a6.49,6.49,0,0,1-2.18,1.36A8.73,8.73,0,0,1,173.92,196.95Zm-.43-13.79a3,3,0,0,0-2.41,1.19,5.61,5.61,0,0,0-1.23,3l0,.07H177V187a4.28,4.28,0,0,0-.88-2.76A3.16,3.16,0,0,0,173.49,183.15Z"/><path d="M192.43,196.65q-.14-.7-.22-1.23a9,9,0,0,1-.09-1.08,6.55,6.55,0,0,1-2,1.86,5.23,5.23,0,0,1-2.71.75,5,5,0,0,1-3.67-1.23,4.53,4.53,0,0,1-1.26-3.4,4,4,0,0,1,1.79-3.46,8.35,8.35,0,0,1,4.85-1.25h3v-1.52a2.83,2.83,0,0,0-.83-2.14,3.25,3.25,0,0,0-2.34-.79,3.37,3.37,0,0,0-2.2.69,2.08,2.08,0,0,0-.85,1.66h-2.68l0-.09a3.73,3.73,0,0,1,1.59-3.08,6.53,6.53,0,0,1,4.33-1.4,6.37,6.37,0,0,1,4.22,1.33,4.72,4.72,0,0,1,1.6,3.84v7.42a14.45,14.45,0,0,0,.09,1.6,8.21,8.21,0,0,0,.31,1.51Zm-4.66-2.07a5,5,0,0,0,2.75-.78,3.72,3.72,0,0,0,1.6-1.79v-2.5H189a4.1,4.1,0,0,0-2.71.85,2.55,2.55,0,0,0-1,2,2.11,2.11,0,0,0,.64,1.62A2.7,2.7,0,0,0,187.77,194.58Z"/><path d="M202,196.65h-2.81V174.42H202Z"/><path d="M209.39,196.65h-2.81V174.42h2.81Z"/><path d="M218.43,190.93l.5,1.94H219l3.79-11.64h3.12L219.44,199a8,8,0,0,1-1.67,2.71,3.85,3.85,0,0,1-2.94,1.15,6.13,6.13,0,0,1-.87-.08q-.53-.08-.81-.15l.29-2.21.51,0,.75,0a1.73,1.73,0,0,0,1.47-.8,8.29,8.29,0,0,0,1-1.77l.67-1.61L212,181.23h3.14Z"/><path d="M229.1,196.65h-2.81v-2.91h2.81Z"/><path d="M317.17,138.18V117.43h6.37a8.52,8.52,0,0,1,9,9v2.84a8.5,8.5,0,0,1-9,8.95ZM320,119.64V136h3.56a5.73,5.73,0,0,0,4.54-1.89,7.1,7.1,0,0,0,1.66-4.86v-2.86a7.06,7.06,0,0,0-1.66-4.83,5.73,5.73,0,0,0-4.54-1.89Z"/><path d="M335.21,130.33a8.49,8.49,0,0,1,1.85-5.64,6.87,6.87,0,0,1,10.1,0,8.46,8.46,0,0,1,1.86,5.64v.31a8.45,8.45,0,0,1-1.85,5.64,6.9,6.9,0,0,1-10.1,0,8.43,8.43,0,0,1-1.86-5.64Zm2.81.31a7.3,7.3,0,0,0,1,4,3.74,3.74,0,0,0,6.12,0,7.26,7.26,0,0,0,1-4v-.31a7.24,7.24,0,0,0-1-4,3.44,3.44,0,0,0-3.07-1.61,3.39,3.39,0,0,0-3,1.61,7.32,7.32,0,0,0-1,4Z"/><path d="M358.85,138.48a6.5,6.5,0,0,1-5.12-2.14,8.07,8.07,0,0,1-1.9-5.56v-.63a7.91,7.91,0,0,1,2-5.48,6,6,0,0,1,4.64-2.19,5.84,5.84,0,0,1,4.72,1.88,7.49,7.49,0,0,1,1.6,5v1.75h-10l0,.07a6.07,6.07,0,0,0,1.13,3.65,3.59,3.59,0,0,0,3,1.43,7.06,7.06,0,0,0,2.5-.41,5.75,5.75,0,0,0,1.86-1.12l1.1,1.83a6.49,6.49,0,0,1-2.18,1.36A8.73,8.73,0,0,1,358.85,138.48Zm-.43-13.79a3,3,0,0,0-2.41,1.19,5.61,5.61,0,0,0-1.23,3l0,.07h7.11v-.37a4.28,4.28,0,0,0-.88-2.76A3.16,3.16,0,0,0,358.43,124.69Z"/><path d="M376.85,134.08a1.91,1.91,0,0,0-.71-1.52,6.63,6.63,0,0,0-2.67-1,11.23,11.23,0,0,1-4.23-1.66,3.35,3.35,0,0,1-1.42-2.85,4,4,0,0,1,1.6-3.2,7.27,7.27,0,0,1,8.44.06,4.09,4.09,0,0,1,1.52,3.36l0,.09h-2.68a2.45,2.45,0,0,0-.85-1.82,3.12,3.12,0,0,0-2.24-.81,3.24,3.24,0,0,0-2.22.66,2.06,2.06,0,0,0-.73,1.58,1.76,1.76,0,0,0,.64,1.44,6.65,6.65,0,0,0,2.61.94,11.23,11.23,0,0,1,4.35,1.7,3.43,3.43,0,0,1,1.43,2.89,4,4,0,0,1-1.66,3.32,7,7,0,0,1-4.34,1.27A6.78,6.78,0,0,1,369,137a4.27,4.27,0,0,1-1.61-3.49l0-.09h2.68a2.58,2.58,0,0,0,1.11,2.18,4.3,4.3,0,0,0,2.44.69,4,4,0,0,0,2.34-.61A1.87,1.87,0,0,0,376.85,134.08Z"/><path d="M394.11,119v3.72H397v2.08h-2.92v9.36a2.1,2.1,0,0,0,.45,1.52,1.62,1.62,0,0,0,1.19.44,2.81,2.81,0,0,0,.53-.06,3.27,3.27,0,0,0,.52-.14l.37,1.92a2.48,2.48,0,0,1-.92.42,4.65,4.65,0,0,1-1.22.16,3.64,3.64,0,0,1-2.72-1,4.49,4.49,0,0,1-1-3.24v-9.36h-2.45v-2.08h2.45V119Z"/><path d="M403.3,124.83a5.69,5.69,0,0,1,2-1.73,5.38,5.38,0,0,1,2.57-.62,5,5,0,0,1,3.84,1.48,6.52,6.52,0,0,1,1.38,4.56v9.66h-2.81v-9.69a4.13,4.13,0,0,0-.82-2.82,3.12,3.12,0,0,0-2.44-.91,4.15,4.15,0,0,0-2.12.55,4.58,4.58,0,0,0-1.56,1.49v11.39h-2.81V116h2.81Z"/><path d="M426.56,138.18q-.14-.7-.22-1.23a9,9,0,0,1-.09-1.08,6.55,6.55,0,0,1-2,1.86,5.23,5.23,0,0,1-2.71.75,5,5,0,0,1-3.67-1.23,4.53,4.53,0,0,1-1.26-3.4,4,4,0,0,1,1.79-3.46,8.35,8.35,0,0,1,4.85-1.25h3v-1.52a2.83,2.83,0,0,0-.83-2.14,3.25,3.25,0,0,0-2.34-.79,3.37,3.37,0,0,0-2.2.69A2.08,2.08,0,0,0,420,127h-2.68l0-.09a3.73,3.73,0,0,1,1.59-3.08,6.53,6.53,0,0,1,4.33-1.4,6.37,6.37,0,0,1,4.22,1.33,4.72,4.72,0,0,1,1.6,3.84v7.42a14.45,14.45,0,0,0,.09,1.6,8.21,8.21,0,0,0,.31,1.51Zm-4.66-2.07a5,5,0,0,0,2.75-.78,3.72,3.72,0,0,0,1.6-1.79V131H423.1a4.1,4.1,0,0,0-2.71.85,2.55,2.55,0,0,0-1,2,2.11,2.11,0,0,0,.64,1.62A2.7,2.7,0,0,0,421.9,136.11Z"/><path d="M436.83,119v3.72h2.92v2.08h-2.92v9.36a2.1,2.1,0,0,0,.45,1.52,1.62,1.62,0,0,0,1.19.44,2.81,2.81,0,0,0,.53-.06,3.27,3.27,0,0,0,.52-.14l.37,1.92a2.48,2.48,0,0,1-.92.42,4.65,4.65,0,0,1-1.22.16,3.64,3.64,0,0,1-2.72-1,4.49,4.49,0,0,1-1-3.24v-9.36h-2.45v-2.08H434V119Z"/><path d="M455.61,133.63l.24,1.08h.09l.27-1.08,3.55-10.87h2.86L457,138.18h-2.12l-5.74-15.42H452Z"/><path d="M471.36,138.48a6.5,6.5,0,0,1-5.12-2.14,8.07,8.07,0,0,1-1.9-5.56v-.63a7.91,7.91,0,0,1,2-5.48,6,6,0,0,1,4.64-2.19,5.84,5.84,0,0,1,4.72,1.88,7.49,7.49,0,0,1,1.6,5v1.75h-10l0,.07a6.07,6.07,0,0,0,1.13,3.65,3.59,3.59,0,0,0,3,1.43,7.06,7.06,0,0,0,2.5-.41,5.75,5.75,0,0,0,1.86-1.12l1.1,1.83a6.49,6.49,0,0,1-2.18,1.36A8.73,8.73,0,0,1,471.36,138.48Zm-.43-13.79a3,3,0,0,0-2.41,1.19,5.61,5.61,0,0,0-1.23,3l0,.07h7.11v-.37a4.28,4.28,0,0,0-.88-2.76A3.16,3.16,0,0,0,470.93,124.69Z"/><path d="M482.9,122.76l.2,2.29a5.6,5.6,0,0,1,1.93-1.9,5.15,5.15,0,0,1,2.64-.68,5,5,0,0,1,3.86,1.46,6.41,6.41,0,0,1,1.37,4.51v9.73H490.1V128.5a4.17,4.17,0,0,0-.81-2.89,3.23,3.23,0,0,0-2.46-.86,4,4,0,0,0-2.14.58,4.27,4.27,0,0,0-1.49,1.6v11.24H480.4V122.76Z"/><path d="M506.77,135.9a5.22,5.22,0,0,1-1.87,1.91,5.11,5.11,0,0,1-2.64.67,5,5,0,0,1-3.93-1.61q-1.41-1.61-1.41-5v-9.09h2.81v9.12a5.74,5.74,0,0,0,.73,3.39,2.7,2.7,0,0,0,2.27.93,4.62,4.62,0,0,0,2.47-.61,3.79,3.79,0,0,0,1.47-1.72V122.76h2.81v15.42H507Z"/><path d="M520,138.48a6.5,6.5,0,0,1-5.12-2.14,8.07,8.07,0,0,1-1.9-5.56v-.63a7.91,7.91,0,0,1,2-5.48,6,6,0,0,1,4.64-2.19,5.84,5.84,0,0,1,4.72,1.88,7.49,7.49,0,0,1,1.6,5v1.75h-10l0,.07a6.07,6.07,0,0,0,1.13,3.65,3.59,3.59,0,0,0,3,1.43,7.06,7.06,0,0,0,2.5-.41,5.75,5.75,0,0,0,1.86-1.12l1.1,1.83a6.49,6.49,0,0,1-2.18,1.36A8.73,8.73,0,0,1,520,138.48Zm-.43-13.79a3,3,0,0,0-2.41,1.19,5.61,5.61,0,0,0-1.23,3l0,.07H523v-.37a4.28,4.28,0,0,0-.88-2.76A3.16,3.16,0,0,0,519.54,124.69Z"/><path d="M319.45,159.85a5.69,5.69,0,0,1,2-1.73,5.38,5.38,0,0,1,2.57-.62,5,5,0,0,1,3.84,1.48,6.52,6.52,0,0,1,1.38,4.56v9.66h-2.81v-9.69a4.13,4.13,0,0,0-.82-2.82,3.12,3.12,0,0,0-2.44-.91,4.15,4.15,0,0,0-2.12.55,4.58,4.58,0,0,0-1.56,1.49V173.2h-2.81V151h2.81Z"/><path d="M342.71,173.2q-.14-.7-.22-1.23a9,9,0,0,1-.09-1.08,6.55,6.55,0,0,1-2,1.86,5.23,5.23,0,0,1-2.71.75,5,5,0,0,1-3.67-1.23,4.53,4.53,0,0,1-1.26-3.4,4,4,0,0,1,1.79-3.46,8.35,8.35,0,0,1,4.85-1.25h3v-1.52a2.83,2.83,0,0,0-.83-2.14,3.25,3.25,0,0,0-2.34-.79,3.37,3.37,0,0,0-2.2.69,2.08,2.08,0,0,0-.85,1.66H333.5l0-.09a3.73,3.73,0,0,1,1.59-3.08,6.53,6.53,0,0,1,4.33-1.4,6.37,6.37,0,0,1,4.22,1.33,4.72,4.72,0,0,1,1.6,3.84v7.42a14.45,14.45,0,0,0,.09,1.6,8.21,8.21,0,0,0,.31,1.51ZM338,171.14a5,5,0,0,0,2.75-.78,3.72,3.72,0,0,0,1.6-1.79v-2.5h-3.15a4.1,4.1,0,0,0-2.71.85,2.55,2.55,0,0,0-1,2,2.11,2.11,0,0,0,.64,1.62A2.7,2.7,0,0,0,338,171.14Z"/><path d="M354.21,168.66l.24,1.08h.09l.27-1.08,3.55-10.87h2.86l-5.67,15.42h-2.12l-5.74-15.42h2.88Z"/><path d="M370,173.5a6.5,6.5,0,0,1-5.12-2.14,8.07,8.07,0,0,1-1.9-5.56v-.63a7.91,7.91,0,0,1,2-5.48,6,6,0,0,1,4.64-2.19,5.84,5.84,0,0,1,4.72,1.88,7.49,7.49,0,0,1,1.6,5v1.75h-10l0,.07a6.07,6.07,0,0,0,1.13,3.65,3.59,3.59,0,0,0,3,1.43,7.06,7.06,0,0,0,2.5-.41,5.75,5.75,0,0,0,1.86-1.12l1.1,1.83a6.49,6.49,0,0,1-2.18,1.36A8.73,8.73,0,0,1,370,173.5Zm-.43-13.79a3,3,0,0,0-2.41,1.19,5.61,5.61,0,0,0-1.23,3l0,.07H373v-.37a4.28,4.28,0,0,0-.88-2.76A3.16,3.16,0,0,0,369.53,159.71Z"/><path d="M395.72,173.2q-.14-.7-.22-1.23a9,9,0,0,1-.09-1.08,6.55,6.55,0,0,1-2,1.86,5.23,5.23,0,0,1-2.71.75,5,5,0,0,1-3.67-1.23,4.53,4.53,0,0,1-1.26-3.4,4,4,0,0,1,1.79-3.46,8.35,8.35,0,0,1,4.85-1.25h3v-1.52a2.83,2.83,0,0,0-.83-2.14,3.25,3.25,0,0,0-2.34-.79,3.37,3.37,0,0,0-2.2.69,2.08,2.08,0,0,0-.85,1.66h-2.68l0-.09a3.73,3.73,0,0,1,1.59-3.08,6.53,6.53,0,0,1,4.33-1.4,6.37,6.37,0,0,1,4.22,1.33,4.72,4.72,0,0,1,1.6,3.84v7.42a14.45,14.45,0,0,0,.09,1.6,8.21,8.21,0,0,0,.31,1.51Zm-4.66-2.07a5,5,0,0,0,2.75-.78,3.72,3.72,0,0,0,1.6-1.79v-2.5h-3.15a4.1,4.1,0,0,0-2.71.85,2.55,2.55,0,0,0-1,2,2.11,2.11,0,0,0,.64,1.62A2.7,2.7,0,0,0,391.06,171.14Z"/><path d="M405.32,173.2h-2.81V151h2.81Z"/><path d="M412.68,173.2h-2.81V151h2.81Z"/><path d="M423.64,165.78a10.12,10.12,0,0,1,1.62-6,5.21,5.21,0,0,1,4.49-2.28,5.41,5.41,0,0,1,2.58.59,5.07,5.07,0,0,1,1.85,1.7l.34-2h2.24v15.5a5.88,5.88,0,0,1-1.72,4.55,7.08,7.08,0,0,1-5,1.59,10.43,10.43,0,0,1-2.4-.31,9.39,9.39,0,0,1-2.27-.83l.71-2.18a7.2,7.2,0,0,0,1.82.69,8.78,8.78,0,0,0,2.11.26,4.09,4.09,0,0,0,3-.93,3.87,3.87,0,0,0,.93-2.84v-1.74a4.9,4.9,0,0,1-1.81,1.46,5.67,5.67,0,0,1-2.42.49,5.38,5.38,0,0,1-4.46-2.05,8.4,8.4,0,0,1-1.62-5.37Zm2.81.3a6.41,6.41,0,0,0,1,3.73,3.4,3.4,0,0,0,3,1.41,3.71,3.71,0,0,0,2.12-.58A4.38,4.38,0,0,0,434,169v-7.1a4.36,4.36,0,0,0-1.41-1.56,3.7,3.7,0,0,0-2.09-.58,3.27,3.27,0,0,0-3,1.68,8.37,8.37,0,0,0-1,4.32Z"/><path d="M447.24,173.5a6.5,6.5,0,0,1-5.12-2.14,8.07,8.07,0,0,1-1.9-5.56v-.63a7.91,7.91,0,0,1,2-5.48,6,6,0,0,1,4.64-2.19,5.84,5.84,0,0,1,4.72,1.88,7.49,7.49,0,0,1,1.6,5v1.75h-10l0,.07a6.07,6.07,0,0,0,1.13,3.65,3.59,3.59,0,0,0,3,1.43,7.06,7.06,0,0,0,2.5-.41,5.75,5.75,0,0,0,1.86-1.12l1.1,1.83a6.49,6.49,0,0,1-2.18,1.36A8.73,8.73,0,0,1,447.24,173.5Zm-.43-13.79a3,3,0,0,0-2.41,1.19,5.61,5.61,0,0,0-1.23,3l0,.07h7.11v-.37a4.28,4.28,0,0,0-.88-2.76A3.16,3.16,0,0,0,446.81,159.71Z"/><path d="M458.78,157.78l.2,2.29a5.6,5.6,0,0,1,1.93-1.9,5.15,5.15,0,0,1,2.64-.68,5,5,0,0,1,3.86,1.46,6.41,6.41,0,0,1,1.37,4.51v9.73H466v-9.68a4.17,4.17,0,0,0-.81-2.89,3.23,3.23,0,0,0-2.46-.86,4,4,0,0,0-2.14.58,4.27,4.27,0,0,0-1.49,1.6V173.2h-2.81V157.78Z"/><path d="M472.22,165.78a10.29,10.29,0,0,1,1.59-6,5.12,5.12,0,0,1,4.45-2.28,5.52,5.52,0,0,1,2.4.5,4.92,4.92,0,0,1,1.79,1.45V151h2.81V173.2H483l-.33-1.9a5,5,0,0,1-1.85,1.64,5.57,5.57,0,0,1-2.55.56,5.29,5.29,0,0,1-4.42-2,8.5,8.5,0,0,1-1.6-5.38Zm2.81.3a6.55,6.55,0,0,0,1,3.74,3.33,3.33,0,0,0,3,1.4,3.72,3.72,0,0,0,2.11-.57,4.26,4.26,0,0,0,1.4-1.6v-7.2a4.32,4.32,0,0,0-1.4-1.52,3.71,3.71,0,0,0-2.07-.56,3.21,3.21,0,0,0-3,1.67,8.61,8.61,0,0,0-1,4.33Z"/><path d="M495.84,173.5a6.5,6.5,0,0,1-5.12-2.14,8.07,8.07,0,0,1-1.9-5.56v-.63a7.91,7.91,0,0,1,2-5.48,6,6,0,0,1,4.64-2.19,5.84,5.84,0,0,1,4.72,1.88,7.49,7.49,0,0,1,1.6,5v1.75h-10l0,.07a6.07,6.07,0,0,0,1.13,3.65,3.59,3.59,0,0,0,3,1.43,7.06,7.06,0,0,0,2.5-.41,5.75,5.75,0,0,0,1.86-1.12l1.1,1.83a6.49,6.49,0,0,1-2.18,1.36A8.73,8.73,0,0,1,495.84,173.5Zm-.43-13.79a3,3,0,0,0-2.41,1.19,5.61,5.61,0,0,0-1.23,3l0,.07h7.11v-.37a4.28,4.28,0,0,0-.88-2.76A3.16,3.16,0,0,0,495.42,159.71Z"/><path d="M512.18,160.26l-1.44-.09a3.21,3.21,0,0,0-1.87.53,3.39,3.39,0,0,0-1.18,1.48v11h-2.81V157.78h2.51l.27,2.25a5.36,5.36,0,0,1,1.62-1.87,3.77,3.77,0,0,1,2.21-.67,3.47,3.47,0,0,1,.6,0l.47.11Z"/><path d="M329.81,201.1a8.47,8.47,0,0,1-1.6,5.38,5.3,5.3,0,0,1-4.41,2,5.62,5.62,0,0,1-2.65-.59,4.93,4.93,0,0,1-1.87-1.75l-.34,2h-2.29V186h2.81v8.64a4.87,4.87,0,0,1,1.8-1.57,5.53,5.53,0,0,1,2.52-.54,5.12,5.12,0,0,1,4.45,2.28,10.26,10.26,0,0,1,1.6,6Zm-2.81-.3a8.51,8.51,0,0,0-1-4.33,3.21,3.21,0,0,0-3-1.67,3.67,3.67,0,0,0-2.19.63,4.47,4.47,0,0,0-1.42,1.7v6.68a4.59,4.59,0,0,0,1.42,1.78,3.65,3.65,0,0,0,2.22.64,3.34,3.34,0,0,0,2.95-1.41,6.48,6.48,0,0,0,1-3.73Z"/><path d="M342.71,208.22q-.14-.7-.22-1.23a9,9,0,0,1-.09-1.08,6.55,6.55,0,0,1-2,1.86,5.23,5.23,0,0,1-2.71.75,5,5,0,0,1-3.67-1.23,4.53,4.53,0,0,1-1.26-3.4,4,4,0,0,1,1.79-3.46,8.35,8.35,0,0,1,4.85-1.25h3v-1.52a2.83,2.83,0,0,0-.83-2.14,3.25,3.25,0,0,0-2.34-.79,3.37,3.37,0,0,0-2.2.69,2.08,2.08,0,0,0-.85,1.66H333.5l0-.09a3.73,3.73,0,0,1,1.59-3.08,6.53,6.53,0,0,1,4.33-1.4,6.37,6.37,0,0,1,4.22,1.33,4.72,4.72,0,0,1,1.6,3.84v7.42a14.45,14.45,0,0,0,.09,1.6,8.21,8.21,0,0,0,.31,1.51ZM338,206.16a5,5,0,0,0,2.75-.78,3.72,3.72,0,0,0,1.6-1.79v-2.5h-3.15a4.1,4.1,0,0,0-2.71.85,2.55,2.55,0,0,0-1,2,2.11,2.11,0,0,0,.64,1.62A2.7,2.7,0,0,0,338,206.16Z"/><path d="M353,189.09v3.72h2.92v2.08H353v9.36a2.1,2.1,0,0,0,.45,1.52,1.62,1.62,0,0,0,1.19.44,2.81,2.81,0,0,0,.53-.06,3.27,3.27,0,0,0,.52-.14l.37,1.92a2.48,2.48,0,0,1-.92.42,4.65,4.65,0,0,1-1.22.16,3.64,3.64,0,0,1-2.72-1,4.49,4.49,0,0,1-1-3.24v-9.36h-2.45v-2.08h2.45v-3.72Z"/><path d="M362.17,194.87a5.69,5.69,0,0,1,2-1.73,5.38,5.38,0,0,1,2.57-.62,5,5,0,0,1,3.84,1.48,6.52,6.52,0,0,1,1.38,4.56v9.66h-2.81v-9.69a4.13,4.13,0,0,0-.82-2.82,3.12,3.12,0,0,0-2.44-.91,4.15,4.15,0,0,0-2.12.55,4.58,4.58,0,0,0-1.56,1.49v11.39h-2.81V186h2.81Z"/><path d="M383.25,195.29l-1.44-.09a3.21,3.21,0,0,0-1.87.53,3.38,3.38,0,0,0-1.18,1.48v11H376V192.81h2.51l.27,2.25a5.35,5.35,0,0,1,1.62-1.87,3.78,3.78,0,0,1,2.22-.67,3.47,3.47,0,0,1,.6,0l.47.11Z"/><path d="M385,200.37a8.49,8.49,0,0,1,1.85-5.64,6.87,6.87,0,0,1,10.1,0,8.46,8.46,0,0,1,1.86,5.64v.31a8.45,8.45,0,0,1-1.85,5.64,6.9,6.9,0,0,1-10.1,0,8.43,8.43,0,0,1-1.86-5.64Zm2.81.31a7.3,7.3,0,0,0,1,4,3.74,3.74,0,0,0,6.12,0,7.26,7.26,0,0,0,1-4v-.31a7.24,7.24,0,0,0-1-4,3.44,3.44,0,0,0-3.07-1.61,3.39,3.39,0,0,0-3,1.61,7.32,7.32,0,0,0-1,4Z"/><path d="M401.61,200.37a8.49,8.49,0,0,1,1.85-5.64,6.87,6.87,0,0,1,10.1,0,8.46,8.46,0,0,1,1.86,5.64v.31a8.45,8.45,0,0,1-1.85,5.64,6.9,6.9,0,0,1-10.1,0,8.43,8.43,0,0,1-1.86-5.64Zm2.81.31a7.3,7.3,0,0,0,1,4,3.74,3.74,0,0,0,6.12,0,7.26,7.26,0,0,0,1-4v-.31a7.24,7.24,0,0,0-1-4,3.44,3.44,0,0,0-3.07-1.61,3.39,3.39,0,0,0-3,1.61,7.32,7.32,0,0,0-1,4Z"/><path d="M421.36,192.81l.2,2a5.24,5.24,0,0,1,1.92-1.7,5.76,5.76,0,0,1,2.7-.61,4.77,4.77,0,0,1,2.64.71,4.31,4.31,0,0,1,1.66,2.14,5.72,5.72,0,0,1,1.92-2.08,5.05,5.05,0,0,1,2.79-.77,4.62,4.62,0,0,1,3.72,1.62,7.39,7.39,0,0,1,1.37,4.87v9.22h-2.81V199a5.13,5.13,0,0,0-.78-3.23,2.86,2.86,0,0,0-2.34-.95,3,3,0,0,0-2.33,1,4.34,4.34,0,0,0-1,2.52v9.9h-2.82V199a5.06,5.06,0,0,0-.81-3.17,2.79,2.79,0,0,0-2.32-1,3.86,3.86,0,0,0-2.11.53,3.41,3.41,0,0,0-1.27,1.48v11.41h-2.81V192.81Z"/><path d="M453.32,204.12a1.91,1.91,0,0,0-.71-1.52,6.63,6.63,0,0,0-2.67-1,11.23,11.23,0,0,1-4.23-1.66A3.35,3.35,0,0,1,444.3,197a4,4,0,0,1,1.6-3.2,7.27,7.27,0,0,1,8.44.06,4.09,4.09,0,0,1,1.52,3.36l0,.09h-2.68a2.45,2.45,0,0,0-.85-1.82,3.12,3.12,0,0,0-2.24-.81,3.24,3.24,0,0,0-2.22.66,2.06,2.06,0,0,0-.73,1.58,1.76,1.76,0,0,0,.64,1.44,6.65,6.65,0,0,0,2.61.94,11.23,11.23,0,0,1,4.35,1.7,3.43,3.43,0,0,1,1.43,2.89,4,4,0,0,1-1.66,3.32,7,7,0,0,1-4.34,1.27,6.78,6.78,0,0,1-4.65-1.5,4.27,4.27,0,0,1-1.61-3.49l0-.09h2.68a2.58,2.58,0,0,0,1.11,2.18,4.3,4.3,0,0,0,2.44.69,4,4,0,0,0,2.34-.61A1.87,1.87,0,0,0,453.32,204.12Z"/><path d="M462.64,202.38a8.33,8.33,0,0,1,.36-2.86,7.24,7.24,0,0,1,1.8-2.11,31.28,31.28,0,0,0,2-2.57,3.82,3.82,0,0,0,.6-2.17,3.16,3.16,0,0,0-.81-2.32,3.1,3.1,0,0,0-2.3-.81,3.5,3.5,0,0,0-2.21.71,2.46,2.46,0,0,0-.91,2.07h-2.68l0-.09a4.43,4.43,0,0,1,1.62-3.68,6.38,6.38,0,0,1,4.23-1.38,6.19,6.19,0,0,1,4.36,1.43,5.17,5.17,0,0,1,1.55,4,6,6,0,0,1-1,3.36,18.77,18.77,0,0,1-2.66,3.12,3.35,3.35,0,0,0-.93,1.38,8.06,8.06,0,0,0-.16,1.91Zm2.91,5.84h-2.94v-3h2.94Z"/><path class="cls-18" d="M254.68,104.37V209.25a24.47,24.47,0,0,1-24.4,24.4H60.73A25.57,25.57,0,0,0,65,255.58,25.63,25.63,0,0,1,36.4,233.65H26.9a24.47,24.47,0,0,1-24.4-24.4V26.9A24.47,24.47,0,0,1,26.9,2.5h159.6"/><path class="cls-18" d="M221.89,2.5h8.4a24.47,24.47,0,0,1,24.4,24.4V69.35"/><line class="cls-18" x1="201.16" y1="2.5" x2="208.17" y2="2.5"/><path class="cls-19" d="M563.9,127.15V110a24.47,24.47,0,0,0-24.4-24.4h-30"/><line class="cls-19" x1="563.9" y1="157.5" x2="563.9" y2="138.18"/><path class="cls-19" d="M490.54,85.58H302.07a24.47,24.47,0,0,0-24.4,24.4V219.37a24.47,24.47,0,0,0,24.4,24.4H505.67a25.57,25.57,0,0,1-4.31,21.93A25.63,25.63,0,0,0,530,243.76h9.5a24.47,24.47,0,0,0,24.4-24.4V174.66"/><path class="cls-20" d="M1123.33,91.28H949.66a24.47,24.47,0,0,0-24.4,24.4V208a24.47,24.47,0,0,0,24.4,24.4h169.55a25.57,25.57,0,0,1-4.31,21.93,25.63,25.63,0,0,0,28.65-21.93h43.55a24.47,24.47,0,0,0,24.4-24.4V131"/><path class="cls-20" d="M1198.52,94.13a24.18,24.18,0,0,0-11.42-2.85H1149.8"/><path d="M619.06,126.85h-2.82V106.1h2.82Z"/><path d="M632.78,122.74a1.91,1.91,0,0,0-.71-1.52,6.63,6.63,0,0,0-2.67-1,11.23,11.23,0,0,1-4.23-1.66,3.35,3.35,0,0,1-1.42-2.85,4,4,0,0,1,1.6-3.2,7.27,7.27,0,0,1,8.44.06,4.08,4.08,0,0,1,1.52,3.36l0,.09h-2.68a2.46,2.46,0,0,0-.85-1.82,3.13,3.13,0,0,0-2.25-.81,3.24,3.24,0,0,0-2.22.66,2.06,2.06,0,0,0-.73,1.58,1.77,1.77,0,0,0,.64,1.44,6.64,6.64,0,0,0,2.61.94,11.22,11.22,0,0,1,4.35,1.7,3.43,3.43,0,0,1,1.43,2.88,4,4,0,0,1-1.66,3.32,7,7,0,0,1-4.34,1.27,6.78,6.78,0,0,1-4.65-1.5,4.28,4.28,0,0,1-1.61-3.49l0-.09H626a2.58,2.58,0,0,0,1.11,2.18,4.33,4.33,0,0,0,2.44.69,4,4,0,0,0,2.34-.61A1.87,1.87,0,0,0,632.78,122.74Z"/><path d="M650,107.71v3.72H653v2.08H650v9.36a2.1,2.1,0,0,0,.45,1.52,1.62,1.62,0,0,0,1.19.44,2.81,2.81,0,0,0,.53-.06,3.13,3.13,0,0,0,.52-.14l.37,1.92a2.51,2.51,0,0,1-.92.42,4.71,4.71,0,0,1-1.22.16,3.63,3.63,0,0,1-2.72-1,4.48,4.48,0,0,1-1-3.24v-9.36h-2.45v-2.08h2.45v-3.72Z"/><path d="M659.23,113.5a5.69,5.69,0,0,1,2-1.73,5.36,5.36,0,0,1,2.57-.62,5,5,0,0,1,3.84,1.48,6.53,6.53,0,0,1,1.37,4.56v9.66h-2.81v-9.69a4.13,4.13,0,0,0-.82-2.82,3.11,3.11,0,0,0-2.44-.91,4.15,4.15,0,0,0-2.11.55,4.59,4.59,0,0,0-1.56,1.49v11.39h-2.81V104.62h2.81Z"/><path d="M682.48,126.85c-.09-.46-.17-.88-.22-1.23a9.53,9.53,0,0,1-.09-1.08,6.57,6.57,0,0,1-2,1.86,5.24,5.24,0,0,1-2.71.75,5,5,0,0,1-3.67-1.23,4.53,4.53,0,0,1-1.26-3.4,4,4,0,0,1,1.79-3.46,8.36,8.36,0,0,1,4.85-1.25h3v-1.53a2.84,2.84,0,0,0-.83-2.14,3.25,3.25,0,0,0-2.34-.79,3.37,3.37,0,0,0-2.2.69,2.08,2.08,0,0,0-.85,1.66h-2.68l0-.09a3.73,3.73,0,0,1,1.59-3.08,6.52,6.52,0,0,1,4.32-1.4,6.37,6.37,0,0,1,4.22,1.33,4.73,4.73,0,0,1,1.6,3.84v7.42a14.12,14.12,0,0,0,.09,1.6,8.08,8.08,0,0,0,.31,1.51Zm-4.66-2.07a5,5,0,0,0,2.75-.78,3.72,3.72,0,0,0,1.6-1.79v-2.5H679a4.09,4.09,0,0,0-2.71.85,2.54,2.54,0,0,0-1,2,2.11,2.11,0,0,0,.64,1.62A2.69,2.69,0,0,0,677.82,124.78Z"/><path d="M692.76,107.71v3.72h2.92v2.08h-2.92v9.36a2.1,2.1,0,0,0,.45,1.52,1.62,1.62,0,0,0,1.19.44,2.81,2.81,0,0,0,.53-.06,3.13,3.13,0,0,0,.52-.14l.37,1.92a2.51,2.51,0,0,1-.92.42,4.71,4.71,0,0,1-1.22.16,3.63,3.63,0,0,1-2.72-1,4.48,4.48,0,0,1-1-3.24v-9.36H687.5v-2.08H690v-3.72Z"/><path d="M705.76,119.42a10.28,10.28,0,0,1,1.59-6,5.12,5.12,0,0,1,4.45-2.28,5.54,5.54,0,0,1,2.4.5A4.92,4.92,0,0,1,716,113.1v-8.48h2.81v22.23H716.5l-.33-1.9a5,5,0,0,1-1.85,1.64,5.57,5.57,0,0,1-2.55.56,5.3,5.3,0,0,1-4.42-2,8.5,8.5,0,0,1-1.6-5.38Zm2.81.3a6.54,6.54,0,0,0,1,3.74,3.33,3.33,0,0,0,3,1.4,3.73,3.73,0,0,0,2.11-.57,4.26,4.26,0,0,0,1.39-1.6v-7.2a4.32,4.32,0,0,0-1.4-1.52,3.71,3.71,0,0,0-2.07-.56,3.21,3.21,0,0,0-3,1.67,8.59,8.59,0,0,0-1,4.33Z"/><path d="M722.33,119a8.48,8.48,0,0,1,1.85-5.64,6.21,6.21,0,0,1,5-2.22,6.28,6.28,0,0,1,5.07,2.21,8.48,8.48,0,0,1,1.86,5.64v.31a8.45,8.45,0,0,1-1.85,5.64,6.89,6.89,0,0,1-10.1,0,8.43,8.43,0,0,1-1.86-5.64Zm2.81.31a7.3,7.3,0,0,0,1,4,3.73,3.73,0,0,0,6.12,0,7.26,7.26,0,0,0,1-4V119a7.23,7.23,0,0,0-1-4,3.44,3.44,0,0,0-3.07-1.61,3.39,3.39,0,0,0-3,1.61,7.31,7.31,0,0,0-1,4Z"/><path d="M745.84,124.94a3.78,3.78,0,0,0,2.46-.86,2.64,2.64,0,0,0,1.06-2.12h2.52l0,.09a4.34,4.34,0,0,1-1.78,3.55,6.47,6.47,0,0,1-4.3,1.55,6.24,6.24,0,0,1-5.14-2.2,8.47,8.47,0,0,1-1.78-5.51v-.6a8.43,8.43,0,0,1,1.79-5.49,7,7,0,0,1,9.56-.61,5,5,0,0,1,1.66,3.92l0,.09h-2.54a3.26,3.26,0,0,0-1-2.4,3.43,3.43,0,0,0-2.52-1,3.38,3.38,0,0,0-3.16,1.59,7.46,7.46,0,0,0-.95,3.89v.6a7.55,7.55,0,0,0,.94,3.94A3.39,3.39,0,0,0,745.84,124.94Z"/><path d="M758.77,107.71v3.72h2.92v2.08h-2.92v9.36a2.1,2.1,0,0,0,.45,1.52,1.62,1.62,0,0,0,1.19.44,2.81,2.81,0,0,0,.53-.06,3.13,3.13,0,0,0,.52-.14l.37,1.92a2.51,2.51,0,0,1-.92.42,4.71,4.71,0,0,1-1.22.16,3.63,3.63,0,0,1-2.72-1,4.48,4.48,0,0,1-1-3.24v-9.36h-2.45v-2.08H756v-3.72Z"/><path d="M764.5,119a8.48,8.48,0,0,1,1.85-5.64,6.21,6.21,0,0,1,5-2.22,6.28,6.28,0,0,1,5.07,2.21A8.48,8.48,0,0,1,778.3,119v.31a8.45,8.45,0,0,1-1.85,5.64,6.89,6.89,0,0,1-10.1,0,8.43,8.43,0,0,1-1.86-5.64Zm2.81.31a7.3,7.3,0,0,0,1,4,3.73,3.73,0,0,0,6.12,0,7.26,7.26,0,0,0,1-4V119a7.23,7.23,0,0,0-1-4,3.44,3.44,0,0,0-3.07-1.61,3.39,3.39,0,0,0-3,1.61,7.31,7.31,0,0,0-1,4Z"/><path d="M789,113.91l-1.44-.09a3.21,3.21,0,0,0-1.87.53,3.39,3.39,0,0,0-1.18,1.48v11h-2.81V111.43h2.51l.27,2.25a5.34,5.34,0,0,1,1.62-1.87,3.77,3.77,0,0,1,2.22-.67,3.51,3.51,0,0,1,.6,0l.47.11Z"/><path d="M616.73,161.87V148.53h-2.41v-2.08h2.41v-2a5.29,5.29,0,0,1,1.29-3.81,4.75,4.75,0,0,1,3.6-1.35,6.21,6.21,0,0,1,1,.08q.49.08,1.09.22l-.34,2.14a6.11,6.11,0,0,0-.62-.1,6.66,6.66,0,0,0-.76,0,2.21,2.21,0,0,0-1.82.73,3.3,3.3,0,0,0-.6,2.13v2h3.21v2.08h-3.21v13.34Z"/><path d="M635.12,161.87c-.1-.46-.17-.88-.22-1.23a9,9,0,0,1-.09-1.08,6.56,6.56,0,0,1-2,1.86,5.24,5.24,0,0,1-2.72.75,5,5,0,0,1-3.67-1.23,4.53,4.53,0,0,1-1.26-3.4,4,4,0,0,1,1.79-3.46,8.36,8.36,0,0,1,4.85-1.25h3v-1.53a2.83,2.83,0,0,0-.83-2.14,3.24,3.24,0,0,0-2.34-.79,3.37,3.37,0,0,0-2.2.69,2.07,2.07,0,0,0-.85,1.66h-2.68l0-.09a3.73,3.73,0,0,1,1.59-3.08,6.52,6.52,0,0,1,4.32-1.4A6.36,6.36,0,0,1,636,147.5a4.72,4.72,0,0,1,1.6,3.84v7.42a14.74,14.74,0,0,0,.09,1.6,8.51,8.51,0,0,0,.31,1.51Zm-4.66-2.07a5,5,0,0,0,2.75-.78,3.71,3.71,0,0,0,1.6-1.79v-2.5h-3.15a4.1,4.1,0,0,0-2.72.85,2.55,2.55,0,0,0-1,2,2.1,2.1,0,0,0,.64,1.62A2.69,2.69,0,0,0,630.46,159.8Z"/><path d="M644.19,146.45l.2,2a5.23,5.23,0,0,1,1.92-1.7,5.77,5.77,0,0,1,2.7-.6,4.76,4.76,0,0,1,2.64.71,4.31,4.31,0,0,1,1.66,2.14,5.73,5.73,0,0,1,1.92-2.08,5.06,5.06,0,0,1,2.79-.77,4.62,4.62,0,0,1,3.72,1.62,7.39,7.39,0,0,1,1.37,4.87v9.22h-2.81v-9.25a5.12,5.12,0,0,0-.79-3.23,2.85,2.85,0,0,0-2.34-.95,3,3,0,0,0-2.33,1,4.35,4.35,0,0,0-1,2.52v9.9H651v-9.25a5.06,5.06,0,0,0-.81-3.17,2.8,2.8,0,0,0-2.32-1,3.86,3.86,0,0,0-2.11.53,3.4,3.4,0,0,0-1.27,1.48v11.42h-2.81V146.45Z"/><path d="M670.23,142.5h-2.81v-2.86h2.81Zm0,19.37h-2.81V146.45h2.81Z"/><path d="M677.58,161.87h-2.81V139.64h2.81Z"/><path d="M684.94,142.5h-2.81v-2.86h2.81Zm0,19.37h-2.81V146.45h2.81Z"/><path d="M698.73,161.87c-.1-.46-.17-.88-.22-1.23a9,9,0,0,1-.09-1.08,6.56,6.56,0,0,1-2,1.86,5.24,5.24,0,0,1-2.72.75,5,5,0,0,1-3.67-1.23,4.53,4.53,0,0,1-1.26-3.4,4,4,0,0,1,1.79-3.46,8.36,8.36,0,0,1,4.85-1.25h3v-1.53a2.83,2.83,0,0,0-.83-2.14,3.24,3.24,0,0,0-2.34-.79,3.37,3.37,0,0,0-2.2.69,2.07,2.07,0,0,0-.85,1.66h-2.68l0-.09a3.73,3.73,0,0,1,1.59-3.08,6.52,6.52,0,0,1,4.32-1.4,6.36,6.36,0,0,1,4.22,1.33,4.72,4.72,0,0,1,1.6,3.84v7.42a14.74,14.74,0,0,0,.09,1.6,8.51,8.51,0,0,0,.31,1.51Zm-4.66-2.07a5,5,0,0,0,2.75-.78,3.71,3.71,0,0,0,1.6-1.79v-2.5h-3.15a4.1,4.1,0,0,0-2.72.85,2.55,2.55,0,0,0-1,2,2.1,2.1,0,0,0,.64,1.62A2.69,2.69,0,0,0,694.07,159.8Z"/><path d="M712.6,148.93l-1.44-.09a3.21,3.21,0,0,0-1.87.53,3.39,3.39,0,0,0-1.18,1.48v11H705.3V146.45h2.51l.27,2.25a5.34,5.34,0,0,1,1.62-1.87,3.77,3.77,0,0,1,2.22-.67,3.51,3.51,0,0,1,.6,0l.47.11Z"/><path d="M726.51,156.26l.33,1.87h.08l.4-1.87,3.08-9.8h2.25l3.09,9.8.44,2.08h.09l.41-2.08,2.42-9.8h2.79l-4.47,15.42h-2.27l-3-9.39-.64-2.62h-.09l-.61,2.61-2.94,9.39h-2.27l-4.47-15.42H724Z"/><path d="M747.68,142.5h-2.81v-2.86h2.81Zm0,19.37h-2.81V146.45h2.81Z"/><path d="M755.7,142.73v3.72h2.92v2.08H755.7v9.36a2.1,2.1,0,0,0,.45,1.52,1.62,1.62,0,0,0,1.19.44,2.81,2.81,0,0,0,.53-.06,3.13,3.13,0,0,0,.52-.14l.37,1.92a2.51,2.51,0,0,1-.92.42,4.71,4.71,0,0,1-1.22.16,3.63,3.63,0,0,1-2.72-1,4.48,4.48,0,0,1-1-3.24v-9.36h-2.45v-2.08h2.45v-3.72Z"/><path d="M764.89,148.52a5.69,5.69,0,0,1,2-1.73,5.36,5.36,0,0,1,2.57-.62,5,5,0,0,1,3.84,1.48,6.53,6.53,0,0,1,1.37,4.56v9.66h-2.81v-9.69a4.13,4.13,0,0,0-.82-2.82,3.11,3.11,0,0,0-2.44-.91,4.15,4.15,0,0,0-2.11.55,4.59,4.59,0,0,0-1.56,1.49v11.39h-2.81V139.64h2.81Z"/><path d="M802.14,161.87h-2.81v-9.16H789.26v9.16h-2.81V141.12h2.81v9.38h10.07v-9.38h2.81Z"/><path d="M813.15,162.17A6.51,6.51,0,0,1,808,160a8.07,8.07,0,0,1-1.9-5.56v-.63a7.91,7.91,0,0,1,2-5.48,6,6,0,0,1,4.64-2.19,5.84,5.84,0,0,1,4.72,1.88,7.49,7.49,0,0,1,1.6,5v1.75H809l0,.07a6.07,6.07,0,0,0,1.13,3.65,3.59,3.59,0,0,0,3,1.43,7.06,7.06,0,0,0,2.5-.41,5.76,5.76,0,0,0,1.86-1.12l1.1,1.83a6.52,6.52,0,0,1-2.18,1.36A8.75,8.75,0,0,1,813.15,162.17Zm-.43-13.8a3,3,0,0,0-2.41,1.19,5.61,5.61,0,0,0-1.23,3l0,.07h7.11v-.37a4.29,4.29,0,0,0-.88-2.76A3.15,3.15,0,0,0,812.72,148.37Z"/><path d="M831.66,161.87c-.1-.46-.17-.88-.22-1.23a9,9,0,0,1-.09-1.08,6.56,6.56,0,0,1-2,1.86,5.24,5.24,0,0,1-2.72.75,5,5,0,0,1-3.67-1.23,4.53,4.53,0,0,1-1.26-3.4,4,4,0,0,1,1.79-3.46,8.36,8.36,0,0,1,4.85-1.25h3v-1.53a2.83,2.83,0,0,0-.83-2.14,3.24,3.24,0,0,0-2.34-.79,3.37,3.37,0,0,0-2.2.69,2.07,2.07,0,0,0-.85,1.66h-2.68l0-.09a3.73,3.73,0,0,1,1.59-3.08,6.52,6.52,0,0,1,4.32-1.4,6.36,6.36,0,0,1,4.22,1.33,4.72,4.72,0,0,1,1.6,3.84v7.42a14.74,14.74,0,0,0,.09,1.6,8.51,8.51,0,0,0,.31,1.51ZM827,159.8a5,5,0,0,0,2.75-.78,3.71,3.71,0,0,0,1.6-1.79v-2.5H828.2a4.1,4.1,0,0,0-2.72.85,2.55,2.55,0,0,0-1,2,2.1,2.1,0,0,0,.64,1.62A2.69,2.69,0,0,0,827,159.8Z"/><path d="M841.26,161.87h-2.81V139.64h2.81Z"/><path d="M849.29,142.73v3.72h2.92v2.08h-2.92v9.36a2.09,2.09,0,0,0,.45,1.52,1.62,1.62,0,0,0,1.19.44,2.82,2.82,0,0,0,.54-.06,3.17,3.17,0,0,0,.52-.14l.37,1.92a2.49,2.49,0,0,1-.92.42,4.69,4.69,0,0,1-1.22.16,3.64,3.64,0,0,1-2.72-1,4.49,4.49,0,0,1-1-3.24v-9.36H844v-2.08h2.45v-3.72Z"/><path d="M858.48,148.52a5.66,5.66,0,0,1,2-1.73,5.36,5.36,0,0,1,2.57-.62,5,5,0,0,1,3.84,1.48,6.52,6.52,0,0,1,1.37,4.56v9.66h-2.81v-9.69a4.13,4.13,0,0,0-.82-2.82,3.12,3.12,0,0,0-2.44-.91A4.16,4.16,0,0,0,860,149a4.58,4.58,0,0,0-1.56,1.49v11.39h-2.81V139.64h2.81Z"/><path d="M627.34,191.55h-8.69l-2,5.34h-2.87l8-20.75h2.41l7.9,20.75h-2.87Zm-7.82-2.35h7l-3.42-9.45H623Z"/><path d="M637.92,177.75v3.72h2.92v2.08h-2.92v9.36a2.1,2.1,0,0,0,.45,1.52,1.62,1.62,0,0,0,1.19.44,2.81,2.81,0,0,0,.53-.06,3.13,3.13,0,0,0,.52-.14l.37,1.92a2.51,2.51,0,0,1-.92.42,4.71,4.71,0,0,1-1.22.16,3.63,3.63,0,0,1-2.72-1,4.48,4.48,0,0,1-1-3.24v-9.36h-2.45v-2.08h2.45v-3.72Z"/><path d="M664.4,187.27H654.9v7.41h11v2.21H652.09V176.14H665.7v2.21H654.9v6.71h9.51Z"/><path d="M673.39,192.35l.24,1.08h.09l.27-1.08,3.55-10.87h2.86l-5.67,15.42h-2.12l-5.74-15.42h2.88Z"/><path d="M689.14,197.19A6.51,6.51,0,0,1,684,195a8.07,8.07,0,0,1-1.9-5.56v-.63a7.91,7.91,0,0,1,2-5.48,6,6,0,0,1,4.64-2.19,5.84,5.84,0,0,1,4.72,1.88,7.49,7.49,0,0,1,1.6,5v1.75H685l0,.07a6.07,6.07,0,0,0,1.13,3.65,3.59,3.59,0,0,0,3,1.43,7.06,7.06,0,0,0,2.5-.41,5.76,5.76,0,0,0,1.86-1.12l1.1,1.83a6.52,6.52,0,0,1-2.18,1.36A8.75,8.75,0,0,1,689.14,197.19Zm-.43-13.8a3,3,0,0,0-2.41,1.19,5.61,5.61,0,0,0-1.23,3l0,.07h7.11v-.37a4.29,4.29,0,0,0-.88-2.76A3.15,3.15,0,0,0,688.71,183.4Z"/><path d="M705.47,184l-1.44-.09a3.21,3.21,0,0,0-1.87.53,3.36,3.36,0,0,0-1.18,1.48v11h-2.81V181.47h2.51l.27,2.25a5.36,5.36,0,0,1,1.62-1.87,3.78,3.78,0,0,1,2.22-.67,3.49,3.49,0,0,1,.6,0,3.92,3.92,0,0,1,.47.11Z"/><path d="M713.15,191.18l.5,1.94h.09l3.79-11.64h3.12l-6.48,17.78a8,8,0,0,1-1.67,2.71,3.86,3.86,0,0,1-2.94,1.15,6.12,6.12,0,0,1-.87-.08c-.35-.05-.62-.1-.81-.15l.28-2.21.51,0,.75,0a1.73,1.73,0,0,0,1.47-.8,8.27,8.27,0,0,0,1-1.77l.67-1.61-5.73-15.11h3.14Z"/><path d="M742.19,191.67a3.06,3.06,0,0,0-1.07-2.37,9,9,0,0,0-3.79-1.61,12.52,12.52,0,0,1-5.14-2.31,4.78,4.78,0,0,1-1.85-3.84,5,5,0,0,1,2-4.06,7.86,7.86,0,0,1,5.15-1.63,7.68,7.68,0,0,1,5.42,1.87,5.51,5.51,0,0,1,1.94,4.33l0,.09h-2.68a3.86,3.86,0,0,0-1.2-2.95,4.88,4.88,0,0,0-3.46-1.13,4.83,4.83,0,0,0-3.21.95,3.08,3.08,0,0,0-1.12,2.47,2.72,2.72,0,0,0,1.21,2.26,11.5,11.5,0,0,0,3.93,1.59,11.2,11.2,0,0,1,5,2.39,5.12,5.12,0,0,1,1.71,3.92,4.78,4.78,0,0,1-2.05,4,8.76,8.76,0,0,1-5.36,1.53,9.28,9.28,0,0,1-5.5-1.69,5.09,5.09,0,0,1-2.31-4.51l0-.09h2.68a3.49,3.49,0,0,0,1.47,3,6.13,6.13,0,0,0,3.64,1,5.64,5.64,0,0,0,3.36-.89A2.83,2.83,0,0,0,742.19,191.67Z"/><path d="M751.6,177.53h-2.81v-2.86h2.81Zm0,19.37h-2.81V181.47h2.81Z"/><path d="M758.57,194.68h8.91v2.21H755.22v-2l8.34-11.23h-8.24v-2.21H767v1.9Z"/><path d="M776.77,197.19a6.51,6.51,0,0,1-5.12-2.15,8.07,8.07,0,0,1-1.9-5.56v-.63a7.91,7.91,0,0,1,2-5.48,6,6,0,0,1,4.64-2.19,5.84,5.84,0,0,1,4.72,1.88,7.49,7.49,0,0,1,1.6,5v1.75h-10l0,.07a6.07,6.07,0,0,0,1.13,3.65,3.59,3.59,0,0,0,3,1.43,7.06,7.06,0,0,0,2.5-.41,5.76,5.76,0,0,0,1.86-1.12l1.1,1.83a6.52,6.52,0,0,1-2.18,1.36A8.75,8.75,0,0,1,776.77,197.19Zm-.43-13.8a3,3,0,0,0-2.41,1.19,5.61,5.61,0,0,0-1.23,3l0,.07h7.11v-.37a4.29,4.29,0,0,0-.88-2.76A3.15,3.15,0,0,0,776.34,183.4Z"/><path d="M785,186.5a10.52,10.52,0,0,1,2.95-7.57,9.87,9.87,0,0,1,14.32,0,11.2,11.2,0,0,1,0,15.16,9.83,9.83,0,0,1-14.32,0A10.59,10.59,0,0,1,785,186.5Zm1.73,0a8.93,8.93,0,0,0,2.44,6.37,8.11,8.11,0,0,0,11.88,0,9.45,9.45,0,0,0,0-12.69,8.16,8.16,0,0,0-11.89,0A8.84,8.84,0,0,0,786.74,186.5Zm6.33,1.08v4.82h-2.12V180.28h4a5.51,5.51,0,0,1,3.4.93,3.21,3.21,0,0,1,1.23,2.73,2.64,2.64,0,0,1-.47,1.55,3.53,3.53,0,0,1-1.37,1.11,2.55,2.55,0,0,1,1.36,1.13,3.68,3.68,0,0,1,.42,1.82v.8a9.94,9.94,0,0,0,0,1,2.4,2.4,0,0,0,.19.76v.23h-2.18a2.67,2.67,0,0,1-.16-.88c0-.38,0-.78,0-1.18v-.77a2.08,2.08,0,0,0-.48-1.51,2.15,2.15,0,0,0-1.58-.49Zm0-1.85h2.17a2.77,2.77,0,0,0,1.58-.46,1.43,1.43,0,0,0,.65-1.25,1.71,1.71,0,0,0-.56-1.46,3.39,3.39,0,0,0-2-.42h-1.87Z"/><path d="M811.68,191a8.33,8.33,0,0,1,.36-2.86,7.28,7.28,0,0,1,1.8-2.11,31.43,31.43,0,0,0,2-2.56,3.81,3.81,0,0,0,.6-2.17,3.15,3.15,0,0,0-.81-2.32,3.09,3.09,0,0,0-2.3-.81,3.5,3.5,0,0,0-2.21.71,2.47,2.47,0,0,0-.91,2.07h-2.68l0-.09a4.43,4.43,0,0,1,1.62-3.68,6.38,6.38,0,0,1,4.23-1.38,6.2,6.2,0,0,1,4.36,1.43,5.16,5.16,0,0,1,1.55,4,6,6,0,0,1-1,3.36,18.71,18.71,0,0,1-2.66,3.12,3.36,3.36,0,0,0-.93,1.38,8.08,8.08,0,0,0-.16,1.91Zm2.91,5.84h-2.93v-3h2.93Z"/></g></g></svg>