<svg xmlns="http://www.w3.org/2000/svg" viewBox="0 0 488.43 371.62"><defs><style>.cls-1,.cls-14,.cls-6{fill:#fff;}.cls-1,.cls-13{stroke:#faaf40;}.cls-1,.cls-12,.cls-13,.cls-14,.cls-5,.cls-8,.cls-9{stroke-miterlimit:10;}.cls-1,.cls-14,.cls-8,.cls-9{stroke-width:3.74px;}.cls-2{font-size:22.44px;font-family:Roboto-Regular, Roboto;}.cls-3{letter-spacing:-0.01em;}.cls-4{fill:#f5accc;}.cls-12,.cls-13,.cls-5,.cls-8,.cls-9{fill:none;}.cls-14,.cls-5{stroke:#f5accc;}.cls-5{stroke-width:11.22px;}.cls-7{fill:#f45bab;}.cls-8{stroke:#f45bab;}.cls-12,.cls-8,.cls-9{stroke-linecap:round;}.cls-9{stroke:#fff;}.cls-10{fill:#faaf40;}.cls-11{fill:#cc6f00;}.cls-12{stroke:#cc6f00;stroke-width:5.61px;}.cls-13{stroke-width:14.96px;}.cls-15{letter-spacing:-0.01em;}.cls-16{letter-spacing:0.01em;}.cls-17{letter-spacing:-0.01em;}</style></defs><title>characters2</title><g id="Layer_2" data-name="Layer 2"><g id="Layer_4" data-name="Layer 4"><path class="cls-1" d="M486.56,128.57V83.72A18.81,18.81,0,0,0,467.8,65H285.27a18.81,18.81,0,0,0-18.75,18.75v71a18.81,18.81,0,0,0,18.75,18.75H415.61a19.66,19.66,0,0,1-3.32,16.86,19.7,19.7,0,0,0,22-16.86H467.8a18.81,18.81,0,0,0,18.75-18.75V128.57Z"/><text class="cls-2" transform="translate(286.6 98.85)">Is that <tspan class="cls-3" x="69.83" y="0">r</tspan><tspan x="77.31" y="0">estaurant </tspan><tspan x="0" y="26.92">wheelchair </tspan><tspan x="0" y="53.85">accessible?</tspan></text><path class="cls-4" d="M145.13,166.91l4.18,11.29a80.13,80.13,0,0,0,47.34,47.34l11.29,4.18a12.3,12.3,0,0,1,0,23.07L196.65,257a80.13,80.13,0,0,0-47.34,47.34l-4.18,11.29a12.3,12.3,0,0,1-23.07,0l-4.18-11.29A80.13,80.13,0,0,0,70.55,257l-11.29-4.18a12.3,12.3,0,0,1,0-23.07l11.29-4.18a80.13,80.13,0,0,0,47.34-47.34l4.18-11.29A12.3,12.3,0,0,1,145.13,166.91Z"/><line class="cls-5" x1="107.01" y1="233.94" x2="117.85" y2="347.6"/><line class="cls-5" x1="139.21" y1="237.31" x2="160.57" y2="347.6"/><circle class="cls-6" cx="110.51" cy="240.91" r="11.36"/><circle cx="110.51" cy="240.91" r="5.9" transform="translate(-137.98 148.7) rotate(-45)"/><circle class="cls-6" cx="137.99" cy="240.91" r="11.36"/><circle cx="137.99" cy="240.91" r="5.9" transform="translate(-129.93 168.13) rotate(-45)"/><path class="cls-7" d="M131.11,366.44c0-.26,0-.51,0-.76s0-.5,0-.76V354.17A13.13,13.13,0,0,0,118,341.09h-3.27a13.13,13.13,0,0,0-13,11.92h-.82a13.48,13.48,0,0,0-13.44,13.44,13.31,13.31,0,0,0,1,5.18h41.55A13.31,13.31,0,0,0,131.11,366.44Z"/><path class="cls-7" d="M147.3,366.44c0-.26,0-.51,0-.76s0-.5,0-.76V354.17a13.13,13.13,0,0,1,13.09-13.09h3.27a13.13,13.13,0,0,1,13,11.92h.82a13.48,13.48,0,0,1,13.44,13.44,13.31,13.31,0,0,1-1,5.18H148.35A13.31,13.31,0,0,1,147.3,366.44Z"/><path class="cls-8" d="M136.34,256.73a5.52,5.52,0,0,1-5.67,5.37"/><rect class="cls-7" x="119.69" y="240.91" width="9.11" height="16.64" rx="2.44" ry="2.44"/><path class="cls-9" d="M182.07,224.57a85.6,85.6,0,0,0,12.74,5.94l11.29,4.18a7,7,0,0,1,0,13.13l-3.8,1.41"/><path class="cls-9" d="M182.07,224.57"/><path class="cls-9" d="M163.91,210.67q2.84,2.86,6,5.44"/><path class="cls-9" d="M152.59,196.59a85.3,85.3,0,0,0,6.08,8.31"/><path class="cls-9" d="M119.7,187.48q1.75-3.62,3.16-7.44L127,168.75a7,7,0,0,1,13.13,0L144.34,180q1.4,3.77,3.12,7.37"/><circle class="cls-10" cx="333.82" cy="241.25" r="82.37"/><path class="cls-9" d="M409.88,253.79a76.74,76.74,0,0,1-15.42,35"/><path class="cls-9" d="M405,211.74a77.24,77.24,0,0,1,4.86,42"/><path class="cls-9" d="M389,187.48a77.32,77.32,0,0,1,16,24.26"/><circle class="cls-6" cx="311.49" cy="237.31" r="14.95"/><circle class="cls-6" cx="356.36" cy="237.31" r="14.95"/><circle class="cls-11" cx="333.93" cy="253.44" r="4.91"/><path class="cls-12" d="M343.22,261.47a9.29,9.29,0,1,1-18.58,0"/><circle cx="311.49" cy="237.31" r="7.77"/><circle cx="356.36" cy="237.31" r="7.77"/><line class="cls-13" x1="313.97" y1="295.3" x2="306.96" y2="347.6"/><path class="cls-11" d="M320.22,366.44c0-.26,0-.51,0-.76s0-.5,0-.76V354.17a13.13,13.13,0,0,0-13.09-13.09h-3.27a13.13,13.13,0,0,0-13,11.92H290a13.48,13.48,0,0,0-13.44,13.44,13.31,13.31,0,0,0,1,5.18h41.55A13.31,13.31,0,0,0,320.22,366.44Z"/><line class="cls-13" x1="353.89" y1="295.3" x2="360.9" y2="347.6"/><path class="cls-11" d="M347.63,366.44c0-.26,0-.51,0-.76s0-.5,0-.76V354.17a13.13,13.13,0,0,1,13.09-13.09H364A13.13,13.13,0,0,1,377,353h.82a13.48,13.48,0,0,1,13.44,13.44,13.31,13.31,0,0,1-1,5.18H348.68A13.31,13.31,0,0,1,347.63,366.44Z"/><path class="cls-9" d="M333.82,164.18a76.63,76.63,0,0,1,43.06,13.18"/><path class="cls-14" d="M246.22,78.57V20.62A18.81,18.81,0,0,0,227.47,1.87H20.62A18.81,18.81,0,0,0,1.87,20.62v84.09a18.81,18.81,0,0,0,18.75,18.75H201.45a19.66,19.66,0,0,1-3.32,16.86,19.7,19.7,0,0,0,22-16.86h7.31a18.81,18.81,0,0,0,18.75-18.75V78.57Z"/><text class="cls-2" transform="translate(21.61 42.3)">Is that doctor <tspan x="0" y="26.92">familiar with </tspan><tspan x="0" y="53.85">health at </tspan><tspan class="cls-15" x="94.36" y="53.85">ev</tspan><tspan x="117.22" y="53.85">e</tspan><tspan class="cls-16" x="129.08" y="53.85">r</tspan><tspan x="136.97" y="53.85">y si</tspan><tspan class="cls-17" x="171.22" y="53.85">z</tspan><tspan x="182.33" y="53.85">e?</tspan></text></g></g></svg>