<svg xmlns="http://www.w3.org/2000/svg" viewBox="0 0 542.67 369.38"><defs><style>.cls-1{fill:#fff;}.cls-10,.cls-11,.cls-12,.cls-2,.cls-4,.cls-6,.cls-7{fill:none;stroke-miterlimit:10;}.cls-10,.cls-2{stroke:#a66ace;}.cls-10,.cls-11,.cls-12,.cls-2,.cls-4,.cls-6{stroke-linecap:round;}.cls-12,.cls-2{stroke-width:5px;}.cls-3{fill:#faaf40;}.cls-4{stroke:#fff;stroke-width:3.74px;}.cls-5{fill:#cc6f00;}.cls-6{stroke:#cc6f00;}.cls-10,.cls-6{stroke-width:5.61px;}.cls-12,.cls-7{stroke:#faaf40;}.cls-11,.cls-7{stroke-width:14.96px;}.cls-8{fill:#c7add3;}.cls-9{fill:#a66ace;}.cls-11{stroke:#c7add3;}</style></defs><title>chars1</title><g id="Layer_4" data-name="Layer 4"><path class="cls-1" d="M7,94.41v-69A18.81,18.81,0,0,1,25.76,6.62H267.12a18.81,18.81,0,0,1,18.75,18.75v95.18a18.81,18.81,0,0,1-18.75,18.75H51.77a19.66,19.66,0,0,0,3.32,16.86,19.7,19.7,0,0,1-22-16.86H25.76A18.81,18.81,0,0,1,7,120.56V94.41Z"/><line class="cls-2" x1="225.84" y1="6.62" x2="233.09" y2="6.62"/><path class="cls-2" d="M285.87,51.85v68.71a18.81,18.81,0,0,1-18.75,18.75H51.77a19.66,19.66,0,0,0,3.32,16.86,19.7,19.7,0,0,1-22-16.86H25.76A18.81,18.81,0,0,1,7,120.56V25.38A18.81,18.81,0,0,1,25.76,6.62H211.35"/><path class="cls-2" d="M248.68,6.62h18.44a18.81,18.81,0,0,1,18.75,18.75V40.51"/><path class="cls-1" d="M535.67,96.32V51.47a18.81,18.81,0,0,0-18.75-18.75H334.38a18.81,18.81,0,0,0-18.75,18.75v71a18.81,18.81,0,0,0,18.75,18.75H464.72a19.66,19.66,0,0,1-3.32,16.86,19.7,19.7,0,0,0,22-16.86h33.48a18.81,18.81,0,0,0,18.75-18.75V96.32Z"/><circle class="cls-3" cx="382.93" cy="239.01" r="82.37"/><path class="cls-4" d="M459,251.54a76.74,76.74,0,0,1-15.42,35"/><path class="cls-4" d="M454.13,209.49a77.24,77.24,0,0,1,4.86,42"/><path class="cls-4" d="M438.09,185.23a77.32,77.32,0,0,1,16,24.26"/><circle class="cls-1" cx="360.6" cy="235.07" r="14.95"/><circle class="cls-1" cx="405.47" cy="235.07" r="14.95"/><circle class="cls-5" cx="383.04" cy="251.2" r="4.91"/><path class="cls-6" d="M392.33,259.23a9.29,9.29,0,1,1-18.58,0"/><circle cx="360.6" cy="235.07" r="7.77"/><circle cx="405.47" cy="235.07" r="7.77"/><line class="cls-7" x1="363.08" y1="293.06" x2="356.07" y2="345.36"/><path class="cls-5" d="M369.33,364.2c0-.26,0-.51,0-.76s0-.5,0-.76V351.93a13.13,13.13,0,0,0-13.09-13.09H353a13.13,13.13,0,0,0-13,11.92h-.82a13.48,13.48,0,0,0-13.44,13.44,13.31,13.31,0,0,0,1,5.18h41.55A13.31,13.31,0,0,0,369.33,364.2Z"/><line class="cls-7" x1="402.99" y1="293.06" x2="410" y2="345.36"/><path class="cls-5" d="M396.74,364.2c0-.26,0-.51,0-.76s0-.5,0-.76V351.93a13.13,13.13,0,0,1,13.09-13.09h3.27a13.13,13.13,0,0,1,13,11.92h.82a13.48,13.48,0,0,1,13.44,13.44,13.31,13.31,0,0,1-1,5.18H397.79A13.31,13.31,0,0,1,396.74,364.2Z"/><path class="cls-4" d="M382.93,161.94A76.63,76.63,0,0,1,426,175.12"/><path class="cls-8" d="M275.06,226.76c-2-36.64-29.27-66.16-65-69.67-18.82-1.85-32.4,2.11-42.36,9.77-10-7.66-23.54-11.63-42.36-9.77-35.7,3.51-63,33-65,69.67-2.29,42.06,36.12,61.15,75.69,74.62,22.86,7.78,31,19,31.65,20h0c.65-.95,8.79-12.21,31.65-20C238.95,287.91,277.35,268.82,275.06,226.76Z"/><circle class="cls-1" cx="145.29" cy="235.07" r="14.95"/><circle class="cls-1" cx="190.16" cy="235.07" r="14.95"/><circle class="cls-9" cx="167.72" cy="251.2" r="4.91"/><path class="cls-10" d="M177,259.23a9.29,9.29,0,0,1-18.58,0"/><circle cx="145.29" cy="235.07" r="7.77"/><circle cx="190.16" cy="235.07" r="7.77"/><line class="cls-11" x1="147.77" y1="293.06" x2="140.76" y2="345.36"/><path class="cls-9" d="M154,364.2c0-.26,0-.51,0-.76s0-.5,0-.76V351.93a13.13,13.13,0,0,0-13.09-13.09h-3.27a13.13,13.13,0,0,0-13,11.92h-.82a13.48,13.48,0,0,0-13.44,13.44,13.31,13.31,0,0,0,1,5.18H153A13.31,13.31,0,0,0,154,364.2Z"/><line class="cls-11" x1="187.68" y1="293.06" x2="194.69" y2="345.36"/><path class="cls-9" d="M181.43,364.2c0-.26,0-.51,0-.76s0-.5,0-.76V351.93a13.13,13.13,0,0,1,13.09-13.09h3.27a13.13,13.13,0,0,1,13,11.92h.82a13.48,13.48,0,0,1,13.44,13.44,13.31,13.31,0,0,1-1,5.18H182.47A13.31,13.31,0,0,1,181.43,364.2Z"/><path class="cls-4" d="M269.36,237.67c-3.28,23.48-22.25,38-46.25,48.86"/><path class="cls-4" d="M231.31,168.38a67.34,67.34,0,0,1,33.79,36.75"/><path class="cls-4" d="M209.57,162.36a66,66,0,0,1,12,2.31"/><path class="cls-4" d="M181.15,165.33a55,55,0,0,1,20.08-3.39"/><path class="cls-12" d="M489.67,32.71H334.38a18.81,18.81,0,0,0-18.75,18.75v71a18.81,18.81,0,0,0,18.75,18.75H464.72a19.66,19.66,0,0,1-3.32,16.86,19.7,19.7,0,0,0,22-16.86h33.48a18.81,18.81,0,0,0,18.75-18.75V96.32"/><path class="cls-12" d="M535.67,84.55V51.47a18.81,18.81,0,0,0-18.75-18.75H507"/><path d="M28.87,44.76,33,36.65h2.46L29.9,47V52.6H27.75V46.85l-5.51-10.2H24.7Z"/><path d="M36.06,46.57a6.53,6.53,0,0,1,1.42-4.33,4.77,4.77,0,0,1,3.87-1.7,4.82,4.82,0,0,1,3.89,1.7,6.51,6.51,0,0,1,1.43,4.34v.24a6.49,6.49,0,0,1-1.42,4.34,4.81,4.81,0,0,1-3.88,1.69,4.82,4.82,0,0,1-3.88-1.69,6.48,6.48,0,0,1-1.43-4.33Zm2.16.24A5.61,5.61,0,0,0,39,49.91a2.87,2.87,0,0,0,4.71,0,5.58,5.58,0,0,0,.8-3.11v-.24a5.57,5.57,0,0,0-.8-3.1,2.64,2.64,0,0,0-2.36-1.24A2.6,2.6,0,0,0,39,43.46a5.62,5.62,0,0,0-.79,3.1Z"/><path d="M56.85,50.85a4,4,0,0,1-1.43,1.47,3.92,3.92,0,0,1-2,.52,3.81,3.81,0,0,1-3-1.24,5.75,5.75,0,0,1-1.08-3.86v-7h2.16v7A4.41,4.41,0,0,0,52,50.37a2.08,2.08,0,0,0,1.74.71,3.55,3.55,0,0,0,1.9-.47,2.92,2.92,0,0,0,1.13-1.32V40.75h2.16V52.6H57Z"/><path d="M72.47,51.13a2.91,2.91,0,0,0,1.89-.66,2,2,0,0,0,.82-1.63h1.94l0,.07a3.34,3.34,0,0,1-1.36,2.73,5,5,0,0,1-3.3,1.19,4.79,4.79,0,0,1-4-1.69,6.51,6.51,0,0,1-1.37-4.24v-.46a6.48,6.48,0,0,1,1.38-4.22,5.4,5.4,0,0,1,7.35-.47,3.82,3.82,0,0,1,1.28,3l0,.07h-2A2.51,2.51,0,0,0,74.41,43a2.64,2.64,0,0,0-1.94-.76A2.6,2.6,0,0,0,70,43.45a5.73,5.73,0,0,0-.73,3v.46a5.81,5.81,0,0,0,.72,3A2.61,2.61,0,0,0,72.47,51.13Z"/><path d="M86.84,52.6c-.07-.36-.13-.67-.17-.95a6.7,6.7,0,0,1-.07-.83A5,5,0,0,1,85,52.26a4,4,0,0,1-2.09.58,3.88,3.88,0,0,1-2.82-.95,3.48,3.48,0,0,1-1-2.61,3.06,3.06,0,0,1,1.38-2.66,6.43,6.43,0,0,1,3.73-1H86.6V44.48A2.17,2.17,0,0,0,86,42.83a2.5,2.5,0,0,0-1.8-.61,2.59,2.59,0,0,0-1.69.53A1.6,1.6,0,0,0,81.82,44H79.76l0-.07A2.87,2.87,0,0,1,81,41.6a5,5,0,0,1,3.33-1.07,4.89,4.89,0,0,1,3.24,1,3.63,3.63,0,0,1,1.23,3v5.71a11.09,11.09,0,0,0,.07,1.23,6.29,6.29,0,0,0,.24,1.16ZM83.26,51a3.85,3.85,0,0,0,2.11-.6A2.86,2.86,0,0,0,86.6,49V47.11H84.18a3.15,3.15,0,0,0-2.09.66,2,2,0,0,0-.78,1.54,1.62,1.62,0,0,0,.49,1.25A2.07,2.07,0,0,0,83.26,51Z"/><path d="M93.82,40.75,94,42.51A4.31,4.31,0,0,1,95.46,41a4,4,0,0,1,2-.52,3.87,3.87,0,0,1,3,1.12,4.93,4.93,0,0,1,1.05,3.47V52.6H99.35V45.16a3.21,3.21,0,0,0-.62-2.22,2.48,2.48,0,0,0-1.89-.66,3,3,0,0,0-1.65.45A3.27,3.27,0,0,0,94,44V52.6H91.89V40.75Z"/><path d="M115.83,42.65l-1.11-.07a2.47,2.47,0,0,0-1.44.41,2.6,2.6,0,0,0-.9,1.14V52.6h-2.16V40.75h1.93l.21,1.73A4.11,4.11,0,0,1,113.6,41a2.9,2.9,0,0,1,1.7-.51,2.67,2.67,0,0,1,.46,0l.36.08Z"/><path d="M122.62,52.83a5,5,0,0,1-3.94-1.65,6.21,6.21,0,0,1-1.46-4.28v-.48a6.07,6.07,0,0,1,1.51-4.21,4.64,4.64,0,0,1,3.57-1.68A4.49,4.49,0,0,1,125.92,42a5.76,5.76,0,0,1,1.23,3.86v1.35h-7.69l0,.05a4.67,4.67,0,0,0,.87,2.8,2.76,2.76,0,0,0,2.33,1.1,5.43,5.43,0,0,0,1.92-.31A4.43,4.43,0,0,0,126,50l.84,1.4a5,5,0,0,1-1.68,1A6.73,6.73,0,0,1,122.62,52.83Zm-.33-10.61a2.34,2.34,0,0,0-1.85.91,4.31,4.31,0,0,0-.94,2.29l0,.05H125V45.2a3.29,3.29,0,0,0-.68-2.12A2.42,2.42,0,0,0,122.29,42.23Z"/><path d="M133.38,49.11l.19.83h.07l.21-.83,2.73-8.36h2.2L134.41,52.6h-1.63l-4.42-11.85h2.21Z"/><path d="M143,37.71h-2.16v-2.2H143Zm0,14.89h-2.16V40.75H143Z"/><path d="M151.28,52.83a5,5,0,0,1-3.94-1.65,6.21,6.21,0,0,1-1.46-4.28v-.48a6.08,6.08,0,0,1,1.51-4.21A4.64,4.64,0,0,1,151,40.53,4.49,4.49,0,0,1,154.58,42a5.77,5.77,0,0,1,1.23,3.86v1.35h-7.69l0,.05a4.66,4.66,0,0,0,.87,2.8,2.76,2.76,0,0,0,2.33,1.1,5.43,5.43,0,0,0,1.92-.31,4.41,4.41,0,0,0,1.43-.86l.84,1.4a5,5,0,0,1-1.68,1A6.74,6.74,0,0,1,151.28,52.83ZM151,42.23a2.34,2.34,0,0,0-1.85.91,4.31,4.31,0,0,0-.94,2.29l0,.05h5.47V45.2a3.29,3.29,0,0,0-.68-2.12A2.42,2.42,0,0,0,151,42.23Z"/><path d="M161.26,48.28l.25,1.44h.07l.31-1.44,2.37-7.54H166l2.38,7.54.34,1.6h.07l.32-1.6,1.86-7.54h2.15L169.65,52.6h-1.74l-2.29-7.22-.49-2h-.07l-.47,2-2.26,7.22h-1.74l-3.44-11.85h2.15Z"/><path d="M188.07,52.6c-.07-.36-.13-.67-.17-.95a6.7,6.7,0,0,1-.07-.83,5,5,0,0,1-1.57,1.43,4,4,0,0,1-2.09.58,3.88,3.88,0,0,1-2.82-.95,3.48,3.48,0,0,1-1-2.61,3.06,3.06,0,0,1,1.38-2.66,6.43,6.43,0,0,1,3.73-1h2.34V44.48a2.17,2.17,0,0,0-.64-1.65,2.5,2.5,0,0,0-1.8-.61,2.59,2.59,0,0,0-1.69.53A1.6,1.6,0,0,0,183,44H181l0-.07a2.87,2.87,0,0,1,1.22-2.37,5,5,0,0,1,3.33-1.07,4.89,4.89,0,0,1,3.24,1,3.63,3.63,0,0,1,1.23,3v5.71a11.09,11.09,0,0,0,.07,1.23,6.29,6.29,0,0,0,.24,1.16ZM184.48,51a3.85,3.85,0,0,0,2.11-.6A2.86,2.86,0,0,0,187.83,49V47.11H185.4a3.15,3.15,0,0,0-2.09.66,2,2,0,0,0-.78,1.54,1.62,1.62,0,0,0,.49,1.25A2.07,2.07,0,0,0,184.48,51Z"/><path d="M198.2,46.89a7.91,7.91,0,0,1,1.22-4.61,3.93,3.93,0,0,1,3.42-1.75,4.26,4.26,0,0,1,1.85.38A3.79,3.79,0,0,1,206.07,42V35.51h2.16V52.6h-1.76l-.25-1.46a3.85,3.85,0,0,1-1.42,1.26,4.28,4.28,0,0,1-2,.43,4.07,4.07,0,0,1-3.4-1.57,6.53,6.53,0,0,1-1.23-4.14Zm2.16.23a5,5,0,0,0,.73,2.88,2.56,2.56,0,0,0,2.28,1.08,2.86,2.86,0,0,0,1.62-.44,3.28,3.28,0,0,0,1.07-1.23V43.88A3.33,3.33,0,0,0,205,42.71a2.85,2.85,0,0,0-1.59-.43,2.47,2.47,0,0,0-2.29,1.28,6.61,6.61,0,0,0-.74,3.33Z"/><path d="M210.94,46.57a6.53,6.53,0,0,1,1.42-4.33,5.28,5.28,0,0,1,7.76,0,6.51,6.51,0,0,1,1.43,4.34v.24a6.49,6.49,0,0,1-1.42,4.34,5.3,5.3,0,0,1-7.76,0,6.48,6.48,0,0,1-1.43-4.33Zm2.16.24a5.61,5.61,0,0,0,.79,3.11,2.87,2.87,0,0,0,4.71,0,5.58,5.58,0,0,0,.8-3.11v-.24a5.57,5.57,0,0,0-.8-3.1,2.64,2.64,0,0,0-2.36-1.24,2.6,2.6,0,0,0-2.34,1.24,5.62,5.62,0,0,0-.79,3.1Z"/><path d="M229,51.13a2.91,2.91,0,0,0,1.89-.66,2,2,0,0,0,.82-1.63h1.94l0,.07a3.34,3.34,0,0,1-1.36,2.73,5,5,0,0,1-3.3,1.19,4.79,4.79,0,0,1-4-1.69,6.51,6.51,0,0,1-1.37-4.24v-.46a6.48,6.48,0,0,1,1.38-4.22,5.4,5.4,0,0,1,7.35-.47,3.82,3.82,0,0,1,1.28,3l0,.07h-2A2.51,2.51,0,0,0,231,43a2.64,2.64,0,0,0-1.94-.76,2.6,2.6,0,0,0-2.43,1.22,5.73,5.73,0,0,0-.73,3v.46a5.81,5.81,0,0,0,.72,3A2.61,2.61,0,0,0,229,51.13Z"/><path d="M239,37.89v2.86h2.25v1.6H239v7.2a1.61,1.61,0,0,0,.35,1.17,1.24,1.24,0,0,0,.91.34,2.16,2.16,0,0,0,.41,0,2.4,2.4,0,0,0,.4-.11l.29,1.48a1.92,1.92,0,0,1-.71.32,3.61,3.61,0,0,1-.94.13,2.79,2.79,0,0,1-2.09-.79,3.45,3.45,0,0,1-.78-2.49v-7.2h-1.88v-1.6h1.88V37.89Z"/><path d="M243.36,46.57a6.53,6.53,0,0,1,1.42-4.33,5.28,5.28,0,0,1,7.76,0A6.51,6.51,0,0,1,254,46.57v.24a6.49,6.49,0,0,1-1.42,4.34,5.3,5.3,0,0,1-7.76,0,6.48,6.48,0,0,1-1.43-4.33Zm2.16.24a5.61,5.61,0,0,0,.79,3.11,2.87,2.87,0,0,0,4.71,0,5.58,5.58,0,0,0,.8-3.11v-.24a5.57,5.57,0,0,0-.8-3.1,2.64,2.64,0,0,0-2.36-1.24,2.6,2.6,0,0,0-2.34,1.24,5.62,5.62,0,0,0-.79,3.1Z"/><path d="M262.22,42.65l-1.11-.07a2.47,2.47,0,0,0-1.44.41,2.6,2.6,0,0,0-.9,1.14V52.6h-2.16V40.75h1.93l.21,1.73A4.11,4.11,0,0,1,260,41a2.9,2.9,0,0,1,1.7-.51,2.67,2.67,0,0,1,.46,0l.36.08Z"/><path d="M264.3,52.08l-1.64,3.35h-1.28l.77-3.46V50.18h2.16Z"/><path d="M33.71,74a6.52,6.52,0,0,1-1.23,4.14,4.07,4.07,0,0,1-3.39,1.57,4.33,4.33,0,0,1-2-.46A3.78,3.78,0,0,1,25.61,78l-.26,1.57H23.59V62.44h2.16v6.64a3.75,3.75,0,0,1,1.39-1.21,4.25,4.25,0,0,1,1.93-.42,3.94,3.94,0,0,1,3.42,1.75,7.88,7.88,0,0,1,1.23,4.61Zm-2.16-.23a6.54,6.54,0,0,0-.75-3.32,2.47,2.47,0,0,0-2.28-1.29,2.82,2.82,0,0,0-1.68.49A3.44,3.44,0,0,0,25.74,71v5.14a3.54,3.54,0,0,0,1.09,1.37,2.81,2.81,0,0,0,1.7.49,2.57,2.57,0,0,0,2.27-1.08A5,5,0,0,0,31.55,74Z"/><path d="M43.86,77.77a4,4,0,0,1-1.43,1.47,3.92,3.92,0,0,1-2,.52,3.81,3.81,0,0,1-3-1.24,5.75,5.75,0,0,1-1.08-3.86v-7h2.16v7A4.41,4.41,0,0,0,39,77.29a2.08,2.08,0,0,0,1.74.71,3.55,3.55,0,0,0,1.9-.47,2.92,2.92,0,0,0,1.13-1.32V67.67h2.16V79.53H44Z"/><path d="M56,76.37a1.47,1.47,0,0,0-.54-1.17,5.11,5.11,0,0,0-2.05-.8,8.64,8.64,0,0,1-3.25-1.27A2.58,2.58,0,0,1,49,70.93a3.1,3.1,0,0,1,1.23-2.46,5.59,5.59,0,0,1,6.49,0,3.14,3.14,0,0,1,1.17,2.58l0,.07H55.85a1.89,1.89,0,0,0-.65-1.4,2.4,2.4,0,0,0-1.73-.62,2.49,2.49,0,0,0-1.71.5,1.58,1.58,0,0,0-.56,1.22A1.36,1.36,0,0,0,51.7,72a5.11,5.11,0,0,0,2,.72A8.63,8.63,0,0,1,57,74a2.64,2.64,0,0,1,1.1,2.22,3.06,3.06,0,0,1-1.28,2.55,5.34,5.34,0,0,1-3.34,1A5.21,5.21,0,0,1,50,78.61a3.28,3.28,0,0,1-1.24-2.68l0-.07H50.8a2,2,0,0,0,.85,1.67,3.32,3.32,0,0,0,1.87.53,3.05,3.05,0,0,0,1.8-.47A1.44,1.44,0,0,0,56,76.37Z"/><path d="M63.16,64.64H61v-2.2h2.16Zm0,14.89H61V67.67h2.16Z"/><path d="M68.4,67.67l.15,1.76A4.31,4.31,0,0,1,70,68a4,4,0,0,1,2-.52,3.87,3.87,0,0,1,3,1.12A4.93,4.93,0,0,1,76.09,72v7.48H73.93V72.09a3.21,3.21,0,0,0-.62-2.22,2.48,2.48,0,0,0-1.89-.66,3,3,0,0,0-1.65.45,3.27,3.27,0,0,0-1.14,1.23v8.64H66.47V67.67Z"/><path d="M84.15,79.76a5,5,0,0,1-3.94-1.65,6.21,6.21,0,0,1-1.46-4.28v-.48a6.07,6.07,0,0,1,1.51-4.21,4.64,4.64,0,0,1,3.57-1.68,4.49,4.49,0,0,1,3.63,1.45,5.76,5.76,0,0,1,1.23,3.86V74.1H81l0,.05a4.67,4.67,0,0,0,.87,2.8,2.76,2.76,0,0,0,2.33,1.1,5.43,5.43,0,0,0,1.92-.31,4.43,4.43,0,0,0,1.43-.86l.84,1.4a5,5,0,0,1-1.68,1A6.73,6.73,0,0,1,84.15,79.76Zm-.33-10.61a2.34,2.34,0,0,0-1.85.91A4.31,4.31,0,0,0,81,72.35l0,.05h5.47v-.28A3.29,3.29,0,0,0,85.83,70,2.42,2.42,0,0,0,83.82,69.15Z"/><path d="M98,76.37a1.47,1.47,0,0,0-.54-1.17,5.11,5.11,0,0,0-2.05-.8,8.64,8.64,0,0,1-3.25-1.27A2.58,2.58,0,0,1,91,70.93a3.1,3.1,0,0,1,1.23-2.46,5.59,5.59,0,0,1,6.49,0,3.14,3.14,0,0,1,1.17,2.58l0,.07H97.85a1.89,1.89,0,0,0-.65-1.4,2.4,2.4,0,0,0-1.73-.62,2.49,2.49,0,0,0-1.71.5,1.58,1.58,0,0,0-.56,1.22A1.36,1.36,0,0,0,93.7,72a5.11,5.11,0,0,0,2,.72A8.63,8.63,0,0,1,99,74a2.64,2.64,0,0,1,1.1,2.22,3.06,3.06,0,0,1-1.28,2.55,5.34,5.34,0,0,1-3.34,1A5.21,5.21,0,0,1,92,78.61a3.28,3.28,0,0,1-1.24-2.68l0-.07H92.8a2,2,0,0,0,.85,1.67,3.32,3.32,0,0,0,1.87.53,3.05,3.05,0,0,0,1.8-.47A1.44,1.44,0,0,0,98,76.37Z"/><path d="M109.72,76.37a1.47,1.47,0,0,0-.54-1.17,5.11,5.11,0,0,0-2.05-.8,8.64,8.64,0,0,1-3.25-1.27,2.58,2.58,0,0,1-1.09-2.19A3.1,3.1,0,0,1,104,68.47a5.59,5.59,0,0,1,6.49,0,3.14,3.14,0,0,1,1.17,2.58l0,.07h-2.06a1.89,1.89,0,0,0-.65-1.4,2.4,2.4,0,0,0-1.73-.62,2.49,2.49,0,0,0-1.71.5,1.58,1.58,0,0,0-.56,1.22,1.36,1.36,0,0,0,.49,1.11,5.11,5.11,0,0,0,2,.72A8.63,8.63,0,0,1,110.78,74a2.64,2.64,0,0,1,1.1,2.22,3.06,3.06,0,0,1-1.28,2.55,5.34,5.34,0,0,1-3.34,1,5.21,5.21,0,0,1-3.57-1.15,3.28,3.28,0,0,1-1.24-2.68l0-.07h2.06a2,2,0,0,0,.85,1.67,3.32,3.32,0,0,0,1.87.53,3.05,3.05,0,0,0,1.8-.47A1.44,1.44,0,0,0,109.72,76.37Z"/><path d="M116.44,79l-1.64,3.35h-1.28l.77-3.46V77.1h2.16Z"/><path d="M124.06,73.49a6.52,6.52,0,0,1,1.42-4.33,4.77,4.77,0,0,1,3.87-1.7,4.82,4.82,0,0,1,3.89,1.7,6.51,6.51,0,0,1,1.43,4.34v.24a6.49,6.49,0,0,1-1.42,4.34,5.3,5.3,0,0,1-7.76,0,6.48,6.48,0,0,1-1.43-4.33Zm2.16.24a5.6,5.6,0,0,0,.79,3.11,2.87,2.87,0,0,0,4.71,0,5.58,5.58,0,0,0,.8-3.11v-.24a5.56,5.56,0,0,0-.81-3.1,2.64,2.64,0,0,0-2.36-1.24A2.6,2.6,0,0,0,127,70.39a5.61,5.61,0,0,0-.79,3.1Z"/><path d="M142.92,69.58l-1.11-.07a2.47,2.47,0,0,0-1.44.41,2.6,2.6,0,0,0-.9,1.14v8.47h-2.16V67.67h1.93l.21,1.73A4.11,4.11,0,0,1,140.69,68a2.9,2.9,0,0,1,1.7-.51,2.67,2.67,0,0,1,.46,0l.36.08Z"/><path d="M157.47,76.37a1.47,1.47,0,0,0-.54-1.17,5.1,5.1,0,0,0-2.05-.8,8.63,8.63,0,0,1-3.25-1.27,2.58,2.58,0,0,1-1.09-2.19,3.09,3.09,0,0,1,1.23-2.46,5.59,5.59,0,0,1,6.49,0,3.14,3.14,0,0,1,1.17,2.58l0,.07h-2.06a1.89,1.89,0,0,0-.65-1.4,2.41,2.41,0,0,0-1.73-.62,2.49,2.49,0,0,0-1.71.5,1.58,1.58,0,0,0-.56,1.22,1.36,1.36,0,0,0,.49,1.11,5.11,5.11,0,0,0,2,.72A8.63,8.63,0,0,1,158.53,74a2.64,2.64,0,0,1,1.1,2.22,3.06,3.06,0,0,1-1.28,2.55,5.35,5.35,0,0,1-3.34,1,5.21,5.21,0,0,1-3.57-1.15,3.28,3.28,0,0,1-1.24-2.68l0-.07h2.06a2,2,0,0,0,.85,1.67,3.33,3.33,0,0,0,1.87.53,3.05,3.05,0,0,0,1.8-.47A1.44,1.44,0,0,0,157.47,76.37Z"/><path d="M167.23,79.76a5,5,0,0,1-3.94-1.65,6.21,6.21,0,0,1-1.46-4.28v-.48a6.07,6.07,0,0,1,1.51-4.21,4.64,4.64,0,0,1,3.57-1.68,4.49,4.49,0,0,1,3.63,1.45,5.76,5.76,0,0,1,1.23,3.86V74.1h-7.69l0,.05a4.67,4.67,0,0,0,.87,2.8,2.76,2.76,0,0,0,2.33,1.1,5.43,5.43,0,0,0,1.92-.31,4.43,4.43,0,0,0,1.43-.86l.84,1.4a5,5,0,0,1-1.68,1A6.73,6.73,0,0,1,167.23,79.76Zm-.33-10.61a2.34,2.34,0,0,0-1.85.91,4.31,4.31,0,0,0-.94,2.29l0,.05h5.47v-.28a3.29,3.29,0,0,0-.68-2.12A2.42,2.42,0,0,0,166.9,69.15Z"/><path d="M179.78,69.58l-1.11-.07a2.47,2.47,0,0,0-1.44.41,2.6,2.6,0,0,0-.9,1.14v8.47h-2.16V67.67h1.93l.21,1.73A4.11,4.11,0,0,1,177.56,68a2.9,2.9,0,0,1,1.7-.51,2.67,2.67,0,0,1,.46,0l.36.08Z"/><path d="M186,76l.19.83h.07l.21-.83,2.73-8.36h2.2L187,79.53h-1.63L181,67.67h2.21Z"/><path d="M195.68,64.64h-2.16v-2.2h2.16Zm0,14.89h-2.16V67.67h2.16Z"/><path d="M203.82,78.06a2.91,2.91,0,0,0,1.89-.66,2,2,0,0,0,.82-1.63h1.94l0,.07a3.34,3.34,0,0,1-1.36,2.73,5,5,0,0,1-3.3,1.19,4.8,4.8,0,0,1-4-1.69,6.51,6.51,0,0,1-1.37-4.24v-.46a6.48,6.48,0,0,1,1.38-4.22,5.4,5.4,0,0,1,7.35-.47,3.82,3.82,0,0,1,1.28,3l0,.07h-2a2.5,2.5,0,0,0-.77-1.85,2.64,2.64,0,0,0-1.94-.76,2.6,2.6,0,0,0-2.43,1.22,5.74,5.74,0,0,0-.73,3v.46a5.82,5.82,0,0,0,.72,3A2.61,2.61,0,0,0,203.82,78.06Z"/><path d="M215.83,79.76a5,5,0,0,1-3.94-1.65,6.21,6.21,0,0,1-1.46-4.28v-.48a6.07,6.07,0,0,1,1.51-4.21,4.64,4.64,0,0,1,3.57-1.68,4.49,4.49,0,0,1,3.63,1.45,5.76,5.76,0,0,1,1.23,3.86V74.1h-7.69l0,.05a4.67,4.67,0,0,0,.87,2.8,2.76,2.76,0,0,0,2.33,1.1,5.43,5.43,0,0,0,1.92-.31,4.43,4.43,0,0,0,1.43-.86l.84,1.4a5,5,0,0,1-1.68,1A6.73,6.73,0,0,1,215.83,79.76Zm-.33-10.61a2.34,2.34,0,0,0-1.85.91,4.31,4.31,0,0,0-.94,2.29l0,.05h5.47v-.28a3.29,3.29,0,0,0-.68-2.12A2.42,2.42,0,0,0,215.5,69.15Z"/><path d="M225.24,74.29h-2.16V63.57h2.16Zm0,5.24h-2.17V77.29h2.17Z"/><path d="M32.64,102.34H26l-1.51,4.11h-2.2l6.17-16h1.85l6.07,16h-2.2Zm-6-1.81H32l-2.63-7.26h-.07Z"/><path d="M40,94.59l.15,1.76a4.3,4.3,0,0,1,1.48-1.46,4,4,0,0,1,2-.52,3.87,3.87,0,0,1,3,1.12A4.93,4.93,0,0,1,47.73,99v7.48H45.57V99A3.2,3.2,0,0,0,45,96.79a2.48,2.48,0,0,0-1.89-.66,3,3,0,0,0-1.65.45,3.28,3.28,0,0,0-1.15,1.23v8.64H38.11V94.59Z"/><path d="M54.49,102.06l.38,1.49h.07l2.91-9h2.4l-5,13.67A6.16,6.16,0,0,1,54,110.35a3,3,0,0,1-2.26.89,4.72,4.72,0,0,1-.67-.06l-.62-.12.22-1.7.39,0,.58,0a1.33,1.33,0,0,0,1.13-.61,6.39,6.39,0,0,0,.73-1.36l.52-1.24-4.4-11.61H52Z"/><path d="M65,91.74v2.86h2.25v1.6H65v7.2a1.61,1.61,0,0,0,.34,1.17,1.25,1.25,0,0,0,.92.34,2.15,2.15,0,0,0,.41,0,2.41,2.41,0,0,0,.4-.11l.29,1.48a1.92,1.92,0,0,1-.71.32,3.62,3.62,0,0,1-.94.13,2.79,2.79,0,0,1-2.09-.79,3.45,3.45,0,0,1-.78-2.49v-7.2H61v-1.6h1.88V91.74Z"/><path d="M72.06,96.18a4.36,4.36,0,0,1,1.51-1.33,4.12,4.12,0,0,1,2-.48,3.83,3.83,0,0,1,3,1.14A5,5,0,0,1,79.56,99v7.43H77.4V99a3.17,3.17,0,0,0-.63-2.17,2.4,2.4,0,0,0-1.88-.7,3.19,3.19,0,0,0-1.63.42,3.52,3.52,0,0,0-1.2,1.15v8.75H69.9V89.36h2.16Z"/><path d="M85,91.56H82.83v-2.2H85Zm0,14.89H82.83V94.59H85Z"/><path d="M90.24,94.59l.15,1.76a4.31,4.31,0,0,1,1.48-1.46,4,4,0,0,1,2-.52,3.87,3.87,0,0,1,3,1.12A4.93,4.93,0,0,1,97.93,99v7.48H95.77V99a3.21,3.21,0,0,0-.62-2.22,2.48,2.48,0,0,0-1.89-.66,3,3,0,0,0-1.65.45,3.27,3.27,0,0,0-1.14,1.23v8.64H88.31V94.59Z"/><path d="M100.59,100.74a7.77,7.77,0,0,1,1.25-4.61,4,4,0,0,1,3.45-1.75,4.16,4.16,0,0,1,2,.45,3.9,3.9,0,0,1,1.42,1.31l.26-1.54h1.72v11.92a4.52,4.52,0,0,1-1.33,3.5,5.45,5.45,0,0,1-3.82,1.22,8,8,0,0,1-1.85-.24,7.25,7.25,0,0,1-1.75-.64l.55-1.68a5.53,5.53,0,0,0,1.4.53,6.77,6.77,0,0,0,1.62.2,3.14,3.14,0,0,0,2.29-.72,3,3,0,0,0,.72-2.19v-1.34a3.78,3.78,0,0,1-1.39,1.12,4.36,4.36,0,0,1-1.86.38,4.13,4.13,0,0,1-3.43-1.58,6.45,6.45,0,0,1-1.25-4.13Zm2.16.23a4.92,4.92,0,0,0,.76,2.87,2.62,2.62,0,0,0,2.3,1.08,2.85,2.85,0,0,0,1.63-.44,3.37,3.37,0,0,0,1.08-1.25V97.77a3.35,3.35,0,0,0-1.08-1.2,2.84,2.84,0,0,0-1.61-.44,2.52,2.52,0,0,0-2.31,1.29,6.44,6.44,0,0,0-.77,3.32Z"/><path d="M115.7,105.92l-1.64,3.35h-1.28l.77-3.46V104h2.16Z"/><path d="M129.42,96.5l-1.11-.07a2.47,2.47,0,0,0-1.44.41A2.6,2.6,0,0,0,126,98v8.47h-2.16V94.59h1.93l.21,1.73a4.11,4.11,0,0,1,1.24-1.44,2.9,2.9,0,0,1,1.7-.51,2.69,2.69,0,0,1,.46,0l.36.08Z"/><path d="M136.22,106.68a5,5,0,0,1-3.94-1.65,6.21,6.21,0,0,1-1.46-4.28v-.48a6.08,6.08,0,0,1,1.51-4.21,4.64,4.64,0,0,1,3.57-1.68,4.49,4.49,0,0,1,3.63,1.45,5.77,5.77,0,0,1,1.23,3.86V101H133l0,.05a4.66,4.66,0,0,0,.87,2.8,2.76,2.76,0,0,0,2.33,1.1,5.43,5.43,0,0,0,1.92-.31,4.41,4.41,0,0,0,1.43-.86l.84,1.4a5,5,0,0,1-1.68,1A6.74,6.74,0,0,1,136.22,106.68Zm-.33-10.61A2.34,2.34,0,0,0,134,97a4.31,4.31,0,0,0-.94,2.29l0,.05h5.47V99a3.29,3.29,0,0,0-.68-2.12A2.42,2.42,0,0,0,135.89,96.07Z"/><path d="M150.45,106.45c-.07-.36-.13-.67-.17-.95a6.7,6.7,0,0,1-.07-.83,5,5,0,0,1-1.57,1.43,4,4,0,0,1-2.09.58,3.88,3.88,0,0,1-2.82-.95,3.48,3.48,0,0,1-1-2.61,3.06,3.06,0,0,1,1.38-2.66,6.43,6.43,0,0,1,3.73-1h2.34V98.33a2.17,2.17,0,0,0-.64-1.65,2.5,2.5,0,0,0-1.8-.61,2.59,2.59,0,0,0-1.69.53,1.6,1.6,0,0,0-.65,1.28h-2.06l0-.07a2.87,2.87,0,0,1,1.22-2.37,5,5,0,0,1,3.33-1.07,4.89,4.89,0,0,1,3.24,1,3.63,3.63,0,0,1,1.23,3v5.71a11.09,11.09,0,0,0,.07,1.23,6.29,6.29,0,0,0,.24,1.16Zm-3.58-1.59a3.85,3.85,0,0,0,2.11-.6,2.86,2.86,0,0,0,1.23-1.38V101h-2.42a3.15,3.15,0,0,0-2.09.66,2,2,0,0,0-.78,1.54,1.62,1.62,0,0,0,.49,1.25A2.07,2.07,0,0,0,146.86,104.86Z"/><path d="M157.83,106.45h-2.16V89.36h2.16Z"/><path d="M163.48,106.45h-2.16V89.36h2.16Z"/><path d="M170.43,102.06l.38,1.49h.07l2.91-9h2.4l-5,13.67a6.15,6.15,0,0,1-1.29,2.08,3,3,0,0,1-2.26.89,4.7,4.7,0,0,1-.67-.06l-.62-.12.22-1.7.39,0,.58,0a1.33,1.33,0,0,0,1.13-.61,6.4,6.4,0,0,0,.73-1.36l.51-1.24-4.4-11.61h2.41Z"/><path d="M178.63,106.45h-2.16v-2.23h2.16Z"/><path d="M340,66.6h-2.17v-16H340Z"/><path d="M350.51,63.45a1.47,1.47,0,0,0-.54-1.17,5.1,5.1,0,0,0-2.05-.8,8.63,8.63,0,0,1-3.25-1.27A2.58,2.58,0,0,1,343.58,58a3.09,3.09,0,0,1,1.23-2.46,5.59,5.59,0,0,1,6.49,0,3.14,3.14,0,0,1,1.17,2.58l0,.07h-2.06a1.89,1.89,0,0,0-.65-1.4,2.4,2.4,0,0,0-1.73-.62,2.49,2.49,0,0,0-1.71.5,1.58,1.58,0,0,0-.56,1.22,1.36,1.36,0,0,0,.49,1.11,5.11,5.11,0,0,0,2,.72,8.63,8.63,0,0,1,3.34,1.31,2.64,2.64,0,0,1,1.09,2.22,3.06,3.06,0,0,1-1.28,2.55,5.34,5.34,0,0,1-3.33,1,5.21,5.21,0,0,1-3.57-1.15A3.28,3.28,0,0,1,343.25,63l0-.07h2.06a2,2,0,0,0,.85,1.67,3.33,3.33,0,0,0,1.87.53,3.05,3.05,0,0,0,1.8-.47A1.44,1.44,0,0,0,350.51,63.45Z"/><path d="M363.78,51.89v2.86H366v1.6h-2.25v7.2a1.61,1.61,0,0,0,.34,1.17,1.25,1.25,0,0,0,.92.34,2.16,2.16,0,0,0,.41,0,2.42,2.42,0,0,0,.4-.11l.29,1.48a1.92,1.92,0,0,1-.71.32,3.61,3.61,0,0,1-.94.13A2.79,2.79,0,0,1,362.4,66a3.45,3.45,0,0,1-.78-2.49v-7.2h-1.88v-1.6h1.88V51.89Z"/><path d="M370.85,56.34A4.36,4.36,0,0,1,372.35,55a4.12,4.12,0,0,1,2-.48,3.83,3.83,0,0,1,3,1.14,5,5,0,0,1,1.06,3.51V66.6h-2.16V59.15a3.17,3.17,0,0,0-.63-2.17,2.4,2.4,0,0,0-1.88-.7,3.19,3.19,0,0,0-1.63.42,3.52,3.52,0,0,0-1.2,1.15V66.6h-2.16V49.51h2.16Z"/><path d="M388.72,66.6c-.07-.36-.13-.67-.17-.95a7.11,7.11,0,0,1-.07-.83,5,5,0,0,1-1.57,1.43,4,4,0,0,1-2.09.58,3.88,3.88,0,0,1-2.82-.95,3.48,3.48,0,0,1-1-2.61,3.06,3.06,0,0,1,1.38-2.66,6.42,6.42,0,0,1,3.73-1h2.34V58.48a2.18,2.18,0,0,0-.63-1.65,2.5,2.5,0,0,0-1.8-.61,2.59,2.59,0,0,0-1.69.53,1.6,1.6,0,0,0-.65,1.28h-2.06l0-.07a2.87,2.87,0,0,1,1.22-2.37,5,5,0,0,1,3.32-1.07,4.89,4.89,0,0,1,3.24,1,3.63,3.63,0,0,1,1.23,3v5.71a11.09,11.09,0,0,0,.07,1.23,6.37,6.37,0,0,0,.24,1.16ZM385.14,65a3.85,3.85,0,0,0,2.11-.6A2.86,2.86,0,0,0,388.48,63V61.11h-2.42a3.15,3.15,0,0,0-2.09.66,2,2,0,0,0-.78,1.54,1.62,1.62,0,0,0,.49,1.25A2.07,2.07,0,0,0,385.14,65Z"/><path d="M396.62,51.89v2.86h2.25v1.6h-2.25v7.2a1.61,1.61,0,0,0,.34,1.17,1.25,1.25,0,0,0,.92.34,2.16,2.16,0,0,0,.41,0,2.42,2.42,0,0,0,.4-.11l.29,1.48a1.92,1.92,0,0,1-.71.32,3.61,3.61,0,0,1-.94.13,2.79,2.79,0,0,1-2.09-.79,3.45,3.45,0,0,1-.78-2.49v-7.2h-1.88v-1.6h1.88V51.89Z"/><path d="M412.72,56.65l-1.11-.07a2.47,2.47,0,0,0-1.44.41,2.6,2.6,0,0,0-.9,1.14V66.6h-2.16V54.75H409l.21,1.73A4.11,4.11,0,0,1,410.49,55a2.9,2.9,0,0,1,1.7-.51,2.69,2.69,0,0,1,.46,0l.36.08Z"/><path d="M419.51,66.83a5,5,0,0,1-3.94-1.65,6.21,6.21,0,0,1-1.46-4.28v-.48a6.08,6.08,0,0,1,1.51-4.21,4.64,4.64,0,0,1,3.57-1.68A4.49,4.49,0,0,1,422.81,56,5.77,5.77,0,0,1,424,59.83v1.35h-7.69l0,.05a4.67,4.67,0,0,0,.87,2.8,2.76,2.76,0,0,0,2.33,1.1,5.43,5.43,0,0,0,1.92-.31,4.43,4.43,0,0,0,1.43-.86l.84,1.4a5,5,0,0,1-1.68,1A6.73,6.73,0,0,1,419.51,66.83Zm-.33-10.61a2.34,2.34,0,0,0-1.85.91,4.3,4.3,0,0,0-.94,2.29l0,.05h5.47V59.2a3.29,3.29,0,0,0-.68-2.12A2.42,2.42,0,0,0,419.18,56.23Z"/><path d="M433.35,63.45a1.47,1.47,0,0,0-.54-1.17,5.1,5.1,0,0,0-2.05-.8,8.63,8.63,0,0,1-3.25-1.27A2.58,2.58,0,0,1,426.41,58a3.09,3.09,0,0,1,1.23-2.46,5.59,5.59,0,0,1,6.49,0,3.14,3.14,0,0,1,1.17,2.58l0,.07h-2.06a1.89,1.89,0,0,0-.65-1.4,2.4,2.4,0,0,0-1.73-.62,2.49,2.49,0,0,0-1.71.5,1.58,1.58,0,0,0-.56,1.22,1.36,1.36,0,0,0,.49,1.11,5.11,5.11,0,0,0,2,.72,8.63,8.63,0,0,1,3.34,1.31,2.64,2.64,0,0,1,1.09,2.22,3.06,3.06,0,0,1-1.28,2.55,5.34,5.34,0,0,1-3.33,1,5.21,5.21,0,0,1-3.57-1.15A3.28,3.28,0,0,1,426.08,63l0-.07h2.06a2,2,0,0,0,.85,1.67,3.33,3.33,0,0,0,1.87.53,3.05,3.05,0,0,0,1.8-.47A1.44,1.44,0,0,0,433.35,63.45Z"/><path d="M441,51.89v2.86h2.25v1.6H441v7.2a1.61,1.61,0,0,0,.34,1.17,1.25,1.25,0,0,0,.92.34,2.16,2.16,0,0,0,.41,0,2.42,2.42,0,0,0,.4-.11l.29,1.48a1.92,1.92,0,0,1-.71.32,3.61,3.61,0,0,1-.94.13,2.79,2.79,0,0,1-2.09-.79,3.45,3.45,0,0,1-.78-2.49v-7.2H437v-1.6h1.88V51.89Z"/><path d="M453.23,66.6c-.07-.36-.13-.67-.17-.95a7.11,7.11,0,0,1-.07-.83,5,5,0,0,1-1.57,1.43,4,4,0,0,1-2.09.58,3.88,3.88,0,0,1-2.82-.95,3.48,3.48,0,0,1-1-2.61,3.06,3.06,0,0,1,1.38-2.66,6.42,6.42,0,0,1,3.73-1H453V58.48a2.18,2.18,0,0,0-.63-1.65,2.5,2.5,0,0,0-1.8-.61,2.59,2.59,0,0,0-1.69.53,1.6,1.6,0,0,0-.65,1.28h-2.06l0-.07a2.87,2.87,0,0,1,1.22-2.37,5,5,0,0,1,3.32-1.07,4.89,4.89,0,0,1,3.24,1,3.63,3.63,0,0,1,1.23,3v5.71a11.09,11.09,0,0,0,.07,1.23,6.37,6.37,0,0,0,.24,1.16ZM449.65,65a3.85,3.85,0,0,0,2.11-.6A2.86,2.86,0,0,0,453,63V61.11h-2.42a3.15,3.15,0,0,0-2.09.66,2,2,0,0,0-.78,1.54,1.62,1.62,0,0,0,.49,1.25A2.07,2.07,0,0,0,449.65,65Z"/><path d="M465.81,64.85a4,4,0,0,1-1.44,1.47,3.92,3.92,0,0,1-2,.52,3.81,3.81,0,0,1-3-1.24,5.75,5.75,0,0,1-1.08-3.86v-7h2.16v7a4.42,4.42,0,0,0,.56,2.61,2.08,2.08,0,0,0,1.74.71,3.55,3.55,0,0,0,1.9-.47,2.91,2.91,0,0,0,1.13-1.32V54.75h2.16V66.6h-1.94Z"/><path d="M476.64,56.65l-1.11-.07a2.47,2.47,0,0,0-1.44.41,2.6,2.6,0,0,0-.9,1.14V66.6H471V54.75H473l.21,1.73A4.11,4.11,0,0,1,474.41,55a2.9,2.9,0,0,1,1.7-.51,2.69,2.69,0,0,1,.46,0l.36.08Z"/><path d="M486,66.6c-.07-.36-.13-.67-.17-.95a7.11,7.11,0,0,1-.07-.83,5,5,0,0,1-1.57,1.43,4,4,0,0,1-2.09.58,3.88,3.88,0,0,1-2.82-.95,3.48,3.48,0,0,1-1-2.61,3.06,3.06,0,0,1,1.38-2.66,6.42,6.42,0,0,1,3.73-1h2.34V58.48a2.18,2.18,0,0,0-.63-1.65,2.5,2.5,0,0,0-1.8-.61,2.59,2.59,0,0,0-1.69.53A1.6,1.6,0,0,0,481,58h-2.06l0-.07a2.87,2.87,0,0,1,1.22-2.37,5,5,0,0,1,3.32-1.07,4.89,4.89,0,0,1,3.24,1,3.63,3.63,0,0,1,1.23,3v5.71a11.09,11.09,0,0,0,.07,1.23,6.37,6.37,0,0,0,.24,1.16ZM482.42,65a3.85,3.85,0,0,0,2.11-.6A2.86,2.86,0,0,0,485.76,63V61.11h-2.42a3.15,3.15,0,0,0-2.09.66,2,2,0,0,0-.78,1.54,1.62,1.62,0,0,0,.49,1.25A2.07,2.07,0,0,0,482.42,65Z"/><path d="M493,54.75l.15,1.76A4.29,4.29,0,0,1,494.62,55a4,4,0,0,1,2-.52,3.87,3.87,0,0,1,3,1.12,4.93,4.93,0,0,1,1.05,3.47V66.6h-2.16V59.16a3.21,3.21,0,0,0-.62-2.22,2.48,2.48,0,0,0-1.89-.66,3,3,0,0,0-1.65.45A3.28,3.28,0,0,0,493.22,58V66.6h-2.16V54.75Z"/><path d="M506.66,51.89v2.86h2.25v1.6h-2.25v7.2a1.61,1.61,0,0,0,.34,1.17,1.25,1.25,0,0,0,.92.34,2.16,2.16,0,0,0,.41,0,2.42,2.42,0,0,0,.4-.11l.29,1.48a1.92,1.92,0,0,1-.71.32,3.61,3.61,0,0,1-.94.13,2.79,2.79,0,0,1-2.09-.79,3.45,3.45,0,0,1-.78-2.49v-7.2h-1.88v-1.6h1.88V51.89Z"/><path d="M340.31,89.21l.25,1.44h.07l.31-1.44,2.37-7.54H345l2.38,7.54.34,1.6h.07l.32-1.6L350,81.67h2.15l-3.44,11.85H347l-2.29-7.22-.49-2h-.07l-.47,2-2.26,7.22h-1.74l-3.44-11.85h2.15Z"/><path d="M356.42,83.26a4.36,4.36,0,0,1,1.51-1.33,4.12,4.12,0,0,1,2-.48,3.83,3.83,0,0,1,3,1.14,5,5,0,0,1,1.06,3.51v7.43h-2.16V86.08a3.17,3.17,0,0,0-.63-2.17,2.4,2.4,0,0,0-1.88-.7,3.19,3.19,0,0,0-1.63.42,3.52,3.52,0,0,0-1.2,1.15v8.75h-2.16V76.44h2.16Z"/><path d="M371.93,93.76A5,5,0,0,1,368,92.11a6.21,6.21,0,0,1-1.46-4.28v-.48A6.08,6.08,0,0,1,368,83.13a4.64,4.64,0,0,1,3.57-1.68,4.49,4.49,0,0,1,3.63,1.45,5.77,5.77,0,0,1,1.23,3.86V88.1h-7.69l0,.05a4.67,4.67,0,0,0,.87,2.8,2.76,2.76,0,0,0,2.33,1.1,5.43,5.43,0,0,0,1.92-.31,4.43,4.43,0,0,0,1.43-.86l.84,1.4a5,5,0,0,1-1.68,1A6.73,6.73,0,0,1,371.93,93.76Zm-.33-10.61a2.34,2.34,0,0,0-1.85.91,4.3,4.3,0,0,0-.94,2.29l0,.05h5.47v-.28a3.29,3.29,0,0,0-.68-2.12A2.42,2.42,0,0,0,371.6,83.15Z"/><path d="M383.8,93.76a5,5,0,0,1-3.94-1.65,6.21,6.21,0,0,1-1.46-4.28v-.48a6.08,6.08,0,0,1,1.51-4.21,4.64,4.64,0,0,1,3.57-1.68,4.49,4.49,0,0,1,3.63,1.45,5.77,5.77,0,0,1,1.23,3.86V88.1h-7.69l0,.05a4.67,4.67,0,0,0,.87,2.8,2.76,2.76,0,0,0,2.33,1.1,5.43,5.43,0,0,0,1.92-.31,4.43,4.43,0,0,0,1.43-.86l.84,1.4a5,5,0,0,1-1.68,1A6.73,6.73,0,0,1,383.8,93.76Zm-.33-10.61a2.34,2.34,0,0,0-1.85.91,4.3,4.3,0,0,0-.94,2.29l0,.05h5.47v-.28a3.29,3.29,0,0,0-.68-2.12A2.42,2.42,0,0,0,383.47,83.15Z"/><path d="M393.07,93.53h-2.16V76.44h2.16Z"/><path d="M401.21,92.06a2.91,2.91,0,0,0,1.89-.66,2,2,0,0,0,.82-1.63h1.94l0,.07a3.34,3.34,0,0,1-1.36,2.73,5,5,0,0,1-3.3,1.19,4.8,4.8,0,0,1-4-1.69,6.51,6.51,0,0,1-1.37-4.24v-.46a6.48,6.48,0,0,1,1.38-4.22,5.4,5.4,0,0,1,7.35-.47,3.82,3.82,0,0,1,1.28,3l0,.07h-2a2.51,2.51,0,0,0-.77-1.85,2.64,2.64,0,0,0-1.94-.76,2.6,2.6,0,0,0-2.43,1.22,5.74,5.74,0,0,0-.73,3v.46a5.81,5.81,0,0,0,.72,3A2.6,2.6,0,0,0,401.21,92.06Z"/><path d="M410.46,83.26A4.36,4.36,0,0,1,412,81.93a4.12,4.12,0,0,1,2-.48,3.83,3.83,0,0,1,3,1.14A5,5,0,0,1,418,86.1v7.43H415.8V86.08a3.17,3.17,0,0,0-.63-2.17,2.4,2.4,0,0,0-1.88-.7,3.19,3.19,0,0,0-1.63.42,3.52,3.52,0,0,0-1.2,1.15v8.75H408.3V76.44h2.16Z"/><path d="M428.34,93.53c-.07-.36-.13-.67-.17-.95a7.11,7.11,0,0,1-.07-.83,5,5,0,0,1-1.57,1.43,4,4,0,0,1-2.09.58,3.88,3.88,0,0,1-2.82-.95,3.48,3.48,0,0,1-1-2.61A3.06,3.06,0,0,1,422,87.54a6.42,6.42,0,0,1,3.73-1h2.34V85.41a2.18,2.18,0,0,0-.63-1.65,2.5,2.5,0,0,0-1.8-.61,2.59,2.59,0,0,0-1.69.53,1.6,1.6,0,0,0-.65,1.28h-2.06l0-.07a2.87,2.87,0,0,1,1.22-2.37,5,5,0,0,1,3.32-1.07,4.89,4.89,0,0,1,3.24,1,3.63,3.63,0,0,1,1.23,3v5.71a11.09,11.09,0,0,0,.07,1.23,6.37,6.37,0,0,0,.24,1.16Zm-3.58-1.59a3.85,3.85,0,0,0,2.11-.6A2.86,2.86,0,0,0,428.1,90V88h-2.42a3.15,3.15,0,0,0-2.09.66,2,2,0,0,0-.78,1.54,1.62,1.62,0,0,0,.49,1.25A2.07,2.07,0,0,0,424.76,91.94Z"/><path d="M435.72,78.64h-2.16v-2.2h2.16Zm0,14.89h-2.16V81.67h2.16Z"/><path d="M444.65,83.58l-1.11-.07a2.47,2.47,0,0,0-1.44.41,2.6,2.6,0,0,0-.9,1.14v8.47H439V81.67H441l.21,1.73A4.11,4.11,0,0,1,442.42,82a2.9,2.9,0,0,1,1.7-.51,2.69,2.69,0,0,1,.46,0l.36.08Z"/><path d="M344.56,120.45c-.07-.36-.13-.67-.17-.95a7.11,7.11,0,0,1-.07-.83,5,5,0,0,1-1.57,1.43,4,4,0,0,1-2.09.58,3.88,3.88,0,0,1-2.82-.95,3.48,3.48,0,0,1-1-2.61,3.06,3.06,0,0,1,1.38-2.66,6.42,6.42,0,0,1,3.73-1h2.34v-1.17a2.18,2.18,0,0,0-.63-1.65,2.5,2.5,0,0,0-1.8-.61,2.59,2.59,0,0,0-1.69.53,1.6,1.6,0,0,0-.65,1.28h-2.06l0-.07a2.87,2.87,0,0,1,1.22-2.37,5,5,0,0,1,3.32-1.07,4.89,4.89,0,0,1,3.24,1,3.63,3.63,0,0,1,1.23,3v5.71a11.09,11.09,0,0,0,.07,1.23,6.37,6.37,0,0,0,.24,1.16ZM341,118.86a3.85,3.85,0,0,0,2.11-.6,2.86,2.86,0,0,0,1.23-1.38V115H341.9a3.15,3.15,0,0,0-2.09.66,2,2,0,0,0-.78,1.54,1.62,1.62,0,0,0,.49,1.25A2.07,2.07,0,0,0,341,118.86Z"/><path d="M354.44,119a2.91,2.91,0,0,0,1.89-.66,2,2,0,0,0,.82-1.63h1.94l0,.07a3.34,3.34,0,0,1-1.36,2.73,5,5,0,0,1-3.3,1.19,4.8,4.8,0,0,1-4-1.69,6.51,6.51,0,0,1-1.37-4.24v-.46a6.48,6.48,0,0,1,1.38-4.22,5.4,5.4,0,0,1,7.35-.47,3.82,3.82,0,0,1,1.28,3l0,.07h-2a2.51,2.51,0,0,0-.77-1.85,2.64,2.64,0,0,0-1.94-.76,2.6,2.6,0,0,0-2.43,1.22,5.74,5.74,0,0,0-.73,3v.46a5.81,5.81,0,0,0,.72,3A2.6,2.6,0,0,0,354.44,119Z"/><path d="M366.34,119a2.91,2.91,0,0,0,1.89-.66,2,2,0,0,0,.82-1.63H371l0,.07a3.34,3.34,0,0,1-1.36,2.73,5,5,0,0,1-3.3,1.19,4.8,4.8,0,0,1-4-1.69,6.51,6.51,0,0,1-1.37-4.24v-.46a6.48,6.48,0,0,1,1.38-4.22,5.4,5.4,0,0,1,7.35-.47,3.82,3.82,0,0,1,1.28,3l0,.07h-2a2.51,2.51,0,0,0-.77-1.85,2.64,2.64,0,0,0-1.94-.76,2.6,2.6,0,0,0-2.43,1.22,5.74,5.74,0,0,0-.73,3v.46a5.81,5.81,0,0,0,.72,3A2.6,2.6,0,0,0,366.34,119Z"/><path d="M378.35,120.68a5,5,0,0,1-3.94-1.65,6.21,6.21,0,0,1-1.46-4.28v-.48a6.08,6.08,0,0,1,1.51-4.21,4.64,4.64,0,0,1,3.57-1.68,4.49,4.49,0,0,1,3.63,1.45,5.77,5.77,0,0,1,1.23,3.86V115h-7.69l0,.05a4.67,4.67,0,0,0,.87,2.8,2.76,2.76,0,0,0,2.33,1.1,5.43,5.43,0,0,0,1.92-.31,4.43,4.43,0,0,0,1.43-.86l.84,1.4a5,5,0,0,1-1.68,1A6.73,6.73,0,0,1,378.35,120.68ZM378,110.07a2.34,2.34,0,0,0-1.85.91,4.3,4.3,0,0,0-.94,2.29l0,.05h5.47V113a3.29,3.29,0,0,0-.68-2.12A2.42,2.42,0,0,0,378,110.07Z"/><path d="M392.19,117.29a1.47,1.47,0,0,0-.54-1.17,5.1,5.1,0,0,0-2.05-.8,8.63,8.63,0,0,1-3.25-1.27,2.58,2.58,0,0,1-1.09-2.19,3.09,3.09,0,0,1,1.23-2.46,5.59,5.59,0,0,1,6.49,0,3.14,3.14,0,0,1,1.17,2.58l0,.07h-2.06a1.89,1.89,0,0,0-.65-1.4,2.4,2.4,0,0,0-1.73-.62,2.49,2.49,0,0,0-1.71.5,1.58,1.58,0,0,0-.56,1.22,1.36,1.36,0,0,0,.49,1.11,5.11,5.11,0,0,0,2,.72,8.63,8.63,0,0,1,3.34,1.31,2.64,2.64,0,0,1,1.09,2.22,3.06,3.06,0,0,1-1.28,2.55,5.34,5.34,0,0,1-3.33,1,5.21,5.21,0,0,1-3.57-1.15,3.28,3.28,0,0,1-1.24-2.68l0-.07H387a2,2,0,0,0,.85,1.67,3.33,3.33,0,0,0,1.87.53,3.05,3.05,0,0,0,1.8-.47A1.44,1.44,0,0,0,392.19,117.29Z"/><path d="M403.92,117.29a1.47,1.47,0,0,0-.54-1.17,5.1,5.1,0,0,0-2.05-.8,8.63,8.63,0,0,1-3.25-1.27,2.58,2.58,0,0,1-1.09-2.19,3.09,3.09,0,0,1,1.23-2.46,5.59,5.59,0,0,1,6.49,0,3.14,3.14,0,0,1,1.17,2.58l0,.07h-2.06a1.89,1.89,0,0,0-.65-1.4,2.4,2.4,0,0,0-1.73-.62,2.49,2.49,0,0,0-1.71.5,1.58,1.58,0,0,0-.56,1.22,1.36,1.36,0,0,0,.49,1.11,5.11,5.11,0,0,0,2,.72,8.63,8.63,0,0,1,3.34,1.31,2.64,2.64,0,0,1,1.09,2.22,3.06,3.06,0,0,1-1.28,2.55,5.34,5.34,0,0,1-3.33,1,5.21,5.21,0,0,1-3.57-1.15,3.28,3.28,0,0,1-1.24-2.68l0-.07h2.06a2,2,0,0,0,.85,1.67,3.33,3.33,0,0,0,1.87.53,3.05,3.05,0,0,0,1.8-.47A1.44,1.44,0,0,0,403.92,117.29Z"/><path d="M411.1,105.56h-2.16v-2.2h2.16Zm0,14.89h-2.16V108.59h2.16Z"/><path d="M424.54,115a6.52,6.52,0,0,1-1.23,4.14,4.07,4.07,0,0,1-3.39,1.57,4.33,4.33,0,0,1-2-.46,3.78,3.78,0,0,1-1.43-1.34l-.26,1.57h-1.76V103.36h2.16V110a3.74,3.74,0,0,1,1.39-1.21,4.25,4.25,0,0,1,1.93-.42,3.94,3.94,0,0,1,3.42,1.75,7.88,7.88,0,0,1,1.23,4.61Zm-2.16-.23a6.54,6.54,0,0,0-.75-3.32,2.47,2.47,0,0,0-2.28-1.29,2.83,2.83,0,0,0-1.68.49,3.44,3.44,0,0,0-1.09,1.31v5.14a3.53,3.53,0,0,0,1.09,1.37,2.82,2.82,0,0,0,1.7.49,2.57,2.57,0,0,0,2.27-1.08,5,5,0,0,0,.75-2.87Z"/><path d="M429.5,120.45h-2.16V103.36h2.16Z"/><path d="M437.74,120.68A5,5,0,0,1,433.8,119a6.21,6.21,0,0,1-1.46-4.28v-.48a6.08,6.08,0,0,1,1.51-4.21,4.64,4.64,0,0,1,3.57-1.68,4.49,4.49,0,0,1,3.63,1.45,5.77,5.77,0,0,1,1.23,3.86V115h-7.69l0,.05a4.67,4.67,0,0,0,.87,2.8,2.76,2.76,0,0,0,2.33,1.1,5.43,5.43,0,0,0,1.92-.31,4.43,4.43,0,0,0,1.43-.86l.84,1.4a5,5,0,0,1-1.68,1A6.73,6.73,0,0,1,437.74,120.68Zm-.33-10.61a2.34,2.34,0,0,0-1.85.91,4.3,4.3,0,0,0-.94,2.29l0,.05h5.47V113a3.29,3.29,0,0,0-.68-2.12A2.42,2.42,0,0,0,437.41,110.07Z"/><path d="M447,116a6.4,6.4,0,0,1,.27-2.2,5.57,5.57,0,0,1,1.38-1.62,23.94,23.94,0,0,0,1.54-2,2.93,2.93,0,0,0,.46-1.67,2.43,2.43,0,0,0-.62-1.79,2.38,2.38,0,0,0-1.77-.62,2.69,2.69,0,0,0-1.7.54,1.89,1.89,0,0,0-.7,1.59h-2.06l0-.07a3.4,3.4,0,0,1,1.24-2.83,4.91,4.91,0,0,1,3.25-1.06,4.76,4.76,0,0,1,3.35,1.1,4,4,0,0,1,1.19,3.07,4.59,4.59,0,0,1-.77,2.58,14.34,14.34,0,0,1-2,2.4,2.58,2.58,0,0,0-.72,1.06,6.2,6.2,0,0,0-.13,1.47Zm2.24,4.49H447v-2.28h2.26Z"/></g></svg>