<svg xmlns="http://www.w3.org/2000/svg" viewBox="0 0 1237.44 567.48"><defs><style>.cls-1{fill:#fff;}.cls-2{fill:#f5accc;}.cls-3{fill:#faaf40;}.cls-10,.cls-11,.cls-13,.cls-14,.cls-15,.cls-17,.cls-18,.cls-19,.cls-20,.cls-4,.cls-7{fill:none;stroke-miterlimit:10;}.cls-4{stroke:#fff;}.cls-10,.cls-11,.cls-13,.cls-17,.cls-18,.cls-19,.cls-20,.cls-4{stroke-linecap:round;}.cls-17,.cls-20,.cls-4{stroke-width:4.86px;}.cls-5{fill:#c7add3;}.cls-6{fill:#87cbf0;}.cls-7{stroke:#f5accc;}.cls-15,.cls-7{stroke-width:14.59px;}.cls-8{fill:#0082a5;}.cls-9{fill:#a66ace;}.cls-10,.cls-18{stroke:#a66ace;}.cls-10,.cls-13{stroke-width:7.3px;}.cls-11{stroke:#c7add3;}.cls-11,.cls-14{stroke-width:19.46px;}.cls-12{fill:#cc6f00;}.cls-13{stroke:#cc6f00;}.cls-14,.cls-20{stroke:#faaf40;}.cls-15,.cls-19{stroke:#87cbf0;}.cls-16{fill:#f45bab;}.cls-17{stroke:#f45bab;}.cls-18,.cls-19{stroke-width:5px;}</style></defs><title>chars-large</title><g id="Layer_12" data-name="Layer 12"><path class="cls-1" d="M911.89,186.27V110.9a24.47,24.47,0,0,0-24.4-24.4H618.43A24.47,24.47,0,0,0,594,110.9V220.28a24.47,24.47,0,0,0,24.4,24.4H853.66a25.57,25.57,0,0,1-4.31,21.93A25.63,25.63,0,0,0,878,244.68h9.5a24.47,24.47,0,0,0,24.4-24.4v-34Z"/><path class="cls-2" d="M786.64,301.19l5.43,14.68a104.23,104.23,0,0,0,61.58,61.58l14.68,5.43c13.93,5.15,13.93,24.86,0,30l-14.68,5.43a104.23,104.23,0,0,0-61.58,61.58l-5.43,14.68c-5.15,13.93-24.86,13.93-30,0l-5.43-14.68a104.23,104.23,0,0,0-61.58-61.58l-14.68-5.43c-13.93-5.15-13.93-24.86,0-30l14.68-5.43a104.23,104.23,0,0,0,61.58-61.58l5.43-14.68C761.79,287.26,781.49,287.26,786.64,301.19Z"/><circle class="cls-3" cx="1058.11" cy="397.89" r="107.15"/><path class="cls-4" d="M1157,414.2A99.83,99.83,0,0,1,1137,459.71"/><path class="cls-4" d="M1150.72,359.5A100.47,100.47,0,0,1,1157,414.2"/><path class="cls-4" d="M1129.86,327.94a100.58,100.58,0,0,1,20.86,31.56"/><path class="cls-4" d="M1058.11,297.64a99.68,99.68,0,0,1,56,17.15"/><path class="cls-5" d="M341.53,382c-2.6-47.66-38.08-86.06-84.52-90.63-24.48-2.41-42.14,2.74-55.11,12.71-13-10-30.62-15.12-55.11-12.71-46.44,4.57-81.92,43-84.52,90.63-3,54.71,47,79.55,98.45,97.07,29.73,10.12,40.32,24.77,41.17,26h0c.85-1.24,11.44-15.89,41.17-26C294.55,461.51,344.51,436.68,341.53,382Z"/><path class="cls-6" d="M504.72,299.79l22,44.55a16.23,16.23,0,0,0,12.22,8.88l49.16,7.14a16.23,16.23,0,0,1,9,27.68l-35.57,34.68a16.23,16.23,0,0,0-4.67,14.36l8.4,49a16.23,16.23,0,0,1-23.54,17.1l-44-23.12a16.23,16.23,0,0,0-15.1,0l-44,23.12A16.23,16.23,0,0,1,415.11,486l8.4-49a16.23,16.23,0,0,0-4.67-14.36L383.27,388a16.23,16.23,0,0,1,9-27.68l49.16-7.14a16.23,16.23,0,0,0,12.22-8.88l22-44.55A16.23,16.23,0,0,1,504.72,299.79Z"/><line class="cls-4" x1="563.59" y1="411.05" x2="556.7" y2="417.77"/><path class="cls-4" d="M546.6,361.3l40.5,5.88a9.33,9.33,0,0,1,5.17,15.92l-28.68,28"/><line class="cls-4" x1="537.94" y1="360.04" x2="546.6" y2="361.3"/><path class="cls-4" d="M520.53,347.39a23.11,23.11,0,0,0,4.72,6.44"/><path class="cls-4" d="M473.85,319l8-16.11a9.33,9.33,0,0,1,16.73,0l14.86,30.1"/><line class="cls-7" x1="737.05" y1="388.38" x2="751.15" y2="536.23"/><line class="cls-7" x1="778.93" y1="392.77" x2="806.71" y2="536.23"/><circle class="cls-8" cx="490.17" cy="411.05" r="9.08" transform="translate(-63.59 731.34) rotate(-70.03)"/><path class="cls-8" d="M502.26,424.2a12.08,12.08,0,0,1-24.17,0"/><circle class="cls-1" cx="514.5" cy="397.44" r="14.78"/><circle cx="514.5" cy="397.44" r="7.68" transform="translate(-130.34 480.21) rotate(-45)"/><circle class="cls-1" cx="465.85" cy="397.44" r="14.78"/><circle cx="465.85" cy="397.44" r="7.68" transform="translate(-144.59 445.81) rotate(-45)"/><circle class="cls-1" cx="741.61" cy="397.44" r="14.78"/><circle cx="741.61" cy="397.44" r="7.68" transform="translate(-63.82 640.8) rotate(-45)"/><circle class="cls-1" cx="777.34" cy="397.44" r="14.78"/><circle cx="777.34" cy="397.44" r="7.68" transform="translate(-53.36 666.07) rotate(-45)"/><circle class="cls-1" cx="172.72" cy="392.77" r="19.45"/><circle class="cls-1" cx="231.09" cy="392.77" r="19.45"/><circle class="cls-9" cx="201.9" cy="413.75" r="6.38"/><path class="cls-10" d="M214,424.2a12.08,12.08,0,0,1-24.17,0"/><circle cx="172.72" cy="392.77" r="10.11"/><circle cx="231.09" cy="392.77" r="10.11"/><line class="cls-11" x1="175.94" y1="468.2" x2="166.83" y2="536.23"/><path class="cls-9" d="M184.08,560.74c0-.33,0-.66-.05-1s.05-.65.05-1v-14a17.07,17.07,0,0,0-17-17H162.8a17.08,17.08,0,0,0-16.95,15.5h-1.06a17.53,17.53,0,0,0-17.48,17.48,17.31,17.31,0,0,0,1.36,6.74h54A17.31,17.31,0,0,0,184.08,560.74Z"/><line class="cls-11" x1="227.87" y1="468.2" x2="236.98" y2="536.23"/><path class="cls-9" d="M219.73,560.74c0-.33,0-.66.05-1s-.05-.65-.05-1v-14a17.07,17.07,0,0,1,17-17H241A17.08,17.08,0,0,1,258,543.26H259a17.53,17.53,0,0,1,17.48,17.48,17.31,17.31,0,0,1-1.36,6.74h-54A17.31,17.31,0,0,1,219.73,560.74Z"/><circle class="cls-1" cx="1029.06" cy="392.77" r="19.45"/><circle class="cls-1" cx="1087.43" cy="392.77" r="19.45"/><circle class="cls-12" cx="1058.24" cy="413.75" r="6.38"/><path class="cls-13" d="M1070.33,424.2a12.08,12.08,0,0,1-24.17,0"/><circle cx="1029.06" cy="392.77" r="10.11"/><circle cx="1087.43" cy="392.77" r="10.11"/><line class="cls-14" x1="1032.28" y1="468.2" x2="1023.16" y2="536.23"/><path class="cls-12" d="M1040.42,560.74c0-.33,0-.66-.05-1s.05-.65.05-1v-14a17.07,17.07,0,0,0-17-17h-4.26a17.08,17.08,0,0,0-16.95,15.5h-1.06a17.53,17.53,0,0,0-17.48,17.48,17.31,17.31,0,0,0,1.36,6.74h54A17.31,17.31,0,0,0,1040.42,560.74Z"/><line class="cls-14" x1="1084.2" y1="468.2" x2="1093.32" y2="536.23"/><path class="cls-12" d="M1076.07,560.74c0-.33,0-.66.05-1s-.05-.65-.05-1v-14a17.07,17.07,0,0,1,17-17h4.26a17.08,17.08,0,0,1,16.95,15.5h1.06a17.53,17.53,0,0,1,17.48,17.48,17.31,17.31,0,0,1-1.36,6.74h-54A17.31,17.31,0,0,1,1076.07,560.74Z"/><line class="cls-15" x1="471.51" y1="468.2" x2="462.39" y2="536.23"/><path class="cls-8" d="M479.64,560.74c0-.33,0-.66-.05-1s.05-.65.05-1v-14a17.07,17.07,0,0,0-17-17h-4.26a17.08,17.08,0,0,0-16.95,15.5h-1.06a17.53,17.53,0,0,0-17.48,17.48,17.31,17.31,0,0,0,1.36,6.74h54A17.31,17.31,0,0,0,479.64,560.74Z"/><line class="cls-15" x1="508.84" y1="468.2" x2="517.96" y2="536.23"/><path class="cls-8" d="M500.7,560.74c0-.33,0-.66.05-1s-.05-.65-.05-1v-14a17.07,17.07,0,0,1,17-17H522a17.08,17.08,0,0,1,16.95,15.5H540a17.53,17.53,0,0,1,17.48,17.48,17.31,17.31,0,0,1-1.36,6.74h-54A17.31,17.31,0,0,1,500.7,560.74Z"/><path class="cls-16" d="M768.4,560.74c0-.33,0-.66-.05-1s.05-.65.05-1v-14a17.07,17.07,0,0,0-17-17h-4.26a17.08,17.08,0,0,0-16.95,15.5h-1.06a17.53,17.53,0,0,0-17.48,17.48,17.31,17.31,0,0,0,1.36,6.74h54A17.31,17.31,0,0,0,768.4,560.74Z"/><path class="cls-16" d="M789.46,560.74c0-.33,0-.66.05-1s-.05-.65-.05-1v-14a17.07,17.07,0,0,1,17-17h4.26a17.08,17.08,0,0,1,16.95,15.5h1.06a17.53,17.53,0,0,1,17.48,17.48,17.31,17.31,0,0,1-1.36,6.74h-54A17.31,17.31,0,0,1,789.46,560.74Z"/><path class="cls-17" d="M775.2,418a7.18,7.18,0,0,1-7.37,7"/><rect class="cls-16" x="753.55" y="397.44" width="11.86" height="21.65" rx="2.44" ry="2.44"/><path class="cls-1" d="M1210.24,106.38a24.18,24.18,0,0,0-11.42-2.85H961.38a24.47,24.47,0,0,0-24.4,24.4v92.36a24.47,24.47,0,0,0,24.4,24.4h169.55a25.57,25.57,0,0,1-4.31,21.93,25.63,25.63,0,0,0,28.65-21.93h43.55a24.47,24.47,0,0,0,24.4-24.4V127.92a24.46,24.46,0,0,0-13-21.54"/><path class="cls-1" d="M14.22,187.49V39.15a24.47,24.47,0,0,1,24.4-24.4H242a24.47,24.47,0,0,1,24.4,24.4V221.5A24.47,24.47,0,0,1,242,245.9H72.45a25.57,25.57,0,0,0,4.31,21.93A25.63,25.63,0,0,1,48.12,245.9h-9.5a24.47,24.47,0,0,1-24.4-24.4v-34Z"/><line class="cls-17" x1="840.16" y1="86.5" x2="818.81" y2="86.5"/><path class="cls-17" d="M911.89,132.19V110.9a24.47,24.47,0,0,0-24.4-24.4H840.16"/><path class="cls-17" d="M805.21,86.5H618.43A24.47,24.47,0,0,0,594,110.9V220.28a24.47,24.47,0,0,0,24.4,24.4H853.66a25.57,25.57,0,0,1-4.31,21.93A25.63,25.63,0,0,0,878,244.68h9.5a24.47,24.47,0,0,0,24.4-24.4V151.59"/><path class="cls-1" d="M575.62,197.6V122.23a24.47,24.47,0,0,0-24.4-24.4H313.78a24.47,24.47,0,0,0-24.4,24.4V231.62a24.47,24.47,0,0,0,24.4,24.4H517.39a25.57,25.57,0,0,1-4.31,21.93A25.63,25.63,0,0,0,541.72,256h9.5a24.47,24.47,0,0,0,24.4-24.4v-34Z"/><path class="cls-4" d="M834.69,376.19a111.34,111.34,0,0,0,16.57,7.73l14.68,5.43a9.11,9.11,0,0,1,0,17.08L861,408.27"/><path class="cls-4" d="M811.06,358.11q3.7,3.72,7.74,7.08"/><path class="cls-4" d="M796.34,339.79a111,111,0,0,0,7.91,10.81"/><path class="cls-4" d="M753.56,327.95q2.27-4.72,4.11-9.68l5.43-14.68a9.11,9.11,0,0,1,17.08,0l5.43,14.69q1.82,4.91,4.06,9.58"/><path d="M625.25,139.1h-2.82V118.35h2.82Z"/><path d="M639,135a1.91,1.91,0,0,0-.71-1.52,6.63,6.63,0,0,0-2.67-1,11.23,11.23,0,0,1-4.23-1.66,3.36,3.36,0,0,1-1.42-2.85,4,4,0,0,1,1.6-3.2,7.27,7.27,0,0,1,8.44.06,4.09,4.09,0,0,1,1.52,3.36l0,.09H638.8a2.46,2.46,0,0,0-.85-1.82,3.12,3.12,0,0,0-2.24-.8,3.24,3.24,0,0,0-2.22.66,2.06,2.06,0,0,0-.73,1.58,1.76,1.76,0,0,0,.64,1.44,6.65,6.65,0,0,0,2.61.94,11.24,11.24,0,0,1,4.35,1.7,3.44,3.44,0,0,1,1.43,2.89,4,4,0,0,1-1.66,3.32,7,7,0,0,1-4.34,1.27,6.78,6.78,0,0,1-4.65-1.5,4.27,4.27,0,0,1-1.61-3.49l0-.09h2.68a2.58,2.58,0,0,0,1.11,2.18,4.3,4.3,0,0,0,2.44.69,4,4,0,0,0,2.34-.61A1.86,1.86,0,0,0,639,135Z"/><path d="M656.23,120v3.72h2.92v2.08h-2.92v9.36a2.1,2.1,0,0,0,.45,1.52,1.62,1.62,0,0,0,1.19.44,2.81,2.81,0,0,0,.53-.06,3.27,3.27,0,0,0,.52-.14l.37,1.92a2.48,2.48,0,0,1-.92.42,4.65,4.65,0,0,1-1.22.17,3.64,3.64,0,0,1-2.72-1,4.48,4.48,0,0,1-1-3.24v-9.36H651v-2.08h2.45V120Z"/><path d="M665.42,125.75a5.7,5.7,0,0,1,2-1.73,5.37,5.37,0,0,1,2.57-.62,5,5,0,0,1,3.84,1.48,6.52,6.52,0,0,1,1.38,4.56v9.66h-2.81v-9.69a4.13,4.13,0,0,0-.82-2.82,3.12,3.12,0,0,0-2.44-.91,4.14,4.14,0,0,0-2.12.55,4.59,4.59,0,0,0-1.56,1.49V139.1h-2.81V116.87h2.81Z"/><path d="M688.68,139.1c-.1-.47-.17-.88-.22-1.24a9,9,0,0,1-.09-1.07,6.54,6.54,0,0,1-2,1.86,5.23,5.23,0,0,1-2.71.75,5,5,0,0,1-3.67-1.24,4.53,4.53,0,0,1-1.26-3.4,4,4,0,0,1,1.79-3.46,8.35,8.35,0,0,1,4.85-1.24h3v-1.52a2.83,2.83,0,0,0-.83-2.15,3.24,3.24,0,0,0-2.34-.79,3.37,3.37,0,0,0-2.2.69,2.08,2.08,0,0,0-.85,1.66h-2.68l0-.09a3.73,3.73,0,0,1,1.59-3.08,6.53,6.53,0,0,1,4.33-1.4,6.37,6.37,0,0,1,4.22,1.33,4.73,4.73,0,0,1,1.6,3.84V136a14.45,14.45,0,0,0,.09,1.6,8.21,8.21,0,0,0,.31,1.51ZM684,137a5,5,0,0,0,2.75-.78,3.7,3.7,0,0,0,1.6-1.79V132h-3.15a4.11,4.11,0,0,0-2.71.85,2.56,2.56,0,0,0-1,2,2.1,2.1,0,0,0,.64,1.62A2.68,2.68,0,0,0,684,137Z"/><path d="M699,120v3.72h2.92v2.08H699v9.36a2.1,2.1,0,0,0,.45,1.52,1.62,1.62,0,0,0,1.19.44,2.81,2.81,0,0,0,.53-.06,3.27,3.27,0,0,0,.52-.14l.37,1.92a2.48,2.48,0,0,1-.92.42,4.65,4.65,0,0,1-1.22.17,3.64,3.64,0,0,1-2.72-1,4.48,4.48,0,0,1-1-3.24v-9.36H693.7v-2.08h2.45V120Z"/><path d="M712,131.67a10.29,10.29,0,0,1,1.59-6,5.12,5.12,0,0,1,4.45-2.28,5.52,5.52,0,0,1,2.4.5,4.92,4.92,0,0,1,1.79,1.45v-8.48H725V139.1H722.7l-.33-1.9a5,5,0,0,1-1.85,1.64,5.57,5.57,0,0,1-2.55.56,5.29,5.29,0,0,1-4.42-2A8.49,8.49,0,0,1,712,132Zm2.81.3a6.54,6.54,0,0,0,1,3.74,3.34,3.34,0,0,0,3,1.41,3.72,3.72,0,0,0,2.11-.57,4.26,4.26,0,0,0,1.4-1.6v-7.2a4.33,4.33,0,0,0-1.4-1.52,3.71,3.71,0,0,0-2.07-.56,3.21,3.21,0,0,0-3,1.67,8.61,8.61,0,0,0-1,4.33Z"/><path d="M728.53,131.25a8.5,8.5,0,0,1,1.85-5.64,6.21,6.21,0,0,1,5-2.21,6.27,6.27,0,0,1,5.07,2.21,8.46,8.46,0,0,1,1.86,5.64v.31a8.45,8.45,0,0,1-1.85,5.64,6.89,6.89,0,0,1-10.1,0,8.43,8.43,0,0,1-1.86-5.63Zm2.81.3a7.3,7.3,0,0,0,1,4,3.73,3.73,0,0,0,6.12,0,7.26,7.26,0,0,0,1-4v-.31a7.25,7.25,0,0,0-1-4,3.44,3.44,0,0,0-3.07-1.61,3.39,3.39,0,0,0-3,1.61,7.32,7.32,0,0,0-1,4Z"/><path d="M752,137.19a3.79,3.79,0,0,0,2.46-.86,2.63,2.63,0,0,0,1.06-2.11h2.52l0,.09a4.34,4.34,0,0,1-1.77,3.55,6.47,6.47,0,0,1-4.3,1.55,6.24,6.24,0,0,1-5.14-2.19,8.47,8.47,0,0,1-1.78-5.51v-.6a8.44,8.44,0,0,1,1.79-5.5,7,7,0,0,1,9.56-.6,5,5,0,0,1,1.66,3.92l0,.09h-2.54a3.26,3.26,0,0,0-1-2.4,3.43,3.43,0,0,0-2.52-1,3.38,3.38,0,0,0-3.16,1.59,7.47,7.47,0,0,0-.95,3.89v.6a7.56,7.56,0,0,0,.94,3.94A3.4,3.4,0,0,0,752,137.19Z"/><path d="M765,120v3.72h2.92v2.08H765v9.36a2.1,2.1,0,0,0,.45,1.52,1.62,1.62,0,0,0,1.19.44,2.81,2.81,0,0,0,.53-.06,3.27,3.27,0,0,0,.52-.14l.37,1.92a2.48,2.48,0,0,1-.92.42,4.65,4.65,0,0,1-1.22.17,3.64,3.64,0,0,1-2.72-1,4.48,4.48,0,0,1-1-3.24v-9.36h-2.45v-2.08h2.45V120Z"/><path d="M770.69,131.25a8.5,8.5,0,0,1,1.85-5.64,6.21,6.21,0,0,1,5-2.21,6.27,6.27,0,0,1,5.07,2.21,8.46,8.46,0,0,1,1.86,5.64v.31a8.45,8.45,0,0,1-1.85,5.64,6.89,6.89,0,0,1-10.1,0,8.43,8.43,0,0,1-1.86-5.63Zm2.81.3a7.3,7.3,0,0,0,1,4,3.73,3.73,0,0,0,6.12,0,7.26,7.26,0,0,0,1-4v-.31a7.25,7.25,0,0,0-1-4,3.44,3.44,0,0,0-3.07-1.61,3.39,3.39,0,0,0-3,1.61,7.32,7.32,0,0,0-1,4Z"/><path d="M795.23,126.16l-1.44-.09a3.21,3.21,0,0,0-1.87.53,3.38,3.38,0,0,0-1.18,1.48v11h-2.81V123.68h2.51l.27,2.25a5.35,5.35,0,0,1,1.62-1.87,3.78,3.78,0,0,1,2.22-.67,3.47,3.47,0,0,1,.6,0,3.91,3.91,0,0,1,.47.11Z"/><path d="M622.93,174.12V160.78h-2.41V158.7h2.41v-2a5.3,5.3,0,0,1,1.29-3.81,4.75,4.75,0,0,1,3.6-1.34,6.19,6.19,0,0,1,1,.08c.33.05.69.13,1.09.22l-.34,2.14q-.26-.06-.62-.1a6.53,6.53,0,0,0-.76,0,2.21,2.21,0,0,0-1.82.73,3.31,3.31,0,0,0-.6,2.13v2h3.21v2.08h-3.21v13.34Z"/><path d="M641.31,174.12c-.1-.47-.17-.88-.22-1.24a9,9,0,0,1-.09-1.07,6.54,6.54,0,0,1-2,1.86,5.23,5.23,0,0,1-2.71.75,5,5,0,0,1-3.67-1.24,4.53,4.53,0,0,1-1.26-3.4,4,4,0,0,1,1.79-3.46,8.35,8.35,0,0,1,4.85-1.24h3v-1.52a2.83,2.83,0,0,0-.83-2.15,3.24,3.24,0,0,0-2.34-.79,3.37,3.37,0,0,0-2.2.69,2.08,2.08,0,0,0-.85,1.66h-2.68l0-.09a3.73,3.73,0,0,1,1.59-3.08,6.53,6.53,0,0,1,4.33-1.4,6.37,6.37,0,0,1,4.22,1.33,4.73,4.73,0,0,1,1.6,3.84V171a14.45,14.45,0,0,0,.09,1.6,8.21,8.21,0,0,0,.31,1.51Zm-4.66-2.07a5,5,0,0,0,2.75-.78,3.7,3.7,0,0,0,1.6-1.79V167h-3.15a4.11,4.11,0,0,0-2.71.85,2.56,2.56,0,0,0-1,2,2.1,2.1,0,0,0,.64,1.62A2.68,2.68,0,0,0,636.65,172.06Z"/><path d="M650.39,158.7l.2,2a5.24,5.24,0,0,1,1.92-1.71,5.76,5.76,0,0,1,2.7-.6,4.77,4.77,0,0,1,2.64.71,4.31,4.31,0,0,1,1.66,2.14,5.72,5.72,0,0,1,1.92-2.08,5.05,5.05,0,0,1,2.79-.77,4.61,4.61,0,0,1,3.72,1.62,7.4,7.4,0,0,1,1.37,4.87v9.22h-2.81v-9.25a5.13,5.13,0,0,0-.78-3.23,2.86,2.86,0,0,0-2.34-.95,3,3,0,0,0-2.33,1,4.34,4.34,0,0,0-1,2.52v9.9h-2.82v-9.25a5.06,5.06,0,0,0-.81-3.17,2.79,2.79,0,0,0-2.32-1,3.86,3.86,0,0,0-2.11.53,3.41,3.41,0,0,0-1.27,1.48v11.41h-2.81V158.7Z"/><path d="M676.43,154.76h-2.81v-2.86h2.81Zm0,19.37h-2.81V158.7h2.81Z"/><path d="M683.78,174.12H681V151.89h2.81Z"/><path d="M691.13,154.76h-2.81v-2.86h2.81Zm0,19.37h-2.81V158.7h2.81Z"/><path d="M704.93,174.12c-.1-.47-.17-.88-.22-1.24a9,9,0,0,1-.09-1.07,6.54,6.54,0,0,1-2,1.86,5.23,5.23,0,0,1-2.71.75,5,5,0,0,1-3.67-1.24,4.53,4.53,0,0,1-1.26-3.4,4,4,0,0,1,1.79-3.46,8.35,8.35,0,0,1,4.85-1.24h3v-1.52a2.83,2.83,0,0,0-.83-2.15,3.24,3.24,0,0,0-2.34-.79,3.37,3.37,0,0,0-2.2.69,2.08,2.08,0,0,0-.85,1.66h-2.68l0-.09a3.73,3.73,0,0,1,1.59-3.08,6.53,6.53,0,0,1,4.33-1.4,6.37,6.37,0,0,1,4.22,1.33,4.73,4.73,0,0,1,1.6,3.84V171a14.45,14.45,0,0,0,.09,1.6,8.21,8.21,0,0,0,.31,1.51Zm-4.66-2.07a5,5,0,0,0,2.75-.78,3.7,3.7,0,0,0,1.6-1.79V167h-3.15a4.11,4.11,0,0,0-2.71.85,2.56,2.56,0,0,0-1,2,2.1,2.1,0,0,0,.64,1.62A2.68,2.68,0,0,0,700.27,172.06Z"/><path d="M718.79,161.18l-1.44-.09a3.21,3.21,0,0,0-1.87.53,3.38,3.38,0,0,0-1.18,1.48v11H711.5V158.7H714l.27,2.25a5.35,5.35,0,0,1,1.62-1.87,3.78,3.78,0,0,1,2.22-.67,3.47,3.47,0,0,1,.6,0,3.91,3.91,0,0,1,.47.11Z"/><path d="M732.7,168.51l.33,1.87h.09l.4-1.87,3.08-9.8h2.25l3.09,9.8.44,2.08h.09l.41-2.08,2.42-9.8h2.79l-4.47,15.42h-2.27l-3-9.39-.64-2.62h-.09l-.61,2.61-2.94,9.39h-2.27l-4.47-15.42h2.79Z"/><path d="M753.88,154.76h-2.81v-2.86h2.81Zm0,19.37h-2.81V158.7h2.81Z"/><path d="M761.9,155v3.72h2.92v2.08H761.9v9.36a2.1,2.1,0,0,0,.45,1.52,1.62,1.62,0,0,0,1.19.44,2.81,2.81,0,0,0,.53-.06,3.27,3.27,0,0,0,.52-.14l.37,1.92a2.48,2.48,0,0,1-.92.42,4.65,4.65,0,0,1-1.22.17,3.64,3.64,0,0,1-2.72-1,4.48,4.48,0,0,1-1-3.24v-9.36h-2.45V158.7h2.45V155Z"/><path d="M771.09,160.77a5.7,5.7,0,0,1,2-1.73,5.37,5.37,0,0,1,2.57-.62,5,5,0,0,1,3.84,1.48,6.52,6.52,0,0,1,1.38,4.56v9.66H778v-9.69a4.13,4.13,0,0,0-.82-2.82,3.12,3.12,0,0,0-2.44-.91,4.14,4.14,0,0,0-2.12.55,4.59,4.59,0,0,0-1.56,1.49v11.39h-2.81V151.89h2.81Z"/><path d="M624.57,195.79a5.68,5.68,0,0,1,2-1.73,5.38,5.38,0,0,1,2.57-.62,5,5,0,0,1,3.84,1.48,6.52,6.52,0,0,1,1.38,4.56v9.66h-2.81v-9.69a4.13,4.13,0,0,0-.82-2.82,3.12,3.12,0,0,0-2.44-.91,4.15,4.15,0,0,0-2.12.55,4.58,4.58,0,0,0-1.56,1.49v11.39h-2.81V186.91h2.81Z"/><path d="M644.75,209.44a6.5,6.5,0,0,1-5.12-2.14,8.08,8.08,0,0,1-1.9-5.57v-.63a7.9,7.9,0,0,1,2-5.48,6,6,0,0,1,4.64-2.19,5.84,5.84,0,0,1,4.72,1.88,7.49,7.49,0,0,1,1.6,5v1.75h-10l0,.07a6.08,6.08,0,0,0,1.13,3.65,3.59,3.59,0,0,0,3,1.43,7.06,7.06,0,0,0,2.5-.4,5.75,5.75,0,0,0,1.86-1.12l1.1,1.83a6.53,6.53,0,0,1-2.18,1.36A8.73,8.73,0,0,1,644.75,209.44Zm-.43-13.79a3,3,0,0,0-2.41,1.19,5.6,5.6,0,0,0-1.23,3l0,.07h7.11v-.37a4.29,4.29,0,0,0-.88-2.76A3.16,3.16,0,0,0,644.32,195.64Z"/><path d="M663.26,209.14c-.1-.47-.17-.87-.22-1.23a9.09,9.09,0,0,1-.09-1.08,6.55,6.55,0,0,1-2,1.86,5.23,5.23,0,0,1-2.71.75,5,5,0,0,1-3.67-1.23,4.54,4.54,0,0,1-1.26-3.4,4,4,0,0,1,1.79-3.45,8.35,8.35,0,0,1,4.85-1.25h3v-1.52a2.82,2.82,0,0,0-.83-2.14,3.25,3.25,0,0,0-2.34-.79,3.37,3.37,0,0,0-2.2.69,2.07,2.07,0,0,0-.85,1.66h-2.68l0-.09a3.73,3.73,0,0,1,1.59-3.08,6.53,6.53,0,0,1,4.33-1.4,6.37,6.37,0,0,1,4.22,1.33,4.72,4.72,0,0,1,1.6,3.84V206a14.45,14.45,0,0,0,.09,1.6,8.21,8.21,0,0,0,.31,1.51Zm-4.66-2.07a5,5,0,0,0,2.75-.78,3.74,3.74,0,0,0,1.6-1.79V202h-3.15a4.09,4.09,0,0,0-2.71.86,2.54,2.54,0,0,0-1,2,2.11,2.11,0,0,0,.64,1.62A2.71,2.71,0,0,0,658.6,207.07Z"/><path d="M672.86,209.14h-2.81V186.91h2.81Z"/><path d="M680.89,190v3.72h2.92v2.08h-2.92v9.36a2.1,2.1,0,0,0,.45,1.52,1.62,1.62,0,0,0,1.19.44,2.81,2.81,0,0,0,.53-.06,3.27,3.27,0,0,0,.52-.14l.37,1.92a2.48,2.48,0,0,1-.92.42,4.64,4.64,0,0,1-1.22.16,3.63,3.63,0,0,1-2.72-1,4.49,4.49,0,0,1-1-3.24V195.8h-2.45v-2.08h2.45V190Z"/><path d="M690.08,195.79a5.68,5.68,0,0,1,2-1.73,5.38,5.38,0,0,1,2.57-.62,5,5,0,0,1,3.84,1.48,6.52,6.52,0,0,1,1.38,4.56v9.66H697v-9.69a4.13,4.13,0,0,0-.82-2.82,3.12,3.12,0,0,0-2.44-.91,4.15,4.15,0,0,0-2.12.55,4.58,4.58,0,0,0-1.56,1.49v11.39h-2.81V186.91h2.81Z"/><path d="M720.59,209.14c-.1-.47-.17-.87-.22-1.23a9.09,9.09,0,0,1-.09-1.08,6.55,6.55,0,0,1-2,1.86,5.23,5.23,0,0,1-2.71.75,5,5,0,0,1-3.67-1.23,4.54,4.54,0,0,1-1.26-3.4,4,4,0,0,1,1.79-3.45,8.35,8.35,0,0,1,4.85-1.25h3v-1.52a2.82,2.82,0,0,0-.83-2.14,3.25,3.25,0,0,0-2.34-.79,3.37,3.37,0,0,0-2.2.69,2.07,2.07,0,0,0-.85,1.66h-2.68l0-.09a3.73,3.73,0,0,1,1.59-3.08,6.53,6.53,0,0,1,4.33-1.4,6.37,6.37,0,0,1,4.22,1.33,4.72,4.72,0,0,1,1.6,3.84V206a14.45,14.45,0,0,0,.09,1.6,8.21,8.21,0,0,0,.31,1.51Zm-4.66-2.07a5,5,0,0,0,2.75-.78,3.74,3.74,0,0,0,1.6-1.79V202h-3.15a4.09,4.09,0,0,0-2.71.86,2.54,2.54,0,0,0-1,2,2.11,2.11,0,0,0,.64,1.62A2.71,2.71,0,0,0,715.93,207.07Z"/><path d="M730.86,190v3.72h2.92v2.08h-2.92v9.36a2.1,2.1,0,0,0,.45,1.52,1.62,1.62,0,0,0,1.19.44,2.81,2.81,0,0,0,.53-.06,3.27,3.27,0,0,0,.52-.14l.37,1.92a2.48,2.48,0,0,1-.92.42,4.64,4.64,0,0,1-1.22.16,3.63,3.63,0,0,1-2.72-1,4.49,4.49,0,0,1-1-3.24V195.8H725.6v-2.08h2.45V190Z"/><path d="M750.9,209.44a6.5,6.5,0,0,1-5.12-2.14,8.08,8.08,0,0,1-1.9-5.57v-.63a7.9,7.9,0,0,1,2-5.48,6,6,0,0,1,4.64-2.19,5.84,5.84,0,0,1,4.72,1.88,7.49,7.49,0,0,1,1.6,5v1.75h-10l0,.07a6.08,6.08,0,0,0,1.13,3.65,3.59,3.59,0,0,0,3,1.43,7.06,7.06,0,0,0,2.5-.4,5.75,5.75,0,0,0,1.86-1.12l1.1,1.83a6.53,6.53,0,0,1-2.18,1.36A8.73,8.73,0,0,1,750.9,209.44Zm-.43-13.79a3,3,0,0,0-2.41,1.19,5.6,5.6,0,0,0-1.23,3l0,.07H754v-.37a4.29,4.29,0,0,0-.88-2.76A3.16,3.16,0,0,0,750.47,195.64Z"/><path d="M764.89,204.59l.24,1.08h.09l.27-1.08L769,193.72h2.86l-5.67,15.42h-2.12l-5.74-15.42h2.88Z"/><path d="M780.64,209.44a6.5,6.5,0,0,1-5.12-2.14,8.08,8.08,0,0,1-1.9-5.57v-.63a7.9,7.9,0,0,1,2-5.48,6,6,0,0,1,4.64-2.19,5.84,5.84,0,0,1,4.72,1.88,7.49,7.49,0,0,1,1.6,5v1.75h-10l0,.07a6.08,6.08,0,0,0,1.13,3.65,3.59,3.59,0,0,0,3,1.43,7.06,7.06,0,0,0,2.5-.4,5.75,5.75,0,0,0,1.86-1.12l1.1,1.83a6.53,6.53,0,0,1-2.18,1.36A8.73,8.73,0,0,1,780.64,209.44Zm-.43-13.79a3,3,0,0,0-2.41,1.19,5.6,5.6,0,0,0-1.23,3l0,.07h7.11v-.37a4.29,4.29,0,0,0-.88-2.76A3.16,3.16,0,0,0,780.21,195.64Z"/><path d="M797,196.2l-1.44-.09a3.21,3.21,0,0,0-1.87.53,3.38,3.38,0,0,0-1.18,1.48v11h-2.81V193.72h2.51l.27,2.25a5.35,5.35,0,0,1,1.62-1.87,3.78,3.78,0,0,1,2.22-.67,3.46,3.46,0,0,1,.6.05,4,4,0,0,1,.47.1Z"/><path d="M804.65,203.43l.5,1.94h.09L809,193.72h3.12l-6.48,17.78a8,8,0,0,1-1.67,2.71,3.85,3.85,0,0,1-2.94,1.15,6.08,6.08,0,0,1-.87-.08c-.35-.05-.62-.1-.81-.15l.29-2.21.51,0,.75,0a1.73,1.73,0,0,0,1.47-.8,8.29,8.29,0,0,0,1-1.77l.67-1.61-5.73-15.11h3.14Z"/><path d="M830.83,205a1.91,1.91,0,0,0-.71-1.52,6.63,6.63,0,0,0-2.67-1,11.23,11.23,0,0,1-4.23-1.66,3.35,3.35,0,0,1-1.42-2.85,4,4,0,0,1,1.6-3.2,7.26,7.26,0,0,1,8.44.06,4.09,4.09,0,0,1,1.52,3.36l0,.09h-2.68a2.45,2.45,0,0,0-.85-1.81,3.13,3.13,0,0,0-2.24-.81,3.24,3.24,0,0,0-2.22.66,2.06,2.06,0,0,0-.73,1.58,1.76,1.76,0,0,0,.64,1.44,6.65,6.65,0,0,0,2.61.94,11.23,11.23,0,0,1,4.35,1.71,3.43,3.43,0,0,1,1.43,2.88,4,4,0,0,1-1.66,3.32,7,7,0,0,1-4.34,1.27,6.78,6.78,0,0,1-4.65-1.5,4.27,4.27,0,0,1-1.61-3.49l0-.09h2.68a2.57,2.57,0,0,0,1.11,2.18,4.3,4.3,0,0,0,2.44.69,4,4,0,0,0,2.34-.6A1.87,1.87,0,0,0,830.83,205Z"/><path d="M840.16,189.77h-2.81v-2.86h2.81Zm0,19.37h-2.81V193.72h2.81Z"/><path d="M847.13,206.93H856v2.21H843.78v-2l8.34-11.23h-8.24v-2.21h11.67v1.9Z"/><path d="M865.33,209.44a6.5,6.5,0,0,1-5.12-2.14,8.08,8.08,0,0,1-1.9-5.57v-.63a7.9,7.9,0,0,1,2-5.48,6,6,0,0,1,4.64-2.19,5.84,5.84,0,0,1,4.72,1.88,7.49,7.49,0,0,1,1.6,5v1.75h-10l0,.07a6.08,6.08,0,0,0,1.13,3.65,3.59,3.59,0,0,0,3,1.43,7.06,7.06,0,0,0,2.5-.4,5.75,5.75,0,0,0,1.86-1.12l1.1,1.83a6.53,6.53,0,0,1-2.18,1.36A8.73,8.73,0,0,1,865.33,209.44Zm-.43-13.79a3,3,0,0,0-2.41,1.19,5.6,5.6,0,0,0-1.23,3l0,.07h7.11v-.37a4.29,4.29,0,0,0-.88-2.76A3.16,3.16,0,0,0,864.9,195.64Z"/><path d="M877.39,203.3a8.33,8.33,0,0,1,.36-2.86,7.24,7.24,0,0,1,1.8-2.11,31.28,31.28,0,0,0,2-2.57,3.82,3.82,0,0,0,.6-2.17,3.16,3.16,0,0,0-.81-2.32,3.1,3.1,0,0,0-2.3-.81,3.5,3.5,0,0,0-2.21.71,2.46,2.46,0,0,0-.91,2.07h-2.68l0-.09a4.43,4.43,0,0,1,1.62-3.68,6.38,6.38,0,0,1,4.23-1.38,6.2,6.2,0,0,1,4.36,1.43,5.16,5.16,0,0,1,1.55,4,6,6,0,0,1-1,3.36,18.77,18.77,0,0,1-2.66,3.12,3.35,3.35,0,0,0-.93,1.38,8.06,8.06,0,0,0-.16,1.91Zm2.91,5.84h-2.94v-3h2.94Z"/><path d="M968.65,147.61h-2.82V126.86h2.82Z"/><path d="M982.37,143.51a1.91,1.91,0,0,0-.71-1.52,6.63,6.63,0,0,0-2.67-1,11.23,11.23,0,0,1-4.23-1.66,3.35,3.35,0,0,1-1.42-2.85,4,4,0,0,1,1.6-3.2,7.27,7.27,0,0,1,8.44.06,4.09,4.09,0,0,1,1.52,3.36l0,.09H982.2a2.45,2.45,0,0,0-.85-1.82,3.12,3.12,0,0,0-2.24-.81,3.24,3.24,0,0,0-2.22.66,2.06,2.06,0,0,0-.73,1.58,1.76,1.76,0,0,0,.64,1.44,6.65,6.65,0,0,0,2.61.94,11.23,11.23,0,0,1,4.35,1.7,3.43,3.43,0,0,1,1.43,2.89,4,4,0,0,1-1.66,3.32,7,7,0,0,1-4.34,1.27,6.78,6.78,0,0,1-4.65-1.5,4.27,4.27,0,0,1-1.61-3.49l0-.09h2.68a2.58,2.58,0,0,0,1.11,2.18,4.3,4.3,0,0,0,2.44.69,4,4,0,0,0,2.34-.61A1.87,1.87,0,0,0,982.37,143.51Z"/><path d="M999.63,128.47v3.72h2.92v2.08h-2.92v9.36a2.1,2.1,0,0,0,.45,1.52,1.62,1.62,0,0,0,1.19.44,2.81,2.81,0,0,0,.53-.06,3.27,3.27,0,0,0,.52-.14l.37,1.92a2.48,2.48,0,0,1-.92.42,4.65,4.65,0,0,1-1.22.16,3.64,3.64,0,0,1-2.72-1,4.49,4.49,0,0,1-1-3.24v-9.36h-2.45v-2.08h2.45v-3.72Z"/><path d="M1008.82,134.26a5.69,5.69,0,0,1,2-1.73,5.38,5.38,0,0,1,2.57-.62,5,5,0,0,1,3.84,1.48,6.52,6.52,0,0,1,1.38,4.56v9.66h-2.81v-9.69a4.13,4.13,0,0,0-.82-2.82,3.12,3.12,0,0,0-2.44-.91,4.15,4.15,0,0,0-2.12.55,4.58,4.58,0,0,0-1.56,1.49v11.39H1006V125.38h2.81Z"/><path d="M1032.08,147.61q-.14-.7-.22-1.23a9,9,0,0,1-.09-1.08,6.55,6.55,0,0,1-2,1.86,5.23,5.23,0,0,1-2.71.75,5,5,0,0,1-3.67-1.23,4.53,4.53,0,0,1-1.26-3.4,4,4,0,0,1,1.79-3.46,8.35,8.35,0,0,1,4.85-1.25h3v-1.52a2.83,2.83,0,0,0-.83-2.14,3.25,3.25,0,0,0-2.34-.79,3.37,3.37,0,0,0-2.2.69,2.08,2.08,0,0,0-.85,1.66h-2.68l0-.09a3.73,3.73,0,0,1,1.59-3.08,6.53,6.53,0,0,1,4.33-1.4,6.37,6.37,0,0,1,4.22,1.33,4.72,4.72,0,0,1,1.6,3.84v7.42a14.45,14.45,0,0,0,.09,1.6,8.21,8.21,0,0,0,.31,1.51Zm-4.66-2.07a5,5,0,0,0,2.75-.78,3.72,3.72,0,0,0,1.6-1.79v-2.5h-3.15a4.1,4.1,0,0,0-2.71.85,2.55,2.55,0,0,0-1,2,2.11,2.11,0,0,0,.64,1.62A2.7,2.7,0,0,0,1027.42,145.54Z"/><path d="M1042.35,128.47v3.72h2.92v2.08h-2.92v9.36a2.1,2.1,0,0,0,.45,1.52,1.62,1.62,0,0,0,1.19.44,2.81,2.81,0,0,0,.53-.06,3.27,3.27,0,0,0,.52-.14l.37,1.92a2.48,2.48,0,0,1-.92.42,4.65,4.65,0,0,1-1.22.16,3.64,3.64,0,0,1-2.72-1,4.49,4.49,0,0,1-1-3.24v-9.36h-2.45v-2.08h2.45v-3.72Z"/><path d="M1063.29,134.67l-1.44-.09a3.22,3.22,0,0,0-1.88.53,3.38,3.38,0,0,0-1.17,1.48v11H1056V132.19h2.51l.27,2.25a5.35,5.35,0,0,1,1.62-1.87,3.79,3.79,0,0,1,2.22-.67,3.47,3.47,0,0,1,.6,0l.47.11Z"/><path d="M1072.12,147.91a6.5,6.5,0,0,1-5.12-2.14,8.07,8.07,0,0,1-1.9-5.56v-.63a7.91,7.91,0,0,1,2-5.48,6,6,0,0,1,4.64-2.19,5.84,5.84,0,0,1,4.72,1.88,7.49,7.49,0,0,1,1.6,5v1.75h-10l0,.07a6.07,6.07,0,0,0,1.13,3.65,3.59,3.59,0,0,0,3,1.43,7.06,7.06,0,0,0,2.5-.41,5.75,5.75,0,0,0,1.86-1.12l1.1,1.83a6.49,6.49,0,0,1-2.18,1.36A8.73,8.73,0,0,1,1072.12,147.91Zm-.43-13.79a3,3,0,0,0-2.41,1.19,5.61,5.61,0,0,0-1.23,3l0,.07h7.11V138a4.28,4.28,0,0,0-.88-2.76A3.16,3.16,0,0,0,1071.69,134.12Z"/><path d="M1090.12,143.51a1.91,1.91,0,0,0-.71-1.52,6.63,6.63,0,0,0-2.67-1,11.23,11.23,0,0,1-4.23-1.66,3.35,3.35,0,0,1-1.42-2.85,4,4,0,0,1,1.6-3.2,7.27,7.27,0,0,1,8.44.06,4.09,4.09,0,0,1,1.52,3.36l0,.09h-2.68a2.45,2.45,0,0,0-.85-1.82,3.12,3.12,0,0,0-2.24-.81,3.24,3.24,0,0,0-2.22.66,2.06,2.06,0,0,0-.73,1.58,1.76,1.76,0,0,0,.64,1.44,6.65,6.65,0,0,0,2.61.94,11.23,11.23,0,0,1,4.35,1.7,3.43,3.43,0,0,1,1.43,2.89,4,4,0,0,1-1.66,3.32,7,7,0,0,1-4.34,1.27,6.78,6.78,0,0,1-4.65-1.5,4.27,4.27,0,0,1-1.61-3.49l0-.09h2.68a2.58,2.58,0,0,0,1.11,2.18,4.3,4.3,0,0,0,2.44.69,4,4,0,0,0,2.34-.61A1.87,1.87,0,0,0,1090.12,143.51Z"/><path d="M1100.12,128.47v3.72H1103v2.08h-2.92v9.36a2.1,2.1,0,0,0,.45,1.52,1.62,1.62,0,0,0,1.19.44,2.81,2.81,0,0,0,.53-.06,3.27,3.27,0,0,0,.52-.14l.37,1.92a2.48,2.48,0,0,1-.92.42,4.65,4.65,0,0,1-1.22.16,3.64,3.64,0,0,1-2.72-1,4.49,4.49,0,0,1-1-3.24v-9.36h-2.45v-2.08h2.45v-3.72Z"/><path d="M1116,147.61q-.14-.7-.22-1.23a9,9,0,0,1-.09-1.08,6.55,6.55,0,0,1-2,1.86,5.23,5.23,0,0,1-2.71.75,5,5,0,0,1-3.67-1.23,4.53,4.53,0,0,1-1.26-3.4,4,4,0,0,1,1.79-3.46,8.35,8.35,0,0,1,4.85-1.25h3v-1.52a2.83,2.83,0,0,0-.83-2.14,3.25,3.25,0,0,0-2.34-.79,3.37,3.37,0,0,0-2.2.69,2.08,2.08,0,0,0-.85,1.66h-2.68l0-.09a3.73,3.73,0,0,1,1.59-3.08,6.53,6.53,0,0,1,4.33-1.4,6.37,6.37,0,0,1,4.22,1.33,4.72,4.72,0,0,1,1.6,3.84v7.42a14.45,14.45,0,0,0,.09,1.6,8.21,8.21,0,0,0,.31,1.51Zm-4.66-2.07a5,5,0,0,0,2.75-.78,3.72,3.72,0,0,0,1.6-1.79v-2.5h-3.15a4.1,4.1,0,0,0-2.71.85,2.55,2.55,0,0,0-1,2,2.11,2.11,0,0,0,.64,1.62A2.7,2.7,0,0,0,1111.33,145.54Z"/><path d="M1132.35,145.33a5.22,5.22,0,0,1-1.87,1.91,5.11,5.11,0,0,1-2.64.67,5,5,0,0,1-3.93-1.61q-1.41-1.61-1.41-5v-9.09h2.81v9.12a5.74,5.74,0,0,0,.73,3.39,2.7,2.7,0,0,0,2.27.93,4.62,4.62,0,0,0,2.47-.61,3.79,3.79,0,0,0,1.47-1.72V132.19h2.81v15.42h-2.52Z"/><path d="M1146.44,134.67l-1.44-.09a3.21,3.21,0,0,0-1.87.53,3.38,3.38,0,0,0-1.18,1.48v11h-2.81V132.19h2.51l.27,2.25a5.35,5.35,0,0,1,1.62-1.87,3.78,3.78,0,0,1,2.22-.67,3.47,3.47,0,0,1,.6,0l.47.11Z"/><path d="M1158.62,147.61q-.14-.7-.22-1.23a9,9,0,0,1-.09-1.08,6.55,6.55,0,0,1-2,1.86,5.23,5.23,0,0,1-2.71.75,5,5,0,0,1-3.67-1.23,4.53,4.53,0,0,1-1.26-3.4,4,4,0,0,1,1.79-3.46,8.35,8.35,0,0,1,4.85-1.25h3v-1.52a2.83,2.83,0,0,0-.83-2.14,3.25,3.25,0,0,0-2.34-.79,3.37,3.37,0,0,0-2.2.69,2.08,2.08,0,0,0-.85,1.66h-2.68l0-.09a3.73,3.73,0,0,1,1.59-3.08,6.53,6.53,0,0,1,4.33-1.4,6.37,6.37,0,0,1,4.22,1.33,4.72,4.72,0,0,1,1.6,3.84v7.42a14.45,14.45,0,0,0,.09,1.6,8.21,8.21,0,0,0,.31,1.51Zm-4.66-2.07a5,5,0,0,0,2.75-.78,3.72,3.72,0,0,0,1.6-1.79v-2.5h-3.15a4.1,4.1,0,0,0-2.71.85,2.55,2.55,0,0,0-1,2,2.11,2.11,0,0,0,.64,1.62A2.7,2.7,0,0,0,1154,145.54Z"/><path d="M1167.7,132.19l.2,2.29a5.6,5.6,0,0,1,1.93-1.9,5.15,5.15,0,0,1,2.64-.68,5,5,0,0,1,3.86,1.46,6.41,6.41,0,0,1,1.37,4.51v9.73h-2.81v-9.68a4.17,4.17,0,0,0-.81-2.89,3.23,3.23,0,0,0-2.46-.86,4,4,0,0,0-2.14.58,4.27,4.27,0,0,0-1.49,1.6v11.24h-2.81V132.19Z"/><path d="M1185.49,128.47v3.72h2.92v2.08h-2.92v9.36a2.1,2.1,0,0,0,.45,1.52,1.62,1.62,0,0,0,1.19.44,2.81,2.81,0,0,0,.53-.06,3.27,3.27,0,0,0,.52-.14l.37,1.92a2.48,2.48,0,0,1-.92.42,4.65,4.65,0,0,1-1.22.16,3.64,3.64,0,0,1-2.72-1,4.49,4.49,0,0,1-1-3.24v-9.36h-2.45v-2.08h2.45v-3.72Z"/><path d="M969.11,177l.33,1.87h.09l.4-1.87,3.08-9.8h2.25l3.09,9.8.44,2.08h.09l.41-2.08,2.42-9.8h2.79L980,182.63h-2.27l-3-9.39-.64-2.62h-.09l-.61,2.61-2.94,9.39h-2.27l-4.47-15.42h2.79Z"/><path d="M990.05,169.28a5.69,5.69,0,0,1,2-1.73,5.38,5.38,0,0,1,2.57-.62,5,5,0,0,1,3.84,1.48A6.52,6.52,0,0,1,999.8,173v9.66H997v-9.69a4.13,4.13,0,0,0-.82-2.82,3.12,3.12,0,0,0-2.44-.91,4.15,4.15,0,0,0-2.12.55,4.58,4.58,0,0,0-1.56,1.49v11.39h-2.81V160.4h2.81Z"/><path d="M1010.23,182.93a6.5,6.5,0,0,1-5.12-2.14,8.07,8.07,0,0,1-1.9-5.56v-.63a7.91,7.91,0,0,1,2-5.48,6,6,0,0,1,4.64-2.19,5.84,5.84,0,0,1,4.72,1.88,7.49,7.49,0,0,1,1.6,5v1.75h-10l0,.07a6.07,6.07,0,0,0,1.13,3.65,3.59,3.59,0,0,0,3,1.43,7.06,7.06,0,0,0,2.5-.41,5.75,5.75,0,0,0,1.86-1.12l1.1,1.83a6.49,6.49,0,0,1-2.18,1.36A8.73,8.73,0,0,1,1010.23,182.93Zm-.43-13.79a3,3,0,0,0-2.41,1.19,5.61,5.61,0,0,0-1.23,3l0,.07h7.11V173a4.28,4.28,0,0,0-.88-2.76A3.16,3.16,0,0,0,1009.8,169.14Z"/><path d="M1025.67,182.93a6.5,6.5,0,0,1-5.12-2.14,8.07,8.07,0,0,1-1.9-5.56v-.63a7.91,7.91,0,0,1,2-5.48,6,6,0,0,1,4.64-2.19,5.84,5.84,0,0,1,4.72,1.88,7.49,7.49,0,0,1,1.6,5v1.75h-10l0,.07a6.07,6.07,0,0,0,1.13,3.65,3.59,3.59,0,0,0,3,1.43,7.06,7.06,0,0,0,2.5-.41,5.75,5.75,0,0,0,1.86-1.12l1.1,1.83a6.49,6.49,0,0,1-2.18,1.36A8.73,8.73,0,0,1,1025.67,182.93Zm-.43-13.79a3,3,0,0,0-2.41,1.19,5.61,5.61,0,0,0-1.23,3l0,.07h7.11V173a4.28,4.28,0,0,0-.88-2.76A3.16,3.16,0,0,0,1025.24,169.14Z"/><path d="M1037.74,182.63h-2.81V160.4h2.81Z"/><path d="M1048.32,180.72a3.79,3.79,0,0,0,2.46-.86,2.63,2.63,0,0,0,1.06-2.12h2.52l0,.09a4.34,4.34,0,0,1-1.77,3.55,6.47,6.47,0,0,1-4.3,1.55,6.24,6.24,0,0,1-5.14-2.19,8.47,8.47,0,0,1-1.78-5.51v-.6a8.43,8.43,0,0,1,1.79-5.49,7,7,0,0,1,9.56-.61,5,5,0,0,1,1.66,3.92l0,.09h-2.54a3.26,3.26,0,0,0-1-2.4,3.43,3.43,0,0,0-2.52-1,3.39,3.39,0,0,0-3.16,1.59,7.47,7.47,0,0,0-.95,3.89v.6a7.56,7.56,0,0,0,.94,3.94A3.39,3.39,0,0,0,1048.32,180.72Z"/><path d="M1060.35,169.28a5.68,5.68,0,0,1,2-1.73,5.39,5.39,0,0,1,2.57-.62,5,5,0,0,1,3.84,1.48,6.52,6.52,0,0,1,1.38,4.56v9.66h-2.81v-9.69a4.13,4.13,0,0,0-.82-2.82,3.11,3.11,0,0,0-2.44-.91,4.16,4.16,0,0,0-2.12.55,4.58,4.58,0,0,0-1.56,1.49v11.39h-2.81V160.4h2.81Z"/><path d="M1083.61,182.63q-.14-.7-.22-1.23a9,9,0,0,1-.09-1.08,6.55,6.55,0,0,1-2,1.86,5.23,5.23,0,0,1-2.71.75,5,5,0,0,1-3.67-1.23,4.53,4.53,0,0,1-1.26-3.4,4,4,0,0,1,1.79-3.46,8.35,8.35,0,0,1,4.85-1.25h3v-1.52a2.83,2.83,0,0,0-.83-2.14,3.25,3.25,0,0,0-2.34-.79,3.37,3.37,0,0,0-2.2.69,2.08,2.08,0,0,0-.85,1.66h-2.68l0-.09a3.73,3.73,0,0,1,1.59-3.08,6.53,6.53,0,0,1,4.33-1.4,6.37,6.37,0,0,1,4.22,1.33,4.72,4.72,0,0,1,1.6,3.84v7.42a14.45,14.45,0,0,0,.09,1.6,8.21,8.21,0,0,0,.31,1.51Zm-4.66-2.07a5,5,0,0,0,2.75-.78,3.72,3.72,0,0,0,1.6-1.79v-2.5h-3.15a4.1,4.1,0,0,0-2.71.85,2.55,2.55,0,0,0-1,2,2.11,2.11,0,0,0,.64,1.62A2.7,2.7,0,0,0,1078.95,180.57Z"/><path d="M1093.21,163.27h-2.81V160.4h2.81Zm0,19.37h-2.81V167.22h2.81Z"/><path d="M1104.83,169.69l-1.44-.09a3.21,3.21,0,0,0-1.87.53,3.38,3.38,0,0,0-1.18,1.48v11h-2.81V167.22H1100l.27,2.25a5.35,5.35,0,0,1,1.62-1.87,3.78,3.78,0,0,1,2.22-.67,3.47,3.47,0,0,1,.6,0l.47.11Z"/><path d="M974.63,217.65q-.14-.7-.22-1.23a9,9,0,0,1-.09-1.08,6.55,6.55,0,0,1-2,1.86,5.23,5.23,0,0,1-2.71.75,5,5,0,0,1-3.67-1.23,4.53,4.53,0,0,1-1.26-3.4,4,4,0,0,1,1.79-3.46,8.35,8.35,0,0,1,4.85-1.25h3V207.1a2.83,2.83,0,0,0-.83-2.14,3.25,3.25,0,0,0-2.34-.79,3.37,3.37,0,0,0-2.2.69,2.08,2.08,0,0,0-.85,1.66h-2.68l0-.09a3.73,3.73,0,0,1,1.59-3.08,6.53,6.53,0,0,1,4.33-1.4,6.37,6.37,0,0,1,4.22,1.33,4.72,4.72,0,0,1,1.6,3.84v7.42a14.45,14.45,0,0,0,.09,1.6,8.21,8.21,0,0,0,.31,1.51ZM970,215.59a5,5,0,0,0,2.75-.78,3.72,3.72,0,0,0,1.6-1.79v-2.5h-3.15a4.1,4.1,0,0,0-2.71.85,2.55,2.55,0,0,0-1,2,2.11,2.11,0,0,0,.64,1.62A2.7,2.7,0,0,0,970,215.59Z"/><path d="M987.47,215.75a3.79,3.79,0,0,0,2.46-.86,2.63,2.63,0,0,0,1.06-2.12h2.52l0,.09a4.34,4.34,0,0,1-1.77,3.55,6.47,6.47,0,0,1-4.3,1.55,6.24,6.24,0,0,1-5.14-2.19,8.47,8.47,0,0,1-1.78-5.51v-.6a8.43,8.43,0,0,1,1.79-5.49,7,7,0,0,1,9.56-.61,5,5,0,0,1,1.66,3.92l0,.09H991a3.26,3.26,0,0,0-1-2.4,3.43,3.43,0,0,0-2.52-1,3.39,3.39,0,0,0-3.16,1.59,7.47,7.47,0,0,0-.95,3.89v.6a7.56,7.56,0,0,0,.94,3.94A3.39,3.39,0,0,0,987.47,215.75Z"/><path d="M1003,215.75a3.79,3.79,0,0,0,2.46-.86,2.63,2.63,0,0,0,1.06-2.12H1009l0,.09a4.34,4.34,0,0,1-1.77,3.55A6.47,6.47,0,0,1,1003,218a6.24,6.24,0,0,1-5.14-2.19,8.47,8.47,0,0,1-1.78-5.51v-.6a8.43,8.43,0,0,1,1.79-5.49,7,7,0,0,1,9.56-.61,5,5,0,0,1,1.66,3.92l0,.09h-2.54a3.26,3.26,0,0,0-1-2.4,3.43,3.43,0,0,0-2.52-1,3.39,3.39,0,0,0-3.16,1.59,7.47,7.47,0,0,0-.95,3.89v.6a7.56,7.56,0,0,0,.94,3.94A3.39,3.39,0,0,0,1003,215.75Z"/><path d="M1018.58,218a6.5,6.5,0,0,1-5.12-2.14,8.07,8.07,0,0,1-1.9-5.56v-.63a7.91,7.91,0,0,1,2-5.48,6,6,0,0,1,4.64-2.19,5.84,5.84,0,0,1,4.72,1.88,7.49,7.49,0,0,1,1.6,5v1.75h-10l0,.07a6.07,6.07,0,0,0,1.13,3.65,3.59,3.59,0,0,0,3,1.43,7.06,7.06,0,0,0,2.5-.41,5.75,5.75,0,0,0,1.86-1.12L1024,216a6.49,6.49,0,0,1-2.18,1.36A8.73,8.73,0,0,1,1018.58,218Zm-.43-13.79a3,3,0,0,0-2.41,1.19,5.61,5.61,0,0,0-1.23,3l0,.07h7.11V208a4.28,4.28,0,0,0-.88-2.76A3.16,3.16,0,0,0,1018.16,204.16Z"/><path d="M1036.58,213.55a1.91,1.91,0,0,0-.71-1.52,6.63,6.63,0,0,0-2.67-1,11.23,11.23,0,0,1-4.23-1.66,3.35,3.35,0,0,1-1.42-2.85,4,4,0,0,1,1.6-3.2,7.27,7.27,0,0,1,8.44.06,4.09,4.09,0,0,1,1.52,3.36l0,.09h-2.68a2.45,2.45,0,0,0-.85-1.82,3.12,3.12,0,0,0-2.24-.81,3.24,3.24,0,0,0-2.22.66,2.06,2.06,0,0,0-.73,1.58,1.76,1.76,0,0,0,.64,1.44,6.65,6.65,0,0,0,2.61.94,11.23,11.23,0,0,1,4.35,1.7,3.43,3.43,0,0,1,1.43,2.89,4,4,0,0,1-1.66,3.32,7,7,0,0,1-4.34,1.27,6.78,6.78,0,0,1-4.65-1.5,4.27,4.27,0,0,1-1.61-3.49l0-.09h2.68a2.58,2.58,0,0,0,1.11,2.18,4.3,4.3,0,0,0,2.44.69,4,4,0,0,0,2.34-.61A1.87,1.87,0,0,0,1036.58,213.55Z"/><path d="M1051.84,213.55a1.91,1.91,0,0,0-.71-1.52,6.63,6.63,0,0,0-2.67-1,11.23,11.23,0,0,1-4.23-1.66,3.35,3.35,0,0,1-1.42-2.85,4,4,0,0,1,1.6-3.2,7.27,7.27,0,0,1,8.44.06,4.09,4.09,0,0,1,1.52,3.36l0,.09h-2.68a2.45,2.45,0,0,0-.85-1.82,3.12,3.12,0,0,0-2.24-.81,3.24,3.24,0,0,0-2.22.66,2.06,2.06,0,0,0-.73,1.58,1.76,1.76,0,0,0,.64,1.44,6.65,6.65,0,0,0,2.61.94,11.23,11.23,0,0,1,4.35,1.7,3.43,3.43,0,0,1,1.43,2.89,4,4,0,0,1-1.66,3.32,7,7,0,0,1-4.34,1.27,6.78,6.78,0,0,1-4.65-1.5,4.27,4.27,0,0,1-1.61-3.49l0-.09h2.68a2.58,2.58,0,0,0,1.11,2.18,4.3,4.3,0,0,0,2.44.69,4,4,0,0,0,2.34-.61A1.87,1.87,0,0,0,1051.84,213.55Z"/><path d="M1061.18,198.29h-2.81v-2.86h2.81Zm0,19.37h-2.81V202.24h2.81Z"/><path d="M1078.66,210.53a8.47,8.47,0,0,1-1.6,5.38,5.3,5.3,0,0,1-4.41,2,5.62,5.62,0,0,1-2.65-.59,4.93,4.93,0,0,1-1.87-1.75l-.34,2h-2.29V195.42h2.81v8.64a4.87,4.87,0,0,1,1.8-1.57,5.53,5.53,0,0,1,2.52-.54,5.12,5.12,0,0,1,4.45,2.28,10.26,10.26,0,0,1,1.6,6Zm-2.81-.3a8.51,8.51,0,0,0-1-4.33,3.21,3.21,0,0,0-3-1.67,3.67,3.67,0,0,0-2.19.63,4.47,4.47,0,0,0-1.42,1.7v6.68a4.59,4.59,0,0,0,1.42,1.78,3.65,3.65,0,0,0,2.22.64,3.34,3.34,0,0,0,2.95-1.41,6.48,6.48,0,0,0,1-3.73Z"/><path d="M1085.12,217.65h-2.81V195.42h2.81Z"/><path d="M1095.84,218a6.5,6.5,0,0,1-5.12-2.14,8.07,8.07,0,0,1-1.9-5.56v-.63a7.91,7.91,0,0,1,2-5.48,6,6,0,0,1,4.64-2.19,5.84,5.84,0,0,1,4.72,1.88,7.49,7.49,0,0,1,1.6,5v1.75h-10l0,.07a6.07,6.07,0,0,0,1.13,3.65,3.59,3.59,0,0,0,3,1.43,7.06,7.06,0,0,0,2.5-.41,5.75,5.75,0,0,0,1.86-1.12l1.1,1.83a6.49,6.49,0,0,1-2.18,1.36A8.73,8.73,0,0,1,1095.84,218Zm-.43-13.79a3,3,0,0,0-2.41,1.19,5.61,5.61,0,0,0-1.23,3l0,.07h7.11V208a4.28,4.28,0,0,0-.88-2.76A3.16,3.16,0,0,0,1095.41,204.16Z"/><path d="M1107.89,211.81a8.33,8.33,0,0,1,.36-2.86,7.24,7.24,0,0,1,1.8-2.11,31.28,31.28,0,0,0,2-2.57,3.82,3.82,0,0,0,.6-2.17,3.16,3.16,0,0,0-.81-2.32,3.1,3.1,0,0,0-2.3-.81,3.5,3.5,0,0,0-2.21.71,2.46,2.46,0,0,0-.91,2.07h-2.68l0-.09a4.43,4.43,0,0,1,1.62-3.68,6.38,6.38,0,0,1,4.23-1.38,6.19,6.19,0,0,1,4.36,1.43,5.17,5.17,0,0,1,1.55,4,6,6,0,0,1-1,3.36,18.77,18.77,0,0,1-2.66,3.12,3.35,3.35,0,0,0-.93,1.38,8.06,8.06,0,0,0-.16,1.91Zm2.91,5.84h-2.94v-3h2.94Z"/><path class="cls-4" d="M334.11,396.16c-4.27,30.54-28.94,49.47-60.16,63.56"/><path class="cls-4" d="M284.62,306a87.59,87.59,0,0,1,44,47.81"/><path class="cls-4" d="M256.34,298.2a85.91,85.91,0,0,1,15.6,3"/><path class="cls-4" d="M219.36,302.06c7.61-3,16.26-4.41,26.12-4.41"/><path d="M46,58.6l5.42-10.55h3.21L47.34,61.51v7.3H44.55V61.33L37.38,48.06h3.21Z"/><path d="M55.36,61a8.49,8.49,0,0,1,1.85-5.64,6.87,6.87,0,0,1,10.1,0A8.46,8.46,0,0,1,69.17,61v.31a8.45,8.45,0,0,1-1.85,5.64,6.9,6.9,0,0,1-10.1,0,8.43,8.43,0,0,1-1.86-5.64Zm2.81.31a7.3,7.3,0,0,0,1,4,3.74,3.74,0,0,0,6.12,0,7.26,7.26,0,0,0,1-4v-.31a7.24,7.24,0,0,0-1-4,3.44,3.44,0,0,0-3.07-1.61,3.39,3.39,0,0,0-3,1.61,7.32,7.32,0,0,0-1,4Z"/><path d="M82.4,66.53a5.22,5.22,0,0,1-1.87,1.91,5.11,5.11,0,0,1-2.64.67A5,5,0,0,1,74,67.5q-1.41-1.61-1.41-5V53.39h2.81v9.12a5.74,5.74,0,0,0,.73,3.39,2.7,2.7,0,0,0,2.27.93,4.62,4.62,0,0,0,2.47-.61A3.79,3.79,0,0,0,82.3,64.5V53.39H85.1V68.81H82.58Z"/><path d="M102.72,66.9a3.79,3.79,0,0,0,2.46-.86,2.63,2.63,0,0,0,1.06-2.12h2.52l0,.09A4.34,4.34,0,0,1,107,67.55a6.47,6.47,0,0,1-4.3,1.55,6.24,6.24,0,0,1-5.14-2.19,8.47,8.47,0,0,1-1.78-5.51v-.6a8.43,8.43,0,0,1,1.79-5.49,7,7,0,0,1,9.56-.61,5,5,0,0,1,1.66,3.92l0,.09h-2.54a3.26,3.26,0,0,0-1-2.4,3.43,3.43,0,0,0-2.52-1,3.39,3.39,0,0,0-3.16,1.59,7.47,7.47,0,0,0-.95,3.89v.6a7.56,7.56,0,0,0,.94,3.94A3.39,3.39,0,0,0,102.72,66.9Z"/><path d="M121.41,68.81q-.14-.7-.22-1.23a9,9,0,0,1-.09-1.08,6.55,6.55,0,0,1-2,1.86,5.23,5.23,0,0,1-2.71.75,5,5,0,0,1-3.67-1.23,4.53,4.53,0,0,1-1.26-3.4A4,4,0,0,1,113.2,61a8.35,8.35,0,0,1,4.85-1.25h3V58.25a2.83,2.83,0,0,0-.83-2.14,3.25,3.25,0,0,0-2.34-.79,3.37,3.37,0,0,0-2.2.69,2.08,2.08,0,0,0-.85,1.66h-2.68l0-.09a3.73,3.73,0,0,1,1.59-3.08,6.53,6.53,0,0,1,4.33-1.4,6.37,6.37,0,0,1,4.22,1.33,4.72,4.72,0,0,1,1.6,3.84V65.7a14.45,14.45,0,0,0,.09,1.6,8.21,8.21,0,0,0,.31,1.51Zm-4.66-2.07A5,5,0,0,0,119.5,66a3.72,3.72,0,0,0,1.6-1.79v-2.5H118a4.1,4.1,0,0,0-2.71.85,2.55,2.55,0,0,0-1,2,2.11,2.11,0,0,0,.64,1.62A2.7,2.7,0,0,0,116.75,66.74Z"/><path d="M130.49,53.39l.2,2.29a5.6,5.6,0,0,1,1.93-1.9,5.15,5.15,0,0,1,2.64-.68,5,5,0,0,1,3.86,1.46,6.41,6.41,0,0,1,1.37,4.51v9.73h-2.81V59.13a4.17,4.17,0,0,0-.81-2.89,3.23,3.23,0,0,0-2.46-.86,4,4,0,0,0-2.14.58,4.27,4.27,0,0,0-1.49,1.6V68.81H128V53.39Z"/><path d="M159.12,55.87l-1.44-.09a3.21,3.21,0,0,0-1.87.53,3.38,3.38,0,0,0-1.18,1.48v11h-2.81V53.39h2.51l.27,2.25a5.35,5.35,0,0,1,1.62-1.87,3.78,3.78,0,0,1,2.22-.67,3.47,3.47,0,0,1,.6,0l.47.11Z"/><path d="M168,69.11A6.5,6.5,0,0,1,162.83,67a8.07,8.07,0,0,1-1.9-5.56v-.63a7.91,7.91,0,0,1,2-5.48,6,6,0,0,1,4.64-2.19A5.84,5.84,0,0,1,172.25,55a7.49,7.49,0,0,1,1.6,5v1.75h-10l0,.07a6.07,6.07,0,0,0,1.13,3.65,3.59,3.59,0,0,0,3,1.43,7.06,7.06,0,0,0,2.5-.41,5.75,5.75,0,0,0,1.86-1.12l1.1,1.83a6.49,6.49,0,0,1-2.18,1.36A8.73,8.73,0,0,1,168,69.11Zm-.43-13.79a3,3,0,0,0-2.41,1.19,5.61,5.61,0,0,0-1.23,3l0,.07H171v-.37a4.28,4.28,0,0,0-.88-2.76A3.16,3.16,0,0,0,167.53,55.31Z"/><path d="M182,64.26l.24,1.08h.09l.27-1.08,3.55-10.87H189l-5.67,15.42h-2.12l-5.74-15.42h2.88Z"/><path d="M194.52,49.44h-2.81V46.58h2.81Zm0,19.37h-2.81V53.39h2.81Z"/><path d="M205.24,69.11A6.5,6.5,0,0,1,200.11,67a8.07,8.07,0,0,1-1.9-5.56v-.63a7.91,7.91,0,0,1,2-5.48,6,6,0,0,1,4.64-2.19A5.84,5.84,0,0,1,209.52,55a7.49,7.49,0,0,1,1.6,5v1.75h-10l0,.07a6.07,6.07,0,0,0,1.13,3.65,3.59,3.59,0,0,0,3,1.43,7.06,7.06,0,0,0,2.5-.41,5.75,5.75,0,0,0,1.86-1.12l1.1,1.83a6.49,6.49,0,0,1-2.18,1.36A8.73,8.73,0,0,1,205.24,69.11Zm-.43-13.79a3,3,0,0,0-2.41,1.19,5.61,5.61,0,0,0-1.23,3l0,.07h7.11v-.37a4.28,4.28,0,0,0-.88-2.76A3.16,3.16,0,0,0,204.81,55.31Z"/><path d="M218.22,63.19l.33,1.87h.09l.4-1.87,3.08-9.8h2.25l3.09,9.8.44,2.08H228l.41-2.08,2.42-9.8h2.79l-4.47,15.42h-2.27l-3-9.39-.64-2.62h-.09l-.61,2.61-2.94,9.39h-2.27l-4.47-15.42h2.79Z"/><path d="M48.61,103.83q-.14-.7-.22-1.23a9,9,0,0,1-.09-1.08,6.55,6.55,0,0,1-2,1.86,5.23,5.23,0,0,1-2.71.75,5,5,0,0,1-3.67-1.23,4.53,4.53,0,0,1-1.26-3.4A4,4,0,0,1,40.39,96a8.35,8.35,0,0,1,4.85-1.25h3V93.27a2.83,2.83,0,0,0-.83-2.14,3.25,3.25,0,0,0-2.34-.79,3.37,3.37,0,0,0-2.2.69,2.08,2.08,0,0,0-.85,1.66H39.4l0-.09A3.73,3.73,0,0,1,41,89.52a6.53,6.53,0,0,1,4.33-1.4,6.37,6.37,0,0,1,4.22,1.33,4.72,4.72,0,0,1,1.6,3.84v7.42a14.45,14.45,0,0,0,.09,1.6,8.21,8.21,0,0,0,.31,1.51Zm-4.66-2.07A5,5,0,0,0,46.7,101a3.72,3.72,0,0,0,1.6-1.79v-2.5H45.14a4.1,4.1,0,0,0-2.71.85,2.55,2.55,0,0,0-1,2,2.11,2.11,0,0,0,.64,1.62A2.7,2.7,0,0,0,43.95,101.76Z"/><path d="M61.79,96.41a10.29,10.29,0,0,1,1.59-6,5.12,5.12,0,0,1,4.45-2.28,5.52,5.52,0,0,1,2.4.5A4.92,4.92,0,0,1,72,90.08V81.6h2.81v22.23H72.53l-.33-1.9a5,5,0,0,1-1.85,1.64,5.57,5.57,0,0,1-2.55.56,5.29,5.29,0,0,1-4.42-2,8.5,8.5,0,0,1-1.6-5.38Zm2.81.3a6.55,6.55,0,0,0,1,3.74,3.33,3.33,0,0,0,3,1.4,3.72,3.72,0,0,0,2.11-.57,4.26,4.26,0,0,0,1.4-1.6v-7.2A4.32,4.32,0,0,0,70.62,91a3.71,3.71,0,0,0-2.07-.56,3.21,3.21,0,0,0-3,1.67,8.61,8.61,0,0,0-1,4.33Z"/><path d="M78.36,96a8.49,8.49,0,0,1,1.85-5.64,6.87,6.87,0,0,1,10.1,0A8.46,8.46,0,0,1,92.17,96v.31a8.45,8.45,0,0,1-1.85,5.64,6.9,6.9,0,0,1-10.1,0,8.43,8.43,0,0,1-1.86-5.64Zm2.81.31a7.3,7.3,0,0,0,1,4,3.74,3.74,0,0,0,6.12,0,7.26,7.26,0,0,0,1-4V96a7.24,7.24,0,0,0-1-4,3.44,3.44,0,0,0-3.07-1.61,3.39,3.39,0,0,0-3,1.61,7.32,7.32,0,0,0-1,4Z"/><path d="M101.88,101.92a3.79,3.79,0,0,0,2.46-.86,2.63,2.63,0,0,0,1.06-2.12h2.52l0,.09a4.34,4.34,0,0,1-1.77,3.55,6.47,6.47,0,0,1-4.3,1.55,6.24,6.24,0,0,1-5.14-2.19A8.47,8.47,0,0,1,95,96.42v-.6a8.43,8.43,0,0,1,1.79-5.49,7,7,0,0,1,9.56-.61A5,5,0,0,1,108,93.64l0,.09H105.4a3.26,3.26,0,0,0-1-2.4,3.43,3.43,0,0,0-2.52-1,3.39,3.39,0,0,0-3.16,1.59,7.47,7.47,0,0,0-.95,3.89v.6a7.56,7.56,0,0,0,.94,3.94A3.39,3.39,0,0,0,101.88,101.92Z"/><path d="M114.8,84.69v3.72h2.92v2.08H114.8v9.36a2.1,2.1,0,0,0,.45,1.52,1.62,1.62,0,0,0,1.19.44,2.81,2.81,0,0,0,.53-.06,3.27,3.27,0,0,0,.52-.14l.37,1.92a2.48,2.48,0,0,1-.92.42,4.65,4.65,0,0,1-1.22.16,3.64,3.64,0,0,1-2.72-1,4.49,4.49,0,0,1-1-3.24V90.49h-2.45V88.41H112V84.69Z"/><path d="M120.53,96a8.49,8.49,0,0,1,1.85-5.64,6.87,6.87,0,0,1,10.1,0A8.46,8.46,0,0,1,134.34,96v.31a8.45,8.45,0,0,1-1.85,5.64,6.9,6.9,0,0,1-10.1,0,8.43,8.43,0,0,1-1.86-5.64Zm2.81.31a7.3,7.3,0,0,0,1,4,3.74,3.74,0,0,0,6.12,0,7.26,7.26,0,0,0,1-4V96a7.24,7.24,0,0,0-1-4,3.44,3.44,0,0,0-3.07-1.61,3.39,3.39,0,0,0-3,1.61,7.32,7.32,0,0,0-1,4Z"/><path d="M145.07,90.89l-1.44-.09a3.21,3.21,0,0,0-1.87.53,3.38,3.38,0,0,0-1.18,1.48v11h-2.81V88.41h2.51l.27,2.25a5.35,5.35,0,0,1,1.62-1.87,3.78,3.78,0,0,1,2.22-.67,3.47,3.47,0,0,1,.6,0l.47.11Z"/><path d="M147.78,103.15l-2.14,4.36H144l1-4.5v-2.32h2.81Z"/><path d="M52.3,131.73a8.47,8.47,0,0,1-1.6,5.38,5.3,5.3,0,0,1-4.41,2,5.62,5.62,0,0,1-2.65-.59,4.93,4.93,0,0,1-1.87-1.75l-.34,2H39.13V116.62h2.81v8.64a4.87,4.87,0,0,1,1.8-1.57,5.53,5.53,0,0,1,2.52-.54,5.12,5.12,0,0,1,4.45,2.28,10.26,10.26,0,0,1,1.6,6Zm-2.81-.3a8.51,8.51,0,0,0-1-4.33,3.21,3.21,0,0,0-3-1.67,3.67,3.67,0,0,0-2.19.63,4.47,4.47,0,0,0-1.42,1.7v6.68a4.59,4.59,0,0,0,1.42,1.78,3.65,3.65,0,0,0,2.22.64,3.34,3.34,0,0,0,2.95-1.41,6.48,6.48,0,0,0,1-3.73Z"/><path d="M65.51,136.57a5.22,5.22,0,0,1-1.87,1.91,5.11,5.11,0,0,1-2.64.67,5,5,0,0,1-3.93-1.61q-1.41-1.61-1.41-5v-9.09h2.81v9.12a5.74,5.74,0,0,0,.73,3.39,2.7,2.7,0,0,0,2.27.93,4.62,4.62,0,0,0,2.47-.61,3.79,3.79,0,0,0,1.47-1.72V123.43h2.81v15.42H65.69Z"/><path d="M81.27,134.75a1.91,1.91,0,0,0-.71-1.52,6.63,6.63,0,0,0-2.67-1,11.23,11.23,0,0,1-4.23-1.66,3.35,3.35,0,0,1-1.42-2.85,4,4,0,0,1,1.6-3.2,7.27,7.27,0,0,1,8.44.06,4.09,4.09,0,0,1,1.52,3.36l0,.09H81.1a2.45,2.45,0,0,0-.85-1.82,3.12,3.12,0,0,0-2.24-.81,3.24,3.24,0,0,0-2.22.66,2.06,2.06,0,0,0-.73,1.58A1.76,1.76,0,0,0,75.7,129a6.65,6.65,0,0,0,2.61.94,11.23,11.23,0,0,1,4.35,1.7,3.43,3.43,0,0,1,1.43,2.89,4,4,0,0,1-1.66,3.32,7,7,0,0,1-4.34,1.27,6.78,6.78,0,0,1-4.65-1.5,4.27,4.27,0,0,1-1.61-3.49l0-.09h2.68a2.58,2.58,0,0,0,1.11,2.18,4.3,4.3,0,0,0,2.44.69,4,4,0,0,0,2.34-.61A1.87,1.87,0,0,0,81.27,134.75Z"/><path d="M90.6,119.49H87.8v-2.86H90.6Zm0,19.37H87.8V123.43H90.6Z"/><path d="M97.43,123.43l.2,2.29a5.6,5.6,0,0,1,1.93-1.9,5.15,5.15,0,0,1,2.64-.68,5,5,0,0,1,3.86,1.46,6.41,6.41,0,0,1,1.37,4.51v9.73h-2.81v-9.68a4.17,4.17,0,0,0-.81-2.89,3.23,3.23,0,0,0-2.46-.86,4,4,0,0,0-2.14.58,4.27,4.27,0,0,0-1.49,1.6v11.24H94.92V123.43Z"/><path d="M117.91,139.15a6.5,6.5,0,0,1-5.12-2.14,8.07,8.07,0,0,1-1.9-5.56v-.63a7.91,7.91,0,0,1,2-5.48,6,6,0,0,1,4.64-2.19A5.84,5.84,0,0,1,122.2,125a7.49,7.49,0,0,1,1.6,5v1.75h-10l0,.07a6.07,6.07,0,0,0,1.13,3.65,3.59,3.59,0,0,0,3,1.43,7.06,7.06,0,0,0,2.5-.41,5.75,5.75,0,0,0,1.86-1.12l1.1,1.83a6.49,6.49,0,0,1-2.18,1.36A8.73,8.73,0,0,1,117.91,139.15Zm-.43-13.79a3,3,0,0,0-2.41,1.19,5.61,5.61,0,0,0-1.23,3l0,.07H121v-.37a4.28,4.28,0,0,0-.88-2.76A3.16,3.16,0,0,0,117.48,125.36Z"/><path d="M135.91,134.75a1.91,1.91,0,0,0-.71-1.52,6.63,6.63,0,0,0-2.67-1,11.23,11.23,0,0,1-4.23-1.66,3.35,3.35,0,0,1-1.42-2.85,4,4,0,0,1,1.6-3.2,7.27,7.27,0,0,1,8.44.06,4.09,4.09,0,0,1,1.52,3.36l0,.09h-2.68a2.45,2.45,0,0,0-.85-1.82,3.12,3.12,0,0,0-2.24-.81,3.24,3.24,0,0,0-2.22.66,2.06,2.06,0,0,0-.73,1.58,1.76,1.76,0,0,0,.64,1.44,6.65,6.65,0,0,0,2.61.94,11.23,11.23,0,0,1,4.35,1.7,3.43,3.43,0,0,1,1.43,2.89,4,4,0,0,1-1.66,3.32,7,7,0,0,1-4.34,1.27,6.78,6.78,0,0,1-4.65-1.5,4.27,4.27,0,0,1-1.61-3.49l0-.09h2.68a2.58,2.58,0,0,0,1.11,2.18,4.3,4.3,0,0,0,2.44.69,4,4,0,0,0,2.34-.61A1.87,1.87,0,0,0,135.91,134.75Z"/><path d="M151.17,134.75a1.91,1.91,0,0,0-.71-1.52,6.63,6.63,0,0,0-2.67-1,11.23,11.23,0,0,1-4.23-1.66,3.35,3.35,0,0,1-1.42-2.85,4,4,0,0,1,1.6-3.2,7.27,7.27,0,0,1,8.44.06,4.09,4.09,0,0,1,1.52,3.36l0,.09H151a2.45,2.45,0,0,0-.85-1.82,3.12,3.12,0,0,0-2.24-.81,3.24,3.24,0,0,0-2.22.66,2.06,2.06,0,0,0-.73,1.58,1.76,1.76,0,0,0,.64,1.44,6.65,6.65,0,0,0,2.61.94,11.23,11.23,0,0,1,4.35,1.7,3.43,3.43,0,0,1,1.43,2.89,4,4,0,0,1-1.66,3.32,7,7,0,0,1-4.34,1.27,6.78,6.78,0,0,1-4.65-1.5,4.27,4.27,0,0,1-1.61-3.49l0-.09h2.68a2.58,2.58,0,0,0,1.11,2.18,4.3,4.3,0,0,0,2.44.69,4,4,0,0,0,2.34-.61A1.87,1.87,0,0,0,151.17,134.75Z"/><path d="M159.92,138.17l-2.14,4.36h-1.67l1-4.5V135.7h2.81Z"/><path d="M38.48,166a8.49,8.49,0,0,1,1.85-5.64,6.21,6.21,0,0,1,5-2.22,6.27,6.27,0,0,1,5.07,2.21A8.46,8.46,0,0,1,52.28,166v.31A8.45,8.45,0,0,1,50.43,172a6.25,6.25,0,0,1-5,2.19,6.27,6.27,0,0,1-5.05-2.2,8.43,8.43,0,0,1-1.86-5.64Zm2.81.31a7.3,7.3,0,0,0,1,4,3.74,3.74,0,0,0,6.12,0,7.26,7.26,0,0,0,1-4V166a7.24,7.24,0,0,0-1-4,3.44,3.44,0,0,0-3.07-1.61,3.39,3.39,0,0,0-3,1.61,7.32,7.32,0,0,0-1,4Z"/><path d="M63,160.94l-1.44-.09a3.21,3.21,0,0,0-1.87.53,3.38,3.38,0,0,0-1.18,1.48v11H55.72V158.46h2.51l.27,2.25a5.35,5.35,0,0,1,1.62-1.87,3.78,3.78,0,0,1,2.22-.67,3.47,3.47,0,0,1,.6,0l.47.11Z"/><path d="M81.94,169.77a1.91,1.91,0,0,0-.71-1.52,6.63,6.63,0,0,0-2.67-1,11.23,11.23,0,0,1-4.23-1.66,3.35,3.35,0,0,1-1.42-2.85,4,4,0,0,1,1.6-3.2,7.27,7.27,0,0,1,8.44.06,4.09,4.09,0,0,1,1.52,3.36l0,.09H81.77a2.45,2.45,0,0,0-.85-1.82,3.12,3.12,0,0,0-2.24-.81,3.24,3.24,0,0,0-2.22.66,2.06,2.06,0,0,0-.73,1.58,1.76,1.76,0,0,0,.64,1.44A6.65,6.65,0,0,0,79,165a11.23,11.23,0,0,1,4.35,1.7,3.43,3.43,0,0,1,1.43,2.89,4,4,0,0,1-1.66,3.32,7,7,0,0,1-4.34,1.27,6.78,6.78,0,0,1-4.65-1.5,4.27,4.27,0,0,1-1.61-3.49l0-.09H75.2a2.58,2.58,0,0,0,1.11,2.18,4.3,4.3,0,0,0,2.44.69,4,4,0,0,0,2.34-.61A1.87,1.87,0,0,0,81.94,169.77Z"/><path d="M94.64,174.17A6.5,6.5,0,0,1,89.51,172a8.07,8.07,0,0,1-1.9-5.56v-.63a7.91,7.91,0,0,1,2-5.48,6,6,0,0,1,4.64-2.19,5.84,5.84,0,0,1,4.72,1.88,7.49,7.49,0,0,1,1.6,5v1.75h-10l0,.07a6.07,6.07,0,0,0,1.13,3.65,3.59,3.59,0,0,0,3,1.43,7.06,7.06,0,0,0,2.5-.41A5.75,5.75,0,0,0,99,170.44l1.1,1.83a6.49,6.49,0,0,1-2.18,1.36A8.73,8.73,0,0,1,94.64,174.17Zm-.43-13.79a3,3,0,0,0-2.41,1.19,5.61,5.61,0,0,0-1.23,3l0,.07h7.11v-.37a4.28,4.28,0,0,0-.88-2.76A3.16,3.16,0,0,0,94.21,160.38Z"/><path d="M111,160.94l-1.44-.09a3.21,3.21,0,0,0-1.87.53,3.38,3.38,0,0,0-1.18,1.48v11h-2.81V158.46h2.51l.27,2.25a5.35,5.35,0,0,1,1.62-1.87,3.78,3.78,0,0,1,2.22-.67,3.47,3.47,0,0,1,.6,0l.47.11Z"/><path d="M119.08,169.33l.24,1.08h.09l.27-1.08,3.55-10.87h2.86l-5.67,15.42h-2.12l-5.74-15.42h2.88Z"/><path d="M131.65,154.51h-2.81v-2.86h2.81Zm0,19.37h-2.81V158.46h2.81Z"/><path d="M142.23,172a3.79,3.79,0,0,0,2.46-.86,2.63,2.63,0,0,0,1.06-2.12h2.52l0,.09a4.34,4.34,0,0,1-1.77,3.55,6.47,6.47,0,0,1-4.3,1.55,6.24,6.24,0,0,1-5.14-2.19,8.47,8.47,0,0,1-1.78-5.51v-.6a8.43,8.43,0,0,1,1.79-5.49,7,7,0,0,1,9.56-.61,5,5,0,0,1,1.66,3.92l0,.09h-2.54a3.26,3.26,0,0,0-1-2.4,3.43,3.43,0,0,0-2.52-1,3.39,3.39,0,0,0-3.16,1.59,7.47,7.47,0,0,0-.95,3.89v.6a7.56,7.56,0,0,0,.94,3.94A3.39,3.39,0,0,0,142.23,172Z"/><path d="M157.85,174.17a6.5,6.5,0,0,1-5.12-2.14,8.07,8.07,0,0,1-1.9-5.56v-.63a7.91,7.91,0,0,1,2-5.48,6,6,0,0,1,4.64-2.19,5.84,5.84,0,0,1,4.72,1.88,7.49,7.49,0,0,1,1.6,5v1.75h-10l0,.07a6.07,6.07,0,0,0,1.13,3.65,3.59,3.59,0,0,0,3,1.43,7.06,7.06,0,0,0,2.5-.41,5.75,5.75,0,0,0,1.86-1.12l1.1,1.83a6.49,6.49,0,0,1-2.18,1.36A8.73,8.73,0,0,1,157.85,174.17Zm-.43-13.79a3,3,0,0,0-2.41,1.19,5.61,5.61,0,0,0-1.23,3l0,.07h7.11v-.37a4.28,4.28,0,0,0-.88-2.76A3.16,3.16,0,0,0,157.43,160.38Z"/><path d="M170.09,167.06h-2.81V153.13h2.81Zm0,6.81h-2.82V171h2.82Z"/><path d="M50.9,203.55H42.21l-2,5.34H37.38l8-20.75h2.41L55.7,208.9H52.84Zm-7.82-2.35h7l-3.42-9.45h-.09Z"/><path d="M60.54,193.48l.2,2.29a5.6,5.6,0,0,1,1.93-1.9,5.15,5.15,0,0,1,2.64-.68,5,5,0,0,1,3.86,1.46,6.41,6.41,0,0,1,1.37,4.51v9.73H67.73v-9.68a4.17,4.17,0,0,0-.81-2.89,3.23,3.23,0,0,0-2.46-.86,4,4,0,0,0-2.14.58,4.27,4.27,0,0,0-1.49,1.6V208.9H58V193.48Z"/><path d="M79.33,203.18l.5,1.94h.09l3.79-11.64h3.12l-6.48,17.78A8,8,0,0,1,78.67,214a3.85,3.85,0,0,1-2.94,1.15,6.13,6.13,0,0,1-.87-.08q-.53-.08-.81-.15l.29-2.21.51,0,.75,0a1.73,1.73,0,0,0,1.47-.8,8.29,8.29,0,0,0,1-1.77l.67-1.61-5.73-15.11h3.14Z"/><path d="M93,189.76v3.72h2.92v2.08H93v9.36a2.1,2.1,0,0,0,.45,1.52,1.62,1.62,0,0,0,1.19.44,2.81,2.81,0,0,0,.53-.06,3.27,3.27,0,0,0,.52-.14l.37,1.92a2.48,2.48,0,0,1-.92.42,4.65,4.65,0,0,1-1.22.16,3.64,3.64,0,0,1-2.72-1,4.49,4.49,0,0,1-1-3.24v-9.36H87.74v-2.08h2.45v-3.72Z"/><path d="M102.19,195.54a5.69,5.69,0,0,1,2-1.73,5.38,5.38,0,0,1,2.57-.62,5,5,0,0,1,3.84,1.48,6.52,6.52,0,0,1,1.38,4.56v9.66h-2.81v-9.69a4.13,4.13,0,0,0-.82-2.82,3.12,3.12,0,0,0-2.44-.91,4.15,4.15,0,0,0-2.12.55,4.58,4.58,0,0,0-1.56,1.49V208.9H99.38V186.66h2.81Z"/><path d="M119,189.53H116.2v-2.86H119Zm0,19.37H116.2V193.48H119Z"/><path d="M125.83,193.48l.2,2.29a5.6,5.6,0,0,1,1.93-1.9,5.15,5.15,0,0,1,2.64-.68,5,5,0,0,1,3.86,1.46,6.41,6.41,0,0,1,1.37,4.51v9.73H133v-9.68a4.17,4.17,0,0,0-.81-2.89,3.23,3.23,0,0,0-2.46-.86,4,4,0,0,0-2.14.58,4.27,4.27,0,0,0-1.49,1.6V208.9h-2.81V193.48Z"/><path d="M139.3,201.47a10.12,10.12,0,0,1,1.62-6,5.21,5.21,0,0,1,4.49-2.28,5.41,5.41,0,0,1,2.58.59,5.07,5.07,0,0,1,1.85,1.7l.34-2h2.24V209a5.88,5.88,0,0,1-1.72,4.55,7.08,7.08,0,0,1-5,1.59,10.43,10.43,0,0,1-2.4-.31,9.39,9.39,0,0,1-2.27-.83l.71-2.18a7.2,7.2,0,0,0,1.82.69,8.78,8.78,0,0,0,2.11.26,4.09,4.09,0,0,0,3-.93,3.87,3.87,0,0,0,.93-2.84v-1.74a4.9,4.9,0,0,1-1.81,1.46,5.67,5.67,0,0,1-2.42.49,5.38,5.38,0,0,1-4.46-2.05,8.4,8.4,0,0,1-1.62-5.37Zm2.81.3a6.41,6.41,0,0,0,1,3.73,3.4,3.4,0,0,0,3,1.41,3.71,3.71,0,0,0,2.12-.58,4.38,4.38,0,0,0,1.41-1.63v-7.1A4.36,4.36,0,0,0,148.2,196a3.7,3.7,0,0,0-2.09-.58,3.27,3.27,0,0,0-3,1.68,8.37,8.37,0,0,0-1,4.32Z"/><path d="M158.95,208.21l-2.14,4.36h-1.67l1-4.5v-2.32h2.81Z"/><path d="M176.81,196l-1.44-.09a3.21,3.21,0,0,0-1.87.53,3.38,3.38,0,0,0-1.18,1.48v11h-2.81V193.48H172l.27,2.25a5.35,5.35,0,0,1,1.62-1.87,3.78,3.78,0,0,1,2.22-.67,3.47,3.47,0,0,1,.6,0l.47.11Z"/><path d="M185.64,209.19a6.5,6.5,0,0,1-5.12-2.14,8.07,8.07,0,0,1-1.9-5.56v-.63a7.91,7.91,0,0,1,2-5.48,6,6,0,0,1,4.64-2.19,5.84,5.84,0,0,1,4.72,1.88,7.49,7.49,0,0,1,1.6,5v1.75h-10l0,.07a6.07,6.07,0,0,0,1.13,3.65,3.59,3.59,0,0,0,3,1.43,7.06,7.06,0,0,0,2.5-.41,5.75,5.75,0,0,0,1.86-1.12l1.1,1.83a6.49,6.49,0,0,1-2.18,1.36A8.73,8.73,0,0,1,185.64,209.19Zm-.43-13.79a3,3,0,0,0-2.41,1.19,5.61,5.61,0,0,0-1.23,3l0,.07h7.11v-.37a4.28,4.28,0,0,0-.88-2.76A3.16,3.16,0,0,0,185.21,195.4Z"/><path d="M204.15,208.9q-.14-.7-.22-1.23a9,9,0,0,1-.09-1.08,6.55,6.55,0,0,1-2,1.86,5.23,5.23,0,0,1-2.71.75,5,5,0,0,1-3.67-1.23,4.53,4.53,0,0,1-1.26-3.4,4,4,0,0,1,1.79-3.46,8.35,8.35,0,0,1,4.85-1.25h3v-1.52a2.83,2.83,0,0,0-.83-2.14,3.25,3.25,0,0,0-2.34-.79,3.37,3.37,0,0,0-2.2.69,2.08,2.08,0,0,0-.85,1.66h-2.68l0-.09a3.73,3.73,0,0,1,1.59-3.08,6.53,6.53,0,0,1,4.33-1.4,6.37,6.37,0,0,1,4.22,1.33,4.72,4.72,0,0,1,1.6,3.84v7.42a14.45,14.45,0,0,0,.09,1.6,8.21,8.21,0,0,0,.31,1.51Zm-4.66-2.07a5,5,0,0,0,2.75-.78,3.72,3.72,0,0,0,1.6-1.79v-2.5h-3.15a4.1,4.1,0,0,0-2.71.85,2.55,2.55,0,0,0-1,2,2.11,2.11,0,0,0,.64,1.62A2.7,2.7,0,0,0,199.49,206.83Z"/><path d="M213.76,208.9H211V186.66h2.81Z"/><path d="M221.11,208.9H218.3V186.66h2.81Z"/><path d="M230.15,203.18l.5,1.94h.09l3.79-11.64h3.12l-6.48,17.78a8,8,0,0,1-1.67,2.71,3.85,3.85,0,0,1-2.94,1.15,6.13,6.13,0,0,1-.87-.08q-.53-.08-.81-.15l.29-2.21.51,0,.75,0a1.73,1.73,0,0,0,1.47-.8,8.29,8.29,0,0,0,1-1.77l.67-1.61-5.73-15.11h3.14Z"/><path d="M240.82,208.9H238V206h2.81Z"/><path d="M328.89,150.43V129.68h6.37a8.52,8.52,0,0,1,9,9v2.84a8.5,8.5,0,0,1-9,8.95Zm2.81-18.54v16.33h3.56a5.73,5.73,0,0,0,4.54-1.89,7.1,7.1,0,0,0,1.66-4.86v-2.86a7.06,7.06,0,0,0-1.66-4.83,5.73,5.73,0,0,0-4.54-1.89Z"/><path d="M346.93,142.58a8.49,8.49,0,0,1,1.85-5.64,6.87,6.87,0,0,1,10.1,0,8.46,8.46,0,0,1,1.86,5.64v.31a8.45,8.45,0,0,1-1.85,5.64,6.9,6.9,0,0,1-10.1,0,8.43,8.43,0,0,1-1.86-5.64Zm2.81.31a7.3,7.3,0,0,0,1,4,3.74,3.74,0,0,0,6.12,0,7.26,7.26,0,0,0,1-4v-.31a7.24,7.24,0,0,0-1-4,3.44,3.44,0,0,0-3.07-1.61,3.39,3.39,0,0,0-3,1.61,7.32,7.32,0,0,0-1,4Z"/><path d="M370.57,150.73a6.5,6.5,0,0,1-5.12-2.14,8.07,8.07,0,0,1-1.9-5.56v-.63a7.91,7.91,0,0,1,2-5.48,6,6,0,0,1,4.64-2.19,5.84,5.84,0,0,1,4.72,1.88,7.49,7.49,0,0,1,1.6,5v1.75h-10l0,.07a6.07,6.07,0,0,0,1.13,3.65,3.59,3.59,0,0,0,3,1.43,7.06,7.06,0,0,0,2.5-.41,5.75,5.75,0,0,0,1.86-1.12l1.1,1.83a6.49,6.49,0,0,1-2.18,1.36A8.73,8.73,0,0,1,370.57,150.73Zm-.43-13.79a3,3,0,0,0-2.41,1.19,5.61,5.61,0,0,0-1.23,3l0,.07h7.11v-.37a4.28,4.28,0,0,0-.88-2.76A3.16,3.16,0,0,0,370.15,136.94Z"/><path d="M388.57,146.33a1.91,1.91,0,0,0-.71-1.52,6.63,6.63,0,0,0-2.67-1A11.23,11.23,0,0,1,381,142.1a3.35,3.35,0,0,1-1.42-2.85,4,4,0,0,1,1.6-3.2,7.27,7.27,0,0,1,8.44.06,4.09,4.09,0,0,1,1.52,3.36l0,.09H388.4a2.45,2.45,0,0,0-.85-1.82,3.12,3.12,0,0,0-2.24-.81,3.24,3.24,0,0,0-2.22.66,2.06,2.06,0,0,0-.73,1.58,1.76,1.76,0,0,0,.64,1.44,6.65,6.65,0,0,0,2.61.94,11.23,11.23,0,0,1,4.35,1.7,3.43,3.43,0,0,1,1.43,2.89,4,4,0,0,1-1.66,3.32,7,7,0,0,1-4.34,1.27,6.78,6.78,0,0,1-4.65-1.5,4.27,4.27,0,0,1-1.61-3.49l0-.09h2.68a2.58,2.58,0,0,0,1.11,2.18,4.3,4.3,0,0,0,2.44.69,4,4,0,0,0,2.34-.61A1.87,1.87,0,0,0,388.57,146.33Z"/><path d="M405.83,131.29V135h2.92v2.08h-2.92v9.36a2.1,2.1,0,0,0,.45,1.52,1.62,1.62,0,0,0,1.19.44,2.81,2.81,0,0,0,.53-.06,3.27,3.27,0,0,0,.52-.14l.37,1.92a2.48,2.48,0,0,1-.92.42,4.65,4.65,0,0,1-1.22.16,3.64,3.64,0,0,1-2.72-1,4.49,4.49,0,0,1-1-3.24v-9.36h-2.45V135H403v-3.72Z"/><path d="M415,137.08a5.69,5.69,0,0,1,2-1.73,5.38,5.38,0,0,1,2.57-.62,5,5,0,0,1,3.84,1.48,6.52,6.52,0,0,1,1.38,4.56v9.66H422v-9.69a4.13,4.13,0,0,0-.82-2.82,3.12,3.12,0,0,0-2.44-.91,4.15,4.15,0,0,0-2.12.55A4.58,4.58,0,0,0,415,139v11.39h-2.81V128.2H415Z"/><path d="M438.28,150.43q-.14-.7-.22-1.23a9,9,0,0,1-.09-1.08,6.55,6.55,0,0,1-2,1.86,5.23,5.23,0,0,1-2.71.75,5,5,0,0,1-3.67-1.23,4.53,4.53,0,0,1-1.26-3.4,4,4,0,0,1,1.79-3.46,8.35,8.35,0,0,1,4.85-1.25h3v-1.52a2.83,2.83,0,0,0-.83-2.14,3.25,3.25,0,0,0-2.34-.79,3.37,3.37,0,0,0-2.2.69,2.08,2.08,0,0,0-.85,1.66h-2.68l0-.09a3.73,3.73,0,0,1,1.59-3.08,6.53,6.53,0,0,1,4.33-1.4,6.37,6.37,0,0,1,4.22,1.33,4.72,4.72,0,0,1,1.6,3.84v7.42a14.45,14.45,0,0,0,.09,1.6,8.21,8.21,0,0,0,.31,1.51Zm-4.66-2.07a5,5,0,0,0,2.75-.78,3.72,3.72,0,0,0,1.6-1.79v-2.5h-3.15a4.1,4.1,0,0,0-2.71.85,2.55,2.55,0,0,0-1,2,2.11,2.11,0,0,0,.64,1.62A2.7,2.7,0,0,0,433.62,148.36Z"/><path d="M448.55,131.29V135h2.92v2.08h-2.92v9.36A2.1,2.1,0,0,0,449,148a1.62,1.62,0,0,0,1.19.44,2.81,2.81,0,0,0,.53-.06,3.27,3.27,0,0,0,.52-.14l.37,1.92a2.48,2.48,0,0,1-.92.42,4.65,4.65,0,0,1-1.22.16,3.64,3.64,0,0,1-2.72-1,4.49,4.49,0,0,1-1-3.24v-9.36h-2.45V135h2.45v-3.72Z"/><path d="M467.33,145.88l.24,1.08h.09l.27-1.08L471.48,135h2.86l-5.67,15.42h-2.12L460.81,135h2.88Z"/><path d="M483.08,150.73a6.5,6.5,0,0,1-5.12-2.14,8.07,8.07,0,0,1-1.9-5.56v-.63a7.91,7.91,0,0,1,2-5.48,6,6,0,0,1,4.64-2.19,5.84,5.84,0,0,1,4.72,1.88,7.49,7.49,0,0,1,1.6,5v1.75H479l0,.07a6.07,6.07,0,0,0,1.13,3.65,3.59,3.59,0,0,0,3,1.43,7.06,7.06,0,0,0,2.5-.41,5.75,5.75,0,0,0,1.86-1.12l1.1,1.83a6.49,6.49,0,0,1-2.18,1.36A8.73,8.73,0,0,1,483.08,150.73Zm-.43-13.79a3,3,0,0,0-2.41,1.19,5.61,5.61,0,0,0-1.23,3l0,.07h7.11v-.37a4.28,4.28,0,0,0-.88-2.76A3.16,3.16,0,0,0,482.65,136.94Z"/><path d="M494.62,135l.2,2.29a5.6,5.6,0,0,1,1.93-1.9,5.15,5.15,0,0,1,2.64-.68,5,5,0,0,1,3.86,1.46,6.41,6.41,0,0,1,1.37,4.51v9.73h-2.81v-9.68a4.17,4.17,0,0,0-.81-2.89,3.23,3.23,0,0,0-2.46-.86,4,4,0,0,0-2.14.58,4.27,4.27,0,0,0-1.49,1.6v11.24h-2.81V135Z"/><path d="M518.49,148.15a5.22,5.22,0,0,1-1.87,1.91,5.11,5.11,0,0,1-2.64.67,5,5,0,0,1-3.93-1.61q-1.41-1.61-1.41-5V135h2.81v9.12a5.74,5.74,0,0,0,.73,3.39,2.7,2.7,0,0,0,2.27.93,4.62,4.62,0,0,0,2.47-.61,3.79,3.79,0,0,0,1.47-1.72V135h2.81v15.42h-2.52Z"/><path d="M531.69,150.73a6.5,6.5,0,0,1-5.12-2.14,8.07,8.07,0,0,1-1.9-5.56v-.63a7.91,7.91,0,0,1,2-5.48,6,6,0,0,1,4.64-2.19,5.84,5.84,0,0,1,4.72,1.88,7.49,7.49,0,0,1,1.6,5v1.75h-10l0,.07a6.07,6.07,0,0,0,1.13,3.65,3.59,3.59,0,0,0,3,1.43,7.06,7.06,0,0,0,2.5-.41,5.75,5.75,0,0,0,1.86-1.12l1.1,1.83a6.49,6.49,0,0,1-2.18,1.36A8.73,8.73,0,0,1,531.69,150.73Zm-.43-13.79a3,3,0,0,0-2.41,1.19,5.61,5.61,0,0,0-1.23,3l0,.07h7.11v-.37a4.28,4.28,0,0,0-.88-2.76A3.16,3.16,0,0,0,531.26,136.94Z"/><path d="M331.17,172.1a5.69,5.69,0,0,1,2-1.73,5.38,5.38,0,0,1,2.57-.62,5,5,0,0,1,3.84,1.48,6.52,6.52,0,0,1,1.38,4.56v9.66h-2.81v-9.69a4.13,4.13,0,0,0-.82-2.82,3.12,3.12,0,0,0-2.44-.91,4.15,4.15,0,0,0-2.12.55,4.58,4.58,0,0,0-1.56,1.49v11.39h-2.81V163.22h2.81Z"/><path d="M354.43,185.45q-.14-.7-.22-1.23a9,9,0,0,1-.09-1.08,6.55,6.55,0,0,1-2,1.86,5.23,5.23,0,0,1-2.71.75,5,5,0,0,1-3.67-1.23,4.53,4.53,0,0,1-1.26-3.4,4,4,0,0,1,1.79-3.46,8.35,8.35,0,0,1,4.85-1.25h3v-1.52a2.83,2.83,0,0,0-.83-2.14,3.25,3.25,0,0,0-2.34-.79,3.37,3.37,0,0,0-2.2.69,2.08,2.08,0,0,0-.85,1.66h-2.68l0-.09a3.73,3.73,0,0,1,1.59-3.08,6.53,6.53,0,0,1,4.33-1.4,6.37,6.37,0,0,1,4.22,1.33,4.72,4.72,0,0,1,1.6,3.84v7.42a14.45,14.45,0,0,0,.09,1.6,8.21,8.21,0,0,0,.31,1.51Zm-4.66-2.07a5,5,0,0,0,2.75-.78,3.72,3.72,0,0,0,1.6-1.79v-2.5H351a4.1,4.1,0,0,0-2.71.85,2.55,2.55,0,0,0-1,2,2.11,2.11,0,0,0,.64,1.62A2.7,2.7,0,0,0,349.77,183.39Z"/><path d="M365.93,180.91l.24,1.08h.09l.27-1.08L370.07,170h2.86l-5.67,15.42h-2.12L359.4,170h2.88Z"/><path d="M381.67,185.75a6.5,6.5,0,0,1-5.12-2.14,8.07,8.07,0,0,1-1.9-5.56v-.63a7.91,7.91,0,0,1,2-5.48,6,6,0,0,1,4.64-2.19,5.84,5.84,0,0,1,4.72,1.88,7.49,7.49,0,0,1,1.6,5v1.75h-10l0,.07a6.07,6.07,0,0,0,1.13,3.65,3.59,3.59,0,0,0,3,1.43,7.06,7.06,0,0,0,2.5-.41A5.75,5.75,0,0,0,386,182l1.1,1.83a6.49,6.49,0,0,1-2.18,1.36A8.73,8.73,0,0,1,381.67,185.75ZM381.25,172a3,3,0,0,0-2.41,1.19,5.61,5.61,0,0,0-1.23,3l0,.07h7.11v-.37a4.28,4.28,0,0,0-.88-2.76A3.16,3.16,0,0,0,381.25,172Z"/><path d="M407.44,185.45q-.14-.7-.22-1.23a9,9,0,0,1-.09-1.08,6.55,6.55,0,0,1-2,1.86,5.23,5.23,0,0,1-2.71.75,5,5,0,0,1-3.67-1.23,4.53,4.53,0,0,1-1.26-3.4,4,4,0,0,1,1.79-3.46,8.35,8.35,0,0,1,4.85-1.25h3v-1.52a2.83,2.83,0,0,0-.83-2.14A3.25,3.25,0,0,0,404,172a3.37,3.37,0,0,0-2.2.69,2.08,2.08,0,0,0-.85,1.66h-2.68l0-.09a3.73,3.73,0,0,1,1.59-3.08,6.53,6.53,0,0,1,4.33-1.4,6.37,6.37,0,0,1,4.22,1.33,4.72,4.72,0,0,1,1.6,3.84v7.42a14.45,14.45,0,0,0,.09,1.6,8.21,8.21,0,0,0,.31,1.51Zm-4.66-2.07a5,5,0,0,0,2.75-.78,3.72,3.72,0,0,0,1.6-1.79v-2.5H404a4.1,4.1,0,0,0-2.71.85,2.55,2.55,0,0,0-1,2,2.11,2.11,0,0,0,.64,1.62A2.7,2.7,0,0,0,402.78,183.39Z"/><path d="M417,185.45h-2.81V163.22H417Z"/><path d="M424.4,185.45h-2.81V163.22h2.81Z"/><path d="M435.36,178a10.12,10.12,0,0,1,1.62-6,5.21,5.21,0,0,1,4.49-2.28,5.41,5.41,0,0,1,2.58.59,5.07,5.07,0,0,1,1.85,1.7l.34-2h2.24v15.5a5.88,5.88,0,0,1-1.72,4.55,7.08,7.08,0,0,1-5,1.59,10.43,10.43,0,0,1-2.4-.31,9.39,9.39,0,0,1-2.27-.83l.71-2.18a7.2,7.2,0,0,0,1.82.69,8.78,8.78,0,0,0,2.11.26,4.09,4.09,0,0,0,3-.93,3.87,3.87,0,0,0,.93-2.84V183.8a4.9,4.9,0,0,1-1.81,1.46,5.67,5.67,0,0,1-2.42.49A5.38,5.38,0,0,1,437,183.7a8.4,8.4,0,0,1-1.62-5.37Zm2.81.3a6.41,6.41,0,0,0,1,3.73,3.4,3.4,0,0,0,3,1.41,3.71,3.71,0,0,0,2.12-.58,4.38,4.38,0,0,0,1.41-1.63v-7.1a4.36,4.36,0,0,0-1.41-1.56,3.7,3.7,0,0,0-2.09-.58,3.27,3.27,0,0,0-3,1.68,8.37,8.37,0,0,0-1,4.32Z"/><path d="M459,185.75a6.5,6.5,0,0,1-5.12-2.14,8.07,8.07,0,0,1-1.9-5.56v-.63a7.91,7.91,0,0,1,2-5.48,6,6,0,0,1,4.64-2.19,5.84,5.84,0,0,1,4.72,1.88,7.49,7.49,0,0,1,1.6,5v1.75h-10l0,.07a6.07,6.07,0,0,0,1.13,3.65,3.59,3.59,0,0,0,3,1.43,7.06,7.06,0,0,0,2.5-.41,5.75,5.75,0,0,0,1.86-1.12l1.1,1.83a6.49,6.49,0,0,1-2.18,1.36A8.73,8.73,0,0,1,459,185.75ZM458.53,172a3,3,0,0,0-2.41,1.19,5.61,5.61,0,0,0-1.23,3l0,.07H462v-.37a4.28,4.28,0,0,0-.88-2.76A3.16,3.16,0,0,0,458.53,172Z"/><path d="M470.5,170l.2,2.29a5.6,5.6,0,0,1,1.93-1.9,5.15,5.15,0,0,1,2.64-.68,5,5,0,0,1,3.86,1.46,6.41,6.41,0,0,1,1.37,4.51v9.73h-2.81v-9.68a4.17,4.17,0,0,0-.81-2.89,3.23,3.23,0,0,0-2.46-.86,4,4,0,0,0-2.14.58,4.27,4.27,0,0,0-1.49,1.6v11.24H468V170Z"/><path d="M483.94,178a10.29,10.29,0,0,1,1.59-6,5.12,5.12,0,0,1,4.45-2.28,5.52,5.52,0,0,1,2.4.5,4.92,4.92,0,0,1,1.79,1.45v-8.48H497v22.23h-2.29l-.33-1.9a5,5,0,0,1-1.85,1.64,5.57,5.57,0,0,1-2.55.56,5.29,5.29,0,0,1-4.42-2,8.5,8.5,0,0,1-1.6-5.38Zm2.81.3a6.55,6.55,0,0,0,1,3.74,3.33,3.33,0,0,0,3,1.4,3.72,3.72,0,0,0,2.11-.57,4.26,4.26,0,0,0,1.4-1.6v-7.2a4.32,4.32,0,0,0-1.4-1.52,3.71,3.71,0,0,0-2.07-.56,3.21,3.21,0,0,0-3,1.67,8.61,8.61,0,0,0-1,4.33Z"/><path d="M507.56,185.75a6.5,6.5,0,0,1-5.12-2.14,8.07,8.07,0,0,1-1.9-5.56v-.63a7.91,7.91,0,0,1,2-5.48,6,6,0,0,1,4.64-2.19,5.84,5.84,0,0,1,4.72,1.88,7.49,7.49,0,0,1,1.6,5v1.75h-10l0,.07a6.07,6.07,0,0,0,1.13,3.65,3.59,3.59,0,0,0,3,1.43,7.06,7.06,0,0,0,2.5-.41,5.75,5.75,0,0,0,1.86-1.12l1.1,1.83a6.49,6.49,0,0,1-2.18,1.36A8.73,8.73,0,0,1,507.56,185.75ZM507.14,172a3,3,0,0,0-2.41,1.19,5.61,5.61,0,0,0-1.23,3l0,.07h7.11v-.37a4.28,4.28,0,0,0-.88-2.76A3.16,3.16,0,0,0,507.14,172Z"/><path d="M523.89,172.51l-1.44-.09a3.21,3.21,0,0,0-1.87.53,3.39,3.39,0,0,0-1.18,1.48v11H516.6V170h2.51l.27,2.25a5.36,5.36,0,0,1,1.62-1.87,3.77,3.77,0,0,1,2.21-.67,3.47,3.47,0,0,1,.6,0l.47.11Z"/><path d="M341.53,213.35a8.47,8.47,0,0,1-1.6,5.38,5.3,5.3,0,0,1-4.41,2,5.62,5.62,0,0,1-2.65-.59,4.93,4.93,0,0,1-1.87-1.75l-.34,2h-2.29V198.24h2.81v8.64a4.87,4.87,0,0,1,1.8-1.57,5.53,5.53,0,0,1,2.52-.54,5.12,5.12,0,0,1,4.45,2.28,10.26,10.26,0,0,1,1.6,6Zm-2.81-.3a8.51,8.51,0,0,0-1-4.33,3.21,3.21,0,0,0-3-1.67,3.67,3.67,0,0,0-2.19.63,4.47,4.47,0,0,0-1.42,1.7v6.68a4.59,4.59,0,0,0,1.42,1.78,3.65,3.65,0,0,0,2.22.64,3.34,3.34,0,0,0,2.95-1.41,6.48,6.48,0,0,0,1-3.73Z"/><path d="M354.43,220.47q-.14-.7-.22-1.23a9,9,0,0,1-.09-1.08,6.55,6.55,0,0,1-2,1.86,5.23,5.23,0,0,1-2.71.75,5,5,0,0,1-3.67-1.23,4.53,4.53,0,0,1-1.26-3.4,4,4,0,0,1,1.79-3.46,8.35,8.35,0,0,1,4.85-1.25h3v-1.52a2.83,2.83,0,0,0-.83-2.14,3.25,3.25,0,0,0-2.34-.79,3.37,3.37,0,0,0-2.2.69,2.08,2.08,0,0,0-.85,1.66h-2.68l0-.09a3.73,3.73,0,0,1,1.59-3.08,6.53,6.53,0,0,1,4.33-1.4,6.37,6.37,0,0,1,4.22,1.33,4.72,4.72,0,0,1,1.6,3.84v7.42A14.45,14.45,0,0,0,357,219a8.21,8.21,0,0,0,.31,1.51Zm-4.66-2.07a5,5,0,0,0,2.75-.78,3.72,3.72,0,0,0,1.6-1.79v-2.5H351a4.1,4.1,0,0,0-2.71.85,2.55,2.55,0,0,0-1,2,2.11,2.11,0,0,0,.64,1.62A2.7,2.7,0,0,0,349.77,218.41Z"/><path d="M364.7,201.34v3.72h2.92v2.08H364.7v9.36a2.1,2.1,0,0,0,.45,1.52,1.62,1.62,0,0,0,1.19.44,2.81,2.81,0,0,0,.53-.06,3.27,3.27,0,0,0,.52-.14l.37,1.92a2.48,2.48,0,0,1-.92.42,4.65,4.65,0,0,1-1.22.16,3.64,3.64,0,0,1-2.72-1,4.49,4.49,0,0,1-1-3.24v-9.36h-2.45v-2.08h2.45v-3.72Z"/><path d="M373.89,207.12a5.69,5.69,0,0,1,2-1.73,5.38,5.38,0,0,1,2.57-.62,5,5,0,0,1,3.84,1.48,6.52,6.52,0,0,1,1.38,4.56v9.66h-2.81v-9.69A4.13,4.13,0,0,0,380,208a3.12,3.12,0,0,0-2.44-.91,4.15,4.15,0,0,0-2.12.55,4.58,4.58,0,0,0-1.56,1.49v11.39h-2.81V198.24h2.81Z"/><path d="M395,207.53l-1.44-.09a3.21,3.21,0,0,0-1.87.53,3.38,3.38,0,0,0-1.18,1.48v11h-2.81V205.06h2.51l.27,2.25a5.35,5.35,0,0,1,1.62-1.87,3.78,3.78,0,0,1,2.22-.67,3.47,3.47,0,0,1,.6,0l.47.11Z"/><path d="M396.74,212.62a8.49,8.49,0,0,1,1.85-5.64,6.87,6.87,0,0,1,10.1,0,8.46,8.46,0,0,1,1.86,5.64v.31a8.45,8.45,0,0,1-1.85,5.64,6.9,6.9,0,0,1-10.1,0,8.43,8.43,0,0,1-1.86-5.64Zm2.81.31a7.3,7.3,0,0,0,1,4,3.74,3.74,0,0,0,6.12,0,7.26,7.26,0,0,0,1-4v-.31a7.24,7.24,0,0,0-1-4,3.44,3.44,0,0,0-3.07-1.61,3.39,3.39,0,0,0-3,1.61,7.32,7.32,0,0,0-1,4Z"/><path d="M413.32,212.62a8.49,8.49,0,0,1,1.85-5.64,6.87,6.87,0,0,1,10.1,0,8.46,8.46,0,0,1,1.86,5.64v.31a8.45,8.45,0,0,1-1.85,5.64,6.9,6.9,0,0,1-10.1,0,8.43,8.43,0,0,1-1.86-5.64Zm2.81.31a7.3,7.3,0,0,0,1,4,3.74,3.74,0,0,0,6.12,0,7.26,7.26,0,0,0,1-4v-.31a7.24,7.24,0,0,0-1-4,3.44,3.44,0,0,0-3.07-1.61,3.39,3.39,0,0,0-3,1.61,7.32,7.32,0,0,0-1,4Z"/><path d="M433.08,205.06l.2,2a5.24,5.24,0,0,1,1.92-1.7,5.76,5.76,0,0,1,2.7-.61,4.77,4.77,0,0,1,2.64.71,4.31,4.31,0,0,1,1.66,2.14,5.72,5.72,0,0,1,1.92-2.08,5.05,5.05,0,0,1,2.79-.77,4.62,4.62,0,0,1,3.72,1.62,7.39,7.39,0,0,1,1.37,4.87v9.22h-2.81v-9.25a5.13,5.13,0,0,0-.78-3.23,2.86,2.86,0,0,0-2.34-.95,3,3,0,0,0-2.33,1,4.34,4.34,0,0,0-1,2.52v9.9h-2.82v-9.25a5.06,5.06,0,0,0-.81-3.17,2.79,2.79,0,0,0-2.32-1,3.86,3.86,0,0,0-2.11.53,3.41,3.41,0,0,0-1.27,1.48v11.41h-2.81V205.06Z"/><path d="M465,216.37a1.91,1.91,0,0,0-.71-1.52,6.63,6.63,0,0,0-2.67-1,11.23,11.23,0,0,1-4.23-1.66,3.35,3.35,0,0,1-1.42-2.85,4,4,0,0,1,1.6-3.2,7.27,7.27,0,0,1,8.44.06,4.09,4.09,0,0,1,1.52,3.36l0,.09h-2.68a2.45,2.45,0,0,0-.85-1.82,3.12,3.12,0,0,0-2.24-.81,3.24,3.24,0,0,0-2.22.66,2.06,2.06,0,0,0-.73,1.58,1.76,1.76,0,0,0,.64,1.44,6.65,6.65,0,0,0,2.61.94,11.23,11.23,0,0,1,4.35,1.7,3.43,3.43,0,0,1,1.43,2.89,4,4,0,0,1-1.66,3.32,7,7,0,0,1-4.34,1.27,6.78,6.78,0,0,1-4.65-1.5,4.27,4.27,0,0,1-1.61-3.49l0-.09h2.68a2.58,2.58,0,0,0,1.11,2.18,4.3,4.3,0,0,0,2.44.69,4,4,0,0,0,2.34-.61A1.87,1.87,0,0,0,465,216.37Z"/><path d="M474.36,214.63a8.33,8.33,0,0,1,.36-2.86,7.24,7.24,0,0,1,1.8-2.11,31.28,31.28,0,0,0,2-2.57,3.82,3.82,0,0,0,.6-2.17,3.16,3.16,0,0,0-.81-2.32,3.1,3.1,0,0,0-2.3-.81,3.5,3.5,0,0,0-2.21.71,2.46,2.46,0,0,0-.91,2.07h-2.68l0-.09a4.43,4.43,0,0,1,1.62-3.68,6.38,6.38,0,0,1,4.23-1.38,6.19,6.19,0,0,1,4.36,1.43,5.17,5.17,0,0,1,1.55,4,6,6,0,0,1-1,3.36,18.77,18.77,0,0,1-2.66,3.12,3.35,3.35,0,0,0-.93,1.38,8.06,8.06,0,0,0-.16,1.91Zm2.91,5.84h-2.94v-3h2.94Z"/><path class="cls-18" d="M266.4,116.62V221.5A24.47,24.47,0,0,1,242,245.9H72.45a25.57,25.57,0,0,0,4.31,21.93A25.63,25.63,0,0,1,48.12,245.9h-9.5a24.47,24.47,0,0,1-24.4-24.4V39.15a24.47,24.47,0,0,1,24.4-24.4h159.6"/><path class="cls-18" d="M233.61,14.75H242a24.47,24.47,0,0,1,24.4,24.4V81.6"/><line class="cls-18" x1="212.87" y1="14.75" x2="219.89" y2="14.75"/><path class="cls-19" d="M575.62,139.4V122.23a24.47,24.47,0,0,0-24.4-24.4h-30"/><line class="cls-19" x1="575.62" y1="169.75" x2="575.62" y2="150.43"/><path class="cls-19" d="M502.26,97.83H313.78a24.47,24.47,0,0,0-24.4,24.4V231.62a24.47,24.47,0,0,0,24.4,24.4H517.39a25.57,25.57,0,0,1-4.31,21.93A25.63,25.63,0,0,0,541.72,256h9.5a24.47,24.47,0,0,0,24.4-24.4V186.91"/><path class="cls-20" d="M1135.05,103.53H961.38a24.47,24.47,0,0,0-24.4,24.4v92.36a24.47,24.47,0,0,0,24.4,24.4h169.55a25.57,25.57,0,0,1-4.31,21.93,25.63,25.63,0,0,0,28.65-21.93h43.55a24.47,24.47,0,0,0,24.4-24.4v-77"/><path class="cls-20" d="M1210.24,106.38a24.18,24.18,0,0,0-11.42-2.85h-37.31"/></g></svg>