<svg xmlns="http://www.w3.org/2000/svg" viewBox="0 0 542.67 369.38"><defs><style>.cls-1{fill:#fff;}.cls-10,.cls-11,.cls-12,.cls-2,.cls-4,.cls-6,.cls-7{fill:none;stroke-miterlimit:10;}.cls-10,.cls-2{stroke:#a66ace;}.cls-10,.cls-11,.cls-12,.cls-2,.cls-4,.cls-6{stroke-linecap:round;}.cls-12,.cls-2{stroke-width:5px;}.cls-3{fill:#faaf40;}.cls-4{stroke:#fff;stroke-width:3.74px;}.cls-5{fill:#cc6f00;}.cls-6{stroke:#cc6f00;}.cls-10,.cls-6{stroke-width:5.61px;}.cls-12,.cls-7{stroke:#faaf40;}.cls-11,.cls-7{stroke-width:14.96px;}.cls-8{fill:#c7add3;}.cls-9{fill:#a66ace;}.cls-11{stroke:#c7add3;}</style></defs><title>chars2</title><g id="Layer_3" data-name="Layer 3"><path class="cls-1" d="M7,94.41v-69A18.81,18.81,0,0,1,25.76,6.62H267.12a18.81,18.81,0,0,1,18.75,18.75v95.18a18.81,18.81,0,0,1-18.75,18.75H51.77a19.66,19.66,0,0,0,3.32,16.86,19.7,19.7,0,0,1-22-16.86H25.76A18.81,18.81,0,0,1,7,120.56V94.41Z"/><line class="cls-2" x1="225.84" y1="6.62" x2="233.09" y2="6.62"/><path class="cls-2" d="M285.87,51.85v68.71a18.81,18.81,0,0,1-18.75,18.75H51.77a19.66,19.66,0,0,0,3.32,16.86,19.7,19.7,0,0,1-22-16.86H25.76A18.81,18.81,0,0,1,7,120.56V25.38A18.81,18.81,0,0,1,25.76,6.62H211.35"/><path class="cls-2" d="M248.68,6.62h18.44a18.81,18.81,0,0,1,18.75,18.75V40.51"/><path class="cls-1" d="M535.67,96.32V51.47a18.81,18.81,0,0,0-18.75-18.75H334.38a18.81,18.81,0,0,0-18.75,18.75v71a18.81,18.81,0,0,0,18.75,18.75H464.72a19.66,19.66,0,0,1-3.32,16.86,19.7,19.7,0,0,0,22-16.86h33.48a18.81,18.81,0,0,0,18.75-18.75V96.32Z"/><circle class="cls-3" cx="382.93" cy="239.01" r="82.37"/><path class="cls-4" d="M459,251.54a76.74,76.74,0,0,1-15.42,35"/><path class="cls-4" d="M454.13,209.49a77.24,77.24,0,0,1,4.86,42"/><path class="cls-4" d="M438.09,185.23a77.32,77.32,0,0,1,16,24.26"/><circle class="cls-1" cx="360.6" cy="235.07" r="14.95"/><circle class="cls-1" cx="405.47" cy="235.07" r="14.95"/><circle class="cls-5" cx="383.04" cy="251.2" r="4.91"/><path class="cls-6" d="M392.33,259.23a9.29,9.29,0,1,1-18.58,0"/><circle cx="360.6" cy="235.07" r="7.77"/><circle cx="405.47" cy="235.07" r="7.77"/><line class="cls-7" x1="363.08" y1="293.06" x2="356.07" y2="345.36"/><path class="cls-5" d="M369.33,364.2c0-.26,0-.51,0-.76s0-.5,0-.76V351.93a13.13,13.13,0,0,0-13.09-13.09H353a13.13,13.13,0,0,0-13,11.92h-.82a13.48,13.48,0,0,0-13.44,13.44,13.31,13.31,0,0,0,1,5.18h41.55A13.31,13.31,0,0,0,369.33,364.2Z"/><line class="cls-7" x1="402.99" y1="293.06" x2="410" y2="345.36"/><path class="cls-5" d="M396.74,364.2c0-.26,0-.51,0-.76s0-.5,0-.76V351.93a13.13,13.13,0,0,1,13.09-13.09h3.27a13.13,13.13,0,0,1,13,11.92h.82a13.48,13.48,0,0,1,13.44,13.44,13.31,13.31,0,0,1-1,5.18H397.79A13.31,13.31,0,0,1,396.74,364.2Z"/><path class="cls-4" d="M382.93,161.94A76.63,76.63,0,0,1,426,175.12"/><path class="cls-8" d="M275.06,226.76c-2-36.64-29.27-66.16-65-69.67-18.82-1.85-32.4,2.11-42.36,9.77-10-7.66-23.54-11.63-42.36-9.77-35.7,3.51-63,33-65,69.67-2.29,42.06,36.12,61.15,75.69,74.62,22.86,7.78,31,19,31.65,20h0c.65-.95,8.79-12.21,31.65-20C238.95,287.91,277.35,268.82,275.06,226.76Z"/><circle class="cls-1" cx="145.29" cy="235.07" r="14.95"/><circle class="cls-1" cx="190.16" cy="235.07" r="14.95"/><circle class="cls-9" cx="167.72" cy="251.2" r="4.91"/><path class="cls-10" d="M177,259.23a9.29,9.29,0,0,1-18.58,0"/><circle cx="145.29" cy="235.07" r="7.77"/><circle cx="190.16" cy="235.07" r="7.77"/><line class="cls-11" x1="147.77" y1="293.06" x2="140.76" y2="345.36"/><path class="cls-9" d="M154,364.2c0-.26,0-.51,0-.76s0-.5,0-.76V351.93a13.13,13.13,0,0,0-13.09-13.09h-3.27a13.13,13.13,0,0,0-13,11.92h-.82a13.48,13.48,0,0,0-13.44,13.44,13.31,13.31,0,0,0,1,5.18H153A13.31,13.31,0,0,0,154,364.2Z"/><line class="cls-11" x1="187.68" y1="293.06" x2="194.69" y2="345.36"/><path class="cls-9" d="M181.43,364.2c0-.26,0-.51,0-.76s0-.5,0-.76V351.93a13.13,13.13,0,0,1,13.09-13.09h3.27a13.13,13.13,0,0,1,13,11.92h.82a13.48,13.48,0,0,1,13.44,13.44,13.31,13.31,0,0,1-1,5.18H182.47A13.31,13.31,0,0,1,181.43,364.2Z"/><path class="cls-4" d="M269.36,237.67c-3.28,23.48-22.25,38-46.25,48.86"/><path class="cls-4" d="M231.31,168.38a67.34,67.34,0,0,1,33.79,36.75"/><path class="cls-4" d="M209.57,162.36a66,66,0,0,1,12,2.31"/><path class="cls-4" d="M181.15,165.33a55,55,0,0,1,20.08-3.39"/><path class="cls-12" d="M489.67,32.71H334.38a18.81,18.81,0,0,0-18.75,18.75v71a18.81,18.81,0,0,0,18.75,18.75H464.72a19.66,19.66,0,0,1-3.32,16.86,19.7,19.7,0,0,0,22-16.86h33.48a18.81,18.81,0,0,0,18.75-18.75V96.32"/><path class="cls-12" d="M535.67,84.55V51.47a18.81,18.81,0,0,0-18.75-18.75H507"/><path d="M48.26,52.6H46.09v-16h2.17Z"/><path d="M58.81,49.45a1.47,1.47,0,0,0-.54-1.17,5.1,5.1,0,0,0-2.05-.8A8.63,8.63,0,0,1,53,46.2,2.58,2.58,0,0,1,51.87,44a3.09,3.09,0,0,1,1.23-2.46,5.59,5.59,0,0,1,6.49,0,3.14,3.14,0,0,1,1.17,2.58l0,.07H58.67a1.89,1.89,0,0,0-.65-1.4,2.4,2.4,0,0,0-1.73-.62,2.49,2.49,0,0,0-1.71.5A1.58,1.58,0,0,0,54,43.95a1.36,1.36,0,0,0,.49,1.11,5.11,5.11,0,0,0,2,.72,8.63,8.63,0,0,1,3.34,1.31A2.64,2.64,0,0,1,61,49.3a3.06,3.06,0,0,1-1.28,2.55,5.34,5.34,0,0,1-3.33,1,5.21,5.21,0,0,1-3.57-1.15A3.28,3.28,0,0,1,51.54,49l0-.07h2.06a2,2,0,0,0,.85,1.67,3.33,3.33,0,0,0,1.87.53,3.05,3.05,0,0,0,1.8-.47A1.44,1.44,0,0,0,58.81,49.45Z"/><path d="M72.07,37.89v2.86h2.25v1.6H72.07v7.2a1.61,1.61,0,0,0,.34,1.17,1.25,1.25,0,0,0,.92.34,2.16,2.16,0,0,0,.41,0,2.42,2.42,0,0,0,.4-.11l.29,1.48a1.92,1.92,0,0,1-.71.32,3.61,3.61,0,0,1-.94.13A2.79,2.79,0,0,1,70.69,52a3.45,3.45,0,0,1-.78-2.49v-7.2H68v-1.6h1.88V37.89Z"/><path d="M79.14,42.34A4.36,4.36,0,0,1,80.64,41a4.12,4.12,0,0,1,2-.48,3.83,3.83,0,0,1,3,1.14,5,5,0,0,1,1.06,3.51V52.6H84.47V45.15A3.17,3.17,0,0,0,83.84,43a2.4,2.4,0,0,0-1.88-.7,3.19,3.19,0,0,0-1.63.42,3.52,3.52,0,0,0-1.2,1.15V52.6H77V35.51h2.16Z"/><path d="M97,52.6c-.07-.36-.13-.67-.17-.95a7.11,7.11,0,0,1-.07-.83,5,5,0,0,1-1.57,1.43,4,4,0,0,1-2.09.58,3.88,3.88,0,0,1-2.82-.95,3.48,3.48,0,0,1-1-2.61,3.06,3.06,0,0,1,1.38-2.66,6.42,6.42,0,0,1,3.73-1h2.34V44.48a2.18,2.18,0,0,0-.63-1.65,2.5,2.5,0,0,0-1.8-.61,2.59,2.59,0,0,0-1.69.53A1.6,1.6,0,0,0,92,44H89.94l0-.07a2.87,2.87,0,0,1,1.22-2.37,5,5,0,0,1,3.32-1.07,4.89,4.89,0,0,1,3.24,1,3.63,3.63,0,0,1,1.23,3v5.71A11.09,11.09,0,0,0,99,51.44a6.37,6.37,0,0,0,.24,1.16ZM93.43,51a3.85,3.85,0,0,0,2.11-.6A2.86,2.86,0,0,0,96.78,49V47.11H94.35a3.15,3.15,0,0,0-2.09.66,2,2,0,0,0-.78,1.54A1.62,1.62,0,0,0,92,50.55,2.07,2.07,0,0,0,93.43,51Z"/><path d="M104.92,37.89v2.86h2.25v1.6h-2.25v7.2a1.61,1.61,0,0,0,.34,1.17,1.25,1.25,0,0,0,.92.34,2.16,2.16,0,0,0,.41,0,2.42,2.42,0,0,0,.4-.11l.29,1.48a1.92,1.92,0,0,1-.71.32,3.61,3.61,0,0,1-.94.13,2.79,2.79,0,0,1-2.09-.79,3.45,3.45,0,0,1-.78-2.49v-7.2h-1.88v-1.6h1.88V37.89Z"/><path d="M114.91,46.89a7.91,7.91,0,0,1,1.22-4.61,3.94,3.94,0,0,1,3.42-1.75,4.26,4.26,0,0,1,1.85.38A3.79,3.79,0,0,1,122.77,42V35.51h2.16V52.6h-1.76l-.25-1.46a3.85,3.85,0,0,1-1.42,1.26,4.28,4.28,0,0,1-2,.43,4.07,4.07,0,0,1-3.4-1.57,6.53,6.53,0,0,1-1.23-4.14Zm2.16.23A5,5,0,0,0,117.8,50a2.56,2.56,0,0,0,2.28,1.08,2.86,2.86,0,0,0,1.62-.44,3.28,3.28,0,0,0,1.07-1.23V43.88a3.32,3.32,0,0,0-1.08-1.17,2.85,2.85,0,0,0-1.59-.43,2.47,2.47,0,0,0-2.29,1.28,6.61,6.61,0,0,0-.74,3.33Z"/><path d="M127.65,46.57a6.52,6.52,0,0,1,1.42-4.33,4.77,4.77,0,0,1,3.87-1.7,4.82,4.82,0,0,1,3.9,1.7,6.51,6.51,0,0,1,1.43,4.34v.24a6.49,6.49,0,0,1-1.42,4.34,5.3,5.3,0,0,1-7.76,0,6.48,6.48,0,0,1-1.43-4.33Zm2.16.24a5.61,5.61,0,0,0,.79,3.11,2.87,2.87,0,0,0,4.71,0,5.59,5.59,0,0,0,.8-3.11v-.24a5.56,5.56,0,0,0-.81-3.1,2.64,2.64,0,0,0-2.36-1.24,2.61,2.61,0,0,0-2.34,1.24,5.62,5.62,0,0,0-.79,3.1Z"/><path d="M145.72,51.13a2.91,2.91,0,0,0,1.89-.66,2,2,0,0,0,.82-1.63h1.94l0,.07A3.34,3.34,0,0,1,149,51.64a5,5,0,0,1-3.3,1.19,4.8,4.8,0,0,1-4-1.69,6.51,6.51,0,0,1-1.37-4.24v-.46a6.48,6.48,0,0,1,1.38-4.22,5.4,5.4,0,0,1,7.35-.47,3.82,3.82,0,0,1,1.28,3l0,.07h-2a2.51,2.51,0,0,0-.77-1.85,2.64,2.64,0,0,0-1.94-.76,2.6,2.6,0,0,0-2.43,1.22,5.74,5.74,0,0,0-.73,3v.46a5.81,5.81,0,0,0,.72,3A2.6,2.6,0,0,0,145.72,51.13Z"/><path d="M155.66,37.89v2.86h2.25v1.6h-2.25v7.2a1.61,1.61,0,0,0,.34,1.17,1.25,1.25,0,0,0,.92.34,2.16,2.16,0,0,0,.41,0,2.42,2.42,0,0,0,.4-.11l.29,1.48a1.92,1.92,0,0,1-.71.32,3.61,3.61,0,0,1-.94.13,2.79,2.79,0,0,1-2.09-.79,3.45,3.45,0,0,1-.78-2.49v-7.2h-1.88v-1.6h1.88V37.89Z"/><path d="M160.06,46.57a6.52,6.52,0,0,1,1.42-4.33,4.77,4.77,0,0,1,3.87-1.7,4.82,4.82,0,0,1,3.9,1.7,6.51,6.51,0,0,1,1.43,4.34v.24a6.49,6.49,0,0,1-1.42,4.34,5.3,5.3,0,0,1-7.76,0,6.48,6.48,0,0,1-1.43-4.33Zm2.16.24a5.61,5.61,0,0,0,.79,3.11,2.87,2.87,0,0,0,4.71,0,5.59,5.59,0,0,0,.8-3.11v-.24a5.56,5.56,0,0,0-.81-3.1,2.64,2.64,0,0,0-2.36-1.24A2.61,2.61,0,0,0,163,43.46a5.62,5.62,0,0,0-.79,3.1Z"/><path d="M178.93,42.65l-1.11-.07a2.47,2.47,0,0,0-1.44.41,2.6,2.6,0,0,0-.9,1.14V52.6h-2.16V40.75h1.93l.21,1.73A4.11,4.11,0,0,1,176.7,41a2.9,2.9,0,0,1,1.7-.51,2.69,2.69,0,0,1,.46,0l.36.08Z"/><path d="M46.47,79.53V69.27H44.62v-1.6h1.85v-1.5a4.07,4.07,0,0,1,1-2.93,3.65,3.65,0,0,1,2.77-1,4.77,4.77,0,0,1,.75.06q.38.06.84.17l-.26,1.64L51.08,64a5.1,5.1,0,0,0-.59,0,1.7,1.7,0,0,0-1.4.56,2.54,2.54,0,0,0-.46,1.64v1.5h2.46v1.6H48.63V79.53Z"/><path d="M60.6,79.53c-.07-.36-.13-.67-.17-.95a7.11,7.11,0,0,1-.07-.83,5,5,0,0,1-1.57,1.43,4,4,0,0,1-2.09.58,3.88,3.88,0,0,1-2.82-.95,3.48,3.48,0,0,1-1-2.61,3.06,3.06,0,0,1,1.38-2.66,6.42,6.42,0,0,1,3.73-1h2.34V71.41a2.18,2.18,0,0,0-.63-1.65,2.5,2.5,0,0,0-1.8-.61,2.59,2.59,0,0,0-1.69.53A1.6,1.6,0,0,0,55.58,71H53.52l0-.07a2.87,2.87,0,0,1,1.22-2.37A5,5,0,0,1,58,67.45a4.89,4.89,0,0,1,3.24,1,3.63,3.63,0,0,1,1.23,3v5.71a11.09,11.09,0,0,0,.07,1.23,6.37,6.37,0,0,0,.24,1.16ZM57,77.94a3.85,3.85,0,0,0,2.11-.6A2.86,2.86,0,0,0,60.36,76V74H57.94a3.15,3.15,0,0,0-2.09.66,2,2,0,0,0-.78,1.54,1.62,1.62,0,0,0,.49,1.25A2.07,2.07,0,0,0,57,77.94Z"/><path d="M67.58,67.67l.15,1.56a4,4,0,0,1,1.47-1.31,4.44,4.44,0,0,1,2.08-.46,3.66,3.66,0,0,1,2,.55,3.32,3.32,0,0,1,1.28,1.64A4.4,4.4,0,0,1,76.07,68a3.89,3.89,0,0,1,2.15-.59,3.55,3.55,0,0,1,2.86,1.24,5.68,5.68,0,0,1,1.05,3.74v7.09H80V72.41a3.94,3.94,0,0,0-.6-2.48,2.19,2.19,0,0,0-1.8-.73,2.29,2.29,0,0,0-1.79.77,3.34,3.34,0,0,0-.8,1.94v7.61H72.81V72.41A3.89,3.89,0,0,0,72.19,70a2.15,2.15,0,0,0-1.78-.77,3,3,0,0,0-1.62.41,2.61,2.61,0,0,0-1,1.14v8.78H65.65V67.67Z"/><path d="M87.6,64.64H85.44v-2.2H87.6Zm0,14.89H85.44V67.67H87.6Z"/><path d="M93.25,79.53H91.09V62.44h2.16Z"/><path d="M98.9,64.64H96.74v-2.2H98.9Zm0,14.89H96.74V67.67H98.9Z"/><path d="M109.51,79.53c-.07-.36-.13-.67-.17-.95a7.11,7.11,0,0,1-.07-.83,5,5,0,0,1-1.57,1.43,4,4,0,0,1-2.09.58,3.88,3.88,0,0,1-2.82-.95,3.48,3.48,0,0,1-1-2.61,3.06,3.06,0,0,1,1.38-2.66,6.42,6.42,0,0,1,3.73-1h2.34V71.41a2.18,2.18,0,0,0-.63-1.65,2.5,2.5,0,0,0-1.8-.61,2.59,2.59,0,0,0-1.69.53,1.6,1.6,0,0,0-.65,1.28h-2.06l0-.07a2.87,2.87,0,0,1,1.22-2.37A5,5,0,0,1,107,67.45a4.89,4.89,0,0,1,3.24,1,3.63,3.63,0,0,1,1.23,3v5.71a11.09,11.09,0,0,0,.07,1.23,6.37,6.37,0,0,0,.24,1.16Zm-3.58-1.59a3.85,3.85,0,0,0,2.11-.6A2.86,2.86,0,0,0,109.26,76V74h-2.42a3.15,3.15,0,0,0-2.09.66,2,2,0,0,0-.78,1.54,1.62,1.62,0,0,0,.49,1.25A2.07,2.07,0,0,0,105.92,77.94Z"/><path d="M120.17,69.58l-1.11-.07a2.47,2.47,0,0,0-1.44.41,2.6,2.6,0,0,0-.9,1.14v8.47h-2.16V67.67h1.93l.21,1.73A4.11,4.11,0,0,1,117.94,68a2.9,2.9,0,0,1,1.7-.51,2.69,2.69,0,0,1,.46,0l.36.08Z"/><path d="M130.86,75.21l.25,1.44h.07l.31-1.44,2.37-7.54h1.73L138,75.21l.34,1.6h.07l.32-1.6,1.86-7.54h2.15l-3.44,11.85h-1.74l-2.29-7.22-.49-2h-.07l-.47,2-2.26,7.22h-1.74l-3.44-11.85h2.15Z"/><path d="M147.14,64.64H145v-2.2h2.16Zm0,14.89H145V67.67h2.16Z"/><path d="M153.31,64.81v2.86h2.25v1.6h-2.25v7.2a1.61,1.61,0,0,0,.34,1.17,1.25,1.25,0,0,0,.92.34,2.16,2.16,0,0,0,.41,0,2.42,2.42,0,0,0,.4-.11l.29,1.48a1.92,1.92,0,0,1-.71.32,3.61,3.61,0,0,1-.94.13,2.79,2.79,0,0,1-2.09-.79,3.45,3.45,0,0,1-.78-2.49v-7.2h-1.88v-1.6h1.88V64.81Z"/><path d="M160.37,69.26a4.36,4.36,0,0,1,1.51-1.33,4.12,4.12,0,0,1,2-.48,3.83,3.83,0,0,1,3,1.14,5,5,0,0,1,1.06,3.51v7.43h-2.16V72.08a3.17,3.17,0,0,0-.63-2.17,2.4,2.4,0,0,0-1.88-.7,3.19,3.19,0,0,0-1.63.42,3.52,3.52,0,0,0-1.2,1.15v8.75h-2.16V62.44h2.16Z"/><path d="M47.73,96.18a4.36,4.36,0,0,1,1.51-1.33,4.12,4.12,0,0,1,2-.48,3.83,3.83,0,0,1,3,1.14A5,5,0,0,1,55.22,99v7.43H53.06V99a3.17,3.17,0,0,0-.63-2.17,2.4,2.4,0,0,0-1.88-.7,3.19,3.19,0,0,0-1.63.42,3.52,3.52,0,0,0-1.2,1.15v8.75H45.57V89.36h2.16Z"/><path d="M63.24,106.68A5,5,0,0,1,59.3,105a6.21,6.21,0,0,1-1.46-4.28v-.48a6.08,6.08,0,0,1,1.51-4.21,4.64,4.64,0,0,1,3.57-1.68,4.49,4.49,0,0,1,3.63,1.45,5.77,5.77,0,0,1,1.23,3.86V101H60.08l0,.05a4.67,4.67,0,0,0,.87,2.8,2.76,2.76,0,0,0,2.33,1.1,5.43,5.43,0,0,0,1.92-.31,4.43,4.43,0,0,0,1.43-.86l.84,1.4a5,5,0,0,1-1.68,1A6.73,6.73,0,0,1,63.24,106.68Zm-.33-10.61a2.34,2.34,0,0,0-1.85.91,4.3,4.3,0,0,0-.94,2.29l0,.05h5.47V99a3.29,3.29,0,0,0-.68-2.12A2.42,2.42,0,0,0,62.91,96.07Z"/><path d="M77.47,106.45c-.07-.36-.13-.67-.17-.95a7.11,7.11,0,0,1-.07-.83,5,5,0,0,1-1.57,1.43,4,4,0,0,1-2.09.58,3.88,3.88,0,0,1-2.82-.95,3.48,3.48,0,0,1-1-2.61,3.06,3.06,0,0,1,1.38-2.66,6.42,6.42,0,0,1,3.73-1h2.34V98.33a2.18,2.18,0,0,0-.63-1.65,2.5,2.5,0,0,0-1.8-.61,2.59,2.59,0,0,0-1.69.53,1.6,1.6,0,0,0-.65,1.28H70.4l0-.07a2.87,2.87,0,0,1,1.22-2.37,5,5,0,0,1,3.32-1.07,4.89,4.89,0,0,1,3.24,1,3.63,3.63,0,0,1,1.23,3v5.71a11.09,11.09,0,0,0,.07,1.23,6.37,6.37,0,0,0,.24,1.16Zm-3.58-1.59a3.85,3.85,0,0,0,2.11-.6,2.86,2.86,0,0,0,1.23-1.38V101H74.81a3.15,3.15,0,0,0-2.09.66,2,2,0,0,0-.78,1.54,1.62,1.62,0,0,0,.49,1.25A2.07,2.07,0,0,0,73.89,104.86Z"/><path d="M84.86,106.45H82.7V89.36h2.16Z"/><path d="M91,91.74v2.86h2.25v1.6H91v7.2a1.61,1.61,0,0,0,.34,1.17,1.25,1.25,0,0,0,.92.34,2.16,2.16,0,0,0,.41,0,2.42,2.42,0,0,0,.4-.11l.29,1.48a1.92,1.92,0,0,1-.71.32,3.61,3.61,0,0,1-.94.13,2.79,2.79,0,0,1-2.09-.79,3.45,3.45,0,0,1-.78-2.49v-7.2H87v-1.6h1.88V91.74Z"/><path d="M98.09,96.18a4.36,4.36,0,0,1,1.51-1.33,4.12,4.12,0,0,1,2-.48,3.83,3.83,0,0,1,3,1.14A5,5,0,0,1,105.58,99v7.43h-2.16V99a3.17,3.17,0,0,0-.63-2.17,2.4,2.4,0,0,0-1.88-.7,3.19,3.19,0,0,0-1.63.42,3.52,3.52,0,0,0-1.2,1.15v8.75H95.93V89.36h2.16Z"/><path d="M121.55,106.45c-.07-.36-.13-.67-.17-.95a7.11,7.11,0,0,1-.07-.83,5,5,0,0,1-1.57,1.43,4,4,0,0,1-2.09.58,3.88,3.88,0,0,1-2.82-.95,3.48,3.48,0,0,1-1-2.61,3.06,3.06,0,0,1,1.38-2.66,6.42,6.42,0,0,1,3.73-1h2.34V98.33a2.18,2.18,0,0,0-.63-1.65,2.5,2.5,0,0,0-1.8-.61,2.59,2.59,0,0,0-1.69.53,1.6,1.6,0,0,0-.65,1.28h-2.06l0-.07a2.87,2.87,0,0,1,1.22-2.37A5,5,0,0,1,119,94.38a4.89,4.89,0,0,1,3.24,1,3.63,3.63,0,0,1,1.23,3v5.71a11.09,11.09,0,0,0,.07,1.23,6.37,6.37,0,0,0,.24,1.16ZM118,104.86a3.85,3.85,0,0,0,2.11-.6,2.86,2.86,0,0,0,1.23-1.38V101h-2.42a3.15,3.15,0,0,0-2.09.66,2,2,0,0,0-.78,1.54,1.62,1.62,0,0,0,.49,1.25A2.07,2.07,0,0,0,118,104.86Z"/><path d="M129.44,91.74v2.86h2.25v1.6h-2.25v7.2a1.61,1.61,0,0,0,.34,1.17,1.25,1.25,0,0,0,.92.34,2.16,2.16,0,0,0,.41,0,2.42,2.42,0,0,0,.4-.11l.29,1.48a1.92,1.92,0,0,1-.71.32,3.61,3.61,0,0,1-.94.13,2.79,2.79,0,0,1-2.09-.79,3.45,3.45,0,0,1-.78-2.49v-7.2H125.4v-1.6h1.88V91.74Z"/><path d="M144.85,106.68a5,5,0,0,1-3.94-1.65,6.21,6.21,0,0,1-1.46-4.28v-.48A6.08,6.08,0,0,1,141,96.06a4.64,4.64,0,0,1,3.57-1.68,4.49,4.49,0,0,1,3.63,1.45,5.77,5.77,0,0,1,1.23,3.86V101h-7.69l0,.05a4.67,4.67,0,0,0,.87,2.8,2.76,2.76,0,0,0,2.33,1.1,5.43,5.43,0,0,0,1.92-.31,4.43,4.43,0,0,0,1.43-.86l.84,1.4a5,5,0,0,1-1.68,1A6.73,6.73,0,0,1,144.85,106.68Zm-.33-10.61a2.34,2.34,0,0,0-1.85.91,4.3,4.3,0,0,0-.94,2.29l0,.05h5.47V99a3.29,3.29,0,0,0-.68-2.12A2.42,2.42,0,0,0,144.52,96.07Z"/><path d="M155.6,103l.19.83h.07l.21-.83,2.73-8.36H161l-4.36,11.85H155l-4.42-11.85h2.21Z"/><path d="M167.71,106.68a5,5,0,0,1-3.94-1.65,6.21,6.21,0,0,1-1.46-4.28v-.48a6.08,6.08,0,0,1,1.51-4.21,4.64,4.64,0,0,1,3.57-1.68A4.49,4.49,0,0,1,171,95.82a5.77,5.77,0,0,1,1.23,3.86V101h-7.69l0,.05a4.67,4.67,0,0,0,.87,2.8,2.76,2.76,0,0,0,2.33,1.1,5.43,5.43,0,0,0,1.92-.31,4.43,4.43,0,0,0,1.43-.86l.84,1.4a5,5,0,0,1-1.68,1A6.73,6.73,0,0,1,167.71,106.68Zm-.33-10.61a2.34,2.34,0,0,0-1.85.91,4.3,4.3,0,0,0-.94,2.29l0,.05h5.47V99a3.29,3.29,0,0,0-.68-2.12A2.42,2.42,0,0,0,167.38,96.07Z"/><path d="M180.26,96.5l-1.11-.07a2.47,2.47,0,0,0-1.44.41,2.6,2.6,0,0,0-.9,1.14v8.47h-2.16V94.59h1.93l.21,1.73A4.11,4.11,0,0,1,178,94.89a2.9,2.9,0,0,1,1.7-.51,2.69,2.69,0,0,1,.46,0l.36.08Z"/><path d="M186.17,102.06l.38,1.49h.07l2.91-9h2.4l-5,13.67a6.16,6.16,0,0,1-1.29,2.08,3,3,0,0,1-2.26.89,4.71,4.71,0,0,1-.67-.06l-.62-.12.22-1.7.39,0,.58,0a1.33,1.33,0,0,0,1.13-.61,6.35,6.35,0,0,0,.73-1.36l.51-1.24-4.4-11.61h2.41Z"/><path d="M206.29,103.29a1.47,1.47,0,0,0-.54-1.17,5.1,5.1,0,0,0-2.05-.8,8.63,8.63,0,0,1-3.25-1.27,2.58,2.58,0,0,1-1.09-2.19,3.09,3.09,0,0,1,1.23-2.46,5.59,5.59,0,0,1,6.49,0A3.14,3.14,0,0,1,208.24,98l0,.07h-2.06a1.89,1.89,0,0,0-.65-1.4,2.4,2.4,0,0,0-1.73-.62,2.49,2.49,0,0,0-1.71.5,1.58,1.58,0,0,0-.56,1.22A1.36,1.36,0,0,0,202,98.9a5.11,5.11,0,0,0,2,.72,8.63,8.63,0,0,1,3.34,1.31,2.64,2.64,0,0,1,1.09,2.22,3.06,3.06,0,0,1-1.28,2.55,5.34,5.34,0,0,1-3.33,1,5.21,5.21,0,0,1-3.57-1.15,3.28,3.28,0,0,1-1.24-2.68l0-.07h2.06a2,2,0,0,0,.85,1.67,3.33,3.33,0,0,0,1.87.53,3.05,3.05,0,0,0,1.8-.47A1.44,1.44,0,0,0,206.29,103.29Z"/><path d="M213.47,91.56h-2.16v-2.2h2.16Zm0,14.89h-2.16V94.59h2.16Z"/><path d="M218.83,104.75h6.85v1.7h-9.42v-1.52l6.41-8.63h-6.33v-1.7h9v1.46Z"/><path d="M232.82,106.68a5,5,0,0,1-3.94-1.65,6.21,6.21,0,0,1-1.46-4.28v-.48a6.08,6.08,0,0,1,1.51-4.21,4.64,4.64,0,0,1,3.57-1.68,4.49,4.49,0,0,1,3.63,1.45,5.77,5.77,0,0,1,1.23,3.86V101h-7.69l0,.05a4.67,4.67,0,0,0,.87,2.8,2.76,2.76,0,0,0,2.33,1.1,5.43,5.43,0,0,0,1.92-.31,4.43,4.43,0,0,0,1.43-.86l.84,1.4a5,5,0,0,1-1.68,1A6.73,6.73,0,0,1,232.82,106.68Zm-.33-10.61a2.34,2.34,0,0,0-1.85.91,4.3,4.3,0,0,0-.94,2.29l0,.05h5.47V99a3.29,3.29,0,0,0-.68-2.12A2.42,2.42,0,0,0,232.49,96.07Z"/><path d="M242.08,102a6.4,6.4,0,0,1,.27-2.2,5.57,5.57,0,0,1,1.38-1.62,23.94,23.94,0,0,0,1.54-2,2.93,2.93,0,0,0,.46-1.67,2.43,2.43,0,0,0-.62-1.79,2.38,2.38,0,0,0-1.77-.62,2.69,2.69,0,0,0-1.7.54,1.89,1.89,0,0,0-.7,1.59H238.9l0-.07a3.4,3.4,0,0,1,1.24-2.83,4.91,4.91,0,0,1,3.25-1.06,4.76,4.76,0,0,1,3.35,1.1,4,4,0,0,1,1.19,3.07,4.59,4.59,0,0,1-.77,2.58,14.34,14.34,0,0,1-2,2.4,2.58,2.58,0,0,0-.72,1.06,6.2,6.2,0,0,0-.13,1.47Zm2.24,4.49h-2.26v-2.28h2.26Z"/><path d="M343.2,66.6v-16h4.9A6.55,6.55,0,0,1,355,57.54v2.18a6.54,6.54,0,0,1-6.92,6.88Zm2.16-14.25V64.9h2.74a4.4,4.4,0,0,0,3.49-1.46,5.46,5.46,0,0,0,1.28-3.73v-2.2a5.42,5.42,0,0,0-1.28-3.71,4.4,4.4,0,0,0-3.49-1.46Z"/><path d="M357.07,60.57a6.52,6.52,0,0,1,1.42-4.33,4.77,4.77,0,0,1,3.87-1.7,4.82,4.82,0,0,1,3.89,1.7,6.51,6.51,0,0,1,1.43,4.34v.24a6.49,6.49,0,0,1-1.42,4.34,5.3,5.3,0,0,1-7.76,0,6.48,6.48,0,0,1-1.43-4.33Zm2.16.24a5.6,5.6,0,0,0,.79,3.11,2.87,2.87,0,0,0,4.71,0,5.58,5.58,0,0,0,.8-3.11v-.24a5.56,5.56,0,0,0-.81-3.1,2.64,2.64,0,0,0-2.36-1.24A2.6,2.6,0,0,0,360,57.46a5.61,5.61,0,0,0-.79,3.1Z"/><path d="M375.24,66.83a5,5,0,0,1-3.94-1.65,6.21,6.21,0,0,1-1.46-4.28v-.48a6.08,6.08,0,0,1,1.51-4.21,4.64,4.64,0,0,1,3.57-1.68A4.49,4.49,0,0,1,378.54,56a5.77,5.77,0,0,1,1.23,3.86v1.35h-7.69l0,.05a4.66,4.66,0,0,0,.87,2.8,2.76,2.76,0,0,0,2.33,1.1,5.43,5.43,0,0,0,1.92-.31A4.41,4.41,0,0,0,378.6,64l.84,1.4a5,5,0,0,1-1.68,1A6.74,6.74,0,0,1,375.24,66.83Zm-.33-10.61a2.34,2.34,0,0,0-1.85.91,4.31,4.31,0,0,0-.94,2.29l0,.05h5.47V59.2a3.29,3.29,0,0,0-.68-2.12A2.42,2.42,0,0,0,374.92,56.23Z"/><path d="M389.08,63.45a1.47,1.47,0,0,0-.54-1.17,5.1,5.1,0,0,0-2.05-.8,8.63,8.63,0,0,1-3.25-1.27A2.58,2.58,0,0,1,382.15,58a3.09,3.09,0,0,1,1.23-2.46,5.59,5.59,0,0,1,6.49,0A3.14,3.14,0,0,1,391,58.18l0,.07h-2.06a1.89,1.89,0,0,0-.65-1.4,2.41,2.41,0,0,0-1.73-.62,2.49,2.49,0,0,0-1.71.5,1.58,1.58,0,0,0-.56,1.22,1.36,1.36,0,0,0,.49,1.11,5.11,5.11,0,0,0,2,.72,8.63,8.63,0,0,1,3.34,1.31,2.64,2.64,0,0,1,1.1,2.22A3.06,3.06,0,0,1,390,65.86a5.35,5.35,0,0,1-3.34,1,5.21,5.21,0,0,1-3.57-1.15A3.28,3.28,0,0,1,381.82,63l0-.07h2.06a2,2,0,0,0,.85,1.67,3.33,3.33,0,0,0,1.87.53,3.05,3.05,0,0,0,1.8-.47A1.44,1.44,0,0,0,389.08,63.45Z"/><path d="M402.35,51.89v2.86h2.25v1.6h-2.25v7.2a1.61,1.61,0,0,0,.34,1.17,1.25,1.25,0,0,0,.92.34,2.15,2.15,0,0,0,.41,0,2.41,2.41,0,0,0,.4-.11l.29,1.48a1.92,1.92,0,0,1-.71.32,3.62,3.62,0,0,1-.94.13A2.79,2.79,0,0,1,401,66a3.45,3.45,0,0,1-.78-2.49v-7.2h-1.88v-1.6h1.88V51.89Z"/><path d="M409.41,56.34A4.36,4.36,0,0,1,410.92,55a4.12,4.12,0,0,1,2-.48,3.83,3.83,0,0,1,3,1.14,5,5,0,0,1,1.06,3.51V66.6h-2.16V59.15a3.17,3.17,0,0,0-.63-2.17,2.4,2.4,0,0,0-1.88-.7,3.19,3.19,0,0,0-1.63.42,3.52,3.52,0,0,0-1.2,1.15V66.6h-2.16V49.51h2.16Z"/><path d="M427.29,66.6c-.07-.36-.13-.67-.17-.95a6.7,6.7,0,0,1-.07-.83,5,5,0,0,1-1.57,1.43,4,4,0,0,1-2.09.58,3.88,3.88,0,0,1-2.82-.95,3.48,3.48,0,0,1-1-2.61A3.06,3.06,0,0,1,421,60.61a6.43,6.43,0,0,1,3.73-1h2.34V58.48a2.17,2.17,0,0,0-.64-1.65,2.5,2.5,0,0,0-1.8-.61,2.59,2.59,0,0,0-1.69.53,1.6,1.6,0,0,0-.65,1.28h-2.06l0-.07a2.87,2.87,0,0,1,1.22-2.37,5,5,0,0,1,3.33-1.07,4.89,4.89,0,0,1,3.24,1,3.63,3.63,0,0,1,1.23,3v5.71a11.09,11.09,0,0,0,.07,1.23,6.29,6.29,0,0,0,.24,1.16ZM423.71,65a3.85,3.85,0,0,0,2.11-.6A2.86,2.86,0,0,0,427.05,63V61.11h-2.42a3.15,3.15,0,0,0-2.09.66,2,2,0,0,0-.78,1.54,1.62,1.62,0,0,0,.49,1.25A2.07,2.07,0,0,0,423.71,65Z"/><path d="M435.19,51.89v2.86h2.25v1.6h-2.25v7.2a1.61,1.61,0,0,0,.34,1.17,1.25,1.25,0,0,0,.92.34,2.15,2.15,0,0,0,.41,0,2.41,2.41,0,0,0,.4-.11l.29,1.48a1.92,1.92,0,0,1-.71.32,3.62,3.62,0,0,1-.94.13,2.79,2.79,0,0,1-2.09-.79,3.45,3.45,0,0,1-.78-2.49v-7.2h-1.88v-1.6H433V51.89Z"/><path d="M449.63,63.11l.19.83h.07l.21-.83,2.73-8.36H455L450.66,66.6H449l-4.42-11.85h2.21Z"/><path d="M461.74,66.83a5,5,0,0,1-3.94-1.65,6.21,6.21,0,0,1-1.46-4.28v-.48a6.07,6.07,0,0,1,1.51-4.21,4.64,4.64,0,0,1,3.57-1.68A4.49,4.49,0,0,1,465,56a5.76,5.76,0,0,1,1.23,3.86v1.35h-7.69l0,.05a4.67,4.67,0,0,0,.87,2.8,2.76,2.76,0,0,0,2.33,1.1,5.43,5.43,0,0,0,1.92-.31,4.43,4.43,0,0,0,1.43-.86l.84,1.4a5,5,0,0,1-1.68,1A6.73,6.73,0,0,1,461.74,66.83Zm-.33-10.61a2.34,2.34,0,0,0-1.85.91,4.31,4.31,0,0,0-.94,2.29l0,.05h5.47V59.2a3.29,3.29,0,0,0-.68-2.12A2.42,2.42,0,0,0,461.41,56.23Z"/><path d="M470.61,54.75l.15,1.76A4.3,4.3,0,0,1,472.25,55a4,4,0,0,1,2-.52,3.87,3.87,0,0,1,3,1.12,4.93,4.93,0,0,1,1.05,3.47V66.6h-2.16V59.16a3.2,3.2,0,0,0-.62-2.22,2.48,2.48,0,0,0-1.89-.66,3,3,0,0,0-1.65.45A3.28,3.28,0,0,0,470.84,58V66.6h-2.16V54.75Z"/><path d="M489,64.85a4,4,0,0,1-1.44,1.47,3.92,3.92,0,0,1-2,.52,3.81,3.81,0,0,1-3-1.24,5.75,5.75,0,0,1-1.08-3.86v-7h2.16v7a4.42,4.42,0,0,0,.56,2.61,2.08,2.08,0,0,0,1.74.71,3.55,3.55,0,0,0,1.9-.47,2.91,2.91,0,0,0,1.13-1.32V54.75H491V66.6H489.1Z"/><path d="M499.1,66.83a5,5,0,0,1-3.94-1.65,6.21,6.21,0,0,1-1.46-4.28v-.48a6.08,6.08,0,0,1,1.51-4.21,4.64,4.64,0,0,1,3.57-1.68A4.49,4.49,0,0,1,502.4,56a5.77,5.77,0,0,1,1.23,3.86v1.35h-7.69l0,.05a4.67,4.67,0,0,0,.87,2.8,2.76,2.76,0,0,0,2.33,1.1,5.43,5.43,0,0,0,1.92-.31,4.43,4.43,0,0,0,1.43-.86l.84,1.4a5,5,0,0,1-1.68,1A6.73,6.73,0,0,1,499.1,66.83Zm-.33-10.61a2.34,2.34,0,0,0-1.85.91,4.3,4.3,0,0,0-.94,2.29l0,.05h5.47V59.2a3.29,3.29,0,0,0-.68-2.12A2.42,2.42,0,0,0,498.77,56.23Z"/><path d="M345,83.26a4.36,4.36,0,0,1,1.51-1.33,4.12,4.12,0,0,1,2-.48,3.83,3.83,0,0,1,3,1.14,5,5,0,0,1,1.06,3.51v7.43h-2.16V86.08a3.17,3.17,0,0,0-.63-2.17,2.4,2.4,0,0,0-1.88-.7,3.19,3.19,0,0,0-1.63.42,3.52,3.52,0,0,0-1.2,1.15v8.75H342.8V76.44H345Z"/><path d="M362.83,93.53c-.07-.36-.13-.67-.17-.95a6.7,6.7,0,0,1-.07-.83A5,5,0,0,1,361,93.18a4,4,0,0,1-2.09.58,3.88,3.88,0,0,1-2.82-.95,3.48,3.48,0,0,1-1-2.61,3.06,3.06,0,0,1,1.38-2.66,6.43,6.43,0,0,1,3.73-1h2.34V85.41a2.17,2.17,0,0,0-.64-1.65,2.5,2.5,0,0,0-1.8-.61,2.59,2.59,0,0,0-1.69.53,1.6,1.6,0,0,0-.65,1.28h-2.06l0-.07A2.87,2.87,0,0,1,357,82.53a5,5,0,0,1,3.33-1.07,4.89,4.89,0,0,1,3.24,1,3.63,3.63,0,0,1,1.23,3v5.71a11.09,11.09,0,0,0,.07,1.23,6.29,6.29,0,0,0,.24,1.16Zm-3.58-1.59a3.85,3.85,0,0,0,2.11-.6A2.86,2.86,0,0,0,362.59,90V88h-2.42a3.15,3.15,0,0,0-2.09.66,2,2,0,0,0-.78,1.54,1.62,1.62,0,0,0,.49,1.25A2.07,2.07,0,0,0,359.25,91.94Z"/><path d="M371.67,90l.19.83h.07l.21-.83,2.73-8.36h2.2L372.7,93.53h-1.63l-4.42-11.85h2.21Z"/><path d="M383.78,93.76a5,5,0,0,1-3.94-1.65,6.21,6.21,0,0,1-1.46-4.28v-.48a6.08,6.08,0,0,1,1.51-4.21,4.64,4.64,0,0,1,3.57-1.68,4.49,4.49,0,0,1,3.63,1.45,5.77,5.77,0,0,1,1.23,3.86V88.1h-7.69l0,.05a4.66,4.66,0,0,0,.87,2.8,2.76,2.76,0,0,0,2.33,1.1,5.43,5.43,0,0,0,1.92-.31,4.41,4.41,0,0,0,1.43-.86l.84,1.4a5,5,0,0,1-1.68,1A6.74,6.74,0,0,1,383.78,93.76Zm-.33-10.61a2.34,2.34,0,0,0-1.85.91,4.31,4.31,0,0,0-.94,2.29l0,.05h5.47v-.28a3.29,3.29,0,0,0-.68-2.12A2.42,2.42,0,0,0,383.45,83.15Z"/><path d="M403.59,93.53c-.07-.36-.13-.67-.17-.95a6.7,6.7,0,0,1-.07-.83,5,5,0,0,1-1.57,1.43,4,4,0,0,1-2.09.58,3.88,3.88,0,0,1-2.82-.95,3.48,3.48,0,0,1-1-2.61,3.06,3.06,0,0,1,1.38-2.66,6.43,6.43,0,0,1,3.73-1h2.34V85.41a2.17,2.17,0,0,0-.64-1.65,2.5,2.5,0,0,0-1.8-.61,2.59,2.59,0,0,0-1.69.53,1.6,1.6,0,0,0-.65,1.28h-2.06l0-.07a2.87,2.87,0,0,1,1.22-2.37A5,5,0,0,1,401,81.45a4.89,4.89,0,0,1,3.24,1,3.63,3.63,0,0,1,1.23,3v5.71a11.09,11.09,0,0,0,.07,1.23,6.29,6.29,0,0,0,.24,1.16ZM400,91.94a3.85,3.85,0,0,0,2.11-.6A2.86,2.86,0,0,0,403.35,90V88h-2.42a3.15,3.15,0,0,0-2.09.66,2,2,0,0,0-.78,1.54,1.62,1.62,0,0,0,.49,1.25A2.07,2.07,0,0,0,400,91.94Z"/><path d="M411,93.53h-2.16V76.44H411Z"/><path d="M416.62,93.53h-2.16V76.44h2.16Z"/><path d="M425,87.82a7.78,7.78,0,0,1,1.25-4.61,4,4,0,0,1,3.45-1.75,4.17,4.17,0,0,1,2,.45,3.9,3.9,0,0,1,1.42,1.31l.26-1.54h1.72V93.59a4.52,4.52,0,0,1-1.33,3.5A5.45,5.45,0,0,1,430,98.31a8,8,0,0,1-1.85-.24,7.26,7.26,0,0,1-1.75-.64l.55-1.68a5.55,5.55,0,0,0,1.4.53,6.77,6.77,0,0,0,1.62.2,3.14,3.14,0,0,0,2.3-.72,3,3,0,0,0,.72-2.19V92.25a3.77,3.77,0,0,1-1.39,1.12,4.36,4.36,0,0,1-1.86.38,4.14,4.14,0,0,1-3.43-1.58A6.46,6.46,0,0,1,425,88Zm2.16.23a4.92,4.92,0,0,0,.76,2.87,2.62,2.62,0,0,0,2.3,1.08,2.85,2.85,0,0,0,1.63-.44A3.36,3.36,0,0,0,433,90.3V84.85a3.35,3.35,0,0,0-1.08-1.2,2.84,2.84,0,0,0-1.61-.44A2.51,2.51,0,0,0,428,84.5a6.43,6.43,0,0,0-.77,3.32Z"/><path d="M443.19,93.76a5,5,0,0,1-3.94-1.65,6.21,6.21,0,0,1-1.46-4.28v-.48a6.07,6.07,0,0,1,1.51-4.21,4.64,4.64,0,0,1,3.57-1.68,4.49,4.49,0,0,1,3.63,1.45,5.76,5.76,0,0,1,1.23,3.86V88.1H440l0,.05a4.67,4.67,0,0,0,.87,2.8,2.76,2.76,0,0,0,2.33,1.1,5.43,5.43,0,0,0,1.92-.31,4.43,4.43,0,0,0,1.43-.86l.84,1.4a5,5,0,0,1-1.68,1A6.73,6.73,0,0,1,443.19,93.76Zm-.33-10.61a2.34,2.34,0,0,0-1.85.91,4.31,4.31,0,0,0-.94,2.29l0,.05h5.47v-.28a3.29,3.29,0,0,0-.68-2.12A2.42,2.42,0,0,0,442.86,83.15Z"/><path d="M452.06,81.67l.15,1.76A4.31,4.31,0,0,1,453.7,82a4,4,0,0,1,2-.52,3.87,3.87,0,0,1,3,1.12A4.93,4.93,0,0,1,459.75,86v7.48h-2.16V86.09a3.21,3.21,0,0,0-.62-2.22,2.48,2.48,0,0,0-1.89-.66,3,3,0,0,0-1.65.45,3.27,3.27,0,0,0-1.14,1.23v8.64h-2.16V81.67Z"/><path d="M462.39,87.82a7.91,7.91,0,0,1,1.22-4.61A3.93,3.93,0,0,1,467,81.45a4.26,4.26,0,0,1,1.85.38A3.79,3.79,0,0,1,470.26,83V76.44h2.16V93.53h-1.76l-.25-1.46A3.85,3.85,0,0,1,469,93.33a4.28,4.28,0,0,1-2,.43,4.07,4.07,0,0,1-3.4-1.57A6.53,6.53,0,0,1,462.39,88Zm2.16.23a5,5,0,0,0,.73,2.88A2.56,2.56,0,0,0,467.56,92a2.86,2.86,0,0,0,1.62-.44,3.28,3.28,0,0,0,1.07-1.23V84.8a3.33,3.33,0,0,0-1.08-1.17,2.85,2.85,0,0,0-1.59-.43,2.47,2.47,0,0,0-2.29,1.28,6.61,6.61,0,0,0-.74,3.33Z"/><path d="M480.56,93.76a5,5,0,0,1-3.94-1.65,6.21,6.21,0,0,1-1.46-4.28v-.48a6.08,6.08,0,0,1,1.51-4.21,4.64,4.64,0,0,1,3.57-1.68,4.49,4.49,0,0,1,3.63,1.45,5.77,5.77,0,0,1,1.23,3.86V88.1h-7.69l0,.05a4.67,4.67,0,0,0,.87,2.8,2.76,2.76,0,0,0,2.33,1.1,5.43,5.43,0,0,0,1.92-.31,4.43,4.43,0,0,0,1.43-.86l.84,1.4a5,5,0,0,1-1.68,1A6.73,6.73,0,0,1,480.56,93.76Zm-.33-10.61a2.34,2.34,0,0,0-1.85.91,4.3,4.3,0,0,0-.94,2.29l0,.05h5.47v-.28a3.29,3.29,0,0,0-.68-2.12A2.42,2.42,0,0,0,480.23,83.15Z"/><path d="M493.11,83.58,492,83.51a2.47,2.47,0,0,0-1.44.41,2.6,2.6,0,0,0-.9,1.14v8.47H487.5V81.67h1.93l.21,1.73A4.11,4.11,0,0,1,490.88,82a2.9,2.9,0,0,1,1.7-.51,2.69,2.69,0,0,1,.46,0l.36.08Z"/><path d="M352.92,115a6.52,6.52,0,0,1-1.23,4.14,4.07,4.07,0,0,1-3.39,1.57,4.33,4.33,0,0,1-2-.46,3.78,3.78,0,0,1-1.43-1.34l-.26,1.57H342.8V103.36H345V110a3.75,3.75,0,0,1,1.39-1.21,4.25,4.25,0,0,1,1.93-.42,3.94,3.94,0,0,1,3.42,1.75,7.88,7.88,0,0,1,1.23,4.61Zm-2.16-.23a6.54,6.54,0,0,0-.75-3.32,2.47,2.47,0,0,0-2.28-1.29,2.82,2.82,0,0,0-1.68.49,3.44,3.44,0,0,0-1.09,1.31v5.14a3.54,3.54,0,0,0,1.09,1.37,2.81,2.81,0,0,0,1.7.49,2.57,2.57,0,0,0,2.27-1.08,5,5,0,0,0,.75-2.87Z"/><path d="M362.83,120.45c-.07-.36-.13-.67-.17-.95a6.7,6.7,0,0,1-.07-.83A5,5,0,0,1,361,120.1a4,4,0,0,1-2.09.58,3.88,3.88,0,0,1-2.82-.95,3.48,3.48,0,0,1-1-2.61,3.06,3.06,0,0,1,1.38-2.66,6.43,6.43,0,0,1,3.73-1h2.34v-1.17a2.17,2.17,0,0,0-.64-1.65,2.5,2.5,0,0,0-1.8-.61,2.59,2.59,0,0,0-1.69.53,1.6,1.6,0,0,0-.65,1.28h-2.06l0-.07a2.87,2.87,0,0,1,1.22-2.37,5,5,0,0,1,3.33-1.07,4.89,4.89,0,0,1,3.24,1,3.63,3.63,0,0,1,1.23,3v5.71a11.09,11.09,0,0,0,.07,1.23,6.29,6.29,0,0,0,.24,1.16Zm-3.58-1.59a3.85,3.85,0,0,0,2.11-.6,2.86,2.86,0,0,0,1.23-1.38V115h-2.42a3.15,3.15,0,0,0-2.09.66,2,2,0,0,0-.78,1.54,1.62,1.62,0,0,0,.49,1.25A2.07,2.07,0,0,0,359.25,118.86Z"/><path d="M370.73,105.74v2.86H373v1.6h-2.25v7.2a1.61,1.61,0,0,0,.34,1.17,1.25,1.25,0,0,0,.92.34,2.15,2.15,0,0,0,.41,0,2.41,2.41,0,0,0,.4-.11l.29,1.48a1.92,1.92,0,0,1-.71.32,3.62,3.62,0,0,1-.94.13,2.79,2.79,0,0,1-2.09-.79,3.45,3.45,0,0,1-.78-2.49v-7.2h-1.88v-1.6h1.88v-2.86Z"/><path d="M377.8,110.18a4.36,4.36,0,0,1,1.51-1.33,4.12,4.12,0,0,1,2-.48,3.83,3.83,0,0,1,3,1.14,5,5,0,0,1,1.06,3.51v7.43h-2.16V113a3.17,3.17,0,0,0-.63-2.17,2.4,2.4,0,0,0-1.88-.7,3.19,3.19,0,0,0-1.63.42,3.52,3.52,0,0,0-1.2,1.15v8.75h-2.16V103.36h2.16Z"/><path d="M394,110.5l-1.11-.07a2.47,2.47,0,0,0-1.44.41,2.6,2.6,0,0,0-.9,1.14v8.47h-2.16V108.59h1.93l.21,1.73a4.11,4.11,0,0,1,1.24-1.44,2.9,2.9,0,0,1,1.7-.51,2.67,2.67,0,0,1,.46,0l.36.08Z"/><path d="M395.36,114.41a6.53,6.53,0,0,1,1.42-4.33,5.28,5.28,0,0,1,7.76,0,6.51,6.51,0,0,1,1.43,4.34v.24a6.49,6.49,0,0,1-1.42,4.34,5.3,5.3,0,0,1-7.76,0,6.48,6.48,0,0,1-1.43-4.33Zm2.16.24a5.61,5.61,0,0,0,.79,3.11,2.87,2.87,0,0,0,4.71,0,5.58,5.58,0,0,0,.8-3.11v-.24a5.57,5.57,0,0,0-.8-3.1,2.64,2.64,0,0,0-2.36-1.24,2.6,2.6,0,0,0-2.34,1.24,5.62,5.62,0,0,0-.79,3.1Z"/><path d="M408.11,114.41a6.52,6.52,0,0,1,1.42-4.33,4.77,4.77,0,0,1,3.87-1.7,4.82,4.82,0,0,1,3.89,1.7,6.51,6.51,0,0,1,1.43,4.34v.24A6.49,6.49,0,0,1,417.3,119a5.3,5.3,0,0,1-7.76,0,6.48,6.48,0,0,1-1.43-4.33Zm2.16.24a5.6,5.6,0,0,0,.79,3.11,2.87,2.87,0,0,0,4.71,0,5.58,5.58,0,0,0,.8-3.11v-.24a5.56,5.56,0,0,0-.81-3.1,2.64,2.64,0,0,0-2.36-1.24,2.6,2.6,0,0,0-2.34,1.24,5.61,5.61,0,0,0-.79,3.1Z"/><path d="M423.29,108.59l.15,1.56a4,4,0,0,1,1.47-1.31,4.44,4.44,0,0,1,2.08-.46,3.66,3.66,0,0,1,2,.55,3.31,3.31,0,0,1,1.28,1.64,4.41,4.41,0,0,1,1.48-1.6,3.89,3.89,0,0,1,2.15-.59,3.54,3.54,0,0,1,2.86,1.24,5.68,5.68,0,0,1,1.05,3.74v7.09h-2.16v-7.11a3.93,3.93,0,0,0-.6-2.48,2.19,2.19,0,0,0-1.8-.73,2.28,2.28,0,0,0-1.79.77,3.33,3.33,0,0,0-.81,1.94v7.61h-2.17v-7.11a3.89,3.89,0,0,0-.62-2.44,2.15,2.15,0,0,0-1.78-.77,3,3,0,0,0-1.62.41,2.61,2.61,0,0,0-1,1.14v8.78h-2.16V108.59Z"/><path d="M447.87,117.29a1.47,1.47,0,0,0-.54-1.17,5.11,5.11,0,0,0-2.05-.8A8.64,8.64,0,0,1,442,114a2.58,2.58,0,0,1-1.09-2.19,3.1,3.1,0,0,1,1.23-2.46,5.59,5.59,0,0,1,6.49,0,3.14,3.14,0,0,1,1.17,2.58l0,.07h-2.06a1.89,1.89,0,0,0-.65-1.4,2.4,2.4,0,0,0-1.73-.62,2.49,2.49,0,0,0-1.71.5,1.58,1.58,0,0,0-.56,1.22,1.36,1.36,0,0,0,.49,1.11,5.11,5.11,0,0,0,2,.72,8.63,8.63,0,0,1,3.34,1.31,2.64,2.64,0,0,1,1.1,2.22,3.06,3.06,0,0,1-1.28,2.55,5.34,5.34,0,0,1-3.34,1,5.21,5.21,0,0,1-3.57-1.15,3.28,3.28,0,0,1-1.24-2.68l0-.07h2.06a2,2,0,0,0,.85,1.67,3.32,3.32,0,0,0,1.87.53,3.05,3.05,0,0,0,1.8-.47A1.44,1.44,0,0,0,447.87,117.29Z"/><path d="M455,116a6.4,6.4,0,0,1,.27-2.2,5.58,5.58,0,0,1,1.38-1.62,24.1,24.1,0,0,0,1.54-2,2.93,2.93,0,0,0,.46-1.67,2.43,2.43,0,0,0-.62-1.79,2.38,2.38,0,0,0-1.77-.62,2.69,2.69,0,0,0-1.7.54,1.89,1.89,0,0,0-.7,1.59h-2.06l0-.07a3.4,3.4,0,0,1,1.24-2.83,4.91,4.91,0,0,1,3.25-1.06,4.77,4.77,0,0,1,3.35,1.1,4,4,0,0,1,1.19,3.07,4.6,4.6,0,0,1-.77,2.58,14.4,14.4,0,0,1-2,2.4,2.58,2.58,0,0,0-.72,1.06,6.2,6.2,0,0,0-.13,1.47Zm2.23,4.49H455v-2.28h2.26Z"/></g></svg>