<svg xmlns="http://www.w3.org/2000/svg" viewBox="0 0 353.76 365.98"><defs><style>.cls-1{fill:#ffb1a4;}.cls-2{fill:#76ceff;}.cls-3{fill:#eb6e79;}.cls-4{fill:#ffcfc5;}</style></defs><title>logosvg</title><g id="Layer_2" data-name="Layer 2"><g id="Layer_1-2" data-name="Layer 1"><path class="cls-1" d="M107.13,95.5C48.19,99.27,3.45,149.89.16,210.21c-3.77,69.25,59.46,100.68,124.61,122.85,37.63,12.81,51,31.36,52.11,32.92V109.69C161,102.31,136.25,93.63,107.13,95.5Z"/><path class="cls-2" d="M353.76,17.46s-134.38-59.39-155,40.89C266.18,135.42,353.76,17.46,353.76,17.46Z"/><path class="cls-3" d="M184.21,114.8a7.33,7.33,0,0,1-7.33,7.33h0a7.33,7.33,0,0,1-7.33-7.33v-86a7.33,7.33,0,0,1,7.33-7.33h0a7.33,7.33,0,0,1,7.33,7.33v86Z"/><path class="cls-4" d="M353.6,210.21c-3.29-60.32-48.19-108.93-107-114.71-32.73-3.22-55.83,4.23-72.46,18.27C148.49,135.43,139,178.35,139,219.7,139,309.91,176.88,366,176.88,366c1.08-1.56,14.48-20.11,52.11-32.92C294.14,310.89,357.37,279.46,353.6,210.21Z"/></g></g></svg>